/* XPM */
static char * torch_animated_xpm[] = {
"256 69 73 1",
" 	c None",
".	c #130215",
"+	c #ED4C11",
"@	c #CC342E",
"#	c #FD5F0C",
"$	c #FF8000",
"%	c #FF8601",
"&	c #FF8801",
"*	c #FD7B02",
"=	c #FFCE38",
"-	c #FEF9ED",
";	c #FE8D00",
">	c #FF8300",
",	c #190018",
"'	c #EF4A17",
")	c #130217",
"!	c #C1987A",
"~	c #F4E3A2",
"{	c #F8F8DA",
"]	c #4D4358",
"^	c #5B1932",
"/	c #1E0417",
"(	c #C05539",
"_	c #6A2533",
":	c #66142F",
"<	c #7B2C37",
"[	c #CD5827",
"}	c #F9A93A",
"|	c #B85733",
"1	c #170416",
"2	c #F2B85D",
"3	c #DF9834",
"4	c #ECE3AD",
"5	c #D09E6F",
"6	c #5A4F5A",
"7	c #574B64",
"8	c #544F61",
"9	c #D39D78",
"0	c #584F62",
"a	c #433950",
"b	c #632034",
"c	c #3E081F",
"d	c #FAB831",
"e	c #B6552C",
"f	c #892E31",
"g	c #B1542B",
"h	c #621D33",
"i	c #3F0B20",
"j	c #D17724",
"k	c #B8542B",
"l	c #140115",
"m	c #F6B448",
"n	c #B34F2C",
"o	c #5F1A2D",
"p	c #6D2538",
"q	c #340922",
"r	c #5A172C",
"s	c #631D2A",
"t	c #C05C2D",
"u	c #3C061A",
"v	c #52192F",
"w	c #E4EBE9",
"x	c #FBFADD",
"y	c #EFD095",
"z	c #555168",
"A	c #4C475B",
"B	c #5A5765",
"C	c #F0D49D",
"D	c #CB9D78",
"E	c #C69475",
"F	c #4B4152",
"G	c #5F1F34",
"H	c #4F1932",
"                                                                                                                                                                                                                                                                ",
"                                                                                                                                                                                                                                                                ",
"                                                                                                                                                                                                                                                                ",
"                                                                                                                                                                                                                                                                ",
"                                                                                                                                                                                                                                                                ",
"                                                                                                                                                                                                                                                                ",
"                                                                                                                                                                                                                                                                ",
"                                                                                                                                                                                                                                                                ",
"                                                                                                                                                                                                                               .                                ",
"                                                                                                      +                                                                                                                     + .@                                ",
"                                     .                                                             .                                                                                                                          .@.                               ",
"                                     .                                                         #   @.                                                                                                                         .@.                               ",
"                                 $#  @.                                                       $   .@.                                                       +   +                                                      $     .@@.                               ",
"                                 .. .@.                                                           .+.                                                          .                                                       .     .@++.                              ",
"                                    .@.                                                     ..   .@+.                                                         ..                                                            .@+%@...  $+                        ",
"                               &.  .+@.                                                      #   .@.    $                                                +$   .@..                                                      $   .+%%%+@.  .$                        ",
"                               .. .@%@. *                                                     . ..+%.  $$                                                ..  .@@+.                                                      .  ..+%=%%@.  .                         ",
"                             .....@%+@. .                                                    ...@@%%+.                                                      ..@+%@..                                                      .@@%%-=%+@.                           ",
"                           ..@@@@+@%+..                                                    ...@@++%%@.  .                                                  .@++%%%%@. $                                                  ..+%%-==%+@. $+                        ",
"                          ..@@%=%=%%@. ;.                                                 .@@@+%%%=%+@.                                                    .@+%%%=%@. .                                                 .@@%==---=%@. ..$                       ",
"                          .@@%====%@.. ..                                                 .@+%=====++@.                                                 .$ .+=%==-%@.   $                                              .@+%==----=%+.  .                        ",
"                          .@%==-==+..                                                    ..%%==--==+@.  .                                               $ .@+-==--%+@. .+                                              .@+%=-----===@.                          ",
"                         ..%%==--%@%@.                                                   .%%==----=+@. ..                                                 .@+=----%%@.  $                                              .@+==------==@.                          ",
"                        .@%%==--%%%%@. >                                                .@%==-----=@.  $                                                  .+==----=%%@.                                                .@%=-------=%+@.                         ",
"                        .@%==--=%=%@.                                                   .@==----=%%@.                                                    .@+=-----=%+@.                                                .@%%------==%+@.                         ",
"                        .+==----===@. ,                                                 .+=----=%%%%@.                                                   .@%==-----=@...                                               .++%%=-----%++@.                         ",
"                        .+=-------=@.                                                   .+%-%----%=%@..                                                  .+%------=%@..                                                ..@+%%---=%++@..                         ",
"                        .+=-%=----%'@.                                                  .++=%=----=+@.                                                  .@+%-=---%+%@.                                                  ..@+%=--=%+@..                          ",
"                         .+=%==-=@+@.                                                    .+%%====-+@.                                                    .@+%==-%+@@.                                                    .@+=--=%%+@.                           ",
"                          .%%===@@..                                                      .+%===@@..                                                      .@++++@@..                                                      .+%==%+@..                            ",
"                          .........                                                       .........                                                       .........                                                       .........                             ",
"                        )!~{{{{{~~!)                                                    )!~{{{{{~~!)                                                    )!~{{{{{~~!)                                                    )!~{{{{{~~!)                            ",
"                        )]]!~{!!~]])                                                    )]]!~{!!~]])                                                    )]]!~{!!~]])                                                    )]]!~{!!~]])                            ",
"                         )))))))))))                                                     )))))))))))                                                     )))))))))))                                                     )))))))))))                            ",
"                         )^/(__(:/^)                                                     )^/(__(:/^)                                                     )^/(__(:/^)                                                     )^/(__(:/^)                            ",
"                         )<[}/|/}<^)                                                     )<[}/|/}<^)                                                     )<[}/|/}<^)                                                     )<[}/|/}<^)                            ",
"                         )))|}/|[)))                                                     )))|}/|[)))                                                     )))|}/|[)))                                                     )))|}/|[)))                            ",
"                          )^1^231^)                                                       )^1^231^)                                                       )^1^231^)                                                       )^1^231^)                             ",
"                           )))))))                                                         )))))))                                                         )))))))                                                         )))))))                              ",
"                           )45657)                                                         )45657)                                                         )45657)                                                         )45657)                              ",
"                           )8590a)                                                         )8590a)                                                         )8590a)                                                         )8590a)                              ",
"                            )))))                                                           )))))                                                           )))))                                                           )))))                               ",
"                            )bbc)                                                           )bbc)                                                           )bbc)                                                           )bbc)                               ",
"                            )def)                                                           )def)                                                           )def)                                                           )def)                               ",
"                            )ghi)                                                           )ghi)                                                           )ghi)                                                           )ghi)                               ",
"                            )jkl)                                                           )jkl)                                                           )jkl)                                                           )jkl)                               ",
"                            )mno)                                                           )mno)                                                           )mno)                                                           )mno)                               ",
"                            )pqr)                                                           )pqr)                                                           )pqr)                                                           )pqr)                               ",
"                            )stu)                                                           )stu)                                                           )stu)                                                           )stu)                               ",
"                            )stv)                                                           )stv)                                                           )stv)                                                           )stv)                               ",
"                           )wxyzA)                                                         )wxyzA)                                                         )wxyzA)                                                         )wxyzA)                              ",
"                           )BCDEF)                                                         )BCDEF)                                                         )BCDEF)                                                         )BCDEF)                              ",
"                           ))GGH))                                                         ))GGH))                                                         ))GGH))                                                         ))GGH))                              ",
"                            ))G))                                                           ))G))                                                           ))G))                                                           ))G))                               ",
"                             )))                                                             )))                                                             )))                                                             )))                                ",
"                                                                                                                                                                                                                                                                ",
"                                                                                                                                                                                                                                                                ",
"                                                                                                                                                                                                                                                                ",
"                                                                                                                                                                                                                                                                ",
"                                                                                                                                                                                                                                                                ",
"                                                                                                                                                                                                                                                                ",
"                                                                                                                                                                                                                                                                ",
"                                                                                                                                                                                                                                                                ",
"                                                                                                                                                                                                                                                                ",
"                                                                                                                                                                                                                                                                ",
"                                                                                                                                                                                                                                                                ",
"                                                                                                                                                                                                                                                                ",
"                                                                                                                                                                                                                                                                ",
"                                                                                                                                                                                                                                                                "};
