/* XPM */
static char * 1_xpm[] = {
"64 64 49 1",
" 	c None",
".	c #FFB62C",
"+	c #FFDC7A",
"@	c #FFE38B",
"#	c #FFD972",
"$	c #FFE390",
"%	c #FFEDA6",
"&	c #F69F21",
"*	c #FFECA3",
"=	c #FFD365",
"-	c #FFE593",
";	c #E4A852",
">	c #F5C04C",
",	c #FDDB7B",
"'	c #FFE18A",
")	c #FFC23A",
"!	c #FFEFA7",
"~	c #FDF9C2",
"{	c #FAF5C4",
"]	c #FDFACD",
"^	c #FEFBCE",
"/	c #FFE98E",
"(	c #FEBC6B",
"_	c #FFFFD4",
":	c #FFFFD1",
"<	c #FFFAC3",
"[	c #F3E49B",
"}	c #F8BE77",
"|	c #FFE592",
"1	c #FCB972",
"2	c #FFB260",
"3	c #FFDB8D",
"4	c #F9AB64",
"5	c #FFD750",
"6	c #FFD684",
"7	c #F6A760",
"8	c #FFBE43",
"9	c #FFE356",
"0	c #FFD079",
"a	c #E69550",
"b	c #DB6434",
"c	c #FDB865",
"d	c #D68B4B",
"e	c #BC7940",
"f	c #C07B42",
"g	c #FFB53D",
"h	c #FD9650",
"i	c #FFA400",
"j	c #FF7F00",
"                                                                ",
"                                                                ",
"                                                                ",
"                                                                ",
"                                                                ",
"                                                                ",
"                                                                ",
"                                                                ",
"                                                                ",
"                                                                ",
"                                                                ",
"                                                                ",
"                                                                ",
"                                                                ",
"                                                                ",
"                                                                ",
"                             .+@@+.                             ",
"                             #$%%$#                             ",
"                            &+@**@+&                            ",
"                            .$$%%$$.                            ",
"                           &=$$%%$$=&                           ",
"                           .#@-**%@#.                           ",
"                          ;>,'%*%%'+)&                          ",
"                         &!~{]^/(__:<!&                         ",
"                               [}                               ",
"                               |1                               ",
"                              2342                              ",
"                             25675&                             ",
"                            8590a92b                            ",
"                            859cd92b                            ",
"                            859ef92b                            ",
"                            85gadh2b                            ",
"                             &5ijhb                             ",
"                              bbbb                              ",
"                                                                ",
"                                                                ",
"                                                                ",
"                                                                ",
"                                                                ",
"                                                                ",
"                                                                ",
"                                                                ",
"                                                                ",
"                                                                ",
"                                                                ",
"                                                                ",
"                                                                ",
"                                                                ",
"                                                                ",
"                                                                ",
"                                                                ",
"                                                                ",
"                                                                ",
"                                                                ",
"                                                                ",
"                                                                ",
"                                                                ",
"                                                                ",
"                                                                ",
"                                                                ",
"                                                                ",
"                                                                ",
"                                                                ",
"                                                                "};
