/* XPM */
static char * 1wall_cyan1_lamp_xpm[] = {
"64 64 52 1",
" 	c None",
".	c #AB6540",
"+	c #7F4A2F",
"@	c #4A2E20",
"#	c #FFB62C",
"$	c #FFDC7A",
"%	c #FFE38B",
"&	c #FFD972",
"*	c #FFE390",
"=	c #FFEDA6",
"-	c #F69F21",
";	c #FFECA3",
">	c #FFD365",
",	c #FFE593",
"'	c #E4A852",
")	c #F5C04C",
"!	c #FDDB7B",
"~	c #FFE18A",
"{	c #FFC23A",
"]	c #FFEFA7",
"^	c #FDF9C2",
"/	c #FAF5C4",
"(	c #FDFACD",
"_	c #FEFBCE",
":	c #FFE98E",
"<	c #FEBC6B",
"[	c #FFFFD4",
"}	c #FFFFD1",
"|	c #FFFAC3",
"1	c #F3E49B",
"2	c #F8BE77",
"3	c #FFE592",
"4	c #FCB972",
"5	c #FFB260",
"6	c #FFDB8D",
"7	c #F9AB64",
"8	c #FFD750",
"9	c #FFD684",
"0	c #F6A760",
"a	c #FFBE43",
"b	c #FFE356",
"c	c #FFD079",
"d	c #E69550",
"e	c #DB6434",
"f	c #FDB865",
"g	c #D68B4B",
"h	c #BC7940",
"i	c #C07B42",
"j	c #FFB53D",
"k	c #FD9650",
"l	c #FFA400",
"m	c #FF7F00",
"                                                               .",
"                                                               +",
"                                                               @",
"                                                                ",
"                                                                ",
"                                                                ",
"                                                                ",
"                                                                ",
"                                                                ",
"                                                                ",
"                                                                ",
"                                                                ",
"                                                                ",
"                                                                ",
"                                                                ",
"                                                                ",
"                             #$%%$#                             ",
"                             &*==*&                             ",
"                            -$%;;%$-                            ",
"                            #**==**#                            ",
"                           ->**==**>-                           ",
"                           #&%,;;=%&#                           ",
"                          ')!~=;==~${-                          ",
"                         -]^/(_:<[[}|]-                         ",
"                               12                               ",
"                               34                               ",
"                              5675                              ",
"                             58908-                             ",
"                            a8bcdb5e                            ",
"                            a8bfgb5e                            ",
"                            a8bhib5e                            ",
"                            a8jdgk5e                            ",
"                             -8lmke                             ",
"                              eeee                              ",
"                                                                ",
"                                                                ",
"                                                                ",
"                                                                ",
"                                                                ",
"                                                                ",
"                                                                ",
"                                                                ",
"                                                                ",
"                                                                ",
"                                                                ",
"                                                                ",
"                                                                ",
"                                                                ",
"                                                                ",
"                                                                ",
"                                                                ",
"                                                                ",
"                                                                ",
"                                                                ",
"                                                                ",
"                                                                ",
"                                                                ",
"                                                                ",
"                                                                ",
"                                                                ",
"                                                                ",
"                                                                ",
"                                                                ",
"                                                                "};
