/* XPM */
static char * bust_stalin_xpm[] = {
"64 64 185 2",
"  	c None",
". 	c #DCDCDC",
"+ 	c #D3D3D3",
"@ 	c #DDDDDD",
"# 	c #C9C9C9",
"$ 	c #DEDEDE",
"% 	c #A3A3A3",
"& 	c #CACACA",
"* 	c #C7C7C7",
"= 	c #F0F0F0",
"- 	c #CCCCCC",
"; 	c #DADADA",
"> 	c #979797",
", 	c #C2C2C2",
"' 	c #717171",
") 	c #B2B2B2",
"! 	c #7E7E7E",
"~ 	c #EAEAEA",
"{ 	c #D2D2D2",
"] 	c #E1E1E1",
"^ 	c #B5B5B5",
"/ 	c #838383",
"( 	c #AFAFAF",
"_ 	c #737373",
": 	c #9C9C9C",
"< 	c #606060",
"[ 	c #9D9D9D",
"} 	c #D6D6D6",
"| 	c #F5F5F5",
"1 	c #C4C4C4",
"2 	c #E6E6E6",
"3 	c #B6B6B6",
"4 	c #BABABA",
"5 	c #8B8B8B",
"6 	c #999999",
"7 	c #7C7C7C",
"8 	c #868686",
"9 	c #E4E4E4",
"0 	c #F3F3F3",
"a 	c #FCFCFC",
"b 	c #F2F2F2",
"c 	c #C0C0C0",
"d 	c #777777",
"e 	c #676767",
"f 	c #7F7F7F",
"g 	c #CFCFCF",
"h 	c #E0E0E0",
"i 	c #FAFAFA",
"j 	c #EFEFEF",
"k 	c #E9E9E9",
"l 	c #CBCBCB",
"m 	c #BFBFBF",
"n 	c #707070",
"o 	c #C1C1C1",
"p 	c #9A9A9A",
"q 	c #969696",
"r 	c #8C8C8C",
"s 	c #686868",
"t 	c #888888",
"u 	c #A4A4A4",
"v 	c #B4B4B4",
"w 	c #8A8A8A",
"x 	c #BDBDBD",
"y 	c #D4D4D4",
"z 	c #767676",
"A 	c #6F6F6F",
"B 	c #5E5E5E",
"C 	c #F4F4F4",
"D 	c #A8A8A8",
"E 	c #D7D7D7",
"F 	c #666666",
"G 	c #B1B1B1",
"H 	c #5B5B5B",
"I 	c #939393",
"J 	c #F9F9F9",
"K 	c #CECECE",
"L 	c #C3C3C3",
"M 	c #B9B9B9",
"N 	c #8F8F8F",
"O 	c #B3B3B3",
"P 	c #F8F8F8",
"Q 	c #EEEEEE",
"R 	c #B8B8B8",
"S 	c #C6C6C6",
"T 	c #7B7B7B",
"U 	c #787878",
"V 	c #949494",
"W 	c #929292",
"X 	c #565656",
"Y 	c #636363",
"Z 	c #C5C5C5",
"` 	c #DFDFDF",
" .	c #E7E7E7",
"..	c #808080",
"+.	c #6D6D6D",
"@.	c #575757",
"#.	c #616161",
"$.	c #4A4A4A",
"%.	c #626262",
"&.	c #909090",
"*.	c #747474",
"=.	c #585858",
"-.	c #E2E2E2",
";.	c #6A6A6A",
">.	c #696969",
",.	c #373737",
"'.	c #3C3C3C",
").	c #CDCDCD",
"!.	c #B7B7B7",
"~.	c #9E9E9E",
"{.	c #9F9F9F",
"].	c #6C6C6C",
"^.	c #D9D9D9",
"/.	c #E5E5E5",
"(.	c #A0A0A0",
"_.	c #8E8E8E",
":.	c #AEAEAE",
"<.	c #FDFDFD",
"[.	c #A2A2A2",
"}.	c #818181",
"|.	c #A6A6A6",
"1.	c #BBBBBB",
"2.	c #DBDBDB",
"3.	c #EDEDED",
"4.	c #E8E8E8",
"5.	c #A1A1A1",
"6.	c #555555",
"7.	c #959595",
"8.	c #C8C8C8",
"9.	c #D5D5D5",
"0.	c #989898",
"a.	c #858585",
"b.	c #ABABAB",
"c.	c #404040",
"d.	c #ADADAD",
"e.	c #9B9B9B",
"f.	c #BEBEBE",
"g.	c #656565",
"h.	c #757575",
"i.	c #4B4B4B",
"j.	c #1F1F1F",
"k.	c #323232",
"l.	c #B0B0B0",
"m.	c #D1D1D1",
"n.	c #A9A9A9",
"o.	c #878787",
"p.	c #5F5F5F",
"q.	c #797979",
"r.	c #353535",
"s.	c #D8D8D8",
"t.	c #A7A7A7",
"u.	c #2E2E2E",
"v.	c #BCBCBC",
"w.	c #919191",
"x.	c #7D7D7D",
"y.	c #595959",
"z.	c #4F4F4F",
"A.	c #3F3F3F",
"B.	c #828282",
"C.	c #ACACAC",
"D.	c #727272",
"E.	c #545454",
"F.	c #3E3E3E",
"G.	c #A5A5A5",
"H.	c #898989",
"I.	c #8D8D8D",
"J.	c #848484",
"K.	c #2D2D2D",
"L.	c #434343",
"M.	c #525252",
"N.	c #474747",
"O.	c #3B3B3B",
"P.	c #5D5D5D",
"Q.	c #6E6E6E",
"R.	c #646464",
"S.	c #464646",
"T.	c #5C5C5C",
"U.	c #4E4E4E",
"V.	c #ECECEC",
"W.	c #202020",
"X.	c #2C2C2C",
"Y.	c #D0D0D0",
"Z.	c #383838",
"`.	c #484848",
" +	c #E3E3E3",
"                                                                                                                                ",
"                                                                                                                                ",
"                                                                                                                                ",
"                                                                                                                                ",
"                                                                                                                                ",
"                                                                                                                                ",
"                                                          . + @ # $ % &                                                         ",
"                                                        * = - ; > , ' ) !                                                       ",
"                                                      ~ { ] ^ * / ( _ : < [                                                     ",
"                                                    } | 1 2 3 1 % 4 5 6 7 8 !                                                   ",
"                                                    9 0 2 a b @ } * c ( d e f                                                   ",
"                                                    g h i i j k 9 } l m 5 n !                                                   ",
"                                                    o $ p ) c 9 h & q n r s t                                                   ",
"                                                    l u v w / x y z ' w A B f                                                   ",
"                                                    c C 4 h ] D E F ) G H F I                                                   ",
"                                                    J 9 9 K L M { w > N D d O                                                   ",
"                                                    P @ Q 2 { R S t T , : U :                                                   ",
"                                                    2 $ k . - V W X Y 3 W 7 8                                                   ",
"                                                    Z `  .* ..+.@.#.$.%.&.*.=.                                                  ",
"                                                      . -.7 U A ;.>.,.'.A >.                                                    ",
"                                                      E + ).h !.3 ~.{...].H                                                     ",
"                                                        1 y ^. ./.. 3 ;.#.                                                      ",
"                                                      (._.:.l { - c > %.].r                                                     ",
"                                              a a <.K 4 q [.:.[ u w N }.s T |.1.).                                              ",
"                                          <.<.<.o 2.k | b > v 3.4.).5.U }.l _ 6.7.3 c                                           ",
"                                        a a ^.8.t I 9.# 3.y 0.R ^.t a.0.K 8.b.e c.$.: d.                                        ",
"                                        1 !.e.0., - i - !.| [.6 > 3 ) y a.5 f.g.h.i.j.k.                                        ",
"                                        r / l.m.Q + f.i v C u 3 : n.2.o.V S p.q.h.' s r.                                        ",
"                                        g.|.s.s.` h |.J l.!.e.Q ~ q 5.% & p.n O t.{.B u.                                        ",
"                                          ( v., ).# L q ] _.W o.z b.w.1.#.x.f y.z.A.$.                                          ",
"                                          B.D 3 v.m 1.0._ D ~.1.x C.u ].7 w.d D.1 E.F.                                          ",
"                                            8 |.t.t.l.G.C.) 7.M f.) G.e.W r D ).l L ].                                          ",
"                                            %.5 W I 5.~.(.b.H.= 4.D [.I I.J.=.K.* L.                                            ",
"                                              y.*.o.o.I.W [.d M.N.7.W r f x.].& O.)                                             ",
"                                                P.A Q.x.J.> #.d U / 8 z R.e S.j.                                                ",
"                                                  T.H F F *.U.R.Y #.< =.M.E.A.                                                  ",
"                                                    % t.~.5.{.p p {.5.~.t.'                                                     ",
"                                                    . E s.+ m.K K * # 4 M B.                                                    ",
"                                                    ] g g g ).f.f.M G G 1.o.                                                    ",
"                                                { V.).t.t.G.|.[.[.|.G.t.t.x.{.o.                                                ",
"                                              V.a a a a a a a a a V.] - K , 8.+.W.                                              ",
"                                              a V.a V.. . l c v D 0.r 7 n E.c.W.W.                                              ",
"                                                V.a V.h . + + c v D n r 7 E.X.W.                                                ",
"                                                V.a a a a a . Y.c v 0.7 R.R.Z.W.                                                ",
"                                                  V.V.V.. Y.c v D 0.7 R.E.c.W.                                                  ",
"                                                  V.V.Y.Y.Y.c D D 0.7 R.`.c.W.                                                  ",
"                                                    a V.. . Y.c v D r R.c.Z.                                                    ",
"                                                    a a V.a 8.v 0.n R.c.X.W.                                                    ",
"                                                    a . a . K v r 7 R.`.Z.W.                                                    ",
"                                                    a a V.. c . 0.7 E.c.X.W.                                                    ",
"                                                    a a V.. 8.v 0.0.R.c.X.W.                                                    ",
"                                                    a a V.. 8.v 0.7 E.c.X.W.                                                    ",
"                                                    a a V.. 8.0.0.7 n c.X.W.                                                    ",
"                                                    a a V.. !.. 0.7 R.E.X.W.                                                    ",
"                                                    V.a Y.a 8.v 0.7 R.c.X.W.                                                    ",
"                                                    a a V.. 8.v v 7 R.c.X.X.                                                    ",
"                                                    a a V.. 8.v 0.7 R.c.Z.X.                                                    ",
"                                                  V.a = a a . Y.c D r R.c.Z.X.                                                  ",
"                                                V.V.V.V.h . Y.c v D r R.`.c.W.W.                                                ",
"                                              V.a V.V. +. Y.c v D 0.7 n R.c.W.W.X.                                              ",
"                                              a a a a /.. Y.c v D 0.7 n R.R.c.Z.X.                                              ",
"                                              a a V.V.a a a . Y.c v 0.r R.E.c.Z.Z.                                              ",
"                                                D Y.. Y.Y.c c v D 0.r 7 R.E.E.E.                                                ",
"                                                      D D D r r r r n n n                                                       "};
