/* XPM */
static char * bust_hitler_xpm[] = {
"64 64 181 2",
"  	c None",
". 	c #CFCFCF",
"+ 	c #D6D6D6",
"@ 	c #BDBDBD",
"# 	c #9C9C9C",
"$ 	c #BCBCBC",
"% 	c #B5B5B5",
"& 	c #ADADAD",
"* 	c #C7C7C7",
"= 	c #DCDCDC",
"- 	c #D9D9D9",
"; 	c #B0B0B0",
"> 	c #959595",
", 	c #D7D7D7",
"' 	c #E9E9E9",
") 	c #EBEBEB",
"! 	c #B3B3B3",
"~ 	c #BFBFBF",
"{ 	c #E6E6E6",
"] 	c #ACACAC",
"^ 	c #A8A8A8",
"/ 	c #858585",
"( 	c #8D8D8D",
"_ 	c #7F7F7F",
": 	c #6E6E6E",
"< 	c #757575",
"[ 	c #B7B7B7",
"} 	c #8B8B8B",
"| 	c #A2A2A2",
"1 	c #BABABA",
"2 	c #AAAAAA",
"3 	c #A5A5A5",
"4 	c #737373",
"5 	c #575757",
"6 	c #B2B2B2",
"7 	c #B6B6B6",
"8 	c #888888",
"9 	c #C5C5C5",
"0 	c #E0E0E0",
"a 	c #DEDEDE",
"b 	c #CACACA",
"c 	c #CCCCCC",
"d 	c #AFAFAF",
"e 	c #949494",
"f 	c #717171",
"g 	c #E3E3E3",
"h 	c #FFFFFF",
"i 	c #EEEEEE",
"j 	c #DBDBDB",
"k 	c #797979",
"l 	c #616161",
"m 	c #C2C2C2",
"n 	c #696969",
"o 	c #808080",
"p 	c #707070",
"q 	c #F5F5F5",
"r 	c #E8E8E8",
"s 	c #919191",
"t 	c #3B3B3B",
"u 	c #5B5B5B",
"v 	c #5D5D5D",
"w 	c #898989",
"x 	c #595959",
"y 	c #4E4E4E",
"z 	c #646464",
"A 	c #3F3F3F",
"B 	c #A0A0A0",
"C 	c #9B9B9B",
"D 	c #A6A6A6",
"E 	c #6F6F6F",
"F 	c #909090",
"G 	c #585858",
"H 	c #979797",
"I 	c #939393",
"J 	c #8A8A8A",
"K 	c #747474",
"L 	c #969696",
"M 	c #999999",
"N 	c #D0D0D0",
"O 	c #C8C8C8",
"P 	c #878787",
"Q 	c #6A6A6A",
"R 	c #7D7D7D",
"S 	c #D1D1D1",
"T 	c #B4B4B4",
"U 	c #767676",
"V 	c #C3C3C3",
"W 	c #474747",
"X 	c #777777",
"Y 	c #5F5F5F",
"Z 	c #656565",
"` 	c #4A4A4A",
" .	c #9A9A9A",
"..	c #A9A9A9",
"+.	c #494949",
"@.	c #2D2D2D",
"#.	c #848484",
"$.	c #9F9F9F",
"%.	c #F0F0F0",
"&.	c #9E9E9E",
"*.	c #515151",
"=.	c #B9B9B9",
"-.	c #A4A4A4",
";.	c #E4E4E4",
">.	c #9D9D9D",
",.	c #AEAEAE",
"'.	c #CDCDCD",
").	c #C4C4C4",
"!.	c #989898",
"~.	c #8E8E8E",
"{.	c #E2E2E2",
"].	c #DFDFDF",
"^.	c #DADADA",
"/.	c #EAEAEA",
"(.	c #A1A1A1",
"_.	c #D8D8D8",
":.	c #D3D3D3",
"<.	c #626262",
"[.	c #868686",
"}.	c #EDEDED",
"|.	c #606060",
"1.	c #D2D2D2",
"2.	c #565656",
"3.	c #818181",
"4.	c #E5E5E5",
"5.	c #ABABAB",
"6.	c #727272",
"7.	c #7B7B7B",
"8.	c #1B1B1B",
"9.	c #242424",
"0.	c #525252",
"a.	c #444444",
"b.	c #676767",
"c.	c #636363",
"d.	c #353535",
"e.	c #292929",
"f.	c #383838",
"g.	c #929292",
"h.	c #FAFAFA",
"i.	c #4D4D4D",
"j.	c #2F2F2F",
"k.	c #232323",
"l.	c #3E3E3E",
"m.	c #6C6C6C",
"n.	c #5E5E5E",
"o.	c #2B2B2B",
"p.	c #464646",
"q.	c #282828",
"r.	c #686868",
"s.	c #8C8C8C",
"t.	c #5A5A5A",
"u.	c #4B4B4B",
"v.	c #4F4F4F",
"w.	c #404040",
"x.	c #2E2E2E",
"y.	c #7C7C7C",
"z.	c #545454",
"A.	c #0D0D0D",
"B.	c #343434",
"C.	c #3D3D3D",
"D.	c #3A3A3A",
"E.	c #5C5C5C",
"F.	c #505050",
"G.	c #555555",
"H.	c #313131",
"I.	c #272727",
"J.	c #212121",
"K.	c #B1B1B1",
"L.	c #484848",
"M.	c #7E7E7E",
"N.	c #E1E1E1",
"O.	c #C1C1C1",
"P.	c #ECECEC",
"Q.	c #C0C0C0",
"R.	c #FCFCFC",
"S.	c #CECECE",
"T.	c #BBBBBB",
"U.	c #6D6D6D",
"V.	c #202020",
"W.	c #CBCBCB",
"X.	c #2C2C2C",
"                                                                                                                                ",
"                                                                                                                                ",
"                                                                                                                                ",
"                                                                                                                                ",
"                                                                                                                                ",
"                                                                                                                                ",
"                                                            . + @ #                                                             ",
"                                                        $ % & * = - ; >                                                         ",
"                                                      , + = ' ) ! ~ ) { ]                                                       ",
"                                                    ^ / ( _ : < { ) [ % + }                                                     ",
"                                                    ^ | 1 1 2 3 4 5 , - 6 *                                                     ",
"                                                  7 8 9 = 0 a a b 3 4 5 c d e                                                   ",
"                                                  & f = g h i a j 9 d k l m n                                                   ",
"                                                  o p b = q q r 0 = + s n t u                                                   ",
"                                                  v w ( x x y z : y x x 4 A B                                                   ",
"                                                  9 B 4 ( @ C D E F d ( G : %                                                   ",
"                                                  ] B ; 3 H I 6 k I 8 J I K L                                                   ",
"                                                  M B N + + O N P 3 7 7 L Q R                                                   ",
"                                                    2 + S O [ a B L T 3 | U                                                     ",
"                                                    8 6 O [ V z W E M M _ G                                                     ",
"                                                      e [ V X Y Z ` 3  .n                                                       ",
"                                                      8 2 ..+.@.@.A 8 #.n                                                       ",
"                                                      : $.% S %.%.* &.4 *.                                                      ",
"                                                        J &.=.& ; H K l -.j                                                     ",
"                                                      ;.N >.,.'.'.7 X -.b [ j                                                   ",
"                                                  ;.;.@ ).V # !.2 ~.-.b {.+ ! ].^.                                              ",
"                                              ;.{.9 /.F * (.j ' j 7 b i ;.r . / 6 _.6                                           ",
"                                          j j :.:.;.7 <.(.[.7 '.; | }.i i ,.w |.} ] 4 } 4                                       ",
"                                        j :.1.9 ;.~ J 2.} 3.7 6 e 4.b . 5.w Y 6.7.[.4 8.9.                                      ",
"                                          =.c = =.2 4 0.:  .7 (.4.d | J P a.b.c.4 v d.e.f.                                      ",
"                                          3.6  .6 -.+.b.u w g.h.6 } E f i.j.2.v *.d.k.l.d.                                      ",
"                                            } m.} >.t G K 3.b (.E |.n.|.o.0.p.p.d.k.f.f.                                        ",
"                                            G G m.} q.5 r.6 s.n.t.u.W j.k.v.w.d.k.f.d.                                          ",
"                                              t G m.x.m.} y.z z.G i.` A.B.C.k.k.l.d.                                            ",
"                                                t G D.E.5 F.G.t f.H.H.I.J.o.f.w.d.                                              ",
"                                                  t e P 8 / / / [.#.#.} G ` t d.                                                ",
"                                                    [ K.^ 5...-.-.| | d U |.L.                                                  ",
"                                                    1.V ).~ @ 1 1 ! ! m M.E *.                                                  ",
"                                                    N.. . . '.O O O.O.. #.E *.                                                  ",
"                                                1.P., 9 9 V ).Q.Q.$ $ * #.E *...P                                               ",
"                                              P.R.R.R.R.R.R.R.R.R.P.N.c S.T.m O U.V.                                            ",
"                                              R.P.R.P.= = W.Q.T ^ !.s.y.p z z.w.V.V.                                            ",
"                                                P.R.P.0 = :.:.Q.T ^ p s.y.L.z.X.V.                                              ",
"                                                P.R.R.R.R.R.= N Q.T !.s.y.z z f.V.                                              ",
"                                                  P.P.P.= N Q.T ^ !.y.p z z.w.V.                                                ",
"                                                  P.P.N N N Q.^ ^ !.y.p z L.w.V.                                                ",
"                                                    R.P.= = N Q.T ^ s.p z w.f.                                                  ",
"                                                    R.R.P.R.O T !.p z L.w.X.V.                                                  ",
"                                                    R.= R.= S.T s.y.z w.L.f.V.                                                  ",
"                                                    R.R.P.= Q.= !.y.z.L.w.X.V.                                                  ",
"                                                    R.R.P.= O T !.!.z z.w.X.V.                                                  ",
"                                                    R.R.P.= O T !.y.z.L.w.X.V.                                                  ",
"                                                    R.R.P.= O !.!.y.p L.w.X.V.                                                  ",
"                                                    R.R.P.= [ = !.y.z w.z.X.V.                                                  ",
"                                                    P.R.N R.O T !.y.z z.w.X.V.                                                  ",
"                                                    R.R.P.= O T T y.z L.w.X.X.                                                  ",
"                                                    R.R.P.= O T !.y.z L.w.f.X.                                                  ",
"                                                  P.R.%.R.R.= N Q.^ s.p z w.f.X.                                                ",
"                                                P.P.P.P.0 = N Q.T ^ s.p z L.w.V.V.                                              ",
"                                              P.R.P.P.g = N Q.T ^ !.y.p z z.w.V.V.X.                                            ",
"                                              R.R.R.R.4.= N Q.T ^ !.y.p z z z w.f.X.                                            ",
"                                              R.R.P.P.R.R.R.= N Q.T !.s.y.z z.w.f.f.                                            ",
"                                                ^ N = N N Q.Q.T ^ !.s.y.p z z.z.z.                                              ",
"                                                      ^ ^ ^ s.s.s.s.p p p z.                                                    "};
