/* XPM */
static char * bust_lenin_xpm[] = {
"64 64 182 2",
"  	c None",
". 	c #E5E5E5",
"+ 	c #D1D1D1",
"@ 	c #C3C3C3",
"# 	c #ADADAD",
"$ 	c #A1A1A1",
"% 	c #868686",
"& 	c #5E5E5E",
"* 	c #FFFFFF",
"= 	c #C7C7C7",
"- 	c #B0B0B0",
"; 	c #BDBDBD",
"> 	c #C8C8C8",
", 	c #CCCCCC",
"' 	c #ACACAC",
") 	c #6F6F6F",
"! 	c #303030",
"~ 	c #D7D7D7",
"{ 	c #D4D4D4",
"] 	c #FEFEFE",
"^ 	c #F7F7F7",
"/ 	c #F5F5F5",
"( 	c #E9E9E9",
"_ 	c #DCDCDC",
": 	c #A9A9A9",
"< 	c #6E6E6E",
"[ 	c #ECECEC",
"} 	c #FAFAFA",
"| 	c #DDDDDD",
"1 	c #CECECE",
"2 	c #BBBBBB",
"3 	c #777777",
"4 	c #606060",
"5 	c #B8B8B8",
"6 	c #FCFCFC",
"7 	c #E2E2E2",
"8 	c #D2D2D2",
"9 	c #B7B7B7",
"0 	c #7E7E7E",
"a 	c #666666",
"b 	c #C0C0C0",
"c 	c #F4F4F4",
"d 	c #DBDBDB",
"e 	c #5C5C5C",
"f 	c #B9B9B9",
"g 	c #B6B6B6",
"h 	c #B1B1B1",
"i 	c #787878",
"j 	c #797979",
"k 	c #BFBFBF",
"l 	c #C2C2C2",
"m 	c #828282",
"n 	c #474747",
"o 	c #454545",
"p 	c #3F3F3F",
"q 	c #595959",
"r 	c #A3A3A3",
"s 	c #898989",
"t 	c #AEAEAE",
"u 	c #737373",
"v 	c #555555",
"w 	c #494949",
"x 	c #9B9B9B",
"y 	c #CFCFCF",
"z 	c #C4C4C4",
"A 	c #AAAAAA",
"B 	c #D3D3D3",
"C 	c #8D8D8D",
"D 	c #525252",
"E 	c #4E4E4E",
"F 	c #CACACA",
"G 	c #D6D6D6",
"H 	c #E0E0E0",
"I 	c #F9F9F9",
"J 	c #EEEEEE",
"K 	c #DEDEDE",
"L 	c #9F9F9F",
"M 	c #4F4F4F",
"N 	c #696969",
"O 	c #5A5A5A",
"P 	c #E7E7E7",
"Q 	c #D0D0D0",
"R 	c #535353",
"S 	c #575757",
"T 	c #6A6A6A",
"U 	c #7C7C7C",
"V 	c #A5A5A5",
"W 	c #E3E3E3",
"X 	c #BCBCBC",
"Y 	c #717171",
"Z 	c #4A4A4A",
"` 	c #434343",
" .	c #373737",
"..	c #A7A7A7",
"+.	c #C1C1C1",
"@.	c #8A8A8A",
"#.	c #414141",
"$.	c #6B6B6B",
"%.	c #3B3B3B",
"&.	c #A0A0A0",
"*.	c #424242",
"=.	c #6D6D6D",
"-.	c #C5C5C5",
";.	c #4D4D4D",
">.	c #343434",
",.	c #3D3D3D",
"'.	c #989898",
").	c #999999",
"!.	c #3C3C3C",
"~.	c #B3B3B3",
"{.	c #878787",
"].	c #5F5F5F",
"^.	c #484848",
"/.	c #CBCBCB",
"(.	c #DADADA",
"_.	c #959595",
":.	c #7A7A7A",
"<.	c #505050",
"[.	c #515151",
"}.	c #848484",
"|.	c #8E8E8E",
"1.	c #8B8B8B",
"2.	c #383838",
"3.	c #A4A4A4",
"4.	c #757575",
"5.	c #FBFBFB",
"6.	c #FDFDFD",
"7.	c #888888",
"8.	c #C9C9C9",
"9.	c #3A3A3A",
"0.	c #929292",
"a.	c #CDCDCD",
"b.	c #B2B2B2",
"c.	c #7D7D7D",
"d.	c #D9D9D9",
"e.	c #EBEBEB",
"f.	c #D5D5D5",
"g.	c #C6C6C6",
"h.	c #9A9A9A",
"i.	c #444444",
"j.	c #A2A2A2",
"k.	c #626262",
"l.	c #B5B5B5",
"m.	c #7F7F7F",
"n.	c #5D5D5D",
"o.	c #ABABAB",
"p.	c #B4B4B4",
"q.	c #BEBEBE",
"r.	c #8F8F8F",
"s.	c #4B4B4B",
"t.	c #646464",
"u.	c #676767",
"v.	c #838383",
"w.	c #9D9D9D",
"x.	c #939393",
"y.	c #565656",
"z.	c #818181",
"A.	c #585858",
"B.	c #808080",
"C.	c #949494",
"D.	c #919191",
"E.	c #858585",
"F.	c #727272",
"G.	c #545454",
"H.	c #747474",
"I.	c #3E3E3E",
"J.	c #616161",
"K.	c #686868",
"L.	c #464646",
"M.	c #333333",
"N.	c #9E9E9E",
"O.	c #D8D8D8",
"P.	c #BABABA",
"Q.	c #E1E1E1",
"R.	c #A6A6A6",
"S.	c #202020",
"T.	c #A8A8A8",
"U.	c #8C8C8C",
"V.	c #707070",
"W.	c #404040",
"X.	c #2C2C2C",
"Y.	c #F0F0F0",
"                                                                                                                                ",
"                                                                                                                                ",
"                                                                                                                                ",
"                                                                                                                                ",
"                                                                                                                                ",
"                                                                                                                                ",
"                                                        . + @ # $ $ % &                                                         ",
"                                                      * = - ; > , > ' ) !                                                       ",
"                                                    * ~ { ] ^ / ( _ > : < !                                                     ",
"                                                  { [ + ] ] } / . | 1 2 3 4 !                                                   ",
"                                                  > 5 ] * * 6 ^ ( 7 8 9 0 a !                                                   ",
"                                                  b - ] 6 c [ _ d ~ , # ) e !                                                   ",
"                                                  f g c h i j j k l m n o p q                                                   ",
"                                                  h > r s t t r + $ u j j v w                                                   ",
"                                                { x y z A i j 9 B C D ! ! e E e                                                 ",
"                                                > F G H H I J @ K L M > ; N w O                                                 ",
"                                                @ - H 6 J P Q @ { L R S T U o v                                                 ",
"                                                @ V G W 6 H G X ~ b Y Z U N M                                                   ",
"                                                  > - G W ( > , v ) ` v T w  .                                                  ",
"                                                    ..G G K +.@.E < #.$.q %.                                                    ",
"                                                    &.@ y f *.=.g -.g ;.>.,.                                                    ",
"                                                      : = , > - '.).0 & !.                                                      ",
"                                                        b 1 ~.{.].S ^.e !                                                       ",
"                                                  /.' (._.- :.T <.[. .].x }.                                                    ",
"                                              ( G ..Q . ~ |.1.& w 2.! 3.-.4.: ~.                                                ",
"                                          5.6.| H 7.+.8 K 8.m @.9.` 0.9 a.].a.b.c.a                                             ",
"                                        k d.e.H f.m : g.8 /.h.< 3 A g ; f i.@ j.m & k.                                          ",
"                                        _.l.W f.z {...g.l 5 m.s n.: l b '.q : 0.$.R ^.                                          ",
"                                          o.= -.; _.$.z p.V ) 1.#.).q.~.q 1.r.0 $.R %.                                          ",
"                                          u ).t h r S $ j.0 s.L a 0.2 i t.:.:.u.R n                                             ",
"                                            v.w.x.# y.C C ) z.j.1.T :.O 3 }.u.A.o %.                                            ",
"                                            A.B.C.).) q D.4.C ~.|.[.N >.0 Y ].w %.                                              ",
"                                              & B.E.j [.< Y A b.F.n n z.m.$.E >.                                                ",
"                                                O j Y i [.[.r.w.G.` A.H.Y & #.                                                  ",
"                                                  y.& T H.I.=.J.%.I.e K.a ;.                                                    ",
"                                                    o L.^.i.%.M.M.M.M E Z %.                                                    ",
"                                                    r ..N.$ L h.h.L $ N...Y                                                     ",
"                                                    _ ~ O.B + 1 1 = 8.P.f m                                                     ",
"                                                    Q.y y y a.q.q.f h h 2 {.                                                    ",
"                                                8 [ a.....V R.j.j.R.V ....c.L {.                                                ",
"                                              [ 6 6 6 6 6 6 6 6 6 [ Q., 1 l > =.S.                                              ",
"                                              6 [ 6 [ _ _ /.b p.T.'.U.U V.G.W.S.S.                                              ",
"                                                [ 6 [ H _ B B b p.T.V.U.U G.X.S.                                                ",
"                                                [ 6 6 6 6 6 _ Q b p.'.U t.t.2.S.                                                ",
"                                                  [ [ [ _ Q b p.T.'.U t.G.W.S.                                                  ",
"                                                  [ [ Q Q Q b T.T.'.U t.^.W.S.                                                  ",
"                                                    6 [ _ _ Q b p.T.U.t.W.2.                                                    ",
"                                                    6 6 [ 6 > p.'.V.t.W.X.S.                                                    ",
"                                                    6 _ 6 _ 1 p.U.U t.^.2.S.                                                    ",
"                                                    6 6 [ _ b _ '.U G.W.X.S.                                                    ",
"                                                    6 6 [ _ > p.'.'.t.W.X.S.                                                    ",
"                                                    6 6 [ _ > p.'.U G.W.X.S.                                                    ",
"                                                    6 6 [ _ > '.'.U V.W.X.S.                                                    ",
"                                                    6 6 [ _ 9 _ '.U t.G.X.S.                                                    ",
"                                                    [ 6 Q 6 > p.'.U t.W.X.S.                                                    ",
"                                                    6 6 [ _ > p.p.U t.W.X.X.                                                    ",
"                                                    6 6 [ _ > p.'.U t.W.2.X.                                                    ",
"                                                  [ 6 Y.6 6 _ Q b T.U.t.W.2.X.                                                  ",
"                                                [ [ [ [ H _ Q b p.T.U.t.^.W.S.S.                                                ",
"                                              [ 6 [ [ W _ Q b p.T.'.U V.t.W.S.S.X.                                              ",
"                                              6 6 6 6 . _ Q b p.T.'.U V.t.t.W.2.X.                                              ",
"                                              6 6 [ [ 6 6 6 _ Q b p.'.U.t.G.W.2.2.                                              ",
"                                                T.Q _ Q Q b b p.T.'.U.U t.G.G.G.                                                ",
"                                                      T.T.T.U.U.U.U.V.V.V.                                                      "};
