/* XPM */
static char * chair_0_xpm[] = {
"64 64 109 2",
"  	c None",
". 	c #954620",
"+ 	c #BA6B45",
"@ 	c #D3855E",
"# 	c #CB7B56",
"$ 	c #B96A44",
"% 	c #A85933",
"& 	c #A0512B",
"* 	c #BD6D48",
"= 	c #B56640",
"- 	c #D58760",
"; 	c #C67751",
"> 	c #B0613B",
", 	c #974822",
"' 	c #863711",
") 	c #8C3D17",
"! 	c #883913",
"~ 	c #90411B",
"{ 	c #7E300A",
"] 	c #83340E",
"^ 	c #7A2C06",
"/ 	c #7B2D07",
"( 	c #92431D",
"_ 	c #8D3E18",
": 	c #A75832",
"< 	c #9E4F29",
"[ 	c #82320D",
"} 	c #782904",
"| 	c #8F401A",
"1 	c #752701",
"2 	c #853510",
"3 	c #893A14",
"4 	c #7D2F09",
"5 	c #511B00",
"6 	c #772803",
"7 	c #792B05",
"8 	c #702500",
"9 	c #421600",
"0 	c #531B00",
"a 	c #5A1D00",
"b 	c #5E1F00",
"c 	c #601F00",
"d 	c #692200",
"e 	c #672200",
"f 	c #561C00",
"g 	c #6B2300",
"h 	c #5D1E00",
"i 	c #371200",
"j 	c #331100",
"k 	c #361200",
"l 	c #341100",
"m 	c #391300",
"n 	c #A1A1A1",
"o 	c #818181",
"p 	c #883B16",
"q 	c #81310C",
"r 	c #7B2C07",
"s 	c #94451F",
"t 	c #84340F",
"u 	c #8F3F1A",
"v 	c #9A4B25",
"w 	c #511A00",
"x 	c #974722",
"y 	c #A4542F",
"z 	c #AA5B35",
"A 	c #AD5E38",
"B 	c #AF603A",
"C 	c #A3542E",
"D 	c #441600",
"E 	c #772E0B",
"F 	c #9A4A25",
"G 	c #B66741",
"H 	c #CE7F59",
"I 	c #B2623D",
"J 	c #A3532E",
"K 	c #461700",
"L 	c #4F1A00",
"M 	c #672607",
"N 	c #762F0D",
"O 	c #7E3613",
"P 	c #934824",
"Q 	c #A75B36",
"R 	c #B46742",
"S 	c #B56843",
"T 	c #B46843",
"U 	c #A75A36",
"V 	c #A65A35",
"W 	c #A65935",
"X 	c #7B3311",
"Y 	c #6B2808",
"Z 	c #622203",
"` 	c #662200",
" .	c #999999",
"..	c #707070",
"+.	c #A3A3A3",
"@.	c #858585",
"#.	c #E59770",
"$.	c #B7B7B7",
"%.	c #2C0E00",
"&.	c #AE5F39",
"*.	c #F4A67F",
"=.	c #260D00",
"-.	c #C2734D",
";.	c #722500",
">.	c #B3633E",
",.	c #C87953",
"'.	c #4A4A4A",
").	c #6E2400",
"!.	c #404040",
"                                                                                                                                ",
"                                                                                                                                ",
"                                                                                                                                ",
"                                                                                                                                ",
"                                                                                                                                ",
"                                                                                                                                ",
"                                                                                                                                ",
"                                                                                                                                ",
"                                                                                                                                ",
"                                                                                                                                ",
"                                                                                                                                ",
"                                                                                                                                ",
"                                                                                                                                ",
"                                                                                                                                ",
"                                                                                                                                ",
"                                                                                                                                ",
"                                                                                                                                ",
"                                                                                                                                ",
"                                                                                                                                ",
"                                                                                                                                ",
"                                                                                                                                ",
"                                                                                                                                ",
"                                                                                                                                ",
"                                                                                                                                ",
"                                                                                                                                ",
"                                                                                                                                ",
"                                                                                                                                ",
"                                                                                                                                ",
"                                                                                                                                ",
"                                                                                                                                ",
"                                                                                                                                ",
"                                                      . + @ @ @ @ @ @ + .                                                       ",
"                                                  . + # $ % $ & * % = - ; @ .                                                   ",
"                                                . > , ' ) ! ~ { ] ^ / ( _ % * .                                                 ",
"                                                : < [ } ! ] | { { { 1 2 [ ! , :                                                 ",
"                                                . { [ ] ( 3 ( 3 2 2 } ] } [ ! .                                                 ",
"                                                ' 1 ] { ' ] _ ] ' [ ^ ] } [ ! '                                                 ",
"                                                } } 2 4 ! ^ 3 ^ 3 ] ^ ! } { ! }                                                 ",
"                                                } } 2 4 ! ^ 3 ^ 3 ] ^ ! } { ! }                                                 ",
"                                                } } 2 4 ! ^ 3 ^ 3 ] ^ ! } { ! }                                                 ",
"                                                5 } 6 4 ' } ] 7 } ] 7 6 ^ 8 ! }                                                 ",
"                                                9 0 a b c d e f d ^ g e h { e 5                                                 ",
"                                                  i j j i k l l l l l k m i i                                                   ",
"                                                      n o             n o                                                       ",
"                                                      n o             n o                                                       ",
"                                                      n o             n o                                                       ",
"                                                      n o             n o                                                       ",
"                                                  p _ q q 6 r r r 2 2 2 2 6 4                                                   ",
"                                                ~ ) 6 6 4 [ _ _ _ | | s s s & ,                                                 ",
"                                              . ] [ [ q q t t t 2 u 2 2 2 6 2 | v                                               ",
"                                            w 7 3 s x x y y y y z A z B C = , ! ! c                                             ",
"                                            D c E F G G H I H H H H G H G G G J 1 K                                             ",
"                                              L M N O P Q R S T T U V V W X Y Z `                                               ",
"                                                               ...                                                              ",
"                                                              +.@.                                                              ",
"                                                            #.$. .#.                                                            ",
"                                                      %.%.&.= *.*.= : %.%.                                                      ",
"                                                =.=.%.-.-.&.! 1 ;.! >.,.-.%.%.%.                                                ",
"                                                '.-.-.( ( ( 5 5 5 5 ( ] ( ,.-.'.                                                ",
"                                              -.-.( ( ).5             5 ).] ( -.,.                                              ",
"                                              ( ).).5                     5 ).7 ]                                               ",
"                                              !.!.!.                        !.!.!.                                              ",
"                                              !.$.!.                        !.$.!.                                              ",
"                                              !.!.!.                        !.!.!.                                              "};
