/* XPM */
static char * door_closed_xpm[] = {
"64 64 709 2",
"  	c None",
". 	c #DBDBDB",
"+ 	c #CACACA",
"@ 	c #B9B9B9",
"# 	c #A6A6A6",
"$ 	c #959595",
"% 	c #7C7C7C",
"& 	c #8A8A8A",
"* 	c #9F9F9F",
"= 	c #A3A3A3",
"- 	c #898989",
"; 	c #A8A8A8",
"> 	c #787878",
", 	c #ABABAB",
"' 	c #797979",
") 	c #999999",
"! 	c #868686",
"~ 	c #AFAFAF",
"{ 	c #CBCBCB",
"] 	c #8C8C8C",
"^ 	c #696969",
"/ 	c #9E9E9E",
"( 	c #888888",
"_ 	c #858585",
": 	c #929292",
"< 	c #848484",
"[ 	c #A1A1A1",
"} 	c #757575",
"| 	c #BABABA",
"1 	c #818181",
"2 	c #989898",
"3 	c #939393",
"4 	c #8F8F8F",
"5 	c #949494",
"6 	c #9A9A9A",
"7 	c #A5A5A5",
"8 	c #AAAAAA",
"9 	c #B0B0B0",
"0 	c #B7B7B7",
"a 	c #BBBBBB",
"b 	c #C2C2C2",
"c 	c #C8C8C8",
"d 	c #CFCFCF",
"e 	c #DADADA",
"f 	c #C3C3C3",
"g 	c #B6B6B6",
"h 	c #CCCCCC",
"i 	c #828282",
"j 	c #646464",
"k 	c #2C2C2C",
"l 	c #151515",
"m 	c #121212",
"n 	c #131313",
"o 	c #141414",
"p 	c #161616",
"q 	c #171717",
"r 	c #1C1C1C",
"s 	c #333333",
"t 	c #656565",
"u 	c #909090",
"v 	c #969696",
"w 	c #8D8D8D",
"x 	c #747474",
"y 	c #4B4B4B",
"z 	c #010101",
"A 	c #3B3B3B",
"B 	c #3D3D3D",
"C 	c #424344",
"D 	c #454545",
"E 	c #474747",
"F 	c #494949",
"G 	c #4D4D4D",
"H 	c #505050",
"I 	c #535353",
"J 	c #565656",
"K 	c #595959",
"L 	c #5B5B5B",
"M 	c #5E5E5E",
"N 	c #5E5F60",
"O 	c #5E5E60",
"P 	c #B8B8B8",
"Q 	c #B2B2B2",
"R 	c #B5B5B5",
"S 	c #B1B1B1",
"T 	c #9D9D9D",
"U 	c #919191",
"V 	c #767676",
"W 	c #686868",
"X 	c #444444",
"Y 	c #000000",
"Z 	c #3E3E3E",
"` 	c #515151",
" .	c #545454",
"..	c #575557",
"+.	c #5E5D5F",
"@.	c #646365",
"#.	c #676569",
"$.	c #6F6E72",
"%.	c #6D6D6F",
"&.	c #727274",
"*.	c #757577",
"=.	c #79787C",
"-.	c #7C7B7D",
";.	c #7C7C7E",
">.	c #616062",
",.	c #525252",
"'.	c #878787",
").	c #A7A7A7",
"!.	c #979797",
"~.	c #8E8E8E",
"{.	c #7A7A7A",
"].	c #7D7D7D",
"^.	c #7E7E7E",
"/.	c #DFDFDF",
"(.	c #CDCDCD",
"_.	c #808080",
":.	c #5A5A5A",
"<.	c #595758",
"[.	c #606060",
"}.	c #6A6A6A",
"|.	c #646466",
"1.	c #626264",
"2.	c #656466",
"3.	c #6D6C6E",
"4.	c #747375",
"5.	c #7C7A7E",
"6.	c #838286",
"7.	c #86858B",
"8.	c #87868A",
"9.	c #8C8B8F",
"0.	c #8F8F95",
"a.	c #8F8E94",
"b.	c #8C8B91",
"c.	c #6E6E6E",
"d.	c #A9A9A9",
"e.	c #4E4E4E",
"f.	c #353535",
"g.	c #636363",
"h.	c #706E6F",
"i.	c #767476",
"j.	c #717171",
"k.	c #6C6B6D",
"l.	c #838187",
"m.	c #929197",
"n.	c #918F95",
"o.	c #939197",
"p.	c #96949A",
"q.	c #98979D",
"r.	c #96959B",
"s.	c #919096",
"t.	c #ADADAD",
"u.	c #424242",
"v.	c #2E2E2E",
"w.	c #707070",
"x.	c #757473",
"y.	c #777777",
"z.	c #727272",
"A.	c #787678",
"B.	c #7F7E80",
"C.	c #888589",
"D.	c #8E8D8F",
"E.	c #949298",
"F.	c #99989E",
"G.	c #9A99A1",
"H.	c #908F95",
"I.	c #666569",
"J.	c #CECECE",
"K.	c #BCBCBC",
"L.	c #272727",
"M.	c #585858",
"N.	c #6B6B6B",
"O.	c #828080",
"P.	c #848482",
"Q.	c #838383",
"R.	c #807F7E",
"S.	c #7B7B7B",
"T.	c #7A7879",
"U.	c #9C9AA2",
"V.	c #9F9EA4",
"W.	c #98979B",
"X.	c #8E8E92",
"Y.	c #69676B",
"Z.	c #5D5D5D",
"`.	c #858583",
" +	c #8D8B8B",
".+	c #8B8B8D",
"++	c #8B8B8B",
"@+	c #89898B",
"#+	c #7C7A7B",
"$+	c #747576",
"%+	c #9B9A9E",
"&+	c #9D9BA3",
"*+	c #9B9AA0",
"=+	c #949399",
"-+	c #8D8C90",
";+	c #555555",
">+	c #626262",
",+	c #040404",
"'+	c #737373",
")+	c #838181",
"!+	c #8C8C8A",
"~+	c #9B9B97",
"{+	c #9E9A9A",
"]+	c #939395",
"^+	c #86878A",
"/+	c #98949C",
"(+	c #96939B",
"_+	c #929096",
":+	c #919197",
"<+	c #6B6A6C",
"[+	c #575757",
"}+	c #232323",
"|+	c #5C5C5C",
"1+	c #6F6F6F",
"2+	c #9B9797",
"3+	c #959597",
"4+	c #A0A09C",
"5+	c #A09C9C",
"6+	c #979799",
"7+	c #8C8B88",
"8+	c #96949C",
"9+	c #8F8D95",
"0+	c #939298",
"a+	c #676668",
"b+	c #373737",
"c+	c #C0C0C0",
"d+	c #BFBFBF",
"e+	c #A0A09E",
"f+	c #A7A5A5",
"g+	c #9F9F9D",
"h+	c #A5A5A1",
"i+	c #A4A0A0",
"j+	c #6A6B6E",
"k+	c #6F6D6D",
"l+	c #6C6A6A",
"m+	c #6E6C6C",
"n+	c #777575",
"o+	c #818183",
"p+	c #909096",
"q+	c #94909A",
"r+	c #8D8B93",
"s+	c #99979F",
"t+	c #95949A",
"u+	c #6A696D",
"v+	c #E2E2E2",
"w+	c #D0D0D0",
"x+	c #BDBDBD",
"y+	c #202020",
"z+	c #6D6D6D",
"A+	c #9C9C9C",
"B+	c #ACAAAA",
"C+	c #A9A9A7",
"D+	c #020202",
"E+	c #8B878F",
"F+	c #8D8C92",
"G+	c #94929A",
"H+	c #97959B",
"I+	c #9A98A0",
"J+	c #6C6A6E",
"K+	c #3A3A3A",
"L+	c #A2A2A2",
"M+	c #222222",
"N+	c #A8A8A6",
"O+	c #B4B2B2",
"P+	c #B0B0AE",
"Q+	c #464542",
"R+	c #43423D",
"S+	c #3D3D3F",
"T+	c #393B3D",
"U+	c #3B3A39",
"V+	c #373635",
"W+	c #313131",
"X+	c #363636",
"Y+	c #86868E",
"Z+	c #868589",
"`+	c #87838D",
" @	c #8C8A90",
".@	c #97959D",
"+@	c #6A676B",
"@@	c #BEBEBE",
"#@	c #242424",
"$@	c #9A9A98",
"%@	c #AEACAC",
"&@	c #BABAB8",
"*@	c #262626",
"=@	c #7D7C7E",
"-@	c #7B797F",
";@	c #7C7A80",
">@	c #85828A",
",@	c #908D95",
"'@	c #928F95",
")@	c #686569",
"!@	c #383838",
"~@	c #D1D1D1",
"{@	c #C0C0BE",
"]@	c #C4C2C2",
"^@	c #BBBBB9",
"/@	c #303030",
"(@	c #87828E",
"_@	c #7F7D85",
":@	c #807F85",
"<@	c #828088",
"[@	c #8A8991",
"}@	c #6B696D",
"|@	c #282828",
"1@	c #C3C1C1",
"2@	c #C4C4C4",
"3@	c #393939",
"4@	c #7C7A82",
"5@	c #79777D",
"6@	c #838088",
"7@	c #848389",
"8@	c #6A686C",
"9@	c #343434",
"0@	c #D2D2D2",
"a@	c #2A2A2A",
"b@	c #AEAEAC",
"c@	c #C2C0C0",
"d@	c #C7C7C7",
"e@	c #C1C1C1",
"f@	c #414141",
"g@	c #79797F",
"h@	c #6E6D73",
"i@	c #6C6A70",
"j@	c #726F77",
"k@	c #7E7C82",
"l@	c #7D7B7F",
"m@	c #616163",
"n@	c #2B2B2B",
"o@	c #90908E",
"p@	c #A9A7A7",
"q@	c #CACAC8",
"r@	c #666666",
"s@	c #464646",
"t@	c #7A797F",
"u@	c #6B696F",
"v@	c #636167",
"w@	c #6A6870",
"x@	c #515153",
"y@	c #2D2D2D",
"z@	c #8C8A8A",
"A@	c #A0A0A0",
"B@	c #B3B3B3",
"C@	c #C6C6C6",
"D@	c #4A4A4A",
"E@	c #767579",
"F@	c #6D6B71",
"G@	c #605F65",
"H@	c #69676D",
"I@	c #717076",
"J@	c #414143",
"K@	c #2F2F2F",
"L@	c #E6E6E6",
"M@	c #D3D3D3",
"N@	c #616161",
"O@	c #C4C4C2",
"P@	c #747377",
"Q@	c #67666C",
"R@	c #66646C",
"S@	c #626167",
"T@	c #616066",
"U@	c #ACACAC",
"V@	c #D6D6D6",
"W@	c #6F6F73",
"X@	c #68666E",
"Y@	c #626068",
"Z@	c #56545C",
"`@	c #4D4C52",
" #	c #A5A6A9",
".#	c #AAA8A2",
"+#	c #9C9DA4",
"@#	c #9B9A97",
"##	c #8C8B84",
"$#	c #868580",
"%#	c #81807B",
"&#	c #747476",
"*#	c #707176",
"=#	c #656569",
"-#	c #66666A",
";#	c #5E5E62",
">#	c #615F65",
",#	c #46454B",
"'#	c #212121",
")#	c #D4D4D4",
"!#	c #AEAEAE",
"~#	c #585A5A",
"{#	c #59575B",
"]#	c #6A676F",
"^#	c #5F5D65",
"/#	c #504F53",
"(#	c #BCBDC0",
"_#	c #95979D",
":#	c #8E8E94",
"<#	c #575658",
"[#	c #706E74",
"}#	c #5C5B61",
"|#	c #1F1F1F",
"1#	c #292929",
"2#	c #BBB9BB",
"3#	c #89868A",
"4#	c #1E1E1E",
"5#	c #1D1D1D",
"6#	c #1B1B1B",
"7#	c #716F75",
"8#	c #7A787E",
"9#	c #6A696F",
"0#	c #252525",
"a#	c #404040",
"b#	c #B5B6B9",
"c#	c #848480",
"d#	c #757478",
"e#	c #3C3C3C",
"f#	c #4C4C4C",
"g#	c #6C6C6C",
"h#	c #1A1A1A",
"i#	c #5F5F5D",
"j#	c #666664",
"k#	c #666562",
"l#	c #B4B4B4",
"m#	c #B2B0B0",
"n#	c #B4B3B0",
"o#	c #7F7F7B",
"p#	c #757573",
"q#	c #6D6C69",
"r#	c #A7A7A5",
"s#	c #5B5B59",
"t#	c #4C4B48",
"u#	c #7E7D83",
"v#	c #E5E5E5",
"w#	c #E4E4E4",
"x#	c #E8E8E8",
"y#	c #E7E7E7",
"z#	c #E9E9E9",
"A#	c #EAEAEA",
"B#	c #C5C5C5",
"C#	c #191919",
"D#	c #6A6C6C",
"E#	c #B6B7BA",
"F#	c #ACAAAC",
"G#	c #323232",
"H#	c #8B9191",
"I#	c #848783",
"J#	c #ACACAA",
"K#	c #7F7F7F",
"L#	c #656767",
"M#	c #5E5F5D",
"N#	c #6C6C70",
"O#	c #DCDCDC",
"P#	c #D9D9D9",
"Q#	c #D8D8D8",
"R#	c #DEDEDE",
"S#	c #5B5959",
"T#	c #3F3F3F",
"U#	c #9B9B9B",
"V#	c #A6A6A4",
"W#	c #71706D",
"X#	c #878B8B",
"Y#	c #949490",
"Z#	c #8A8B87",
"`#	c #62615E",
" $	c #6E7070",
".$	c #626361",
"+$	c #8B8A8E",
"@$	c #67666A",
"#$	c #A4A4A4",
"$$	c #434343",
"%$	c #2E2E2C",
"&$	c #484848",
"*$	c #838585",
"=$	c #8F8F8B",
"-$	c #81817F",
";$	c #727474",
">$	c #676767",
",$	c #1A1C18",
"'$	c #05C000",
")$	c #05DC00",
"!$	c #4F4F4F",
"~$	c #939191",
"{$	c #C6C4C6",
"]$	c #8B8D8B",
"^$	c #949598",
"/$	c #7B7A7C",
"($	c #636264",
"_$	c #070907",
":$	c #262A2A",
"<$	c #090909",
"[$	c #036E00",
"}$	c #037E00",
"|$	c #7E8282",
"1$	c #909290",
"2$	c #777979",
"3$	c #98989C",
"4$	c #666466",
"5$	c #181818",
"6$	c #05E400",
"7$	c #7B7D7D",
"8$	c #909396",
"9$	c #343636",
"0$	c #A3A7A7",
"a$	c #7F7F83",
"b$	c #E3E3E3",
"c$	c #272A26",
"d$	c #0E1210",
"e$	c #FF0101",
"f$	c #B1B3B1",
"g$	c #363838",
"h$	c #9E9EA2",
"i$	c #E1E1E1",
"j$	c #5F5F5F",
"k$	c #5E5D5C",
"l$	c #B0B3B4",
"m$	c #878A8D",
"n$	c #A9A9AB",
"o$	c #77777B",
"p$	c #181A16",
"q$	c #2C2F27",
"r$	c #C00000",
"s$	c #6E6E70",
"t$	c #646666",
"u$	c #AAAEAE",
"v$	c #868888",
"w$	c #86868A",
"x$	c #B0B0B2",
"y$	c #878789",
"z$	c #05D400",
"A$	c #05D600",
"B$	c #0C0C0C",
"C$	c #0A0A0A",
"D$	c #0E0E0E",
"E$	c #2C2E2E",
"F$	c #5F6061",
"G$	c #636365",
"H$	c #9DA1A1",
"I$	c #848788",
"J$	c #8A8C8C",
"K$	c #7F8181",
"L$	c #737375",
"M$	c #AFB1B1",
"N$	c #85858D",
"O$	c #8B8B8F",
"P$	c #020403",
"Q$	c #020A06",
"R$	c #5F6161",
"S$	c #5B5C5D",
"T$	c #606062",
"U$	c #999B9B",
"V$	c #7B7B7D",
"W$	c #808384",
"X$	c #777779",
"Y$	c #B6B8B8",
"Z$	c #8B8D8D",
"`$	c #424145",
" %	c #E0E0E0",
".%	c #1C1C1E",
"+%	c #28292A",
"@%	c #2D2E2F",
"#%	c #323236",
"$%	c #353637",
"%%	c #373739",
"&%	c #565658",
"*%	c #575859",
"=%	c #5C5C5E",
"-%	c #939595",
";%	c #727374",
">%	c #7D7E7F",
",%	c #B7BBBB",
"'%	c #949898",
")%	c #454547",
"!%	c #4A4D50",
"~%	c #5A5B5C",
"{%	c #8C8E8E",
"]%	c #6E6F70",
"^%	c #454747",
"/%	c #808184",
"(%	c #C3C5C5",
"_%	c #9C9CA0",
":%	c #515253",
"<%	c #59595B",
"[%	c #55585B",
"}%	c #505152",
"|%	c #68696A",
"1%	c #6D6E6F",
"2%	c #767778",
"3%	c #BDBDC1",
"4%	c #A1A1A7",
"5%	c #ABACAD",
"6%	c #6C6F72",
"7%	c #4B4F51",
"8%	c #434545",
"9%	c #474849",
"0%	c #4C4D4E",
"a%	c #858689",
"b%	c #B7B7B9",
"c%	c #9EA1A4",
"d%	c #545456",
"e%	c #59595D",
"f%	c #5A5C5E",
"g%	c #565557",
"h%	c #767678",
"i%	c #434345",
"j%	c #555657",
"k%	c #707274",
"l%	c #84878A",
"m%	c #A1A4A5",
"n%	c #A9AAAD",
"o%	c #B0B1B2",
"p%	c #9B9B9F",
"q%	c #9A9A9E",
"r%	c #ACACB0",
"s%	c #59585A",
"t%	c #4D4C4E",
"u%	c #363638",
"v%	c #404142",
"w%	c #494A4B",
"x%	c #545556",
"y%	c #626266",
"z%	c #6C6E70",
"A%	c #5B5B5D",
"B%	c #58585A",
"C%	c #373939",
"D%	c #3F3F41",
"E%	c #434445",
"F%	c #535355",
"G%	c #58585C",
"H%	c #616263",
"I%	c #878587",
"J%	c #8D8B91",
"K%	c #939399",
"L%	c #99999D",
"M%	c #99959B",
"N%	c #92979A",
"O%	c #050505",
"P%	c #070707",
"Q%	c #0B0B0B",
"R%	c #0D0D0D",
"S%	c #0E0C0E",
"T%	c #060606",
"U%	c #010103",
"V%	c #080808",
"W%	c #8C8C92",
"X%	c #585658",
"Y%	c #444442",
"Z%	c #484846",
"`%	c #4E4E4C",
" &	c #51514F",
".&	c #545452",
"+&	c #575755",
"@&	c #5A5A58",
"#&	c #5C5C5A",
"$&	c #5E5E5C",
"%&	c #585856",
"&&	c #50504E",
"*&	c #4D4D4B",
"=&	c #4A4A48",
"-&	c #474745",
";&	c #41413F",
">&	c #383836",
",&	c #85888B",
"'&	c #848286",
")&	c #262424",
"!&	c #7D7D7F",
"~&	c #424240",
"{&	c #454543",
"]&	c #7E7E82",
"^&	c #78787A",
"/&	c #5F5E60",
"(&	c #2C2C2A",
"_&	c #78797A",
":&	c #727173",
"<&	c #111111",
"[&	c #343432",
"}&	c #DDDDDD",
"|&	c #68686A",
"1&	c #101010",
"2&	c #6B6B6D",
"3&	c #707072",
"4&	c #373735",
"5&	c #6F6D71",
"6&	c #69696D",
"7&	c #7B797D",
"8&	c #A09FA3",
"9&	c #ADABAD",
"0&	c #A6A7AA",
"a&	c #9D9FA1",
"b&	c #989A9C",
"c&	c #929598",
"d&	c #8E9194",
"e&	c #8D8C8E",
"f&	c #88878F",
"g&	c #818487",
"h&	c #787A80",
"i&	c #73757B",
"j&	c #6E7076",
"k&	c #676A71",
"l&	c #64676C",
"m&	c #6C6A72",
"n&	c #8E8B8F",
"o&	c #99989C",
"p&	c #A3A2A8",
"q&	c #ABAAB0",
"r&	c #B6B6BA",
"s&	c #ACABAF",
"t&	c #B0AEB6",
"u&	c #B3B3B5",
"v&	c #3D3B3B",
"w&	c #272525",
"x&	c #0F0F0F",
"y&	c #EBEBEB",
"z&	c #030303",
". + + + + + @ # . + + + + + @ $ . + + + + + @ % . + + + + + @ & . + + + + + @ * . + + + + + @ = . + + + + + @ - . + + + + + @ - ",
"+ @ @ @ @ @ ; > + @ @ @ @ @ ; , + @ @ @ @ @ ; ' + @ @ @ @ @ ; ) + @ @ @ @ @ ; ! + @ @ @ @ @ ; ~ + @ @ @ @ @ ; = + @ @ @ @ @ ; = ",
"{ @ @ @ @ @ ; ! { @ @ @ @ @ ; ] { @ @ @ @ @ ; ^ { @ @ @ @ @ ; / { @ @ @ @ @ ; ( { @ @ @ @ @ ; , { @ @ @ @ @ ; _ { @ @ @ @ @ ; _ ",
"{ @ @ @ @ @ ; % { @ @ @ @ @ ; - { @ @ @ @ @ ; : { @ @ @ @ @ ; : { @ @ @ @ @ ; < { @ @ @ @ @ ; [ { @ @ @ @ @ ; } { @ @ @ @ @ ; } ",
"{ | | | | | ; < { | | | | | ; 1 { | | | | | ; ) 2 3 4 5 6 * 7 8 9 0 a b c d e e f | | | | | ; $ { | | | | | ; g { | | | | | ; g ",
"h | | | | | ; * h | | | | | ; 3 h | | | | | ; i j k l m m m n o l l p q q r s t 2 6 | | | | ; u h | | | | | ; ~ h | | | | | ; ~ ",
"| ; ; ; ; ; v % | ; ; ; ; ; v w | ; ; ; ; ; x y z A B C D E F G H I J K L M N O D < 3 ; ; ; v _ | ; ; ; ; ; v : | ; ; ; ; ; v : ",
"v P ~ [ Q / % R S / ( - T x U V & * 8 ( ) W X Y Z `  .I  ...+.@.#.$.%.&.*.=.-.;.>.,.'.3 ).( = !.~.w * T _ * {.].# $ ] ) !.^.( ].",
"/.(.(.(.(.(.a 6 /.(.(.(.(.(.a _./.(.(.(.:.B Y F <.[.}.^ |.1.2.3.4.5.6.7.8.9.0.a.b.W I '.3 (.a 6 /.(.(.(.(.(.a c./.(.(.(.(.(.a c.",
"(.a a a a a d.T (.a a a a a d.: (.a a e.f.Y G K g.^ h.i.j.k.3.j.;.l.9.m.n.o.p.q.r.s.#.I '.3 d.( (.a a a a a d.] (.a a a a a d.] ",
"(.a a a a a d.t.(.a a a a a d.!.(.a u.v.Y  .g.w.} x.y.' > j.z.j.A.B.C.b.D.s.E.F.G.r.H.I.I '.3 ).(.a a a a a d.- (.a a a a a d.- ",
"J.K.K.K.K.K.d.x J.K.K.K.K.K.d.v J.e.L.Y M.N.y.O.P.Q.R.S.' T.k.3.j.;.l.9.m.n.o.o.U.V.W.X.Y.I '.: J.K.K.K.K.K.d.1 J.K.K.K.K.K.d.1 ",
"J.K.K.K.K.K.d.= J.K.K.K.K.K.d.6 :.v.Y Z.j.S.`. +.+++@+< #+$+j.k.3.j.;.l.9.m.n.o.%+&+*+=+-+Y.;+- - K.K.K.K.K.d.^.J.K.K.K.K.K.d.^.",
"J.K.K.K.K.K.8 ~.J.K.K.K.K.K.8 >+B ,+M '+)+!+~.u ~+{+]+~.^+_.> k.3.j.;.l.9.m.n.o./+U.(+_+:+X.<+}._.;+K.K.K.K.8 Q J.K.K.K.K.K.8 Q ",
"K.8 8 8 8 8 !.* K.8 8 8 8 8 !.[+}+|+1+_.4 2+6 3+4+5+6+u 7+1 > j.z.j.A.B.C.b.D.s.=+8+n.9+0+p.n.a+% b+8 8 8 8 !.] K.8 8 8 8 8 !.] ",
"c+= f $ # * ).d+v d+T d.d.S : J r j ].u e+f+7 g+) h+i+6+u 7+_.y.j+k+l+m+n+;.o+< p+q+r+n.(+s+t+u+u f.- % c+] ~ u {.] S $ w ) T u ",
"v+w+w+w+w+w+x+P v+w+w+w+w+w+x+:.y+z+- A+B+t.~ C+[ Y Y Y Y Y z D+D+D+Y Y Y Y Y L.1 E+9+F+G+H+I+J+6 K+w+w+w+w+x+L+v+w+w+w+w+w+x+L+",
"w+x+x+x+x+x+, * w+x+x+x+x+x+, [.M+} u N+O+0 g P+; Y e.[+[+Q+R+S+T+U+V+f.f.W+X+Z ].Y+Z+`+ @G+.@+@2 K+x+x+x+x+, ~.w+x+x+x+x+x+, ~.",
"w+@@@@@@@@@@, # w+@@@@@@@@@@, t #@> $@%@P K.&@S t.Y Z.Y Y Y Y Y Y Y Y Y Y *@K+K+w.=@-@;@>@,@'@)@$ !@@@@@@@@@, / w+@@@@@@@@@@, / ",
"~@@@@@@@@@@@, ] ~@@@@@@@@@@@, }.*@} 2 ~ {@]@d+^@Q Y z+Y                   /@F !@x (@_@:@<@[@l.}@4 X+@@@@@@@@, : ~@@@@@@@@@@@, : ",
"~@@@@@@@@@@@, U ~@@@@@@@@@@@, 1+|@z.5 ~ 1@2@2@x+0 Y } Y                   3@[+B '+-@4@5@;@6@7@8@& 9@@@@@@@@@, d+~@@@@@@@@@@@, d+",
"0@d+d+d+d+d+, w 0@d+d+d+d+d+, '+a@z+U b@c@c d@e@a Y ' Y                   u.t f@x g@h@i@j@k@l@m@! s d+d+d+d+, w 0@d+d+d+d+d+, w ",
"d+, , , , , 2 g d+, , , , , 2 > n@N.o@p@| d@q@2@d+Y x Y                   E r@s@x t@u@v@w@=.=.x@1 W+, , , , 2 / d+, , , , , 2 / ",
"{ d.).g !.8 v {., _.= * i U # ].y@j z@A@B@e@C@c 2@Y }.Y                   e.^ D@z.E@F@G@H@I@u@J@].K@( u # & {.! ^.i ) < 7 a - ! ",
"L@M@M@M@M@M@d+6 L@M@M@M@M@M@d+1 K@N@_ A+t.a O@c c Y >+Y                   J '+H > P@E@Q@R@S@T@b+> y@M@M@M@M@d+b L@M@M@M@M@M@d+b ",
"M@d+d+d+d+d+U@V@M@d+d+d+d+d+U@! W+M i ) U@0 K.f c Y r@[+_ $ ) ) 2 v U 4 3 : % ;+} W@E@X@Y@Z@`@a@'+n@d+d+d+d+U@u M@d+d+d+d+d+U@u ",
"M@d+d+d+d+d+U@^.M@d+d+d+d+d+U@& s L _.!. #9 P d+2@Y V U ; .#+#@###$#%#{.&#V *#:.{.=#-#;#>#Z@,#'#1+a@d+d+d+d+U@/ M@d+d+d+d+d+U@/ ",
")#c+c+c+c+c+U@< )#c+c+c+c+c+U@4 9@M.^.v ).!#R | d+: | a g B@S Q Q Q ~ Q ~ d./ 4 ^.O ~#{#]#^#/#r }.|@c+c+c+c+U@~ )#c+c+c+c+c+U@~ ",
")#c+c+c+c+c+t.[ )#c+c+c+c+c+t.$ X+;+V ] / 8 S 0 a | d+e@(#U@# .#_#:###_.> z.z+^ r@[.<#Z.[#i@}#|#t *@c+c+c+c+t.] )#c+c+c+c+c+t.] ",
")#e@e@e@e@e@t.3 )#e@e@e@e@e@t.2 !@I } - : M+*@|@1#a 2#K.(#K.n@k n@y@3#Q.].z.z+4#|#5#6#@.7#8#9#}+[.#@e@e@e@e@t.v )#e@e@e@e@e@t.v ",
"e@t.t.t.t.t.) ~ e@t.t.t.t.t.) / K+H w._ 0#a#y ;+` I K.b#P f.J Z.>+[+I 5 c#V '#Z u.D A K+d#_@I@*@L M+t.t.t.t.) ~.e@t.t.t.t.t.) ~.",
"{ d.).g !.8 v {., _.= * i U # = e#f#g#i h#e.i#j j#k#l#m#n#0#1+o#% p#q#r#! S.}+I s#M.,.t#5.u#d#L.[+'#( u # & {.! ^.i ) < 7 a - ! ",
"v#w#v#L@x#y#y#z#x#x#z#z#A#A#B#; Z F ^ ^.C#G |+D#N.j#E#F#A@G#1+_.H#I#p#J#< K#/@:.[.L#M#,.Z+l@N#|@,.|#v#e V@e O#. P#Q#. O#e R#/.B#",
"w#B@0 9 S#1 $ $ $ 3 3 - 1 S#f@t.T#V ^.U#A@; 8 , !.w R.).V#B W#X#Y#Z#% g ( < W+`# $z+.$M.+$-.@$|@e.5#w#'+y.j.{.x z.% {.y.i < - f@",
"w#0 a 0 c.#$,.J ,.;+J |+#$c.$$S f@}.%$X &$E G s@0#z.K L+$ X+q#*$=$Z#-$@@w ( 0#N@;$z.>$|+.+=@|.a@F 6#w#V w#a ].{.z.% '+i w#a ].$$",
"v#; 0 0 }.- y+r ,$Y Y Y - }.B g $$N.9@'$f@)$!$E '#j.K $ ~$y@t ^.'.I#-${$: ]$9@t V } N.[.^$/$($k X C#v#% / [.D j.c.1+' > / [.D B ",
"w#B@R 9 r@< _$'#/@:$<$Y < r@B | D >$y@[$B }$A $$r w.K _ ++n@>+w.|$> % f !.1$X+^ {.2$W j 3$% 4$K@a#5$w#Q.% D@&$' j.1+z.^.% D@&$B ",
"v#; !#!#>+K#<$)$6$)$6$Y K#>+f@d+s@>$n@'$B )$u.a#5#j.M.K#{.L.Z.V 7$x y.P !.8$9$g#^.7$'+W 0$a$}.W+A p v#'.% % > V z.' x 1+% ^.K#f@",
"b$8 * R L {.<$c$a#/@d$Y {.L a#2@&$N@1#[$B }$e#e$4#c.K {.} *@:.1+y.w.x f$1$8$g$1+> |$y.N.h$2$j.s f.o b$Q.'.' y.V V ].{.{.V z.K#a#",
"i$U#S * j$S.<$)$6$)$6$Y S.j$Z c D@k$n@'$s@)$f@e$r j.K c.j.a@J j ;$z.w.l$m$X#g$'+% *${.w.n$o$o+f.G#n i$1 ].Q.Q.Q.i > ' j.c.> ^.Z ",
"w#8 7 T L V _$p$q$#@<$Y V L e#h D@H }+[$9@}$W+r$C#s$K W >$L.H t$j W g#u$|$*$9$1+v$w$> x x$K#y$!@b+n w#1 i ! {.^.y.% K#x x {.V e#",
"i$; U@U#[+j.z z$A$p$_$Y j.[+A c D@J Y B$C$,+D+D$Y ^ M.Z.r@E$f#F$[.W G$H$].|$T#N.I$J$K$L$M$N$O$3@f.o i$! 1 ^.1 ^.].^.^.].z.1+' A ",
"b$7 ; * L {.z z P$Q$z Y {.L b+d@D &$,.N@^ 1+j.j.j.j.K L R$a@F S$|+g.T$U$c.V$Z W W$_.*$X$Y$Z$U `$G#n b$< i 1 ++].{.{.' V '+^.y.b+",
" %= * A@L ! Y Y z z Y Y L L !@h D@.%#@+%@%W+#%$%$%%%%%&%j$|#D *%N j$=%-%;%V A j >%I$*$V$,%'%h$)%f.o  %u w ] ] ++Q.'.' ' V > > !@",
" %6 $ $ D >+M M M Z.Z.[+>+D K+c D@f#!%I }+L.v.y@v./@c.`  .4#X  .~%L L {%]%j.^%t ' /%K$^.(%_% #E G#n  %v : U ~.( ++K#% ^.' V % K+",
" %: $ = 1#*@*@0#*@*@*@*@*@1#Z h D@!$:%<%k s 3@b+s s [%y ,.n@f@}%[+:.[+' |%1%s@N@2%^.K${.3%4%5%D@f.o  %$ $ : ! ~.w ++^.! i y.> Z ",
"v+T u * z+t t >$1+} > z.S.].Z c D@,. .L y b+Z e#f.6%7%8%9%u.B 0% .;+a%j$g.W >+Z.;%7${.b%4%c%x$f#A p v+6 ~.: : U ~.! ++( 1 ^.{.Z ",
"i$] : * 2 3 $ A+T !#7 S ; 0 f@2@&$;+d%e%f%g%@.h%N.u.3@e#f@i%j%1+x ' F$~%N L#k%l%m%n%o%3$p%q%r%!$a#5$i$: !.3 $ ~.U < - '.].i ' f@",
"/.v 6 $ $ A+2 $ L+U@; S B@R Z d+s@M. .~%=%s% .t%X a#A u%K+Z v%)%w%x%:%[+=%y%z%> o+@+U v 2 3$h$!$X C#/.v ] 6 v v '.! i i ^.'.{.Z ",
"i$w ++$ 2 v * A@!.; ; !#A@* u.| D L x%=%+.A%B%!$D@C Z C%X+!@e#D%E%F e.F%G%H%N.} ].I%J%K%L%M%N%f#F 6#i$6 ~.U#U !.v U ( '.w K#Q.u.",
"/.w ~.~.U#2 * 6 A@$ !.L+8 T a#g $$M &%O%P%Q%R%D$B$B$R%R%Q%D$S%C$C$P%P%P%T%U%T%V%P%<$T%T%T%W%O$D@e.5#/.L+A+U#U#++] v : ++- w ( a#",
" %: '.- u v T * v 6 * !.U@U@Z S f@t X%6#B Y%Z%D@`% &.&+&@&#&$&s#%& .` &&*&=&-&Y%;&B K+>&f.,&'&E ,.|# %U#6 $ 2 U#6 3 '.: u ~.w Z ",
"/.- - ++: ~.w T * !.= A@7 U@$$t.T#>$<%C#6#|##@0#*@L.1#1#n@y@K@v.n@)&'#|#5#6#4#'#}+M+|#5#h#o+!&!$,.|#/.* = 6 * $ U#2 v : : ~.'.$$",
"/.] w ] '.v 6 U#$ * v = v = $$; Z }.=%o !@Z ~&{&Z%D@`% &.&+&@&#&$&s#%& .` &&*&=&-&Y%;&B K+]&^&y [+'#/.; T * L+2 A+v ++] : ] ~.$$",
"/.1 i U w v $ 3 U#U#* L+v $ f@/ K+z+/&n l 6#|#|#'#'#y+M+1#(&n@n@|@|@}+y+4#C#'#}+*@0#}+M+4#_&:&F L M+/.U@; 7 A@A+!.6 !.6 ] '.! f@",
"R#Q.i i < ! : !.2 U#A+!.: A@$$= e#w.|.<&[&!@e#T#~&{&Z%D@`% &.&+&@&#&$&s#%&H ` &&*&=&-&Y%;&x w.s@[.#@R#!#U@7 * 2 : u : $ 6 3 '.$$",
"}&1 1 ++! ~.( v U $ U#!.A+$ s@; Z z.|&1&l C#5#|#|#|#'#M+L.|@1#1#|@*@}+M+y+6#'#L.1#1#L.0#'#z.2&X t *@}&S !#A+!.$ A+3 U ~.U#u u s@",
"e K#i ++w < w ] ] !.U U#T T $$t.T#} 3&m %$G#4&3@e#T#~&{&Z%D@`% &.&+&@&#&$&;+%& .` &&*&=&-&5&6&a#}.|@e ; T = 6 !.L+A@L+2 : : ~.$$",
"}&i '.- ! w ~.- u v U 6 U#: F S f@> 7&8&9&x$~ r%0&a&b&c&d&e&f&g&h&i&j&k&l&m&V$n&o&p&q&r&s&t&u&).1+a@}&= * 8 U#= = L+3 L+!.!.v F ",
"}&> K#'.- ++1 w ! ~.v $ 3 U#s@g $$$$f@s@f#D@&$s@D $$f@v&K+f.W+k w&y+h#q m R%<$<&q r }+0#a@W+/@L.'+n@}&7 U@* !#7 ; L+7 * L+u T s@",
". ].L@@@'.i '.Q.~.U w L@@@'.G | D |@}+|@n@y@y@k n@a@1#|@*@}+'#4#6#5$l m x&B$V%O%C$D$<&o q 5$h#x&> y@. ; y&d U 7 U#U@; 7 y&d U G ",
"e ^.T N@E '.- ++w ~.U T N@E e.d+s@L.M+L.n@k y@k n@a@1#|@L.0#M+y+5#h#5$l m x&B$V%O%C$D$<&o p q R%].K@e 8 !#>  .B@S U@U@; !#>  .e.",
"e z.> D@y ].'.( '.w ~.> D@y !$2@&$*@y+*@1#n@n@n@a@1#|@L.*@0##@'#|#r C#p o <&D$Q%P%O%<$R%1&m o B$1 W+e !#= J K 9 B@S !#U@= J K !$",
";+e#Z Z a#B u.u.a#Z f@$$f@$$!$c D@C#m o p q q q q p p l l l o n <&1&x&R%B$C$<$V%T%,+z&O%P%V%<$D+! s ;+ .I [+K [+J ;+;+e.I D@D@!$"};
