/* XPM */
static char * door_open_xpm[] = {
"64 64 222 2",
"  	c None",
". 	c #DBDBDB",
"+ 	c #CACACA",
"@ 	c #B9B9B9",
"# 	c #A6A6A6",
"$ 	c #959595",
"% 	c #7C7C7C",
"& 	c #8A8A8A",
"* 	c #9F9F9F",
"= 	c #A3A3A3",
"- 	c #898989",
"; 	c #A8A8A8",
"> 	c #787878",
", 	c #ABABAB",
"' 	c #797979",
") 	c #999999",
"! 	c #868686",
"~ 	c #AFAFAF",
"{ 	c #CBCBCB",
"] 	c #8C8C8C",
"^ 	c #696969",
"/ 	c #9E9E9E",
"( 	c #888888",
"_ 	c #858585",
": 	c #929292",
"< 	c #848484",
"[ 	c #A1A1A1",
"} 	c #757575",
"| 	c #BABABA",
"1 	c #818181",
"2 	c #989898",
"3 	c #939393",
"4 	c #8F8F8F",
"5 	c #949494",
"6 	c #9A9A9A",
"7 	c #A5A5A5",
"8 	c #AAAAAA",
"9 	c #B0B0B0",
"0 	c #B7B7B7",
"a 	c #BBBBBB",
"b 	c #C2C2C2",
"c 	c #C8C8C8",
"d 	c #CFCFCF",
"e 	c #DADADA",
"f 	c #C3C3C3",
"g 	c #B6B6B6",
"h 	c #CCCCCC",
"i 	c #828282",
"j 	c #646464",
"k 	c #2C2C2C",
"l 	c #151515",
"m 	c #121212",
"n 	c #131313",
"o 	c #141414",
"p 	c #161616",
"q 	c #171717",
"r 	c #1C1C1C",
"s 	c #333333",
"t 	c #656565",
"u 	c #909090",
"v 	c #969696",
"w 	c #8D8D8D",
"x 	c #747474",
"y 	c #4B4B4B",
"z 	c #010101",
"A 	c #454545",
"B 	c #B8B8B8",
"C 	c #B2B2B2",
"D 	c #B5B5B5",
"E 	c #B1B1B1",
"F 	c #9D9D9D",
"G 	c #919191",
"H 	c #767676",
"I 	c #686868",
"J 	c #444444",
"K 	c #000000",
"L 	c #525252",
"M 	c #878787",
"N 	c #A7A7A7",
"O 	c #979797",
"P 	c #8E8E8E",
"Q 	c #7A7A7A",
"R 	c #7D7D7D",
"S 	c #7E7E7E",
"T 	c #DFDFDF",
"U 	c #CDCDCD",
"V 	c #808080",
"W 	c #5A5A5A",
"X 	c #3D3D3D",
"Y 	c #535353",
"Z 	c #6E6E6E",
"` 	c #A9A9A9",
" .	c #4E4E4E",
"..	c #353535",
"+.	c #ADADAD",
"@.	c #424242",
"#.	c #2E2E2E",
"$.	c #CECECE",
"%.	c #BCBCBC",
"&.	c #272727",
"*.	c #555555",
"=.	c #626262",
"-.	c #040404",
";.	c #6A6A6A",
">.	c #575757",
",.	c #232323",
"'.	c #373737",
").	c #C0C0C0",
"!.	c #BFBFBF",
"~.	c #565656",
"{.	c #E2E2E2",
"].	c #D0D0D0",
"^.	c #BDBDBD",
"/.	c #202020",
"(.	c #3A3A3A",
"_.	c #A2A2A2",
":.	c #606060",
"<.	c #222222",
"[.	c #BEBEBE",
"}.	c #242424",
"|.	c #383838",
"1.	c #D1D1D1",
"2.	c #262626",
"3.	c #363636",
"4.	c #6F6F6F",
"5.	c #282828",
"6.	c #343434",
"7.	c #D2D2D2",
"8.	c #737373",
"9.	c #2A2A2A",
"0.	c #2B2B2B",
"a.	c #313131",
"b.	c #2D2D2D",
"c.	c #2F2F2F",
"d.	c #E6E6E6",
"e.	c #D3D3D3",
"f.	c #ACACAC",
"g.	c #D6D6D6",
"h.	c #D4D4D4",
"i.	c #C1C1C1",
"j.	c #5B5B5B",
"k.	c #3C3C3C",
"l.	c #212121",
"m.	c #E5E5E5",
"n.	c #E4E4E4",
"o.	c #E8E8E8",
"p.	c #E7E7E7",
"q.	c #E9E9E9",
"r.	c #EAEAEA",
"s.	c #C5C5C5",
"t.	c #3E3E3E",
"u.	c #1F1F1F",
"v.	c #DCDCDC",
"w.	c #D9D9D9",
"x.	c #D8D8D8",
"y.	c #DEDEDE",
"z.	c #B3B3B3",
"A.	c #5B5959",
"B.	c #414141",
"C.	c #3F3F3F",
"D.	c #1D1D1D",
"E.	c #777777",
"F.	c #717171",
"G.	c #727272",
"H.	c #A4A4A4",
"I.	c #5C5C5C",
"J.	c #434343",
"K.	c #494949",
"L.	c #1B1B1B",
"M.	c #1A1C18",
"N.	c #191919",
"O.	c #666666",
"P.	c #070907",
"Q.	c #303030",
"R.	c #262A2A",
"S.	c #090909",
"T.	c #404040",
"U.	c #181818",
"V.	c #838383",
"W.	c #4A4A4A",
"X.	c #484848",
"Y.	c #AEAEAE",
"Z.	c #7F7F7F",
"`.	c #0BDC00",
" +	c #0BE400",
".+	c #464646",
"++	c #3B3B3B",
"@+	c #E3E3E3",
"#+	c #272A26",
"$+	c #0E1210",
"%+	c #C4C4C4",
"&+	c #E1E1E1",
"*+	c #9B9B9B",
"=+	c #5F5F5F",
"-+	c #7B7B7B",
";+	c #323232",
">+	c #181917",
",+	c #2C2F27",
"'+	c #0AD400",
")+	c #0AD600",
"!+	c #020403",
"~+	c #020A06",
"{+	c #C7C7C7",
"]+	c #8B8B8B",
"^+	c #E0E0E0",
"/+	c #A0A0A0",
"(+	c #5E5E5E",
"_+	c #5D5D5D",
":+	c #292929",
"<+	c #252525",
"[+	c #6D6D6D",
"}+	c #676767",
"|+	c #9C9C9C",
"1+	c #DDDDDD",
"2+	c #474747",
"3+	c #4D4D4D",
"4+	c #EBEBEB",
"5+	c #616161",
"6+	c #707070",
"7+	c #545454",
"8+	c #4F4F4F",
"9+	c #595959",
". + + + + + @ # . + + + + + @ $ . + + + + + @ % . + + + + + @ & . + + + + + @ * . + + + + + @ = . + + + + + @ - . + + + + + @ - ",
"+ @ @ @ @ @ ; > + @ @ @ @ @ ; , + @ @ @ @ @ ; ' + @ @ @ @ @ ; ) + @ @ @ @ @ ; ! + @ @ @ @ @ ; ~ + @ @ @ @ @ ; = + @ @ @ @ @ ; = ",
"{ @ @ @ @ @ ; ! { @ @ @ @ @ ; ] { @ @ @ @ @ ; ^ { @ @ @ @ @ ; / { @ @ @ @ @ ; ( { @ @ @ @ @ ; , { @ @ @ @ @ ; _ { @ @ @ @ @ ; _ ",
"{ @ @ @ @ @ ; % { @ @ @ @ @ ; - { @ @ @ @ @ ; : { @ @ @ @ @ ; : { @ @ @ @ @ ; < { @ @ @ @ @ ; [ { @ @ @ @ @ ; } { @ @ @ @ @ ; } ",
"{ | | | | | ; < { | | | | | ; 1 { | | | | | ; ) 2 3 4 5 6 * 7 8 9 0 a b c d e e f | | | | | ; $ { | | | | | ; g { | | | | | ; g ",
"h | | | | | ; * h | | | | | ; 3 h | | | | | ; i j k l m m m n o l l p q q r s t 2 6 | | | | ; u h | | | | | ; ~ h | | | | | ; ~ ",
"| ; ; ; ; ; v % | ; ; ; ; ; v w | ; ; ; ; ; x y z                               A < 3 ; ; ; v _ | ; ; ; ; ; v : | ; ; ; ; ; v : ",
"v B ~ [ C / % D E / ( - F x G H & * 8 ( ) I J K                                   L M 3 N ( = O P w * F _ * Q R # $ ] ) O S ( R ",
"T U U U U U a 6 T U U U U U a V T U U U W X K                                       Y M 3 U a 6 T U U U U U a Z T U U U U U a Z ",
"U a a a a a ` F U a a a a a ` : U a a  ...K                                           Y M 3 ` ( U a a a a a ` ] U a a a a a ` ] ",
"U a a a a a ` +.U a a a a a ` O U a @.#.K                                               Y M 3 N U a a a a a ` - U a a a a a ` - ",
"$.%.%.%.%.%.` x $.%.%.%.%.%.` v $. .&.K                                                   Y M : $.%.%.%.%.%.` 1 $.%.%.%.%.%.` 1 ",
"$.%.%.%.%.%.` = $.%.%.%.%.%.` 6 W #.K                                                       *.- - %.%.%.%.%.` S $.%.%.%.%.%.` S ",
"$.%.%.%.%.%.8 P $.%.%.%.%.%.8 =.X -.                                                          ;.V *.%.%.%.%.8 C $.%.%.%.%.%.8 C ",
"%.8 8 8 8 8 O * %.8 8 8 8 8 O >.,.                                                              % '.8 8 8 8 O ] %.8 8 8 8 8 O ] ",
").= f $ # * N !.v !.F ` ` E : ~.r                                                               u ..- % ).] ~ u Q ] E $ w ) F u ",
"{.].].].].].^.B {.].].].].].^.W /.                                                              6 (.].].].].^._.{.].].].].].^._.",
"].^.^.^.^.^., * ].^.^.^.^.^., :.<.                                                              2 (.^.^.^.^., P ].^.^.^.^.^., P ",
"].[.[.[.[.[., # ].[.[.[.[.[., t }.                                                              $ |.[.[.[.[., / ].[.[.[.[.[., / ",
"1.[.[.[.[.[., ] 1.[.[.[.[.[., ;.2.                                                              4 3.[.[.[.[., : 1.[.[.[.[.[., : ",
"1.[.[.[.[.[., G 1.[.[.[.[.[., 4.5.                                                              & 6.[.[.[.[., !.1.[.[.[.[.[., !.",
"7.!.!.!.!.!., w 7.!.!.!.!.!., 8.9.                                                              ! s !.!.!.!., w 7.!.!.!.!.!., w ",
"!., , , , , 2 g !., , , , , 2 > 0.                                                              1 a., , , , 2 / !., , , , , 2 / ",
"{ ` N g O 8 v Q , V = * i G # R b.                                                              R c.( u # & Q ! S i ) < 7 a - ! ",
"d.e.e.e.e.e.!.6 d.e.e.e.e.e.!.1 c.                                                              > b.e.e.e.e.!.b d.e.e.e.e.e.!.b ",
"e.!.!.!.!.!.f.g.e.!.!.!.!.!.f.! a.                                                              8.0.!.!.!.!.f.u e.!.!.!.!.!.f.u ",
"e.!.!.!.!.!.f.S e.!.!.!.!.!.f.& s                                                               4.9.!.!.!.!.f./ e.!.!.!.!.!.f./ ",
"h.).).).).).f.< h.).).).).).f.4 6.                                                              ;.5.).).).).f.~ h.).).).).).f.~ ",
"h.).).).).).+.[ h.).).).).).+.$ 3.                                                              t 2.).).).).+.] h.).).).).).+.] ",
"h.i.i.i.i.i.+.3 h.i.i.i.i.i.+.2 |.                                                              :.}.i.i.i.i.+.v h.i.i.i.i.i.+.v ",
"i.+.+.+.+.+.) ~ i.+.+.+.+.+.) / (.                                                              j.<.+.+.+.+.) P i.+.+.+.+.+.) P ",
"{ ` N g O 8 v Q , V = * i G # = k.                                                              >.l.( u # & Q ! S i ) < 7 a - ! ",
"m.n.m.d.o.p.p.q.o.o.q.q.r.r.s.; t.                                                              L u.m.e g.e v.. w.x.. v.e y.T s.",
"n.z.0 9 A.1 $ $ $ 3 3 - 1 A.B.+.C.                                                               .D.n.8.E.F.Q x G.% Q E.i < - B.",
"n.0 a 0 Z H.L ~.L *.~.I.H.Z J.E B.                                                              K.L.n.H n.a R Q G.% 8.i n.a R J.",
"m.; 0 0 ;.- /.r M.K K K - ;.X g J.                                                              J N.m.% / :.A F.Z 4.' > / :.A X ",
"n.z.D 9 O.< P.l.Q.R.S.K < O.X | A                                                               T.U.n.V.% W.X.' F.4.G.S % W.X.X ",
"m.; Y.Y.=.Z.S.`. +`. +K Z.=.B.!..+                                                              ++p m.M % % > H G.' x 4.% S Z.B.",
"@+8 * D j.Q S.#+T.Q.$+K Q j.T.%+X.                                                              ..o @+V.M ' E.H H R Q Q H G.Z.T.",
"&+*+E * =+-+S.`. +`. +K -+=+t.c W.                                                              ;+n &+1 R V.V.V.i > ' F.Z > S t.",
"n.8 7 F j.H P.>+,+}.S.K H j.k.h W.                                                              '.n n.1 i ! Q S E.% Z.x x Q H k.",
"&+; f.*+>.F.z '+)+>+P.K F.>.++c W.                                                              ..o &+! 1 S 1 S R S S R G.4.' ++",
"@+7 ; * j.Q z z !+~+z K Q j.'.{+A                                                               ;+n @+< i 1 ]+R Q Q ' H 8.S E.'.",
"^+= * /+j.! K K z z K K j.j.|.h W.                                                              ..o ^+u w ] ] ]+V.M ' ' H > > |.",
"^+6 $ $ A =.(+(+(+_+_+>.=.A (.c W.                                                              ;+n ^+v : G P ( ]+Z.% S ' H % (.",
"^+: $ = :+2.2.<+2.2.2.2.2.:+t.h W.                                                              ..o ^+$ $ : ! P w ]+S ! i E.> t.",
"{.F u * [+t t }+4.} > G.-+R t.c W.                                                              ++p {.6 P : : G P ! ]+( 1 S Q t.",
"&+] : * 2 3 $ |+F Y.7 E ; 0 B.%+X.                                                              T.U.&+: O 3 $ P G < - M R i ' B.",
"T v 6 $ $ |+2 $ _.f.; E z.D t.!..+                                                              J N.T v ] 6 v v M ! i i S M Q t.",
"&+w ]+$ 2 v * /+O ; ; Y./+* @.| A                                                               K.L.&+6 P *+G O v G ( M w Z.V.@.",
"T w P P *+2 * 6 /+$ O _.8 F T.g J.                                                               .D.T _.|+*+*+]+] v : ]+- w ( T.",
"^+: M - u v F * v 6 * O f.f.t.E B.                                                              L u.^+*+6 $ 2 *+6 3 M : u P w t.",
"T - - ]+: P w F * O = /+7 f.J.+.C.                                                              L u.T * = 6 * $ *+2 v : : P M J.",
"T ] w ] M v 6 *+$ * v = v = J.; t.                                                              >.l.T ; F * _.2 |+v ]+] : ] P J.",
"T 1 i G w v $ 3 *+*+* _.v $ B./ k.                                                              j.<.T f.; 7 /+|+O 6 O 6 ] M ! B.",
"y.V.i i < ! : O 2 *+|+O : /+J.= (.                                                              :.}.y.Y.f.7 * 2 : u : $ 6 3 M J.",
"1+1 1 ]+! P ( v G $ *+O |+$ .+; 2+                                                              t 2.1+E Y.|+O $ |+3 G P *+u u .+",
"e Z.i ]+w < w ] ] O G *+F F J.+.~.                                                              ;.5.e ; F = 6 O _./+_.2 : : P J.",
"1+i M - ! w P - u v G 6 *+: K.E ~.                                                              4.9.1+= * 8 *+= = _.3 _.O O v K.",
"1+> Z.M - ]+1 w ! P v $ 3 *+.+g =.                                                              8.0.1+7 f.* Y.7 ; _.7 * _.u F .+",
". R d.[.M i M V.P G w d.[.M 3+| =.                                                              > b.. ; 4+d G 7 *+f.; 7 4+d G 3+",
"e S F 5+2+M - ]+w P G F 5+2+ .!.6+                                                              R c.e 8 Y.> 7+z.E f.f.; Y.> 7+ .",
"e G.> W.y R M ( M w P > W.y 8+%+6+                                                              1 a.e Y.= ~.9+9 z.E Y.f.= ~.9+8+",
"*.k.t.t.T.X @.@.T.t.B.J.B.J.8+c k.                                                              ! s *.7+Y >.9+>.~.*.*. .Y W.W.8+"};
