/* XPM */
static char * glass_xpm[] = {
"64 64 173 2",
"  	c None",
". 	c #FDFDFD",
"+ 	c #FEFEFE",
"@ 	c #FFFFFF",
"# 	c #FBFDFE",
"$ 	c #DDF9FB",
"% 	c #C3F5FE",
"& 	c #C0F5FF",
"* 	c #FEFDFE",
"= 	c #FCFDFF",
"- 	c #D9F7FB",
"; 	c #D6F8FC",
"> 	c #C2F6FE",
", 	c #C0F6FF",
"' 	c #F9FCFC",
") 	c #C9ECEF",
"! 	c #BBE8EE",
"~ 	c #BAE8EE",
"{ 	c #B7DBDC",
"] 	c #B3D9DD",
"^ 	c #B2D9DC",
"/ 	c #B3D8DD",
"( 	c #B3D8D8",
"_ 	c #B2D6DB",
": 	c #B2D6DA",
"< 	c #B4D7D8",
"[ 	c #B3D6DB",
"} 	c #B3D5DA",
"| 	c #B3D6DA",
"1 	c #B4D7DB",
"2 	c #B4D6DB",
"3 	c #B4D7DC",
"4 	c #B4D6D8",
"5 	c #B3D6D6",
"6 	c #B4D6D5",
"7 	c #B4D6D6",
"8 	c #FEFDFD",
"9 	c #B3D5DB",
"0 	c #C5F3FD",
"a 	c #C5F3FE",
"b 	c #C3F4FE",
"c 	c #B2D5D9",
"d 	c #B2D6D9",
"e 	c #C2F6FD",
"f 	c #C3F4FF",
"g 	c #C2F4FE",
"h 	c #C1F5FF",
"i 	c #C2F4FF",
"j 	c #C2F5FE",
"k 	c #C2F5FF",
"l 	c #C1F4FF",
"m 	c #BFF5FC",
"n 	c #BEF4FD",
"o 	c #BEF5FD",
"p 	c #B3D5D9",
"q 	c #B2D5DA",
"r 	c #C1F5FD",
"s 	c #C0F6FD",
"t 	c #BFF5FE",
"u 	c #B5D4D3",
"v 	c #B2D4D9",
"w 	c #B0D5DB",
"x 	c #B0D5D9",
"y 	c #C1F5FE",
"z 	c #C0F6FE",
"A 	c #B3D6D5",
"B 	c #B1D5DD",
"C 	c #B2D5DB",
"D 	c #C0F5FE",
"E 	c #B2D7D4",
"F 	c #B3D5DC",
"G 	c #B4D5DB",
"H 	c #C4F4FD",
"I 	c #BFF5FD",
"J 	c #B3D6D8",
"K 	c #B4D5D9",
"L 	c #C1F6FE",
"M 	c #B4D5DA",
"N 	c #C4F5FE",
"O 	c #C2F6FF",
"P 	c #B2D7D9",
"Q 	c #B2D7D5",
"R 	c #B1D7DA",
"S 	c #B1D6DC",
"T 	c #B4D6D9",
"U 	c #B3D6D9",
"V 	c #B5D6D6",
"W 	c #B2D6D8",
"X 	c #B2D7D6",
"Y 	c #B5D6D5",
"Z 	c #B1D7D9",
"` 	c #B3D7D7",
" .	c #B1D6DB",
"..	c #B2D6DC",
"+.	c #FDFEFE",
"@.	c #C3F5FD",
"#.	c #C4F2FE",
"$.	c #C3F2FD",
"%.	c #C2F5FB",
"&.	c #B1D7D7",
"*.	c #B2D7D8",
"=.	c #C3F6FE",
"-.	c #C0F3FF",
";.	c #BFF4FE",
">.	c #B2D8D9",
",.	c #C3F6FF",
"'.	c #C0F4FF",
").	c #BFF5FF",
"!.	c #BEF5FE",
"~.	c #C0F5FD",
"{.	c #B2D8DB",
"].	c #CCF7FA",
"^.	c #CDF8FB",
"/.	c #CCF7FB",
"(.	c #C2F3FE",
"_.	c #C1F3FD",
":.	c #C0F5FB",
"<.	c #B1DADE",
"[.	c #B0D9DD",
"}.	c #B1D8DB",
"|.	c #B1D9DC",
"1.	c #F8FDFE",
"2.	c #F9FDFE",
"3.	c #F9FCFE",
"4.	c #BEEEF5",
"5.	c #BDEEF4",
"6.	c #BDEEF3",
"7.	c #FFFEFF",
"8.	c #C1F4FC",
"9.	c #C1F4FD",
"0.	c #C0F4FE",
"a.	c #C2F4FD",
"b.	c #FDFFFE",
"c.	c #FCFEFE",
"d.	c #FCFEFD",
"e.	c #EFFBFD",
"f.	c #EEFCFE",
"g.	c #E7F8F9",
"h.	c #C2F5FD",
"i.	c #C7F6FE",
"j.	c #C6F6FE",
"k.	c #C5F6FF",
"l.	c #C0ECF3",
"m.	c #B6DCE0",
"n.	c #B4D6D7",
"o.	c #B5D6D7",
"p.	c #B5D6D4",
"q.	c #B3D7D6",
"r.	c #B3D7D5",
"s.	c #B6D4D7",
"t.	c #B3D5D7",
"u.	c #B3D5D6",
"v.	c #B2D6D6",
"w.	c #B1D9DA",
"x.	c #BFF2F9",
"y.	c #BCEBF3",
"z.	c #B5DBE0",
"A.	c #B1D6DA",
"B.	c #B1D7D8",
"C.	c #B4D6DA",
"D.	c #B2D7DA",
"E.	c #B2D8DC",
"F.	c #C0F1F7",
"G.	c #C2F5FC",
"H.	c #B4DBDF",
"I.	c #B3D7DD",
"J.	c #C1F0F7",
"K.	c #C2F6FC",
"L.	c #C3F6FC",
"M.	c #BBECF2",
"N.	c #B4DCDD",
"O.	c #B2D6D7",
"P.	c #B1D5D9",
"  . + + + + + + + + + +           + + + + + + + + + + + + + + + + + + + + + + + + + + + + @ @ + + + + + + + + + + + + # $ % & & ",
"  . + + + + + + + + + +         * + + + + + + + + + + + + + + + + + + + + + + + + + + + + @ @ + + + + + + + + + + + + = - % & & ",
"  + + + + + + + + + + +         * + + + + + + + + + + + + + + + + + + + + + + + + + + + + + + + + + + + + + + + + + + # ; > , , ",
"  + + + + + + + + + + +           + + + + + + + + + + + + + + + + + + + + + + + + + + + + + + + + + + + + + + + + + + ' ) ! ~ ~ ",
"  + + + +                                                                                                               { ] ^ / ",
"  + + + +                                                                                                               ( _ : : ",
"  + + + +                                                                                                               < [ } | ",
"  + + + +                                                                                                                 1 2 1 ",
"  + + + +                                               @ + + +                                                                 ",
"  + + + +                                               @ + + +                                                                 ",
"  + + + +                                               + + + +                                                                 ",
"  + + + +                                         + + + + .                                                                 3   ",
"  + + + +                                       + + + +                                                                 4 | [ [ ",
"  + + + +                                       * + + +                                                                 5 : : : ",
"  + + + +                                       * + + +                                                                 6 : : : ",
"  + + + +                                       * + + +                                                                 7 : : : ",
"  + + + +                               * + + +                                                                         7 : : : ",
"  + + + +                               * + + +                                                                         7 : : : ",
"  + + + +                               8 + + .                                                                         7 9 9 [ ",
"  + + + +                         0 a b                                                                                   c : d ",
"  + + + +                       e b f g                                                                                         ",
"  + + + +                       h i i j                                                                                         ",
"  + + + +                       k l i k                                                                                         ",
"                            m n o                                                                                         p q   ",
"                          r s t                                                                                         u v w x ",
"                          y z t                                                                                         A q B C ",
"                          h , D                                                                                         E d F G ",
"  . . .           H f j I                                                                                               E J K } ",
"  + + + +         j i h L                                                                                               E J M | ",
"  + + + +       N k i h O                                                                                               E P _ : ",
"  + + + +       % y y y L                                                                                               Q R S _ ",
"  + + + +                                                                                                               E d _ : ",
"  + + + +                                                                                                               E J T U ",
"  + + + +                                                                                                               E J T U ",
"  + + + +                                                                                                               E P _ d ",
"  + + + +                                                                                                                       ",
"  + + + +                                                                                                                       ",
"  + + + +                                                                                                                       ",
"  + + + +                                                                                                                       ",
"                                                                                                          + + +                 ",
"                                                                                                        + + + +                 ",
"                                                                                                        + + + +                 ",
"                                                                                                        + + + +                 ",
"  + + @                                                                                         * * * +                   V W X ",
"  + + @ @                                                                                       * + + +                 Y U : Z ",
"  + + @ @                                                                                       * + + +                 ` | U : ",
"  + + @                                                                                         * + @ @                 X U U d ",
"                                                                                          + + .                         E Z  .R ",
"                                                                                        + + + +                         Q R S  .",
"                                                                                        + + + @                         Q R ..R ",
"                                                                                        +.+ + @                         Q W d : ",
"  @.y > L                                                                       #.$.$.%.                                &.*.d Z ",
"  j j =.L                                                                       -.;.t D                                 >.: : Z ",
"  e j ,.>                                                                       '.).!.~.                                {.: : R ",
"  ].].^./.                                                                      (.(._.:.                                <.[.}.|.",
"  1.2.2.3.                                                                                                              4.5.6.6.",
"  * 7.7.+                                                                                                               8.9.0.a.",
"  +.b.c.d.                                                                                                              0.& D j ",
"  e.f.f.g.                                                                                                              t & r h.",
"  i.j.k.l.m.d : : : : : : : : } T n.o.o.o.o.o.n.                p.V q.6 6 r.7 s.        t.t.t.5 u.t.u.u.u.u.t.u.u.u.v.w.x.& h k ",
"  y h.y y.z.d : | : : | : : : : : : : : : : : :                 T [  .A.B.Z _ 9         C.} R R : M M D.R : } M : R R E.F.D z j ",
"  e G.j y.H.d : | : : : : : : D.R R R R R R R :                 U _ S A.Z R  .F         C.: R R : | | R R : | } R R : I.J.D & y ",
"  K.L.L M.N.O.W W W W J J J J J J J J J J J J J                 n.T : : : : : G         U P.P.: : : : : : : : : : : : / F.D & k ",
"                                                                                                                                "};
