/* XPM */
static char * 6_xpm[] = {
"64 64 45 1",
" 	c #2C2C2C",
".	c #7C7C7C",
"+	c #646464",
"@	c #000000",
"#	c #707070",
"$	c #383838",
"%	c #484848",
"&	c #202020",
"*	c #545454",
"=	c #BC7848",
"-	c #A86840",
";	c #DC8854",
">	c #F0945C",
",	c #A0643C",
"'	c #FC9C60",
")	c #FCA470",
"!	c #B47044",
"~	c #FCB080",
"{	c #D08050",
"]	c #905C34",
"^	c #E88C58",
"/	c #9C6038",
"(	c #80502C",
"_	c #6C4824",
":	c #5C4020",
"<	c #28200C",
"[	c #744C28",
"}	c #403018",
"|	c #FCBC9C",
"1	c #C87C4C",
"2	c #543C1C",
"3	c #382C14",
"4	c #885830",
"5	c #A8A8A8",
"6	c #D40000",
"7	c #7C0000",
"8	c #A80000",
"9	c #980000",
"0	c #A40000",
"a	c #FC0000",
"b	c #880000",
"c	c #700000",
"d	c #640000",
"e	c #4C0000",
"f	c #483818",
"                                                                ",
"                                                                ",
" ....................+ @  +........#+$@@   +....++% &           ",
" ..........**************%%%%%%%%%%%%%%%%%%%%%%%%%%%%%.......*@ ",
" ...%*+++++*%%%%%%%%$$$$$$$$$$$$$$$$$$&&&&&&&&&&&&&&&&......* @ ",
" ..+++$%++**%####################################### &%++%%+  @ ",
" #.%+%+$+%**%####################################### &%$%+%%  @ ",
" #.*++%+%%%*%####################################### &+*+%+*  @ ",
" %.%*%+%+*+*%#############*$       *+############### &+**+$*  @ ",
" %.%%*%%%%%*%############ &&&&&&&&&&& *#############$&%+%+%*  @ ",
"@ .+%*++*%**%########### &&&&& &&@&&&&& *###########$&*%***%  @ ",
"@ .%*%+%%*+*%##########=-%&&&  +* @& &&& *##########$&*%$$$$$ @ ",
"@ .$++%*%*+*%##########;>>>%-,%*+$@$%$&&& *#########$&$       @ ",
"@ $     & $*$#########=>'')>%!,  &@& &&&&&$#########$&  &&&&@@@ ",
"@@@@@&&&   *$#########;>''~>%!&&&&@&&&&&&& #########$&@@@@@@@@@ ",
" @@@@@@@@@@*$########;>>'~>>>{&&&&@&&&&&&&&#########$&@@@@@@@@@ ",
" &&&@@@@@@@*$########-],^~>>>>/((_:&&&&&&&&#########$&          ",
"           *$#########<<_,~>>'^{]]]]:&&@&& #########%&*@  @@@@@@",
"&&&&&&&&&  *$########'-&,^{>~^{{={{][}&@&& #########%& @ %+.....",
"...........*$#######'|>=^>>>^{{1;}]{}}@@& %#########%& @ +......",
"..........#*$######~|~^;='>^{{1=^!:^}}@@&%##########%& @ ...+**+",
"+%%%%+*%*%+*$######1,,,-;=;;;1==!]{,}}@@ ###########%& @ ...%*%%",
"%%*%*++++*%*$########&}^=^;;{1=-;^!2}}&@%###########%& @ ..+%%%*",
"%++%+*+%*++*$########}(>^{^{1-,]!_222}} ############%& @@..%*++*",
"+%%+%*%%%%+*$########';;>^{{-]](,=[[2}}%############%& @@..+%*%%",
"%+%%*%+*%+**$########!^{>^;1-]((/^=,_}}#############%& @@..%+***",
"   $$$%%%%%*$########^'^=;=,([(/^^^{,]22############%& @@.+$    ",
"           *$########{^=,]([[(/=^^,,[:22*+##########%&@@@+$     ",
"&&&&&&&&&&&*$###########(___(/=^,,[[[::322%+########%&@@@@@@@@@@",
"&@@@@@@@@@@*$#############/(//^,[[([_23::222%+######%&@@@@@@@@@@",
"  &@@@@@@@@%$###########+!//!^[[(((23:444[[:_2%+####%&&&&&&&&@& ",
"    @@@@@@@%&#########++!,!!/((//23:4///////((_2%###%&......+@@ ",
"   +#......%&########+%!!,!-4//_3:4///////////(_2*##%&.....+%@@ ",
"  +........%&#######+%2!4!!--/23(////](:((/////(:2*#%&%+%+%%&@@ ",
"  #.#+++%+%%&#######%:2!4!!-/224////]4::((((_____:2#%&+*%%% &@@ ",
"  ..%+%+++%%&######+::2!:4!/22//////4[2:((_(((____2#%&%%+%% &@@ ",
"  ..+**%*%+%&######%[[2(24234//////][:}}/////((_::}#%&%+*+* &@@ ",
"  ..%*%+%*%%&######([[2:244[///////4:}}//!///(/(22<#%&%**%* &@@ ",
"  .+%%+%%%%%&#####+([[}2_44///////]]:}//!//!([/(2}<#%&%%**+ &@@ ",
"  +   %%*%+%&#####%([[2244,,--////(:}}/!//!/([/_2}<#%&++*%+ &@@ ",
" @@&&& ++%%%&#####4([[2_4,,--,,,2(_}}((///!([4/_2}<#%&+%++% &@@ ",
" &@@@@&    %&####+44[2244,,-,,,2(__}*55(!!/4[//:}< #%&*+%*% &@@ ",
"    &@@@&&&%&####%4[[[244[2<<,,2_}}*&& 56!2([//2}<%#%&*%*%+ &@@ ",
"     &@@@@@%&###+(([[2_4/,,<<22_}*&5&555562[(//2}<*#%&%*%%  &@@ ",
"      &@@@@%&###%]]][244,,-:]__}7* &&&& 5899[//2<}##%&      @@@ ",
"           %&###((]]224/,,-[]__70a555&5&#89bb[_2<}##%&&&&&&@@@@ ",
" *####+*%$ %&###/][[2:4/,,,]_}(996#&& 5#*9bb7c2<}}##%&@@@@@@@@@ ",
" #.........%&###/[][4[4/,,,_}1,-:36#55#*9bb7cd2<}}##%&@@@@@@@@@ ",
" #.........%&##=-/[2/((___,1-41--:366899bb7cdde}}2##%&@@@@@@@@  ",
" #..*%%%%++%&##=!-///(((((111441,//3399bb7cdde}}22##%& @@@@@@@@@",
" #.*%%*+++*%&###=!!==(((--11-1,11/((33bb7cdde}}}2_##%&++++++++$@",
" #.%*+%%%*%%&####==#==//,11,,-111-((23b7cdde}}}__(##%&........ @",
" #.+%++%+*%%&#########--/1,]]((---(_f33cde}}}}2_(/##%&%++%%+%% @",
" #.++*%*%%%%&#########{--,//]]::::_222fde}}22_[(/-##%&%+%+%%+% @",
" #.%*%+%+%+%&##########{-----,//]______e}22_[(/--;##%&*%%+%*%+ @",
" #.+%*%%%*%%&############{=======--](((2__[(/--;;###%&%%*%+%+% @",
" #.%+%*%%%%%&###############{{{{{{{{{!!!!!--;;######%&%+%*%**& @",
" #.%%*%%%%%%&################;;;#####1111111########%&$$$$$$$  @",
" #.+%%%%%+%%&#######################################%&&&&&&&&&&@",
" ##%%%+%*%+%&     $$$$$$$%%%%%%%%%%%%%%%%%%%%%%%%%%%%&@@@@@@@@@@",
" *#        #&&&&&&&&&&&&&&&&&&&&&&&&&&&&&&&&&&&&&&&&&&@@@@@@@@@@",
"  *&&&&&&&&&&&&@@ @@@@@@@@@@@@@@@@@@@@@@@@@& &@@@@@@@@@@@@@@@@@ ",
" @@@@@@@@@@@@@@@@ &&&&&&&&&&&&&&&&&&&&&&&&&&   &&&&&&&&&&&&&&&& ",
"$$$$$$$$$$$$$$$$$$$$$$$$$$$$$$$$$$$$$$$$$$$$$$$$$$$$$$$$$$$$$$$$"};
