/* XPM */
static char * lab_metal_grey_tiles_clock_xpm[] = {
"64 64 205 2",
"  	c #A6A6A6",
". 	c #878787",
"+ 	c #686868",
"@ 	c #959595",
"# 	c #7C7C7C",
"$ 	c #8A8A8A",
"% 	c #9F9F9F",
"& 	c #A3A3A3",
"* 	c #898989",
"= 	c #494949",
"- 	c #787878",
"; 	c #ABABAB",
"> 	c #797979",
", 	c #999999",
"' 	c #868686",
") 	c #AFAFAF",
"! 	c #888888",
"~ 	c #696969",
"{ 	c #8C8C8C",
"] 	c #9E9E9E",
"^ 	c #858585",
"/ 	c #929292",
"( 	c #848484",
"_ 	c #A1A1A1",
": 	c #757575",
"< 	c #6A6A6A",
"[ 	c #4A4A4A",
"} 	c #818181",
"| 	c #5E5E5E",
"1 	c #3D3D3D",
"2 	c #222222",
"3 	c #080808",
"4 	c #000000",
"5 	c #0E0E0E",
"6 	c #242424",
"7 	c #B6B6B6",
"8 	c #939393",
"9 	c #767676",
"0 	c #5D5D5D",
"a 	c #010101",
"b 	c #272727",
"c 	c #434343",
"d 	c #828282",
"e 	c #909090",
"f 	c #6B6B6B",
"g 	c #2A2A2A",
"h 	c #8D8D8D",
"i 	c #B7B7B7",
"j 	c #484848",
"k 	c #030303",
"l 	c #020202",
"m 	c #333333",
"n 	c #666666",
"o 	c #A0A0A0",
"p 	c #616161",
"q 	c #969696",
"r 	c #B8B8B8",
"s 	c #B2B2B2",
"t 	c #B5B5B5",
"u 	c #B1B1B1",
"v 	c #9D9D9D",
"w 	c #747474",
"x 	c #919191",
"y 	c #AAAAAA",
"z 	c #9B9B9B",
"A 	c #444444",
"B 	c #3F3F3F",
"C 	c #BABABA",
"D 	c #606060",
"E 	c #C0C0C0",
"F 	c #363636",
"G 	c #717171",
"H 	c #A2A2A2",
"I 	c #A7A7A7",
"J 	c #979797",
"K 	c #8E8E8E",
"L 	c #7A7A7A",
"M 	c #7D7D7D",
"N 	c #7E7E7E",
"O 	c #ADADAD",
"P 	c #6C6C6C",
"Q 	c #9A9A9A",
"R 	c #808080",
"S 	c #6F6F6F",
"T 	c #BCBCBC",
"U 	c #646464",
"V 	c #5A5A5A",
"W 	c #6E6E6E",
"X 	c #4C4C4C",
"Y 	c #BFBFBF",
"Z 	c #5F5F5F",
"` 	c #5B5B5B",
" .	c #232323",
"..	c #3C3C3C",
"+.	c #C2C2C2",
"@.	c #A5A5A5",
"#.	c #252525",
"$.	c #8F8F8F",
"%.	c #6D6D6D",
"&.	c #050505",
"*.	c #ACACAC",
"=.	c #C5C5C5",
"-.	c #A8A8A8",
";.	c #515151",
">.	c #353535",
",.	c #4D4D4D",
"'.	c #C8C8C8",
").	c #414141",
"!.	c #323232",
"~.	c #D7D7D7",
"{.	c #181818",
"].	c #CBCBCB",
"^.	c #1D1D1D",
"/.	c #2C2C2C",
"(.	c #040404",
"_.	c #CECECE",
":.	c #C3C3C3",
"<.	c #A9A9A9",
"[.	c #D1D1D1",
"}.	c #C7C7C7",
"|.	c #B3B3B3",
"1.	c #D3D3D3",
"2.	c #B4B4B4",
"3.	c #CDCDCD",
"4.	c #656565",
"5.	c #707070",
"6.	c #4F4F4F",
"7.	c #D6D6D6",
"8.	c #BBBBBB",
"9.	c #0A0A0A",
"0.	c #4E4E4E",
"a.	c #151515",
"b.	c #D9D9D9",
"c.	c #1B1B1B",
"d.	c #DCDCDC",
"e.	c #525252",
"f.	c #2F2F2F",
"g.	c #585858",
"h.	c #949494",
"i.	c #505050",
"j.	c #BEBEBE",
"k.	c #0D0D0D",
"l.	c #DFDFDF",
"m.	c #060606",
"n.	c #737373",
"o.	c #1C1C1C",
"p.	c #575757",
"q.	c #E2E2E2",
"r.	c #2D2D2D",
"s.	c #424242",
"t.	c #E5E5E5",
"u.	c #535353",
"v.	c #E8E8E8",
"w.	c #565656",
"x.	c #B9B9B9",
"y.	c #3B3B3B",
"z.	c #EAEAEA",
"A.	c #626262",
"B.	c #4B4B4B",
"C.	c #CFCFCF",
"D.	c #EDEDED",
"E.	c #989898",
"F.	c #171717",
"G.	c #1A1A1A",
"H.	c #AEAEAE",
"I.	c #161616",
"J.	c #464646",
"K.	c #3E3E3E",
"L.	c #595959",
"M.	c #777777",
"N.	c #E4E4E4",
"O.	c #E6E6E6",
"P.	c #E7E7E7",
"Q.	c #E9E9E9",
"R.	c #E3E3E3",
"S.	c #E1E1E1",
"T.	c #E0E0E0",
"U.	c #DEDEDE",
"V.	c #DDDDDD",
"W.	c #D8D8D8",
"X.	c #DADADA",
"Y.	c #DBDBDB",
"Z.	c #B0B0B0",
"`.	c #D0D0D0",
" +	c #C6C6C6",
".+	c #8B8B8B",
"++	c #7F7F7F",
"@+	c #838383",
"#+	c #727272",
"$+	c #F1F1F1",
"%+	c #CACACA",
"&+	c #C9C9C9",
"*+	c #9C9C9C",
"=+	c #636363",
"-+	c #CCCCCC",
";+	c #454545",
">+	c #404040",
",+	c #373737",
"'+	c #383838",
")+	c #3A3A3A",
"!+	c #EBEBEB",
"~+	c #474747",
"{+	c #545454",
"]+	c #555555",
"^+	c #5C5C5C",
"  . . . . . +     . . . . . + @   . . . . . + #   . . . . . + $   . . . . . + %   . . . . . + &   . . . . . + *   . . . . . + * ",
". + + + + + = - . + + + + + = ; . + + + + + = > . + + + + + = , . + + + + + = ' . + + + + + = ) . + + + + + = & . + + + + + = & ",
"! ~ ~ ~ ~ ~ = ' ! ~ ~ ~ ~ ~ = { ! ~ ~ ~ ~ ~ = ~ ! ~ ~ ~ ~ ~ = ] ! ~ ~ ~ ~ ~ = ! ! ~ ~ ~ ~ ~ = ; ! ~ ~ ~ ~ ~ = ^ ! ~ ~ ~ ~ ~ = ^ ",
"* ~ ~ ~ ~ ~ = # * ~ ~ ~ ~ ~ = * * ~ ~ ~ ~ ~ = / * ~ ~ ~ ~ ~ = / * ~ ~ ~ ~ ~ = ( * ~ ~ ~ ~ ~ = _ * ~ ~ ~ ~ ~ = : * ~ ~ ~ ~ ~ = : ",
"* < < < < < [ ( * < < < < < [ } * < < < < < [ , * < < | 1 2 3 4 4 5 6 1 | < [ } * < < < < < [ @ * < < < < < [ 7 * < < < < < [ 7 ",
"$ < < < < < [ % $ < < < < < [ 8 $ < < < < < [ 9 $ 0 6 a 4 4 4 4 4 4 4 4 a b c d $ < < < < < [ e $ < < < < < [ ) $ < < < < < [ ) ",
"f [ [ [ [ [ g # f [ [ [ [ [ g h f [ [ [ [ [ g i j k 4 l m n * o o * p m l 4 l ~ f [ [ [ [ [ g ^ f [ [ [ [ [ g / f [ [ [ [ [ g / ",
"q r ) _ s ] # t u ] ! * v w x 9 $ % y ! , z s A 4 4 B % C C C D E C C C % F 4 l B > G H I ! & J K h % v ^ % L M   @ { , J N ! M ",
"O { { { { { P Q O { { { { { P R O { { { { { c 4 l S T D T T T 4 4 T T T D T U l l V { { { { P Q O { { { { { P W O { { { { { P W ",
"h P P P P P X v h P P P P P X / h P P P P | k 4 f Y Y Y Y Y Y 4 4 & Y Y Y Y Y Z 4 3 ` P P P X ! h P P P P P X { h P P P P P X { ",
"h P P P P P X O h P P P P P X J h P P P P  .4 ..+.+.+.+.+.+.+.4 4 @.+.+.+.+.+.Y m 4 #.~ P P X I h P P P P P X * h P P P P P X * ",
"$.%.%.%.%.%.X w $.%.%.%.%.%.X q $.%.%.%.V 4 &.*.D =.=.=.=.=.=.4 4 -.=.=.=.4 =.D & l a ;.%.%.X 8 $.%.%.%.%.%.X } $.%.%.%.%.%.X } ",
"$.%.%.%.%.%.X & $.%.%.%.%.%.X Q $.%.%.%.>.4 ,.'.'.'.'.'.'.'.'.4 4 y '.'.4 '.y '.'.).4 !.~ %.X ~.$.%.%.%.%.%.X N $.%.%.%.%.%.X N ",
"$.W W W W W ,.K $.W W W W W ,.x $.W W W {.4 K ].].].].].].].].4 4 O ].4 ].O ].].].} 4 ^.| W ,.$ $.W W W W W ,.s $.W W W W W ,.s ",
"W ,.,.,.,.,./.% W ,.,.,.,.,./.Q W ,.,.,.(.4 C _._._._._._._._.4 4 ) 4 _.) _._._._.u 4 3 ..,./.%.W ,.,.,.,.,./.{ W ,.,.,.,.,./.{ ",
"E & :.@   % I Y q Y v <.<.u / M h ) s 8 4 4 [.E E E [.[.[.[.[.4 4 4 [.s [.[.D D D }.4 4 # I Q , % v * # E { ) e L { u @ h , v e ",
"|.x x x x x S r |.x x x x x S t |.x x x 4 4 1.D D D 1.1.1.1.1.4 4 2.2.1.1.1.E E E 3.4 4 4.x S _ |.x x x x x S H |.x x x x x S H ",
"/ 5.5.5.5.5.6.% / 5.5.5.5.5.6.r / 5.5.5.&.4 =.7.7.7.7.7.7.7.7.7.7 7 7.7.7.7.7.7.7.8.4 9.0.5.6.<./ 5.5.5.5.5.6.K / 5.5.5.5.5.6.K ",
"/ G G G G G 6.  / G G G G G 6.{ / G G G a.4 % b.b.b.b.b.b.b.b.b.b.b.b.b.b.b.b.b.b.x 4 c.;.G 6.w / G G G G G 6.] / G G G G G 6.] ",
"8 G G G G G 6.{ 8 G G G G G 6.* 8 G G G m 4 D d.d.d.d.d.d.d.d.d.d.d.d.d.d.d.d.d.d.e.4 f.g.G 6.E 8 G G G G G 6./ 8 G G G G G 6./ ",
"h.G G G G G i.x h.G G G G G i.j.h.G G G g.4 k.3.D l.l.l.l.l.l.l.l.l.l.l.l.l.l.D :.m.4 j D G i.J h.G G G G G i.Y h.G G G G G i.Y ",
"@ n.n.n.n.n.i.h @ n.n.n.n.n.i.I @ n.n.n.n.o.4 p.q.q.q.q.q.q.q.q.q.q.q.q.q.q.q.q.,.4 2 i.W n.i.O @ n.n.n.n.n.i.h @ n.n.n.n.n.i.h ",
"n.i.i.i.i.i.r.7 n.i.i.i.i.i.r.> n.i.i.i.i.s.4 4 q t.t.t.t.t.t.E D t.t.t.t.t.t.. 4 k m B i.i.r.9 n.i.i.i.i.i.r.] n.i.i.i.i.i.r.] ",
"].<.I 7 J y q L ; R & % d x   K ^ @ Q / ) ] u.4 9.H v.D v.v.v.E D v.v.v.D v.J m.4 w.9 E & R R _.! % ! e   $ L ' N d , ( @.8.* ' ",
"x.J J J J J w Q x.J J J J J w _ x.J J J J J w y.4 l %.d.z.z.z.E D z.z.z.d.A.4 4 [ ~ ^ J J J w y x.J J J J J w +.x.J J J J J w +.",
"J w w w w w ;.7.J w w w w w ;.z J w w w w w ;.<.B.a 4 k.D & C.D.D.C.z D k.4 a j ~ p w w w w ;.x J w w w w w ;.e J w w w w w ;.e ",
"E.w w w w w ;.N E.w w w w w ;.|.E.w w w w w ;.v E.;.F.4 4 4 4 4 4 4 4 4 4 G.!.g.' w w w w w ;.) E.w w w w w ;.] E.w w w w w ;.] ",
", : : : : : ;.( , : : : : : ;.I , : : : : : ;.H., : %.[ r.I.a 4 4 k F.r.J.;.K., , : : : : : ;.; , : : : : : ;.) , : : : : : ;.) ",
", : : : : : e._ , : : : : : e.v , : : : : : e.{ , : : : %.p K.M < ;.e.L.p %.e.e , : : : : : e.H , : : : : : e.{ , : : : : : e.{ ",
", 9 9 9 9 9 e.8 , 9 9 9 9 9 e._ , 9 9 9 9 9 e.] , 9 9 9 9 9 e.Y , 9 9 9 9 9 e.8., 9 9 9 9 9 e.<., 9 9 9 9 9 e.q , 9 9 9 9 9 e.q ",
"M.u.u.u.u.u.f.) M.u.u.u.u.u.f.Q M.u.u.u.u.u.f.v M.u.u.u.u.u.f.@ M.u.u.u.u.u.f.O M.u.u.u.u.u.f.O M.u.u.u.u.u.f.K M.u.u.u.u.u.f.K ",
"].<.I 7 J y q L ; R & % d x   K ^ @ Q / ) ] H _ 7 ; $ q s i %.@ ( q i ( @.<.R 7 / H.  '.& R R _.! % ! e   $ L ' N d , ( @.8.* ' ",
"t.N.t.O.v.P.P.Q.v.v.Q.Q.z.z.z.Q.Q.v.v.v.t.t.P.P.R.R.O.t.q.R.N.S.R.R.q.T.l.U.l.l.T.l.T.l.l.U.d.U.V.V.W.X.7.X.d.Y.b.W.Y.d.X.U.l.=.",
"N.|.i Z.x.E :.8.j._.:.=.[.`.C.3.j.j.E  +T Z.u u -.@.t -.*.@.% J @ v Q x K J .+! 8 / { K h .+++L @+# M n.M.G L w #+# L M.d ( * ).",
"N.Z.$+7.Z.:.T T 8.'.E 3.%+[.`.C.'.j.+.&+x.+.+.E T 8.@.t |.u v *+J @ @ H Q K E.Q J K { x .+} N ( L N M.9 L w # L #+# n.d N.8.M c ",
"t.i &+. =+t E 8.x.%+'.%+_.`.-+_. +&+E %+=.:.=.+.E T 8.u -.y v -.Q *+o H 8 *+E.K Q / q K ( @+} . @+L N # d ++N G W S > - ] D ;+1 ",
"N.y Z.Z + x.i =.i x.%+3._.C.'.'.=.-+%+-+%+&+x.:.+.E T H.@.*.*.-.H.v & @.% J @ v J Q J ! ' ( . .+N ( L @+M.d ++> G S #+N # [ j 1 ",
"t.-.H.H.8.x.t E |.j.'.%+3.%+_. +'.-+&+_.3. +'. +=.|.E T u y -.H I & & -.& & *+z v Q / J q ' ! ' ! } M . # # - 9 #+> w S # N ++).",
"R.y % t I |.H.E |.8. +T %+ +-+C.`.[.`.%+&+=.%+&+ +|.T H.H.-.@.& *.*.@.*.@.Q 8 H @ v J Q x . ' ( K } ++@+. > M.9 9 M L L 9 #+++>+",
"S.z u % @.@.Z.T |.Z.=. +&+E 3.-+:.=._.`.'.-+:.+.E t 8.Z.8.t -.-.& H v H.*.I @ & H % E.z e h @ K ( d . } M @+@+@+d - > G W - N K.",
"N.y @.v y |.Z.-.H.|.i =.:.+.8.E '.-+%+C.`.&+_.&+T j.t :.x.t i -.@.& -.H.H.I -.@.& H % v { e q . ' ( d } d ' L N M.# ++w w L 9 ..",
"S.-.*.z H @.t H.t |.x.u x.t x.'.3._._.%+`.`.'.E 3. ++.=.=.Z.H.y |.@.& *.u v H J @.& H z K z .+/ ! ' x ' } N } N M N N M #+S > y.",
"R.@.-.% y H.% t i 8.8.u E =.i &+%+3.E '.=.`.%+_._.&+%+&+ +=.u E t u *.@.@.-.z Q -.z & 8 z 8 z x { / h ( d } .+M L L > 9 n.N M.,+",
"T.& % o Q z & & H.i i u i i =.j.&++.:.E =.=.`.&+-+ +E &+&+ +=.Z.E y -.@.y o H I y -.@ Q % e v E.J K { e h { { .+@+. > > 9 - - '+",
"T.Q @ @ Q v z u *.Z.i u T E T T t x.8.'.-+=.=.'.3.'.&+j.8.+.8.+.t 8.y -.@.-.|.u H.-.-.o 8 H % 8 z { ! q / x K ! .+++# N > 9 # )+",
"T./ @ & @.Q Q H.Z.Z.u i 8.T E +.i  +:.8.:.:.%+=.3.=. +%+j. +&+t |.i H.y -.i t |.& *.o % E.8 E.% v @ Q @ @ / ' K h .+N ' d M.- K.",
"q.v e % & J J Q @.H.|.y i 8.i i i i +.x.8.=.E :.=.&+=._._.'.&+&+:.:.Z.E T 8.i H.H v y Q @.% E.H % v @ Q K / / x K ' .+! } N L K.",
"S.{ / % E.8 @ *+v H.@.u -.i i 8.E +.=.t :.T  +E :.%+&+=.C. +E %+x.=.|.u |.T -.i y % v I % o E.& H % v / J 8 @ K x ( * . M d > ).",
"l.q Q @ @ *+E.@ H *.-.u |.t Z.t T E j.=.E 8.8.j.:. +`.'.'.=.3.3.+.&+t |.+.H.H.-.@.& o u H.Q % J 8 *+% q { Q q q . ' d d N . L K.",
"S.h .+@ E.q % o J -.-.H.o % H.I 8.i E +.:. ++.&+%+3.'.=.'. +C._. +E &+:.|.+.E |.|.u y |.v -.Q % @.*+/ Q K z x J q x ! . h ++@+s.",
"l.h K K z E.% Q o @ J H y v & Z.@.i T u T =.:.8.8.=.:.:.3.%+&+_._.3.E &+j.T 8.H.8.Z.*.& H.v H Q -.J & H *+z z .+{ q / .+* h ! >+",
"T./ . * e q v % q Q % J *.*.y % Z.t 8.T H.Z.8.8.x.8.j.E C.`.[.`.C.3.%+%+&++.j.+.E y H.H.Z.u & v Q % @.z Q @ E.z Q 8 . / e K h K.",
"l.* * .+/ K h v % J & o @.*.v y |.t i y T H.u j.t x.8. +_.C.`.[.=.:.-+ +%+x.x.T +.8.y i *.|.I H & y J % & Q % @ z E.q / / K . c ",
"l.{ h { . q Q z @ % q & q & @.H.*.*.t i x.u H.Z.E t x.:.3._.C.`.C._.C.'.3.8.x.T =.+.E |.-.@.I o u *.*.-.v % H E.*+q .+{ / { K c ",
"l.} d x h q @ 8 z z % H q @ E.*.H.u -.@.u u y u Z.+. +&+%+3._.%+=.-+`. +-+=.E T t :.+.H.8.8.@.& |.-.y *.-.@.o *+J Q J Q { . ' ).",
"U.@+d d ( ' / J E.z *+J / o E.& v & & *.H.I |.y E u j.+.&+=. +-+%+ +3.`.:.:.j.8.E :.E x.|.T *.t I |.u H.*.@.% E./ e / @ Q 8 . c ",
"V.} } .+' K ! q x @ z J *+@ 8 *+J z H.u |.& @.*.*.t +.=. +=.'.j.:.'.`.%+=.-+E :.T E t 8.+.Z.T -.i I |.u H.*+J @ *+8 x K z e e J.",
"X.++d .+h ( h { { J x z v v E.@ H -.Q H.v o & Z.8.T j.E =. +&+%+j.%+-+`.'. +:.E %+E x.t t E H.*.|.Z.u -.v & Q J H o H E./ / K c ",
"V.d . * ' h K * e q x Q z / % *+Q @.& *.o & y |.i 8.x.u i =. +:.8.-+_.=.%+'.=.:.&+%+=.x.j.E j.H.T H.Z.& % y z & & H 8 H J J q = ",
"V.- ++. * .+} h ' K q @ 8 z v e *+o J J Q *+& |.-.i x.T j.+.=.=.x.&+3.3.:.3.'.`.:.E E  +=. +|.i H.|.8.@.*.% H.@.-.H @.% H e v J.",
"Y.M O.j.. d . @+K x h h J h z v % v Q @ z Q z u @.t i 8.i Z.+.=.t :.j.&+-+'.=.-+%+:.=.'.+.8.+.|.Z.H.y -.*.*.u @.z *.-.@.!+C.x ,.",
"X.N v p ~+. * .+h K x / q J K 8 v % H 8 @ *+Q *+*.|.|.u |.Z.E 8.+. +&+&+j.=._._._.3.3.'.j.=.j.t i |.Z.y -.i t |.u *.*.-.H.- {+0.",
"X.#+- [ B.M . ! . h K x * 8 K Q z v *+z *+@ I % y u & *.i Z.T E +.=. +&+%+E _.C.`.C.-+_.:.-++. +8.8.Z.H.u |.i Z.|.u H.*.& w.L.6.",
"]+..K.K.>+1 s.s.>+K.).c ).c j ~+B.,.~+0.6.= i.,.u.{+{+0.;.p.L.L.w.` ^+p.0 D p p A.=+0 ^+` L.p.L.]+L.V {+u.p.L.p.w.]+]+0.u.[ [ 6."};
