/* XPM */
static char * lab_metal_grey_tiles_xpm[] = {
"64 64 166 2",
"  	c #A6A6A6",
". 	c #878787",
"+ 	c #686868",
"@ 	c #959595",
"# 	c #7C7C7C",
"$ 	c #8A8A8A",
"% 	c #9F9F9F",
"& 	c #A3A3A3",
"* 	c #898989",
"= 	c #494949",
"- 	c #787878",
"; 	c #ABABAB",
"> 	c #797979",
", 	c #999999",
"' 	c #868686",
") 	c #AFAFAF",
"! 	c #888888",
"~ 	c #696969",
"{ 	c #8C8C8C",
"] 	c #9E9E9E",
"^ 	c #858585",
"/ 	c #929292",
"( 	c #848484",
"_ 	c #A1A1A1",
": 	c #757575",
"< 	c #6A6A6A",
"[ 	c #4A4A4A",
"} 	c #818181",
"| 	c #828282",
"1 	c #B6B6B6",
"2 	c #939393",
"3 	c #767676",
"4 	c #AAAAAA",
"5 	c #909090",
"6 	c #6B6B6B",
"7 	c #2A2A2A",
"8 	c #8D8D8D",
"9 	c #B7B7B7",
"0 	c #717171",
"a 	c #969696",
"b 	c #B8B8B8",
"c 	c #B2B2B2",
"d 	c #B5B5B5",
"e 	c #B1B1B1",
"f 	c #9D9D9D",
"g 	c #747474",
"h 	c #919191",
"i 	c #9B9B9B",
"j 	c #7A7A7A",
"k 	c #808080",
"l 	c #6D6D6D",
"m 	c #727272",
"n 	c #A2A2A2",
"o 	c #A7A7A7",
"p 	c #979797",
"q 	c #8E8E8E",
"r 	c #7D7D7D",
"s 	c #7E7E7E",
"t 	c #ADADAD",
"u 	c #6C6C6C",
"v 	c #9A9A9A",
"w 	c #6E6E6E",
"x 	c #4C4C4C",
"y 	c #8F8F8F",
"z 	c #D7D7D7",
"A 	c #4D4D4D",
"B 	c #A5A5A5",
"C 	c #2C2C2C",
"D 	c #C0C0C0",
"E 	c #C3C3C3",
"F 	c #BFBFBF",
"G 	c #A9A9A9",
"H 	c #B3B3B3",
"I 	c #6F6F6F",
"J 	c #707070",
"K 	c #4F4F4F",
"L 	c #CFCFCF",
"M 	c #BABABA",
"N 	c #949494",
"O 	c #505050",
"P 	c #BEBEBE",
"Q 	c #737373",
"R 	c #2D2D2D",
"S 	c #CBCBCB",
"T 	c #AEAEAE",
"U 	c #C8C8C8",
"V 	c #CECECE",
"W 	c #BBBBBB",
"X 	c #B9B9B9",
"Y 	c #C2C2C2",
"Z 	c #515151",
"` 	c #D6D6D6",
" .	c #C6C6C6",
"..	c #989898",
"+.	c #BCBCBC",
"@.	c #525252",
"#.	c #777777",
"$.	c #535353",
"%.	c #2F2F2F",
"&.	c #E5E5E5",
"*.	c #E4E4E4",
"=.	c #E6E6E6",
"-.	c #E8E8E8",
";.	c #E7E7E7",
">.	c #E9E9E9",
",.	c #EAEAEA",
"'.	c #E3E3E3",
").	c #E2E2E2",
"!.	c #E1E1E1",
"~.	c #E0E0E0",
"{.	c #DFDFDF",
"].	c #DEDEDE",
"^.	c #DCDCDC",
"/.	c #DDDDDD",
"(.	c #D8D8D8",
"_.	c #DADADA",
":.	c #DBDBDB",
"<.	c #D9D9D9",
"[.	c #C5C5C5",
"}.	c #B0B0B0",
"|.	c #D1D1D1",
"1.	c #D0D0D0",
"2.	c #CDCDCD",
"3.	c #A8A8A8",
"4.	c #ACACAC",
"5.	c #8B8B8B",
"6.	c #7F7F7F",
"7.	c #838383",
"8.	c #414141",
"9.	c #F1F1F1",
"0.	c #CACACA",
"a.	c #C9C9C9",
"b.	c #9C9C9C",
"c.	c #434343",
"d.	c #636363",
"e.	c #CCCCCC",
"f.	c #A0A0A0",
"g.	c #606060",
"h.	c #454545",
"i.	c #3D3D3D",
"j.	c #5F5F5F",
"k.	c #484848",
"l.	c #404040",
"m.	c #3E3E3E",
"n.	c #3C3C3C",
"o.	c #3B3B3B",
"p.	c #373737",
"q.	c #383838",
"r.	c #3A3A3A",
"s.	c #424242",
"t.	c #464646",
"u.	c #EBEBEB",
"v.	c #616161",
"w.	c #474747",
"x.	c #545454",
"y.	c #4E4E4E",
"z.	c #4B4B4B",
"A.	c #565656",
"B.	c #595959",
"C.	c #555555",
"D.	c #575757",
"E.	c #5B5B5B",
"F.	c #5C5C5C",
"G.	c #5D5D5D",
"H.	c #626262",
"I.	c #5A5A5A",
"  . . . . . +     . . . . . + @   . . . . . + #   . . . . . + $   . . . . . + %   . . . . . + &   . . . . . + *   . . . . . + * ",
". + + + + + = - . + + + + + = ; . + + + + + = > . + + + + + = , . + + + + + = ' . + + + + + = ) . + + + + + = & . + + + + + = & ",
"! ~ ~ ~ ~ ~ = ' ! ~ ~ ~ ~ ~ = { ! ~ ~ ~ ~ ~ = ~ ! ~ ~ ~ ~ ~ = ] ! ~ ~ ~ ~ ~ = ! ! ~ ~ ~ ~ ~ = ; ! ~ ~ ~ ~ ~ = ^ ! ~ ~ ~ ~ ~ = ^ ",
"* ~ ~ ~ ~ ~ = # * ~ ~ ~ ~ ~ = * * ~ ~ ~ ~ ~ = / * ~ ~ ~ ~ ~ = / * ~ ~ ~ ~ ~ = ( * ~ ~ ~ ~ ~ = _ * ~ ~ ~ ~ ~ = : * ~ ~ ~ ~ ~ = : ",
"* < < < < < [ ( * < < < < < [ } * < < < < < [ , * < < < < < [ | * < < < < < [ } * < < < < < [ @ * < < < < < [ 1 * < < < < < [ 1 ",
"$ < < < < < [ % $ < < < < < [ 2 $ < < < < < [ 3 $ < < < < < [ 4 $ < < < < < [ | $ < < < < < [ 5 $ < < < < < [ ) $ < < < < < [ ) ",
"6 [ [ [ [ [ 7 # 6 [ [ [ [ [ 7 8 6 [ [ [ [ [ 7 9 6 [ [ [ [ [ 7 0 6 [ [ [ [ [ 7 a 6 [ [ [ [ [ 7 ^ 6 [ [ [ [ [ 7 / 6 [ [ [ [ [ 7 / ",
"a b ) _ c ] # d e ] ! * f g h 3 $ % 4 ! , i c j @ ^ k { a l , 4 / h ! & $ m i % m > 0 n o ! & p q 8 % f ^ % j r   @ { , p s ! r ",
"t { { { { { u v t { { { { { u k t { { { { { u j t { { { { { u 9 t { { { { { u } t { { { { { u v t { { { { { u w t { { { { { u w ",
"8 u u u u u x f 8 u u u u u x / 8 u u u u u x 5 8 u u u u u x : 8 u u u u u x h 8 u u u u u x ! 8 u u u u u x { 8 u u u u u x { ",
"8 u u u u u x t 8 u u u u u x p 8 u u u u u x l 8 u u u u u x ( 8 u u u u u x 8 8 u u u u u x o 8 u u u u u x * 8 u u u u u x * ",
"y l l l l l x g y l l l l l x a y l l l l l x f y l l l l l x i y l l l l l x l y l l l l l x 2 y l l l l l x } y l l l l l x } ",
"y l l l l l x & y l l l l l x v y l l l l l x # y l l l l l x o y l l l l l x s y l l l l l x z y l l l l l x s y l l l l l x s ",
"y w w w w w A q y w w w w w A h y w w w w w A B y w w w w w A v y w w w w w A h y w w w w w A $ y w w w w w A c y w w w w w A c ",
"w A A A A A C % w A A A A A C v w A A A A A C g w A A A A A C p w A A A A A C ; w A A A A A C l w A A A A A C { w A A A A A C { ",
"D & E @   % o F a F f G G e / r 8 ) c 2 p % ) 3 2 E ! a   v $ H 4 ' % , ! p / a H % 8 ; 4 o v , % f * # D { ) 5 j { e @ 8 , f 5 ",
"H h h h h h I b H h h h h h I d H h h h h h I o H h h h h h I o H h h h h h I * H h h h h h I _ H h h h h h I n H h h h h h I n ",
"/ J J J J J K % / J J J J J K b / J J J J J K { / J J J J J K o / J J J J J K L / J J J J J K G / J J J J J K q / J J J J J K q ",
"/ 0 0 0 0 0 K   / 0 0 0 0 0 K { / 0 0 0 0 0 K t / 0 0 0 0 0 K j / 0 0 0 0 0 K G / 0 0 0 0 0 K g / 0 0 0 0 0 K ] / 0 0 0 0 0 K ] ",
"2 0 0 0 0 0 K { 2 0 0 0 0 0 K * 2 0 0 0 0 0 K a 2 0 0 0 0 0 K M 2 0 0 0 0 0 K   2 0 0 0 0 0 K D 2 0 0 0 0 0 K / 2 0 0 0 0 0 K / ",
"N 0 0 0 0 0 O h N 0 0 0 0 0 O P N 0 0 0 0 0 O t N 0 0 0 0 0 O / N 0 0 0 0 0 O r N 0 0 0 0 0 O p N 0 0 0 0 0 O F N 0 0 0 0 0 O F ",
"@ Q Q Q Q Q O 8 @ Q Q Q Q Q O o @ Q Q Q Q Q O b @ Q Q Q Q Q O 8 @ Q Q Q Q Q O _ @ Q Q Q Q Q O t @ Q Q Q Q Q O 8 @ Q Q Q Q Q O 8 ",
"Q O O O O O R 1 Q O O O O O R > Q O O O O O R 4 Q O O O O O R p Q O O O O O R 5 Q O O O O O R 3 Q O O O O O R ] Q O O O O O R ] ",
"S G o 1 p 4 a j ; k & % | h   q ^ @ v / ) ] n _ 1 ; $ a c 9 l @ ( a 9 ( B G k 1 / T   U & k k V ! % ! 5   $ j ' s | , ( B W * ' ",
"X p p p p p g v X p p p p p g _ X p p p p p g h X p p p p p g f X p p p p p g H X p p p p p g 4 X p p p p p g Y X p p p p p g Y ",
"p g g g g g Z ` p g g g g g Z i p g g g g g Z G p g g g g g Z  .p g g g g g Z h p g g g g g Z h p g g g g g Z 5 p g g g g g Z 5 ",
"..g g g g g Z s ..g g g g g Z H ..g g g g g Z f ..g g g g g Z +...g g g g g Z s ..g g g g g Z ) ..g g g g g Z ] ..g g g g g Z ] ",
", : : : : : Z ( , : : : : : Z o , : : : : : Z T , : : : : : Z G , : : : : : Z n , : : : : : Z ; , : : : : : Z ) , : : : : : Z ) ",
", : : : : : @._ , : : : : : @.f , : : : : : @.{ , : : : : : @.H , : : : : : @.5 , : : : : : @.n , : : : : : @.{ , : : : : : @.{ ",
", 3 3 3 3 3 @.2 , 3 3 3 3 3 @._ , 3 3 3 3 3 @.] , 3 3 3 3 3 @.F , 3 3 3 3 3 @.W , 3 3 3 3 3 @.G , 3 3 3 3 3 @.a , 3 3 3 3 3 @.a ",
"#.$.$.$.$.$.%.) #.$.$.$.$.$.%.v #.$.$.$.$.$.%.f #.$.$.$.$.$.%.@ #.$.$.$.$.$.%.t #.$.$.$.$.$.%.t #.$.$.$.$.$.%.q #.$.$.$.$.$.%.q ",
"S G o 1 p 4 a j ; k & % | h   q ^ @ v / ) ] n _ 1 ; $ a c 9 l @ ( a 9 ( B G k 1 / T   U & k k V ! % ! 5   $ j ' s | , ( B W * ' ",
"&.*.&.=.-.;.;.>.-.-.>.>.,.,.,.>.>.-.-.-.&.&.;.;.'.'.=.&.).'.*.!.'.'.).~.{.].{.{.~.{.~.{.{.].^.]././.(._.` _.^.:.<.(.:.^._.].{.[.",
"*.H 9 }.X D E W P V E [.|.1.L 2.P P D  .+.}.e e 3.B d 3.4.B % p @ f v h q p 5.! 2 / { q 8 5.6.j 7.# r Q #.0 j g m # j #.| ( * 8.",
"*.}.9.` }.E +.+.W U D 2.0.|.1.L U P Y a.X Y Y D +.W B d H e f b.p @ @ n v q ..v p q { h 5.} s ( j s #.3 j g # j m # Q | *.W r c.",
"&.9 a.. d.d D W X 0.U 0.V 1.e.V  .a.D 0.[.E [.Y D +.W e 3.4 f 3.v b.f.n 2 b...q v / a q ( 7.} . 7.j s # | 6.s 0 w I > - ] g.h.i.",
"*.4 }.j.+ X 9 [.9 X 0.2.V L U U [.e.0.e.0.a.X E Y D +.T B 4.4.3.T f & B % p @ f p v p ! ' ( . 5.s ( j 7.#.| 6.> 0 I m s # [ k.i.",
"&.3.T T W X d D H P U 0.2.0.V  .U e.a.V 2. .U  .[.H D +.e 4 3.n o & & 3.& & b.i f v / p a ' ! ' ! } r . # # - 3 m > g I # s 6.8.",
"'.4 % d o H T D H W  .+.0. .e.L 1.|.1.0.a.[.0.a. .H +.T T 3.B & 4.4.B 4.B v 2 n @ f p v h . ' ( q } 6.7.. > #.3 3 r j j 3 m 6.l.",
"!.i e % B B }.+.H }.[. .a.D 2.e.E [.V 1.U e.E Y D d W }.W d 3.3.& n f T 4.o @ & n % ..i 5 8 @ q ( | . } r 7.7.7.| - > 0 w - s m.",
"*.4 B f 4 H }.3.T H 9 [.E Y W D U e.0.L 1.a.V a.+.P d E X d 9 3.B & 3.T T o 3.B & n % f { 5 a . ' ( | } | ' j s #.# 6.g g j 3 n.",
"!.3.4.i n B d T d H X e X d X U 2.V V 0.1.1.U D 2. .Y [.[.}.T 4 H B & 4.e f n p B & n i q i 5./ ! ' h ' } s } s r s s r m I > o.",
"'.B 3.% 4 T % d 9 W W e D [.9 a.0.2.D U [.1.0.V V a.0.a. .[.e D d e 4.B B 3.i v 3.i & 2 i 2 i h { / 8 ( | } 5.r j j > 3 Q s #.p.",
"~.& % f.v i & & T 9 9 e 9 9 [.P a.Y E D [.[.1.a.e. .D a.a. .[.}.D 4 3.B 4 f.n o 4 3.@ v % 5 f ..p q { 5 8 { { 5.7.. > > 3 - - q.",
"~.v @ @ v f i e 4.}.9 e +.D +.+.d X W U e.[.[.U 2.U a.P W Y W Y d W 4 3.B 3.H e T 3.3.f.2 n % 2 i { ! a / h q ! 5.6.# s > 3 # r.",
"~./ @ & B v v T }.}.e 9 W +.D Y 9  .E W E E 0.[.2.[. .0.P  .a.d H 9 T 4 3.9 d H & 4.f.% ..2 ..% f @ v @ @ / ' q 8 5.s ' | #.- m.",
").f 5 % & p p v B T H 4 9 W 9 9 9 9 Y X W [.D E [.a.[.V V U a.a.E E }.D +.W 9 T n f 4 v B % ..n % f @ v q / / h q ' 5.! } s j m.",
"!.{ / % ..2 @ b.f T B e 3.9 9 W D Y [.d E +. .D E 0.a.[.L  .D 0.X [.H e H +.3.9 4 % f o % f...& n % f / p 2 @ q h ( * . r | > 8.",
"{.a v @ @ b...@ n 4.3.e H d }.d +.D P [.D W W P E  .1.U U [.2.2.Y a.d H Y T T 3.B & f.e T v % p 2 b.% a { v a a . ' | | s . j m.",
"!.8 5.@ ..a % f.p 3.3.T f.% T o W 9 D Y E  .Y a.0.2.U [.U  .L V  .D a.E H Y D H H e 4 H f 3.v % B b./ v q i h p a h ! . 8 6.7.s.",
"{.8 q q i ..% v f.@ p n 4 f & }.B 9 +.e +.[.E W W [.E E 2.0.a.V V 2.D a.P +.W T W }.4.& T f n v 3.p & n b.i i 5.{ a / 5.* 8 ! l.",
"~./ . * 5 a f % a v % p 4.4.4 % }.d W +.T }.W W X W P D L 1.|.1.L 2.0.0.a.Y P Y D 4 T T }.e & f v % B i v @ ..i v 2 . / 5 q 8 m.",
"{.* * 5./ q 8 f % p & f.B 4.f 4 H d 9 4 +.T e P d X W  .V L 1.|.[.E e. .0.X X +.Y W 4 9 4.H o n & 4 p % & v % @ i ..a / / q . c.",
"{.{ 8 { . a v i @ % a & a & B T 4.4.d 9 X e T }.D d X E 2.V L 1.L V L U 2.W X +.[.Y D H 3.B o f.e 4.4.3.f % n ..b.a 5.{ / { q c.",
"{.} | h 8 a @ 2 i i % n a @ ..4.T e 3.B e e 4 e }.Y  .a.0.2.V 0.[.e.1. .e.[.D +.d E Y T W W B & H 3.4 4.3.B f.b.p v p v { . ' 8.",
"].7.| | ( ' / p ..i b.p / f...& f & & 4.T o H 4 D e P Y a.[. .e.0. .2.1.E E P W D E D X H +.4.d o H e T 4.B % ../ 5 / @ v 2 . c.",
"/.} } 5.' q ! a h @ i p b.@ 2 b.p i T e H & B 4.4.d Y [. .[.U P E U 1.0.[.e.D E +.D d W Y }.+.3.9 o H e T b.p @ b.2 h q i 5 5 t.",
"_.6.| 5.8 ( 8 { { p h i f f ..@ n 3.v T f f.& }.W +.P D [. .a.0.P 0.e.1.U  .E D 0.D X d d D T 4.H }.e 3.f & v p n f.n ../ / q c.",
"/.| . * ' 8 q * 5 a h v i / % b.v B & 4.f.& 4 H 9 W X e 9 [. .E W e.V [.0.U [.E a.0.[.X P D P T +.T }.& % 4 i & & n 2 n p p a = ",
"/.- 6.. * 5.} 8 ' q a @ 2 i f 5 b.f.p p v b.& H 3.9 X +.P Y [.[.X a.2.2.E 2.U 1.E D D  .[. .H 9 T H W B 4.% T B 3.n B % n 5 f t.",
":.r =.P . | . 7.q h 8 8 p 8 i f % f v @ i v i e B d 9 W 9 }.Y [.d E P a.e.U [.e.0.E [.U Y W Y H }.T 4 3.4.4.e B i 4.3.B u.L h A ",
"_.s f v.w.. * 5.8 q h / a p q 2 f % n 2 @ b.v b.4.H H e H }.D W Y  .a.a.P [.V V V 2.2.U P [.P d 9 H }.4 3.9 d H e 4.4.3.T - x.y.",
"_.m - [ z.r . ! . 8 q h * 2 q v i f b.i b.@ o % 4 e & 4.9 }.+.D Y [. .a.0.D V L 1.L e.V E e.Y  .W W }.T e H 9 }.H e T 4.& A.B.K ",
"C.n.m.m.l.i.s.s.l.m.8.c.8.c.k.w.z.A w.y.K = O A $.x.x.y.Z D.B.B.A.E.F.D.G.g.v.v.H.d.G.F.E.B.D.B.C.B.I.x.$.D.B.D.A.C.C.y.$.[ [ K "};
