/* XPM */
static char * lab_metal_flag_nazi_xpm[] = {
"64 64 526 2",
"  	c #E2E2E2",
". 	c #E0E0E0",
"+ 	c #E1E1E1",
"@ 	c #DEDEDE",
"# 	c #DDDDDD",
"$ 	c #DFDFDF",
"% 	c #DCDCDC",
"& 	c #DADADA",
"* 	c #DBDBDB",
"= 	c #D8D8D8",
"- 	c #D9D9D9",
"; 	c #D7D7D7",
"> 	c #D6D6D6",
", 	c #E3E3E3",
"' 	c #E5E5E5",
") 	c #E6E6E6",
"! 	c #E4E4E4",
"~ 	c #E7E7E7",
"{ 	c #E8E8E8",
"] 	c #E9E9E9",
"^ 	c #A3A3A3",
"/ 	c #A0A0A0",
"( 	c #959595",
"_ 	c #9D9D9D",
": 	c #9A9A9A",
"< 	c #8B8B8B",
"[ 	c #979797",
"} 	c #969696",
"| 	c #8E8E8E",
"1 	c #919191",
"2 	c #868686",
"3 	c #808080",
"4 	c #7E7E7E",
"5 	c #818181",
"6 	c #797979",
"7 	c #777777",
"8 	c #828282",
"9 	c #7F7F7F",
"0 	c #767676",
"a 	c #747474",
"b 	c #737373",
"c 	c #7A7A7A",
"d 	c #7C7C7C",
"e 	c #7D7D7D",
"f 	c #848484",
"g 	c #8D8D8D",
"h 	c #838383",
"i 	c #8C8C8C",
"j 	c #878787",
"k 	c #9B9B9B",
"l 	c #989898",
"m 	c #9F9F9F",
"n 	c #A2A2A2",
"o 	c #A8A8A8",
"p 	c #AAAAAA",
"q 	c #A4A4A4",
"r 	c #A7A7A7",
"s 	c #ADADAD",
"t 	c #B5B5B5",
"u 	c #C2C2C2",
"v 	c #C5C5C5",
"w 	c #B9B9B9",
"x 	c #BEBEBE",
"y 	c #C6C6C6",
"z 	c #5A5A5A",
"A 	c #ECECEC",
"B 	c #D0D0D0",
"C 	c #8F8F8F",
"D 	c #898989",
"E 	c #858585",
"F 	c #727272",
"G 	c #929292",
"H 	c #939393",
"I 	c #B1B1B1",
"J 	c #B7B7B7",
"K 	c #AFAFAF",
"L 	c #B6B6B6",
"M 	c #B0B0B0",
"N 	c #B3B3B3",
"O 	c #BBBBBB",
"P 	c #F3F3F3",
"Q 	c #CECECE",
"R 	c #626262",
"S 	c #5C5C5C",
"T 	c #ABABAB",
"U 	c #787878",
"V 	c #7B7B7B",
"W 	c #949494",
"X 	c #999999",
"Y 	c #A1A1A1",
"Z 	c #C9C9C9",
"` 	c #8A8A8A",
" .	c #595959",
"..	c #ACACAC",
"+.	c #5D5D5D",
"@.	c #9C9C9C",
"#.	c #C0C0C0",
"$.	c #FFFFFF",
"%.	c #313131",
"&.	c #000000",
"*.	c #A9A9A9",
"=.	c #BABABA",
"-.	c #B8B8B8",
";.	c #B2B2B2",
">.	c #6E6E6E",
",.	c #6A6A6A",
"'.	c #616161",
").	c #424242",
"!.	c #535353",
"~.	c #232323",
"{.	c #676767",
"].	c #515151",
"^.	c #4A4A4A",
"/.	c #4B4B4B",
"(.	c #6C6C6C",
"_.	c #555555",
":.	c #525252",
"<.	c #414141",
"[.	c #B4B4B4",
"}.	c #565656",
"|.	c #9F0000",
"1.	c #050505",
"2.	c #010101",
"3.	c #4D4D4D",
"4.	c #545454",
"5.	c #575757",
"6.	c #5B5B5B",
"7.	c #5F5F5F",
"8.	c #717171",
"9.	c #434343",
"0.	c #C40000",
"a.	c #B50000",
"b.	c #B00000",
"c.	c #9D0000",
"d.	c #490000",
"e.	c #4B0000",
"f.	c #252525",
"g.	c #151515",
"h.	c #505050",
"i.	c #4C4C4C",
"j.	c #4F4F4F",
"k.	c #585858",
"l.	c #212121",
"m.	c #BA0000",
"n.	c #636363",
"o.	c #5E5E5E",
"p.	c #696969",
"q.	c #AEAEAE",
"r.	c #666666",
"s.	c #CE0B0B",
"t.	c #C50202",
"u.	c #C20101",
"v.	c #C10000",
"w.	c #C00000",
"x.	c #C30000",
"y.	c #BD0000",
"z.	c #AF0000",
"A.	c #A70000",
"B.	c #A30000",
"C.	c #990000",
"D.	c #980000",
"E.	c #A80000",
"F.	c #AA0000",
"G.	c #B30000",
"H.	c #C50000",
"I.	c #CB0000",
"J.	c #CE0000",
"K.	c #D10000",
"L.	c #C80000",
"M.	c #6B6B6B",
"N.	c #757575",
"O.	c #6F6F6F",
"P.	c #909090",
"Q.	c #A5A5A5",
"R.	c #D81515",
"S.	c #CA0808",
"T.	c #C60404",
"U.	c #BB0000",
"V.	c #B80000",
"W.	c #B60000",
"X.	c #AC0000",
"Y.	c #B20000",
"Z.	c #D20000",
"`.	c #CA0000",
" +	c #BCBCBC",
".+	c #DA1717",
"++	c #D51212",
"@+	c #CA0707",
"#+	c #C70000",
"$+	c #BE0000",
"%+	c #AD0000",
"&+	c #CD0000",
"*+	c #D50000",
"=+	c #DB1818",
"-+	c #D61414",
";+	c #CC0A0A",
">+	c #C80505",
",+	c #D70000",
"'+	c #DA1818",
")+	c #CD0A0A",
"!+	c #C40101",
"~+	c #DD1A1A",
"{+	c #D71414",
"]+	c #C90606",
"^+	c #C60303",
"/+	c #BF0000",
"(+	c #B90000",
"_+	c #DD1C1C",
":+	c #D71616",
"<+	c #CB0808",
"[+	c #CC0000",
"}+	c #B40000",
"|+	c #888888",
"1+	c #DF1C1C",
"2+	c #DE1B1B",
"3+	c #D00E0E",
"4+	c #D00D0D",
"5+	c #CF0000",
"6+	c #D00000",
"7+	c #C90000",
"8+	c #C20000",
"9+	c #B70000",
"0+	c #A90000",
"a+	c #707070",
"b+	c #DB1A1A",
"c+	c #D20F0F",
"d+	c #CC0909",
"e+	c #C70404",
"f+	c #D30000",
"g+	c #BC0000",
"h+	c #AE0000",
"i+	c #C3C3C3",
"j+	c #DA1919",
"k+	c #D41313",
"l+	c #D31010",
"m+	c #C70202",
"n+	c #D60000",
"o+	c #C40808",
"p+	c #C27575",
"q+	c #B46D6D",
"r+	c #AE6666",
"s+	c #A85959",
"t+	c #A54F4F",
"u+	c #AC3232",
"v+	c #AD0B0B",
"w+	c #B20202",
"x+	c #CACACA",
"y+	c #D51313",
"z+	c #D41111",
"A+	c #D21010",
"B+	c #D80000",
"C+	c #D80101",
"D+	c #D82828",
"E+	c #DB7474",
"F+	c #E0AAAA",
"G+	c #DAC0C0",
"H+	c #B8B0B0",
"I+	c #ACA3A3",
"J+	c #AFACAC",
"K+	c #AA9797",
"L+	c #AA9F9F",
"M+	c #C6C4C4",
"N+	c #E1DDDD",
"O+	c #CA8888",
"P+	c #B61717",
"Q+	c #CCCCCC",
"R+	c #D61212",
"S+	c #CD0909",
"T+	c #C80404",
"U+	c #D80606",
"V+	c #E6ABAB",
"W+	c #E9E7E7",
"X+	c #E4E2E2",
"Y+	c #D8A2A2",
"Z+	c #C10505",
"`+	c #D20101",
" @	c #EAEAEA",
".@	c #CFCFCF",
"+@	c #CDCDCD",
"@@	c #D11212",
"#@	c #D81414",
"$@	c #C90505",
"%@	c #C80101",
"&@	c #CF1C1C",
"*@	c #EDDAD9",
"=@	c #040404",
"-@	c #9E9E9E",
";@	c #E3B7B7",
">@	c #EBEBEB",
",@	c #CF0F0F",
"'@	c #D30E0E",
")@	c #CE0909",
"!@	c #CA0909",
"~@	c #D55E5E",
"{@	c #E6C0BE",
"]@	c #EFEBEA",
"^@	c #1E1E1E",
"/@	c #EEEEEE",
"(@	c #A50000",
"_@	c #606060",
":@	c #C8C8C8",
"<@	c #CE0F0F",
"[@	c #D20B0B",
"}@	c #D60909",
"|@	c #D60707",
"1@	c #D00B0B",
"2@	c #E4B4B4",
"3@	c #EBDCDC",
"4@	c #EEEBEB",
"5@	c #F1F1F1",
"6@	c #3B3B3B",
"7@	c #1D1D1D",
"8@	c #E59191",
"9@	c #D90000",
"0@	c #DB0000",
"a@	c #CD0F0F",
"b@	c #D50D0D",
"c@	c #D90808",
"d@	c #DE8A8A",
"e@	c #EDEDED",
"f@	c #EFEFEF",
"g@	c #F2F2F2",
"h@	c #444444",
"i@	c #A6A6A6",
"j@	c #0A0A0A",
"k@	c #080808",
"l@	c #F3F0F0",
"m@	c #DF3C3C",
"n@	c #4E4E4E",
"o@	c #C90F0F",
"p@	c #D61313",
"q@	c #D50F0F",
"r@	c #D70707",
"s@	c #D96666",
"t@	c #E5E4E4",
"u@	c #F0F0F0",
"v@	c #464646",
"w@	c #030303",
"x@	c #1B1B1B",
"y@	c #EDBABA",
"z@	c #C81513",
"A@	c #D32020",
"B@	c #DEDCDC",
"C@	c #474747",
"D@	c #141414",
"E@	c #343434",
"F@	c #F4F2F2",
"G@	c #DD2C2C",
"H@	c #C7241F",
"I@	c #D61515",
"J@	c #D30F0F",
"K@	c #D26565",
"L@	c #686868",
"M@	c #454545",
"N@	c #C4C4C4",
"O@	c #0C0C0C",
"P@	c #F4F4F4",
"Q@	c #E67A7A",
"R@	c #C22921",
"S@	c #D31212",
"T@	c #D39797",
"U@	c #3C3C3C",
"V@	c #282828",
"W@	c #1A1A1A",
"X@	c #373737",
"Y@	c #EEB6B6",
"Z@	c #BB201A",
"`@	c #D01010",
" #	c #D4B2B2",
".#	c #3A3A3A",
"+#	c #202020",
"@#	c #3F3F3F",
"##	c #101010",
"$#	c #F1DCDC",
"%#	c #B91A14",
"&#	c #CF1010",
"*#	c #D3CDCD",
"=#	c #333333",
"-#	c #1F1F1F",
";#	c #090909",
">#	c #2A2A2A",
",#	c #484848",
"'#	c #656565",
")#	c #F4F0F0",
"!#	c #C1C1C1",
"~#	c #B61713",
"{#	c #D51111",
"]#	c #D5D2D2",
"^#	c #2F2F2F",
"/#	c #B91B16",
"(#	c #CE100F",
"_#	c #D41212",
":#	c #D2B3B3",
"<#	c #303030",
"[#	c #0F0F0F",
"}#	c #F1DDDD",
"|#	c #646464",
"1#	c #D1D1D1",
"2#	c #BA1D18",
"3#	c #D21111",
"4#	c #D29999",
"5#	c #323232",
"6#	c #272727",
"7#	c #121212",
"8#	c #020202",
"9#	c #D2D2D2",
"0#	c #EEB7B7",
"a#	c #404040",
"b#	c #BDBDBD",
"c#	c #BB1F19",
"d#	c #CC1010",
"e#	c #D11010",
"f#	c #D16868",
"g#	c #070707",
"h#	c #393939",
"i#	c #131313",
"j#	c #CBCBCB",
"k#	c #E67D7D",
"l#	c #BFBFBF",
"m#	c #BC231C",
"n#	c #CA1010",
"o#	c #D10E0E",
"p#	c #CF2828",
"q#	c #D7D5D5",
"r#	c #060606",
"s#	c #383838",
"t#	c #363636",
"u#	c #2C2C2C",
"v#	c #F1F0F0",
"w#	c #DD2F2F",
"x#	c #3D3D3D",
"y#	c #BD251D",
"z#	c #C9100F",
"A#	c #CE0D0D",
"B#	c #D00C0C",
"C#	c #D29C9C",
"D#	c #161616",
"E#	c #292929",
"F#	c #C7C7C7",
"G#	c #EAB9B9",
"H#	c #BD241C",
"I#	c #C80E0C",
"J#	c #CF3333",
"K#	c #D9D6D6",
"L#	c #494949",
"M#	c #E6DFDF",
"N#	c #D81212",
"O#	c #BD1B15",
"P#	c #C50A09",
"Q#	c #C60505",
"R#	c #C70505",
"S#	c #CA0606",
"T#	c #D3B4B4",
"U#	c #DBAAAA",
"V#	c #D52F2F",
"W#	c #3E3E3E",
"X#	c #BC0F0C",
"Y#	c #C30605",
"Z#	c #C50303",
"`#	c #C70303",
" $	c #CB0909",
".$	c #D2C2C2",
"+$	c #CB9595",
"@$	c #CA0C0C",
"#$	c #D20202",
"$$	c #BA0302",
"%$	c #BF0202",
"&$	c #C40303",
"*$	c #C30101",
"=$	c #C50101",
"-$	c #CA0303",
";$	c #D19C9C",
">$	c #B8B6B6",
",$	c #B56464",
"'$	c #B60303",
")$	c #CA0202",
"!$	c #CD0404",
"~$	c #B28383",
"{$	c #A41F1F",
"]$	c #C90202",
"^$	c #CD0303",
"/$	c #D10505",
"($	c #E18787",
"_$	c #F0EDED",
":$	c #B57C7C",
"<$	c #CC0303",
"[$	c #D00505",
"}$	c #D60404",
"|$	c #DE3F3F",
"1$	c #EEC0C0",
"2$	c #BBABAB",
"3$	c #B38E8E",
"4$	c #AF5757",
"5$	c #A11717",
"6$	c #CB0303",
"7$	c #D40505",
"8$	c #D80100",
"9$	c #DA0000",
"0$	c #DE3131",
"a$	c #E37C7B",
"b$	c #E2AEAE",
"c$	c #E1C8C8",
"d$	c #E0CDCD",
"e$	c #C8B6B6",
"f$	c #C4AAAA",
"g$	c #AC4747",
"h$	c #A00000",
"i$	c #C60101",
"j$	c #CE0404",
"k$	c #D20404",
"l$	c #A20000",
"m$	c #D40000",
"n$	c #C90101",
"o$	c #CD0202",
"p$	c #C60000",
"q$	c #A40000",
"r$	c #870000",
"s$	c #B10000",
"t$	c #880000",
"u$	c #920000",
"v$	c #A60000",
"w$	c #8E0000",
"x$	c #890000",
"y$	c #8B0000",
"z$	c #9A0000",
"A$	c #940000",
"  . .   . + @ # $ . . $ % & & * = * * - ; * > ; # & * & @ @ $ $ . . . + + +     , + , ,     ' ' ) , , ! ' ! ~ ) { ) { ~ { ] { % ",
"! ^ / ( _ : < [ } | 1 2 3 2 4 5 6 7 8 9 0 a b c 4 0 0 d 2 9 e f g h i g j 1 | k l m n ^ l l o p / m o q r s t u v t w x x y y z ",
"+ m A B k [ k : ( } i C i D E 5 E f e 8 c d d c F c 0 8 6 9 j D < i 8 1 G } [ [ k H m n [ ( ^ r k n / i I J K L M N v O P ) Q R ",
"! [ I 0 S m _ : g } | i T 5 f 2 2 U 3 3 V c V c U 0 U e 7 4 U f 2 e 9 < 2 C C W [ l [ g H X G l : [ Y T i Y I T s x v t Z ` F  .",
"! ..k +.+.G k @.i l #.A $.h %.&.m _ @.k _ _ _ T T *.=.L -.J J L @.@.l @.@.l @.@.l _ _ _ k @._ m &.%.h $.A #.m ;.w #.x u u >.,.'.",
"  _ o o / @.H @.g } ).9 _ !.S ~.&.~.{.].^.^./. . .,.(.,.{.R R '._.:.<.<./.^./.^.<./.^.^.].{.~.&.~.S !._ 9 ).f q t [.w M v t #.}.",
"! r o o n l ^ [ l j 5 ).9 _.}.+.|.1.1.2.&.:._.}._.!.^.3.4.!.5.:.].6.!._. .7.6. .z z S &.2.1.1.|.R '.{.9 ).{.5 X K w t N t N u _.",
", m / m ..o m ^ H 1 e 8.9.].5.4.0.a.b.c.d.e.&.&.f.g./.h.i.:.i.j.5.5. .].k.S l.g.&.&.e.d.c.b.a.m.h.n.o.9.k.p.5 k s q.N w J #.v z ",
") ^ m p ../ o / k g h a (.+.,.r.s.t.u.v.v.v.w.w.x.x.y.a.z.A.B.|.C.D.|.E.F.z.G.y.v.H.I.J.K.J.K.L.}.M.N.b O.U < P.^ [.Q.w w x J S ",
") J t N I q./ o : 1 } 8 U a b e R.S.T.u.v.v.v.x.H.H.H.v.U.V.W.G.z.X.F.X.z.Y.V.y.w.H.I.K.Z.K.Z.`.S N.2 j d f X k q.N t J o  +#. .",
"! O Q.I M I q.o m W P.l | i 8 j .+++@+t.x.x.x.H.#+#+#+x.$+V.a.G.Y.X.F.X.%+b.G.U.$+x.&+Z.*+Z.*+&+o.6 | 2 C W Y *.*.p I t J N N z ",
"' M M J t N _ n : l [ 1 @.G [ f =+-+;+>+x.x.x.H.&+I.`.#+$+V.a.G.Y.X.F.X.%+b.G.U.$+x.&+Z.,+*+,+J.o.7 P.< ( m ^ : / r ^ N t M w }.",
"' J q...N I m _ m @.: : ( m ( 1 '+-+)+>+!+x.x.`.&+I.`.#+$+V.a.G.Y.X.F.X.%+b.G.U.$+x.&+Z.,+,+,+x. .0 C : k Y m m [ _ q.I N p J }.",
"~ O O q.q.p ^ / _ k m @.^ : C P.~+{+)+]+^+x.x.H.&+I.`.#+/+(+W.G.Y.X.F.X.%+b.G.U.$+x.&+Z.,+,+,+0.}.7 | W _ l [ ^ k [ : q.I m ^ 5.",
"{ v u x w O Q.t q.I n : m @.P.D _+:+s.<+>+!+x.`.&+[+[+#+w.w.U.W.}+%+F.X.%+b.G.U.$+x.&+Z.,+,+,+x.!.0 ` [ k _ m G H / : r k _ m h.",
"{ y v  +q.M O ..o q.I m : r G |+1+2+3+4+<+t.x.H.5+6+6+7+8+H.$+m.9+z.0+X.%+b.G.U.$+x.&+Z.,+,+,+0.}.a+2 D < i [ P.G @.( / @.k _ ].",
"] Z w u M q. +O J t ..p k p X D b+'+c+c+d+e+!+#+5+f+f+I.#+L.v.g+W.h+E.X.%+b.G.U.$+x.&+Z.,+,+,+x.}.>.j H |+1 G l m @.m ( : @.o !.",
"~ x Z i+N x #. +O o Q..._ / / < j+.+k+l+)+]+m+#+5+*+n+Z.I.L.o+p+q+r+s+t+u+v+w+m.y.x.I.Z.*+,+*+x.}.>.E C i |+< i | l l / [ m k 4.",
"{ x+v w x w u M O O o ^ o I *.W y+.+z+A+3+<+e+#+5+B+C+D+E+F+G+H+I+J+K+L+M+N+O+P+y.x.&+Z.*+*+*+(+3.O.d < 1 | D < i } @.G } ( o /.",
"] Q+v v Z y v u M p O o M / s H R+=+z+c+c+S+T+#+J.U+V+W+] { - 2 V i T ..#., ! X+Y+Z+I.`+*+*+*+(+!.,.e < P.< < ( | [ | : [ l m /.",
" @.@y +@ +Z y J M q.J ..M r @.k @@#@z+A+c+S+$@%@&@*@ @{ ~ ) o =@&.d -@..x + ! ' ~ ;@I.K.*+*+*+z.^.n.a E | f G D |+: H | 1 _ / /.",
">@v Q +@Z x+w v x  +q. +O J ;.Q.,@#@l+'@'@)@!@~@{@]@ @) ' x+^@=@&.l.o T O $ ! ! ~ /@;+K.*+*+*+(@3._@7 d g 8 i P.} g < k 1 H l j.",
"{ +@v +@#.:@x+O  +N I I t t n } <@#@[@}@|@1@2@3@4@5@>@' = 6@7@=@&.q o p N r ! ' ~ /@8@9@0@0@I.(@i.7.a+h 5 j 8 f |+} } } i k m /.",
"{ v +@v v #.+@u Z  +N J q.p Q.l a@R.b@U+c@d@A e@f@g@e@  h@6@7@=@8.i@*.( j@k@& ! ~ /@l@m@0@0@I.z.^.7.6 U 9 4 5 8 |+2 P.[ 1 i k n@",
" @Q v Z v .@u i+y  +w O #.q.r k o@p@q@r@s@t@A /@u@g@/@v@h@6@7@O._ i@} &.&.w@x@' ~ /@P y@0@0@I.z.^.7.>.9 c e 2 2 f j 2 D |+< ( 3.",
"{ v :@Q +@v i+#.x O w t N u M m z@-+c+A@B@) /@/@/@~ v@C@h@6@i...Y H &.&.&.2.D@E@~ /@P F@G@0@I.z.3.6.a+3 2 h 5 5 5 8 i G 1 g < ^.",
"{ u x+Q v :@B .@Q x O Z y x [.*.H@I@J@K@$ ! e@f@/@L@h@C@M@>.N@K m &.&.&.&.&.O@f.v@/@P P@Q@B+I.z.9.7.O.c h 4 e f 4 5 f f |+j |+h@",
"{ Z :@Q .@Q :@.@Z #.i+u Z i+M N R@S@l+T@# ! Q A f@g@R h@9.U@M.@.i &.&.&.&.V@1.W@X@+.P P@Y@B+`.%+9.z b V c e 4 h e D f 8 1 P.< 9.",
")  + ++@Q Q+v Q Q Q #.x+Z Z u L Z@`@z+ #@ t w@'.f@g@/@h.)..#+#r.&.&.&.&.} ;.@###%.^.P P@$#0@`.9+v@6.F d 9 4 6 4 c 4 D i | f 2 h@",
"~ x Z x+x+u Q v :@v :@v :@x+L J %#&#z+*#s &.&.&.e@g@/@' 9.=#-#;#&.&.&.( o M v S >#,#'#P@)#B+I.9+3._@a+0 4 c 0 7 9 j f 8 2 8 f h@",
") v u Z x x i+Q+v Q Z i+#.x !#K ~#,@{#]#..&.&.&.{.f@e@, & E@-#O@&.&.^#_@Q.;.v ; 5 ^.'.P@)#0@I.9+i.n.F U d F b 8 h 2 j D 4 5 | 9.",
"~ u v y Z Z Q+Q+x+x+x+B .@Z Z =./#(#_#:#= ;.&.&.&.F e@  ; <#+#[#2.&.&.&.+./ u ; ! { u@P }#B+I.(+n@|#b c c 6 0 9 8 h 2 5 D 4 2 v@",
"~ w w v w v x+#.Q Q +@1#B .@v J 2#<@3#4#= . J =@&.;#D + @#5#6#7#8#&.&.&.&.&.T 9#  ~ /@P 0#B+&+x.h.r.O.d 6 7 O.4 9 8 5 2 e e 2 a#",
"~  + +u t t w x+u u Q B :@Q Z b#c#d#e#f#- $ ~  +&.g#6#h#X@E@>#i#V &.&.&.&.&.7#j#$ ) e@P k#0@J.x.i.{.F U 4 U a d 4 e d h h j D <.",
") J w #.M N w y x++@y .@+@.@!#l#m#n#o#p#q#@ ~ >@r#g#V@h#s#t#u#t C E &.&.&.&.D x+% '  @v#w#B+9@0.:.L@>.V 9 a c 6 0 0 b 8 7 6 c x#",
"! q.O p w N  +t #. ++@Q x+B y #.y#z#A#B#C#* + ] O D#E#.#.#s#.@F#n 6.&.&.&.4 -.Z & ! { G#9@9@9@H.j._@N.9 e 9 4 d 6 c 4 6 0 4 5 x#",
"' ^ ..O p O M t J x #.+@y .@Q+=.H#I#!@<+J#K#+ { e@x+E@x#L#- = +@o &.&.&.&.K w Z ; , M#N#0@9@0@y.3.r.a+c h 8 e 4 d F O.F b 9 6 x#",
"' N t p p .. +w  +x Z x+Q+Q j#x O#P#Q#R#S#T#  { A f@) a . * * +@+#&.&.&.e q.L y > U#V#9@0@0@0@#+:.n.d 3 2 h 8 9 c d F U 4 9 8 W#",
"! p ^ t J t ..q.#.N O Z x+x+l#=.X#Y#Z#t.`# $.${ A f@P e@'   + 3.=@&.&.d I K L y +$@$#$B+0@0@0@#+}.r.d 3 j c h d 9 4 c F d e 6 a#",
"  m / N t I M q.#.u v y O x+N@ +$$%$&$*$=$-$;$>@>@f@P /@~ ! N.7@=@&.c I N M >$,$'$L.Z.9@0@0@0@#+h.,.7 f f c 5 7 9 9 U d c O.F x#",
"+ ..k r m N o O M #.w v y Z y K y.y.&$*$=$)$!$C#>@f@P f@~ p 6@7@=@U M -.O ~${$0+9+H.K.9@0@0@0@#+].L@U 4 4 8 c 5 7 5 e 4 d 8.U .#",
"+ o k p _ m t J t  +w u i+J L s y.$+&$*$=$]$^$/$($_$P@u@{ ' & >.=@M t x :$|.B.%+m.0.K.B+0@0@0@#+ .a+d 9 5 f e h e 9 0 4 e F F .#",
", @.r @.k / ..N ..N  +M M N x T y.$+&$*$=$]$<$[$}$|$1$v#>@) ' .@i@2$3$4$5$|.B.%+m.0.K.B+0@0@0@K.}.>.d 2 2 5 4 f e c 4 d d d U 6@",
", l ( _ : ^ _ N t J O  +#.M O J y.$+t.*$=$]$6$[$7$8$9$0$a$b$c$d$e$f$g$|.c.h$(@z.m.0.6+,+B+0@B+J._.b ` C f | g < 8 c 6 5 e 0 c U@",
". m m : _ / k ^ N N I O  +#.x I y.$+!+*$=$i$)$j$k$8$9$9$0@,+&+x.m.G.F.h$|.l$A.b.m.H.J.m$B+B+B+&+_.>.5 G D g | f 4 j e 6 d 8 b .#",
"  H G _ Q.o p p ..I I J O t  +s y.$+v.u.*$=$n$o$`+9@0@0@0@,+I.v.m.Y.E.|.c.|.B.%+m.0.K.B+0@B+0@0@k.F 3 < g i 1 g D 9 5 9 6 6 8 .#",
"  1 ( m H : n k k n I Q.J J w K y.$+x.x.8+H.L.[+K.9@0@0@0@,+&+v.m.G.E.|.c.h$(@z.m.0.6+,+B+0@B+B+k.a+< P.< ( |+g | f < D d 2 8 W#",
"+ k l m _ / [ [ ..q._ N t I -.s y.$+v.v.8+0.#+I.Z.9@0@0@0@,+I.v.m.Y.E.|.c.|.B.%+m.0.K.B+0@B+0@0@n.e 1 [ : P.j i 1 < g < j c 8 <.",
"@ H k G m G k : [ ..k ^ q.t [.r G.$+x.x.8+0.p$`.K.9@0@0@0@,+&+v.m.G.E.|.c.h$(@z.m.0.6+,+B+0@B+B+ .0 H : k : G j < P.< 2 4 e c <.",
"# G } 1 | [ n : [ o ..q.I N n *.0+$+x.x.x.x.p$`.K.9@0@0@0@,+&+x.m.G.F.h$|.l$A.b.m.H.J.m$B+B+B+,+_@5 ( H l } : P.i P.f h 5 5 9 x#",
"$ j [ P.i k P.[ n Q.o _ q.n / n 0+$+v.v.v.8+H.`.Z.9@0@0@0@,+I.v.m.Y.E.|.c.|.B.%+m.0.K.B+0@B+0@0@n.3 |+[ : ( k : [ | G f 8 g f 9.",
". G } G g i P.: n _ l _ : ^ q.Y 0+$+x.x.x.x.H.`.K.9@0@0@0@,+&+v.m.G.E.|.c.h$(@z.m.0.6+,+B+0@B+B+r.U D H n ( _ k : } } 2 f |+8 v@",
". 1 G } |+< ( } m m [ l [ p T W q$(+x.x.x.x.H.`.K.9@0@0@0@,+&+x.m.G.F.h$c.h$(@z.m.0.6+m$B+B+B+,+o.6 i _ _ m m _ k | i 1 g D | C@",
"$ D < 2 i g < 1 _ [ n H Q.o X } r$s$H.H.H.H.#+`.K.9@0@0@0@*+&+x.U.G.X.(@|.l$A.b.m.H.J.Z.Z.B+Z.&+'.c k i@} / ( m k P.1 [ } G 1 C@",
"% f | f 2 j |+< i : H @.^ Q.( Y g b t$u$v$b.v.L.K.9@0@0@B+m$I.x.y.a.(@w$x$z z 5.z !.y$b.$+0.}+0+r.d -@-@[ } @.k ( ( k ( | P.G ,#",
"& 4 g 8 j 2 j |+l k 1 m n } / m W 9 p.6.]._.k.5.z$B.G.g+g+w.X.z$A$6.7.7.7.M.M.7 a+F '#S k.z 6.7.8.G : k o [ } l @.k _ k : < g h@",
"* e 2 5 h f 2 j } : : _ P.m n X C 1 U 8.'#M.O.O._@6. .o.S 7._@+.|#(.N.d d ` < @._ | g 3 U a+N.V 2 g l q.n / [ : @.G [ @.H l [ ^.",
"# j D < 5 8 f 2 j } : } 1 m _ Y H [ P.j 4 < 9 8 6 d >.>.b 7 c b 5 2 } l Y Q.[.O  +T T [ k [ ( X Y *.i@-@^ k : o k ^ n l _ ( [ h@",
"% h h D D 5 |+f i j } : k ( m n Y n n -@l 1 ^ q / i ` l < W l m Y ..s t =.i+F#x+Z i+u N p L [.K N t t N m p q...o : _ G k _ i ,#",
"# h e 5 j 5 5 g f 2 } ( : P.| H n n X Y m : Q.m m / p s Y K s J N -.!#!#Z Q :@.@+@Q+:@:@O u M x w O O t t p n r ..o Q.H / P._ 3.",
"& 7 ' u 9 e 5 < f f G ( [ H i k m @.@.( o o : *.I q.[.T w  +s !#L F#w Z +@:@Q :@Z Z v Z x+Z v  +u  +q.w J Q.N I Q...o } e@B _ ^.",
"; 9 -@ .i.c h f j | 1 < 1 |+P.( P.m / ^ n m : o o N t J o I q.#.v t w u y Q Q+B B B .@+@+@u Z u i+O N I O J t m m k : k w 0 !.n@",
"> 7 d 9.C@h e e 2 < 8 f |+< i < i ( m [ ^ : o ^ r I n o J w ..O #.v y :@#.+@Q Z B :@x+.@v i+x+v O N J q. +O J t I _ / / [ }.k.L#",
"!.s#.#.#a#W#).).x#<.<.<.C@).C@,#v@3.C@C@/./.3.n@3.4.4.h.4.5. .}.z }._._.+._@'.'.7.z 6.z R 7.'.z _.S _.4.!. .4._.4.j.h.3./.^.h.h."};
