/* XPM */
static char * lab_metal_sign_radiation_xpm[] = {
"64 64 502 2",
"  	c #E2E2E2",
". 	c #E0E0E0",
"+ 	c #E1E1E1",
"@ 	c #DEDEDE",
"# 	c #DDDDDD",
"$ 	c #DFDFDF",
"% 	c #DCDCDC",
"& 	c #DADADA",
"* 	c #DBDBDB",
"= 	c #D8D8D8",
"- 	c #D9D9D9",
"; 	c #D7D7D7",
"> 	c #D6D6D6",
", 	c #E3E3E3",
"' 	c #E5E5E5",
") 	c #E6E6E6",
"! 	c #E4E4E4",
"~ 	c #E7E7E7",
"{ 	c #E8E8E8",
"] 	c #E9E9E9",
"^ 	c #A3A3A3",
"/ 	c #A0A0A0",
"( 	c #959595",
"_ 	c #9D9D9D",
": 	c #9A9A9A",
"< 	c #8B8B8B",
"[ 	c #979797",
"} 	c #969696",
"| 	c #8E8E8E",
"1 	c #919191",
"2 	c #868686",
"3 	c #818181",
"4 	c #878787",
"5 	c #7F7F7F",
"6 	c #797979",
"7 	c #777777",
"8 	c #828282",
"9 	c #767676",
"0 	c #747474",
"a 	c #737373",
"b 	c #7A7A7A",
"c 	c #7E7E7E",
"d 	c #7C7C7C",
"e 	c #7D7D7D",
"f 	c #848484",
"g 	c #8D8D8D",
"h 	c #838383",
"i 	c #8C8C8C",
"j 	c #9B9B9B",
"k 	c #989898",
"l 	c #9F9F9F",
"m 	c #A2A2A2",
"n 	c #A8A8A8",
"o 	c #AAAAAA",
"p 	c #A5A5A5",
"q 	c #AEAEAE",
"r 	c #B5B5B5",
"s 	c #C2C2C2",
"t 	c #C5C5C5",
"u 	c #B9B9B9",
"v 	c #BEBEBE",
"w 	c #C6C6C6",
"x 	c #5A5A5A",
"y 	c #ECECEC",
"z 	c #D0D0D0",
"A 	c #888888",
"B 	c #727272",
"C 	c #898989",
"D 	c #929292",
"E 	c #939393",
"F 	c #A7A7A7",
"G 	c #ACACAC",
"H 	c #B7B7B7",
"I 	c #BBBBBB",
"J 	c #B1B1B1",
"K 	c #B0B0B0",
"L 	c #B3B3B3",
"M 	c #F3F3F3",
"N 	c #CECECE",
"O 	c #626262",
"P 	c #5C5C5C",
"Q 	c #787878",
"R 	c #909090",
"S 	c #9C9C9C",
"T 	c #C9C9C9",
"U 	c #8A8A8A",
"V 	c #595959",
"W 	c #5D5D5D",
"X 	c #6F6F6F",
"Y 	c #6E6E6E",
"Z 	c #BCBCBC",
"` 	c #C0C0C0",
" .	c #6A6A6A",
"..	c #616161",
"+.	c #565656",
"@.	c #FAFAFA",
"#.	c #F0F0F0",
"$.	c #EFEFEF",
"%.	c #EDEDED",
"&.	c #EBEBEB",
"*.	c #EAEAEA",
"=.	c #EEEEEE",
"-.	c #F1F1F1",
";.	c #F2F2F2",
">.	c #F4F4F4",
",.	c #F5F5F5",
"'.	c #D81E1E",
").	c #DA1F1F",
"!.	c #D41A1A",
"~.	c #D51B1B",
"{.	c #D21919",
"].	c #D61C1C",
"^.	c #CE1616",
"/.	c #D11818",
"(.	c #CA1313",
"_.	c #C51010",
":.	c #C91212",
"<.	c #C40F0F",
"[.	c #CB1414",
"}.	c #CD1515",
"|.	c #C81212",
"1.	c #CC1515",
"2.	c #CF1717",
"3.	c #D71D1D",
"4.	c #DF2424",
"5.	c #DF2525",
"6.	c #E02626",
"7.	c #FBFBFB",
"8.	c #DC2222",
"9.	c #C61111",
"0.	c #CE1515",
"a.	c #D41B1B",
"b.	c #DA2020",
"c.	c #DC2121",
"d.	c #DE2323",
"e.	c #E12727",
"f.	c #C71111",
"g.	c #DD2222",
"h.	c #E02525",
"i.	c #D31A1A",
"j.	c #D01717",
"k.	c #575757",
"l.	c #83837D",
"m.	c #AEAE5C",
"n.	c #CACA2B",
"o.	c #D8D81F",
"p.	c #DBDB1B",
"q.	c #E6E611",
"r.	c #E4E413",
"s.	c #DADA19",
"t.	c #D7D721",
"u.	c #C5C52B",
"v.	c #9E9E59",
"w.	c #7D7D7A",
"x.	c #505050",
"y.	c #A7A773",
"z.	c #DBDB2B",
"A.	c #EBEB18",
"B.	c #EAEA17",
"C.	c #EAEA16",
"D.	c #E7E712",
"E.	c #E9E914",
"F.	c #E5E50F",
"G.	c #E4E40E",
"H.	c #D0D02A",
"I.	c #8A8A64",
"J.	c #515151",
"K.	c #9E9E79",
"L.	c #DDDD26",
"M.	c #ECEC19",
"N.	c #E9E915",
"O.	c #E7E711",
"P.	c #E5E510",
"Q.	c #CECE23",
"R.	c #82826A",
"S.	c #535353",
"T.	c #C3C3C3",
"U.	c #C8C84B",
"V.	c #EAEA15",
"W.	c #E8E813",
"X.	c #ABAB4E",
"Y.	c #545454",
"Z.	c #CACACA",
"`.	c #D7D737",
" +	c #EDED1B",
".+	c #EDED1C",
"++	c #E8E814",
"@+	c #C1C139",
"#+	c #4B4B4B",
"$+	c #CCCCCC",
"%+	c #E3E32D",
"&+	c #E9DD18",
"*+	c #DD6C19",
"=+	c #D64617",
"-+	c #D03B12",
";+	c #D1500E",
">+	c #E3D310",
",+	c #CECE27",
"'+	c #CFCFCF",
")+	c #CDCDCD",
"!+	c #D8D839",
"~+	c #EFEF1F",
"{+	c #E5B21B",
"]+	c #D8241C",
"^+	c #E6BE1B",
"/+	c #DFAD13",
"(+	c #C20E0E",
"_+	c #C6140E",
":+	c #DDA012",
"<+	c #BABA37",
"[+	c #D3D35A",
"}+	c #E1971A",
"|+	c #D9371B",
"1+	c #E9E817",
"2+	c #E8E614",
"3+	c #D02A14",
"4+	c #D67610",
"5+	c #A9A951",
"6+	c #4F4F4F",
"7+	c #C8C8C8",
"8+	c #B0B08C",
"9+	c #EEEE1D",
"0+	c #E5AC1D",
"a+	c #E4AF1C",
"b+	c #DE9A15",
"c+	c #D98B0F",
"d+	c #828274",
"e+	c #E5E532",
"f+	c #F2F226",
"g+	c #EEDF24",
"h+	c #D7221C",
"i+	c #DA2C1D",
"j+	c #EAE518",
"k+	c #E9E316",
"l+	c #CF2014",
"m+	c #C61411",
"n+	c #E3CA12",
"o+	c #C9C930",
"p+	c #4E4E4E",
"q+	c #BABA88",
"r+	c #F0F020",
"s+	c #E25C23",
"t+	c #E3931D",
"u+	c #ECEC1A",
"v+	c #DC7A15",
"w+	c #CF3911",
"x+	c #85856E",
"y+	c #4D4D4D",
"z+	c #E5E53A",
"A+	c #EBD020",
"B+	c #D8241D",
"C+	c #EBDF1B",
"D+	c #E8DA15",
"E+	c #D11E18",
"F+	c #E0B912",
"G+	c #C5C534",
"H+	c #4A4A4A",
"I+	c #B9B9B3",
"J+	c #F3F328",
"K+	c #E37422",
"L+	c #D85F15",
"M+	c #D45112",
"N+	c #E2E210",
"O+	c #444444",
"P+	c #CBCB7D",
"Q+	c #F5F52D",
"R+	c #F4F22C",
"S+	c #E43329",
"T+	c #D8201D",
"U+	c #E8D21A",
"V+	c #E5CA15",
"W+	c #CC1615",
"X+	c #C71611",
"Y+	c #E6E112",
"Z+	c #8B8B5B",
"`+	c #434343",
" @	c #E9E958",
".@	c #F5F52E",
"+@	c #F2DC2D",
"@@	c #E62C2C",
"#@	c #E42A2A",
"$@	c #DB4A1B",
"%@	c #E9DA19",
"&@	c #EEEC1D",
"*@	c #ECE919",
"=@	c #E8D817",
"-@	c #D64117",
";@	c #DFB111",
">@	c #B6B637",
",@	c #ECEC3C",
"'@	c #F5F52F",
")@	c #EDB62C",
"!@	c #E72D2D",
"~@	c #E32828",
"{@	c #DD491D",
"]@	c #EEEB1D",
"^@	c #EDE31F",
"/@	c #E0611F",
"(@	c #D21A18",
"_@	c #D95517",
":@	c #E8DC17",
"<@	c #EAE717",
"[@	c #DA451B",
"}@	c #D66E11",
"|@	c #CDCD2A",
"1@	c #F0F03E",
"2@	c #F4F42B",
"3@	c #EA792C",
"4@	c #E22828",
"5@	c #EAD41C",
"6@	c #EEE91D",
"7@	c #DC3C1F",
"8@	c #DB3B1C",
"9@	c #EDEA1C",
"0@	c #E8D01A",
"a@	c #D54914",
"b@	c #DCDC1F",
"c@	c #F6F633",
"d@	c #F6F630",
"e@	c #EC5730",
"f@	c #E82F2F",
"g@	c #E52B2B",
"h@	c #DD401F",
"i@	c #E6B71C",
"j@	c #E7BC1C",
"k@	c #D9361B",
"l@	c #CE2912",
"m@	c #E4E417",
"n@	c #464646",
"o@	c #D1D1D1",
"p@	c #F2D82F",
"q@	c #F2D730",
"r@	c #F2D62F",
"s@	c #F2D52E",
"t@	c #F0D22D",
"u@	c #F0D12C",
"v@	c #EAC122",
"w@	c #EFCD29",
"x@	c #EDC826",
"y@	c #EDCA27",
"z@	c #EBCF20",
"A@	c #E9AB24",
"B@	c #E4A11D",
"C@	c #E6C318",
"D@	c #E3AB18",
"E@	c #E4B01A",
"F@	c #E0A615",
"G@	c #E1A715",
"H@	c #E0A415",
"I@	c #E2AA17",
"J@	c #DFA314",
"K@	c #E1AB15",
"L@	c #E5E518",
"M@	c #404040",
"N@	c #F2F242",
"O@	c #F7F732",
"P@	c #F4F42C",
"Q@	c #F1F123",
"R@	c #F0F022",
"S@	c #F2F227",
"T@	c #E8BE1D",
"U@	c #E8C21D",
"V@	c #DCDC20",
"W@	c #414141",
"X@	c #EFEF43",
"Y@	c #F7F733",
"Z@	c #F2F225",
"`@	c #F4F429",
" #	c #F0EE22",
".#	c #DF4821",
"+#	c #DF4E1F",
"@#	c #D0D02F",
"##	c #3D3D3D",
"$#	c #EBEB5A",
"%#	c #F4F42A",
"&#	c #F1F124",
"*#	c #EDE71E",
"=#	c #E88A25",
"-#	c #D92D1C",
";#	c #E03623",
">#	c #E27E1E",
",#	c #EFEA20",
"'#	c #EEEE1E",
")#	c #BABA3C",
"!#	c #DFDF96",
"~#	c #F1F122",
"{#	c #F1EE27",
"]#	c #F0F021",
"^#	c #989868",
"/#	c #D0D0CA",
"(#	c #F3ED29",
"_#	c #E43628",
":#	c #E65B26",
"<#	c #E69421",
"[#	c #E9A725",
"}#	c #E56724",
"|#	c #E14623",
"1#	c #F0ED22",
"2#	c #E7E718",
"3#	c #3E3E3E",
"4#	c #EEEE4A",
"5#	c #F7F734",
"6#	c #F7F731",
"7#	c #E78E24",
"8#	c #E59F1F",
"9#	c #CDCD3D",
"0#	c #D7D7A8",
"a#	c #F1E228",
"b#	c #E62E2C",
"c#	c #E42929",
"d#	c #DD2822",
"e#	c #EBDB1C",
"f#	c #8E8E78",
"g#	c #EEEE42",
"h#	c #F6F62F",
"i#	c #E66526",
"j#	c #DE571C",
"k#	c #D2D23A",
"l#	c #717171",
"m#	c #3A3A3A",
"n#	c #C7C7A5",
"o#	c #F2DD30",
"p#	c #EAC420",
"q#	c #8E8E81",
"r#	c #DEDE69",
"s#	c #F7F632",
"t#	c #E94E2D",
"u#	c #E23D25",
"v#	c #F0ED24",
"w#	c #B8B861",
"x#	c #3B3B3B",
"y#	c #E8E852",
"z#	c #F2D232",
"A#	c #EB3232",
"B#	c #E93030",
"C#	c #E82E2E",
"D#	c #E69120",
"E#	c #CFCF50",
"F#	c #3C3C3C",
"G#	c #F0F047",
"H#	c #F6F233",
"I#	c #ED4033",
"J#	c #E92F2F",
"K#	c #DA241F",
"L#	c #EFE025",
"M#	c #DEDE3D",
"N#	c #EDED59",
"O#	c #F1B833",
"P#	c #EC3333",
"Q#	c #EC3232",
"R#	c #E47C21",
"S#	c #D5D553",
"T#	c #E5E574",
"U#	c #F7F533",
"V#	c #F3D734",
"W#	c #EE5733",
"X#	c #E14C22",
"Y#	c #EECD28",
"Z#	c #F2F127",
"`#	c #CBCB73",
" $	c #D4D4B4",
".$	c #EDED42",
"+$	c #F5E833",
"@$	c #F0C42F",
"#$	c #ED7C2F",
"$$	c #ED5432",
"%$	c #E93F30",
"&$	c #EA4230",
"*$	c #E9512D",
"=$	c #E87327",
"-$	c #EAB425",
";$	c #E5E547",
">$	c #AFAF99",
",$	c #D8D8AA",
"'$	c #F0F04E",
")$	c #E3E344",
"!$	c #B9B996",
"~$	c #C4C4BE",
"{$	c #EAEA59",
"]$	c #F6F634",
"^$	c #F3F32F",
"/$	c #F0F03C",
"($	c #E6E658",
"_$	c #C7C786",
":$	c #B1B1AF",
"<$	c #F6F6F6",
"[$	c #F7F7F7",
"}$	c #EC3434",
"|$	c #F9F9F9",
"1$	c #EB3131",
"2$	c #484848",
"3$	c #9E9E9E",
"4$	c #4C4C4C",
"5$	c #474747",
"6$	c #585858",
"7$	c #494949",
"8$	c #383838",
"9$	c #424242",
"0$	c #555555",
"a$	c #606060",
"b$	c #5F5F5F",
"c$	c #5B5B5B",
"  . .   . + @ # $ . . $ % & & * = * * - ; * > ; # & * & @ @ $ $ . . . + + +     , + , ,     ' ' ) , , ! ' ! ~ ) { ) { ~ { ] { % ",
"! ^ / ( _ : < [ } | 1 2 3 4 5 3 6 7 8 5 9 0 a b c 9 9 d 2 5 e f g h i g 4 1 | j k l m ^ k k n o / l n p n q r s t r u v v w w x ",
"+ l y z j [ j : ( } g 1 | g A h 2 f e 8 b d d b B b 9 8 6 5 4 C < i 8 1 D } [ [ j E l m [ ( ^ F j ^ m G H I J H K L t I M ) N O ",
"! [ J 9 P l _ : g [ 1 D A | g < C b h h e d e d b Q b 5 6 3 b 4 C 5 8 | C D D [ : j : R } S ( j _ j F L r q u q q v t r T U B V ",
"! G j W W D j S i : [ } D g | g f C 8 8 h 8 5 6 X Y b 9 7 9 7 e 4 3 A C A i g < [ : j | R _ S ( [ : n p L r L I Z ` v s s Y  ...",
"  _ n n / S E S | j : [ g D 1 | g 4 C h 2 3 8 5 B d b d 6 5 Q e 6 c 8 h 3 < A 2 A [ < } R R m / [ [ : p J L p r I r u K t r ` +.",
"@.#.#.#.$.%.$.%.%.&.y &.%.%.&.&.*.&.*.~ *.] ] ] { ~ ! ' ~ ~ { ) ) ] ~ ~ ] *.*.] ] *.*.*.&.&.%.$.%.y =.%.-.-.;.;.M >.;.;.;.;.,.@ ",
"@.=.=.=.-.#.'.).!.~.{.].].&.y ] y ^./.(.] *.] ] (._.) ~ ' :.<.) [.[.}.|.1.2.] ^.1.] *.^.2.]./.3.{.).y ].].4.;.;.;.5.6.M M >.,.$ ",
"7.$.=.-.-.=.8.'.=.y &.{.].*.%.&.^.1.^./.[.*.] ] 9.(.' ~ ! <.:.~ ~ ] [.}.~ *.*.[.[.*.] 0.a.%.y &.3.).$.b.c.d.4.=.#.e.b.M M >.M . ",
"7.M ;.;.;.-.'.8.%.y =.y y y *.~./.{.y 2.[.2.*.*.[.9.] ) ' 9.f.~ ) { |.:.{ *.*.[.[.] ] }.0.&.y %.3.'.$.).].=.d.).;.6.e.M #.>.>.$ ",
"@.>.#.;.-.;.4.8.=.y y '.].%./.~./.0.^./.1./.[.*.|.[.{ ~ ' 9.9.~ ~ ) (.[.{ { ] ^.[.{ ] 1./.*.%.y ].3.=.{.3.=.#.d.g.g.h.;.M ;.;.$ ",
"@.-.-.M ;.;.3.).].~.~.i.'.%.3./.~.*.*.&.{././.*.:.:.:.(.9.|.9.~ ) ~ <.f.{ ] { [.^.*.*.^.^.}.j.~.].~.=./.].$.#.%.'.c.).;.;.-.M @ ",
"@.M -.-.;.;.=.=.=.=.%.%.%.=.%.=.%.*.*.&.y y *.*.{ *.*.] ] ) ~ ' ! ' ' ~ { ] { ] *.*.*.&.&.*.y *.y y %.=.=.$.=.=.%.=.-.;.;.-.M @ ",
"~ I I q q o ^ / _ j l S ^ : D S | j : A A R 1 | 8 2 f 4 2 h 3 a B X B d c c 8 6 2 f C A A h | D g [ : [ _ k [ ^ j [ : q J l ^ k.",
"{ t s v u I p r q J m : l S E ( E _ j R E g D R | h l.m.n.o.p.q.r.s.t.u.v.w.e 9 6 6 f C < 3 8 R C } } : j _ l D E / : F j _ l x.",
"{ w t Z q K I G n q J l : F ( E D l E } [ < } D y.z.A.B.C.D.E.q.D.q.F.D.G.G.H.I.9 6 f d h 4 f C g | 1 i < i [ R D S ( / S j _ J.",
"] T u s K q Z I H r G o j o S ( [ _ : j i : K.L.A.M.N.A.B.N.D.O.q.D.q.q.G.G.P.F.Q.R.b 5 d 3 c h | < D } A 1 D k l S l ( : S n S.",
"~ v T T.L v ` Z I n p G _ / ^ [ l E j R ( U.B.A.V.V.A.N.A.E.C.E.N.W.D.W.O.P.F.G.q.q.X.7 f 4 e c g i R D i A < i | k k / [ l j Y.",
"{ Z.t u v u s K I I n ^ n J G / n k j } `. +.+A.B.M.B.N.A.C.B.C.++N.q.q.O.D.P.q.P.F.D.@+h 6 3 A c g 2 | 1 | C < i } S D } ( n #+",
"] $+t t T w t s K o I n K / K l / l ( %+ +.+&+*+=+ +M.B.N.N.E.++D.E.D.W.q.P.F.-+;+>+W.W.,+8 6 4 C 4 A | R < < ( | [ | : [ k l #+",
"*.'+w )+Z T w H K q H G K F l n o / !+ +~+{+]+/.j.^+ + +V.N.E.++W.D.D.W.q.q./+|.(+_+:+W.D.<+d 2 b e c A | f D C A : E | 1 _ / #+",
"&.t N )+T Z.u t v Z q Z I H r L J [+.+ +}+).).a./.|+1+C.A.N.V.E.++N.N.E.++2+3+(.9.|.9.4+D.D.5+b 5 b 3 c g 8 i R } g < j 1 E k 6+",
"{ )+t )+` 7+Z.I Z L J J r r p ^ 8+9+.+0+8.b.].).3./.a+ + + +A.N.E.V.W.C.E.b+[.[.(.(.:.|.c+q.O.d+e 6 b 2 3 4 8 f A } } } i j l #+",
"{ t )+t t ` )+s T Z L H q o n p e+f+g+h+).~.!.i.).{.i+j+ + + +N.N.E.E.N.k+l+(.[.(.(.(.:.m+n+O.o+b 6 h b 5 c 3 8 A 2 R [ 1 i j p+",
"*.N t T t '+s T.w Z u I ` q o q+r+r+s+b.].).8.!.).!.{.t+u+.+C.M.M.N.E.C.v+:.0.[.[.|.f.(.|.w+D.q.x+6 7 8 b e 2 2 f 4 2 C A < ( y+",
"{ t 7+N )+t T.` v I u r L s L z+f+A+).'.'.d.8.c.b.~.).B+C+.+ + +u+N.N.D+E+}.^.0.[.[.9._.(.f.F+P.G+a b h 2 h 3 3 3 8 i D 1 g < H+",
"{ s Z.N t 7+z '+N v I T w v I+J+f+K+b.).'.8.8.d.~.b.~.].*+9+M. +B.V.B.L+2.2.(.^.(.[.f.[.(.9.M+G.N+Q 6 d h c e f c 3 f f A 4 A O+",
"{ T 7+N '+N 7+'+T ` T.s T T.P+Q+R+S+e.8.e.h.h.b.c.].3.a.T+U+A. +A.C.V+W+2./.j.[.[.[.(.9.[.:.X+Y+G.Z+e e b e c h e C f 8 1 R < `+",
") Z Z )+N $+t N N N ` Z.T T  @.@+@@@#@5.d.e.).).].].'.b.$@%@ +&@*@B.=@-@}.^.1.[.1.^.0.[.[.:.9.;@P.>@d c 5 c 6 c b c C i | f 2 O+",
"~ v T Z.Z.s N t 7+t 7+t 7+Z.,@'@)@!@~@#@4.b.c.'.3.3.].{@]@^@/@!.(@_@:@<@[@{.^.j./.2.:.(.f.[.9.}@W.|@b Q c b 9 7 5 4 f 8 2 8 f O+",
") t s T v v T.$+t N T T.` v 1@2@3@@@!@@@4@d.5.).'.3.].5@6@7@i.'./.3.8@9@0@a.2.j.}.[.(.:.(.f.9.a@D.b@d b d B a 8 h 2 4 C c 3 | `+",
"~ s t w T T $+$+Z.Z.Z.z '+T c@d@e@f@g@h.@@#@8.g.).g.h@9+i@3.!.'.{.3.3.j@.+k@j.}.1.[.^.(.^.}.}.l@++m@e d b 6 9 5 8 h 2 3 C c 2 n@",
"~ u u t u t Z.` N N )+o@z '+d@'@p@q@r@s@t@u@v@w@x@y@z@~+A@g.].3.).{.'.B@.+C@D@E@F@G@H@D@I@G@J@K@E.L@6 c 6 7 X c 5 8 3 2 e e 2 M@",
"~ Z Z s r r u Z.s s N z 7+N N@O@O@d@d@'@Q+Q+P@J+Q@R@S@r+T@'.d.8.!.].'.U@u+ +B.C.M.B.B.V.V.N.V.V.D.V@d b c Q 0 d c e d h h 4 C W@",
") H u ` K L u w Z.)+w '+)+'+X@Y@O@2@d@d@'@Q+J+Z@J+`@J+S@ #.#'.d.).!.+#~+M.A..+A.u+V.M.M.A.A.B.N.V.@#7 e 5 0 b 6 9 9 a 8 7 6 b ##",
"! q I o u L Z r ` Z )+N Z.z $#Y@Y@O@O@.@%#Q+%#%#P@%#&#Q@S@*#=#-#;#>#,#.+'#'# +.+B.C.B.M.M.A.B.B.E.)#5 8 e 5 c d 6 b c 6 9 c 3 ##",
"' ^ G I o I K r H v ` )+w '+!#d@Y@Y@O@Q+.@J+Q+.@J+2@~#J+S@{#f+]#'#'# +r+'#~+'# + +.+ +A.B.C.E.E.W.^#b d h 8 e c d B X B a 5 6 ##",
"' L r o o G Z u Z v T Z.$+N /#O@O@Y@Y@P@'@P@d@'@.@Q+P@`@(#_#:#<#[#}#|#1#'#u+~+ +M. +A. +u+N.N.E.2#c 4 h 2 h 8 5 b d B Q c 5 8 3#",
"! o ^ r H r G q ` L I T Z.Z.T.4#Y@5#6#Y@O@O@d@d@'@.@Q+J+7#5.4@e.6.).d.8#~+u+.+M..+A.M.A.C.C.N.M.9#3 4 h 4 b h d 5 c b B d e 6 M@",
"  l / L r J K q ` s t w I Z.7+0#Y@Y@5#Y@Y@O@O@d@d@`@2@a#b#5.c#4@6.6.c.d#e#9+u+~+M.M.A.u+u+A.u+A.f#2 3 4 f b 3 7 5 5 Q d b X B ##",
"+ G j F l L n I K ` u t w T Z.v g#h#O@5#d@O@Q+Q+h#d@J+i#5.#@#@4@4@4.'.3.j#.+ + +u+M.u+ +u+ +B.k#2 f 8 3 c 8 b 3 7 3 e c d l#Q m#",
"+ n j o _ l r H r Z u s T.H u Z n#P@Y@Y@5#Y@Y@O@d@`@o#e.~@!@@@#@c#e.).).b.p#R@R@'#u+M.M. +B. +q#E | 2 8 3 f e h e 5 9 c e B B m#",
", S F S j / G L G L Z K K L s u I r#P@O@.@5#Y@Y@O@s#t#f@!@e.e.4.6.8.b.b.b.u#v#~# + +9+u+ +9+w#< g < 2 C 2 3 c f e b c d d d Q x#",
", k ( _ : ^ _ L r H I Z ` K v w I I y#P@O@d@Y@O@6#z#A#B#B#C#g@5.4.g.8.b.c.b.D#.+Q@]#u+u+'#E#S D < D } D f | g < 8 b 6 3 e 9 b F#",
". l l : _ / j ^ L L J I Z ` s ` v ` I G#P@'@O@d@H#I#B#J#B#!@e.g@5.4@c#~@4@).K#L#.+.+9+.+M#m l D i < i ( C g | f c 4 e 6 d 8 a m#",
"  E D _ p n o o G J J H I r ` I t r 7+Z.N#h#O@Y@O#P#P#Q#A#B#~@@@C#c#~@#@4@4@d.R#~+.+'#S#: ^ m R R 1 < | g i 1 g C 5 3 5 6 6 8 m#",
"  1 ( l E : m j j m J p H H Z v I t I T.t T#O@d@U#V#W#A#Q#!@f@#@4@6.@@#@#@X#Y#Z#~+9+`#o n p ^ k R | [ E < ( A g | f < C d 2 8 3#",
"+ j k l _ / [ [ G q _ L r J I Z ` s t w w s  $.$Y@Y@h#+$@$#$$$%$&$*$=$-$a#J+`@S@;$>$q q G n k E m l _ : : R 4 i 1 < g < 4 b 8 W@",
"@ E j D l D j : [ G j ^ q r H r Z ` v t ` T t $+,$'$Y@O@.@h#'@2@d@Q+.@f+Q+&#)$!$J r q F q G n ( E ( l _ j : D 4 < R < 2 c e b W@",
"# D } 1 | [ m : [ n G q J L p H o r Z s I w I T T ` ~$!#{$1@]$d@P@^$/$($_$:$I I n G ^ l K p ^ / _ ^ m } k } : R i R f h 3 3 5 ##",
"$ 4 [ R i j R [ m p n _ q m ^ K n I Z I s t w u s v T 7+t N N '+N )+Z.T r L s q I n n G / q F : m m E : : ( j : [ | D f 8 g f `+",
"@.y %.y &.*.&.%.$.=.%.=.%.$.;.-.;.M ;.>.>.>.>.M M ,.<$,.<$[$[$[$[$[$,.<$,.,.;.-.>.-.#.;.;.;.=.=.#.%.y %.$.y =.%.%.%.%.] ] *.] & ",
"@.y y a.^.*.y %.'.=.%.~.~.-.-.'.-.$.4.;.>.@@5.6.M J#<$[$f@[$<$}$[$,.@@<$<$,.e.;.e.-.-.8.M ;.4.3.].%.%.'.=.=.'.3.%.&.j.{.&.*.&.& ",
"@.*.*.}.*./.*.{.=.~.$.i.#.8.%.).=.6.;.d.>.;.@@M ,.g@>.!@[$f@,.P#A#[$!@[$[$>.!@M c#-.6.;.e.M $.-.'.%.c.#.a.=.!.=.].&.{.%.a.y y & ",
"|$] &.1.] 0.*.2.*.].y 3.$.b.%.d.-.h.-.d.#.M #@>.-.c#,.c#<$@@[$Q#[$J#B#<$[$[$f@#@g@;.e.-.c#;.-.5.#.=.g.=.~.%.3.%.!.y ].y /.&.y & ",
"|${ &.[.0.] *.^.~.].y '.$.a.$.c.-.4.d.d.#.;.c#>.>.5.;.g@<$B#<$1$,.[$}$<$,.[$g@<$c#>.6.5.6.>.c#-.-.;.b.3.8.%.a.~.=.%.3.%.].*.&.- ",
"|$~ ] [.] 1.] 0.%.].%.3./.=.$.3.=.d.=.c.=.-.4@>.-.4.;.,.!@<$<$!@[$[$P#[$,.[$@@[$B#M !@>.g@;.#@c#6.$.'.-.).=.~.%.3.y ~.3.y %.%.* ",
"|$*.*.*.{ ] ] ] *.%.%.%.y =.=.$.%.$.$.$.=.-.$.-.#.M -.;.>.,.<$>.[$<$[$,.<$,.[$[$[$>.,.;.>.>.>.>.>.M -.=.$.%.%.#.%.$.$.%.=.y %.- ",
"% h h C C 3 A f i 4 } : j ( l m ^ p n F ^ _ J r H n G ` K I ` T 7+)+w 7+T '+'+'+N 7+Z.v H t s I Z I H L l o q G n : _ D j _ i 2$",
"# h e 3 4 3 3 g f 2 } ( : R | E m ^ : ^ m _ n ^ p o H Z q v Z w ` T.T t )+z Z.z N )+Z.Z.v w L s I Z I r r o m F G n p E / R _ y+",
"& 7 ' s 5 e 3 < f f D ( [ E i j l S S ( n n j o L K H q Z ` K t u T I Z.N 7+N 7+T T t T Z.T t Z s Z q u H p L J p G n } %.z _ H+",
"; 5 3$V 4$b h f 4 | 1 < 1 A R ( R l / ^ m l : n n L r H n J q ` t r u s w N $+z z z '+)+)+s T s T.I L J I H r l l j : j u 9 S.p+",
"> 7 d `+5$h e e 2 < 8 f A < i < i ( l [ ^ : n ^ F J m n H u G I ` t w 7+` )+N T z 7+Z.'+t T.Z.t I L H q Z I H r J _ / / [ +.6$7$",
"S.8$m#m#M@3#9$9$##W@W@W@5$9$5$2$n@y+5$5$#+#+y+p+y+Y.Y.x.Y.k.V +.x +.0$0$W a$....b$x c$x O b$..x 0$P 0$Y.S.V Y.0$Y.6+x.y+#+H+x.x."};
