/* XPM */
static char * lab_metal_ceiling_light_on_xpm[] = {
"64 64 304 2",
"  	c #E2E2E2",
". 	c #E0E0E0",
"+ 	c #E1E1E1",
"@ 	c #DEDEDE",
"# 	c #DDDDDD",
"$ 	c #DFDFDF",
"% 	c #DCDCDC",
"& 	c #DADADA",
"* 	c #DBDBDB",
"= 	c #D8D8D8",
"- 	c #D9D9D9",
"; 	c #D7D7D7",
"> 	c #D6D6D6",
", 	c #E3E3E3",
"' 	c #E5E5E5",
") 	c #E6E6E6",
"! 	c #E4E4E4",
"~ 	c #E7E7E7",
"{ 	c #E8E8E8",
"] 	c #E9E9E9",
"^ 	c #A3A3A3",
"/ 	c #A0A0A0",
"( 	c #959595",
"_ 	c #9D9D9D",
": 	c #9A9A9A",
"< 	c #8B8B8B",
"[ 	c #979797",
"} 	c #969696",
"| 	c #8E8E8E",
"1 	c #919191",
"2 	c #868686",
"3 	c #818181",
"4 	c #878787",
"5 	c #7F7F7F",
"6 	c #797979",
"7 	c #777777",
"8 	c #828282",
"9 	c #767676",
"0 	c #747474",
"a 	c #737373",
"b 	c #7A7A7A",
"c 	c #7E7E7E",
"d 	c #7C7C7C",
"e 	c #7D7D7D",
"f 	c #848484",
"g 	c #8D8D8D",
"h 	c #838383",
"i 	c #8C8C8C",
"j 	c #9B9B9B",
"k 	c #989898",
"l 	c #9F9F9F",
"m 	c #A2A2A2",
"n 	c #A8A8A8",
"o 	c #AAAAAA",
"p 	c #A5A5A5",
"q 	c #AEAEAE",
"r 	c #B5B5B5",
"s 	c #C2C2C2",
"t 	c #C5C5C5",
"u 	c #B4B4B4",
"v 	c #ABABAB",
"w 	c #ECECEC",
"x 	c #D0D0D0",
"y 	c #888888",
"z 	c #727272",
"A 	c #898989",
"B 	c #929292",
"C 	c #939393",
"D 	c #A7A7A7",
"E 	c #ACACAC",
"F 	c #B7B7B7",
"G 	c #BBBBBB",
"H 	c #B1B1B1",
"I 	c #B0B0B0",
"J 	c #B2B2B2",
"K 	c #C1C1C1",
"L 	c #AFAFAF",
"M 	c #F3F3F3",
"N 	c #CECECE",
"O 	c #5C5C5C",
"P 	c #787878",
"Q 	c #909090",
"R 	c #9C9C9C",
"S 	c #B3B3B3",
"T 	c #B9B9B9",
"U 	c #BCBCBC",
"V 	c #BFBFBF",
"W 	c #C9C9C9",
"X 	c #8A8A8A",
"Y 	c #999999",
"Z 	c #5D5D5D",
"` 	c #6F6F6F",
" .	c #6E6E6E",
"..	c #BEBEBE",
"+.	c #B8B8B8",
"@.	c #6A6A6A",
"#.	c #3E3E3E",
"$.	c #424242",
"%.	c #3D3D3D",
"&.	c #414141",
"*.	c #474747",
"=.	c #484848",
"-.	c #464646",
";.	c #4D4D4D",
">.	c #4B4B4B",
",.	c #4E4E4E",
"'.	c #545454",
").	c #505050",
"!.	c #575757",
"~.	c #595959",
"{.	c #565656",
"].	c #5A5A5A",
"^.	c #555555",
"/.	c #606060",
"(.	c #616161",
"_.	c #5F5F5F",
":.	c #5B5B5B",
"<.	c #626262",
"[.	c #535353",
"}.	c #4F4F4F",
"|.	c #707070",
"1.	c #6C6C6C",
"2.	c #757575",
"3.	c #717171",
"4.	c #808080",
"5.	c #696969",
"6.	c #7B7B7B",
"7.	c #676767",
"8.	c #6B6B6B",
"9.	c #C0C0C0",
"0.	c #6D6D6D",
"a.	c #666666",
"b.	c #858585",
"c.	c #686868",
"d.	c #C6C6C6",
"e.	c #515151",
"f.	c #C3C3C3",
"g.	c #CACACA",
"h.	c #CCCCCC",
"i.	c #656565",
"j.	c #EAEAEA",
"k.	c #CFCFCF",
"l.	c #CDCDCD",
"m.	c #585858",
"n.	c #646464",
"o.	c #636363",
"p.	c #EBEBEB",
"q.	c #9E9E9E",
"r.	c #BDBDBD",
"s.	c #8B8B89",
"t.	c #817C68",
"u.	c #8B7E50",
"v.	c #8A7D4D",
"w.	c #86784C",
"x.	c #86794D",
"y.	c #8B7E4F",
"z.	c #8A7E55",
"A.	c #837F6E",
"B.	c #90908F",
"C.	c #A4A4A4",
"D.	c #857F6A",
"E.	c #887943",
"F.	c #8C7D47",
"G.	c #847646",
"H.	c #87794B",
"I.	c #8C7E4E",
"J.	c #887A4C",
"K.	c #857849",
"L.	c #8B7E4C",
"M.	c #887946",
"N.	c #86816F",
"O.	c #A6A6A6",
"P.	c #BABABA",
"Q.	c #827853",
"R.	c #897A45",
"S.	c #837545",
"T.	c #918252",
"U.	c #928456",
"V.	c #918357",
"W.	c #918457",
"X.	c #918459",
"Y.	c #827449",
"Z.	c #8B7D4C",
"`.	c #81795B",
" +	c #C8C8C8",
".+	c #4A4A4A",
"++	c #7F7551",
"@+	c #867744",
"#+	c #8D825A",
"$+	c #8C815C",
"%+	c #8C825D",
"&+	c #8B805D",
"*+	c #8C8053",
"=+	c #8B7D4E",
"-+	c #82795C",
";+	c #444444",
">+	c #847C5E",
",+	c #8F825A",
"'+	c #897E5D",
")+	c #898061",
"!+	c #887E61",
"~+	c #8C7F53",
"{+	c #847E69",
"]+	c #434343",
"^+	c #888785",
"/+	c #897943",
"(+	c #877948",
"_+	c #887F61",
":+	c #8A8166",
"<+	c #8B8268",
"[+	c #85794E",
"}+	c #8A7C4C",
"|+	c #8C8C8B",
"1+	c #827B61",
"2+	c #817341",
"3+	c #928353",
"4+	c #898064",
"5+	c #8B846C",
"6+	c #8B8470",
"7+	c #8C8470",
"8+	c #807448",
"9+	c #837E6B",
"0+	c #5E5E5E",
"a+	c #8B846E",
"b+	c #8C8672",
"c+	c #8C8775",
"d+	c #8D8876",
"e+	c #82764E",
"f+	c #8A7F58",
"g+	c #897A44",
"h+	c #8B7D4D",
"i+	c #8D8978",
"j+	c #908B7D",
"k+	c #908B7E",
"l+	c #897D53",
"m+	c #83774D",
"n+	c #847544",
"o+	c #90814F",
"p+	c #918C82",
"q+	c #918E84",
"r+	c #8D8257",
"s+	c #81754B",
"t+	c #404040",
"u+	c #918250",
"v+	c #93918B",
"w+	c #8E8358",
"x+	c #80744A",
"y+	c #897945",
"z+	c #8B7E55",
"A+	c #86794E",
"B+	c #807445",
"C+	c #837547",
"D+	c #8C8058",
"E+	c #827B5F",
"F+	c #837E69",
"G+	c #85837F",
"H+	c #887945",
"I+	c #897E54",
"J+	c #8C7E4F",
"K+	c #898887",
"L+	c #877E59",
"M+	c #908255",
"N+	c #90845A",
"O+	c #8B7E52",
"P+	c #867E64",
"Q+	c #877B50",
"R+	c #847648",
"S+	c #918355",
"T+	c #92845C",
"U+	c #84784E",
"V+	c #877D5B",
"W+	c #B6B6B6",
"X+	c #A9A9A9",
"Y+	c #897E53",
"Z+	c #807446",
"`+	c #887C4F",
" @	c #877C53",
".@	c #857C59",
"+@	c #3A3A3A",
"@@	c #857E61",
"#@	c #897B4B",
"$@	c #84764B",
"%@	c #867A4E",
"&@	c #8D8155",
"*@	c #928458",
"=@	c #92855A",
"-@	c #8D8157",
";@	c #857950",
">@	c #84794E",
",@	c #847E64",
"'@	c #84827E",
")@	c #837B61",
"!@	c #8B7E4E",
"~@	c #87794C",
"{@	c #877A4F",
"]@	c #847D65",
"^@	c #878786",
"/@	c #3B3B3B",
"(@	c #3C3C3C",
"_@	c #EDEDED",
":@	c #4C4C4C",
"<@	c #949494",
"[@	c #8F8F8F",
"}@	c #383838",
"  . .   . + @ # $ . . $ % & & * = * * - ; * > ; # & * & @ @ $ $ . . . + + +     , + , ,     ' ' ) , , ! ' ! ~ ) { ) { ~ { ] { % ",
"^ ^ / ( _ : < [ } | 1 2 3 4 5 3 6 7 8 5 9 0 a b c 9 9 d 2 5 e f g h i g 4 1 | j k l m ^ k k n o / l n p n q r s t u u u v o ^ } ",
"l l w x j [ j : ( } g 1 | g y h 2 f e 8 b d d b z b 9 8 6 5 4 A < i 8 1 B } [ [ j C l m [ ( ^ D j ^ m E F G H F I J K L M ) N _ ",
"[ [ H 9 O l _ : g [ 1 B y | g < A b h h e d e d b P b 5 6 3 b 4 A 5 8 | A B B [ : j : Q } R ( j _ j D S r q T q q U V n W X z Y ",
"E E j Z Z B j R i : [ } B g | g f A 8 8 h 8 5 6 `  .b 9 7 9 7 e 4 3 y A y i g < [ : j | Q _ R ( [ : n p S r S G U ..+.u s  .@.C ",
"#.$.$.%.&.#.$.$.%.&.&.&.*.$.*.=.-.;.*.*.>.>.;.,.;.'.'.).'.!.~.{.].{.^.^.Z /.(.(._.].:.].<._.(.].^.O ^.'.[.~.'.^.'.}.#.$.$.%.&.&.",
"! D n n m ^.7 e |.1.2.7 7 |.3.P 4.@.|.z |.5.z P P P 0 P 9 7 P 9 3  . .b d d d 4.1.b  .5.7 6 e 2.6 2.6.h c b P d 7 6 ! S r S s ^.",
", l / l E ]. .e 6 7 P 0 P 7 7 P b ` |.7.3.3.b 9 P ` 7 |.6 b 9 6 2 9 8.d h a z  .9 7. .d b 3 6.P 8 6.b 9 2.1.7 0 b 3., T F 9.t ].",
") ^ l o E O P b 2.0.2.a 6 7 2.d f d b 5.6.a.P P 0 7 a 2.0.3 z ` 8 7 7 2 7 3 3 7 6.e  .0 5 < f z 8 2 a b 9 6 e 5.|.7 ) T T ..F O ",
") F r S H ~.b e 7 P c e 4.6 e c c 8 7  .|.7.d ` |.|.c 9 2.f d ` e 6.b.X h 5 9 P P 6.c 6 b a 0 e 2 P 0 6 c z P 2.2.6 ) F n U 9.~.",
"! G p H I ].0 3 P 2.0 b 6.e 6 d 5 4.6.6 |./.z b P 6.e 2.7 | 6.a 6.9 8 3 c h 2.0 d d e 9 P 8.P b a 7 c.6  .P b 9 P 8.! r F S S ].",
"' I I F r {.b h a d 8 z 2.7 0 7 9 6 2.a.|.c.3.2.d 1.7 ` 6.6.b d e 9 5 h b a P 6 2.6 6 0 2.7 ` 0 ` 6.0 ` 9 |.9 ` @. .' S r I T {.",
"' F q E S {.b 6.6.P 7 0 3.3.6 2.P 2.7 @.b |.e b  .P 8.` `  .0 0 6 8 3 8 8 e 3 b 9 z 9 0 |.0.7 9 c 4.6 4 |.3.P 0 6 9 ' H S o F {.",
"~ G G q q !.e a 3 9 6 7 1.3.P 6.6.9 6.7 b 2.6 d 2.9 0 c e 5 ` 9 a 4.2.4.3 8 b.h 8 5 d 2.P ` 6 9 9 9 P f ` |.6.9 0 8.~ q H l ^ !.",
"{ t s ..T ).z e P @.a |.1.3.9 3 f 2.0.0.P a b 6 9 d h 5 b d 5 2.2 9 c 2 3 0 4.2.6.b.0 5 0 9 d e |.d ` 6 2.9 2.e c 3.{ D j _ l ).",
"{ d.t U q e.0 9 6.5. .b 7 0 z 7 b.P 7 ` P 0 9 9 2.3 f 4.b d 2.e 5 3.3 3 h 2.2.5 b 7 e a 6.e P P ` 0.6 5 0.0 6.0 9 6 { / R j _ e.",
"] W T s I [.0 0 7 d 2.b.4.6.4.b a h b c 0 a 3.z 1.6.6 6.0.7 |.7 P d 4.h h 3 d 0.P z d 0.@.9 |.5.z 1.|.` 7 d 0 @.0.a ] ( : R n [.",
"~ ..W f.S '.9 2.1.0 6.0 4.5 3 9 8 7 < 5 b @. .|.a.7 9 b 0.6.7 9 4.b d A A 8 b.` 3.6 9 z 8.b 9 7 6.6 P 9 |.6 P @.z z ~ / [ l j '.",
"{ g.t T ..>.6.P 3.6 d 6.c b 3 b 2.4 | d d 0 8.3.z b.P z 1.7 2.e 7 f 3 2 h 4.6.` P 6 c @.0 c 7 ` 7 P e d 2.5 P 3. .8.{ B } ( n >.",
"] h.t t W >.0.a c.8.e P 8 4.2 d 6.e b.4.d 1.@.5. .<.P @. .i.(.i.Z 7.0. .c 4.2.3.P P P 3._.0.7 2.7 z 2.2.|.P 3.@.3.1.] : [ k l >.",
"j.k.d.l.U >.a 0.c./.7.5.|.b  .a 7 0 2 0 P 3.i. .` a (.^.Z i.3 [ [ e 8._.m.7.5.1.n.8.|.0.o.3.a 3.8.1.8.3.` z z 0.8.0 j.| 1 _ / >.",
"p.t N l.W }.d 7 |.` ` 5.@.b 6.2.6 c b  .9 c b a n.^.i.4 [ q.T r.r.+.q.[ y 8.m.z 7 7 P |. .P z 3.6.6 c b a b 3.z 0.a p.j 1 C k }.",
"{ l.t l.9.>.2 a ` ` 1. .0.3.P |.7 2.7 P P 9 e 5.m.h | s.t.u.v.w.x.y.z.A.B.g c Z c.c 6.z 1.e z 7 c 0.P b 6.2.4.6 |.3.{ } i j l >.",
"{ t l.t t ,.6.6 `  .5.0.0.5.6 b P b 6 6 P  .i.(.C.T D.E.F.G.H.I.I.J.K.L.M.N.G q._.@.6 P 0.z 0.@.7 9 0 d 2.P a 6 P P { [ 1 i j ,.",
"j.N t W t ;.d 2.` 7.` 0 c 6 d e a 9 9 9 P 5.(.O.P.Q.R.S.T.U.V.W.X.W.V.U.Y.Z.`.T q.Z |.5.` z n.` e 4.8 b a d 5 0.` 6 j.A y < ( ;.",
"{ t  +N l..+b |.7.0.7.c. .6 1.2.9 ` ` e 6.~.f T ++@+I.U.W.#+$+%+&+%+$+#+W.*+=+-++.d m.i.b 6 6 6.0 a P 2.P 6 e 0.6.` { B 1 g < .+",
"{ s g.N t ;+6.9 0 3.z 1.c 0 6 |.0.6.7 7 n.@.| >+R.I.U.,+%+'+)+!+!+!+)+'+%+,+~+=+{+g o.].P 6 0.0 8 d 6.b 2 2.b.` b 2.{ f y 4 y ;+",
"{ W  +N k.]+0 b 0.0.0 a.` |.0 P ` 3.P 5.].A ^+/+(+U.,+%+)+_+:+<+<+<+:+_+)+%+,+[+}+|+y !.e 3 6 f 8 3.c b h 6.4.7 9 d { 8 1 Q < ]+",
") U U l.N ;+5 8 c |.` 8.b 7 2.e e 0 6.7 <.< 1+2+3+W.%+)+4+<+5+6+7+6+5+<+4+)+%+W.8+9+y 0+2.d 7 9 `  .7 P 5 d d b c e ) i | f 2 ;+",
"~ ..W g.g.;+4.6.c 7  .P 6.d e f b 7 e @.2.B I.G.U.#+'+_+<+a+b+c+d+c+b+a+<+_+'+#+e+f+Q 0.@.2.9 7.3.z |.b P 7 2.|.0 P ~ 8 2 8 f ;+",
") t s W ..]+9 P 9 |.` 3.2.a a 6 6.9 z Z d [ g+h+V.$+)+:+5+b+i+j+k+j+i+b+5+:+)+$+l+m+( 8 5.3 f 6 6 2.6 P 2.7 e 7 |.0 ) A c 3 | ]+",
"~ s t d.W -.@.b.@.9 a 8.` P 6.6.e z d O 4 Y n+o+W.%+!+<+6+c+j+p+q+p+j+c+6+<+!+%+r+s+Y 4 o.A 4.0 4.8 3 3 2 4.h b.6 6 ~ 3 A c 2 -.",
"~ T T t T t+c.6 ` 6 a.a 6 |.9 7 d f z O 4 k n+u+X.&+!+<+7+d+k+q+v+q+k+d+7+<+!+&+w+x+Y 4 _.4.h 2.Q A 3 P 5 e 3 f 3.8.~ 2 e e 2 t+",
"~ U U s r &.0.a i.0 8.0.z @.z c.1.P 9 !.c [ y+I.W.%+!+<+6+c+j+p+q+p+j+c+6+<+!+%+z+A+( b.a.b.P b.4 z 7 2.2.P h 2.5.i.~ h h 4 A &.",
") F T 9.I %.3.1.0.` 5.0.1. . .8.P  .` O P C B+C+V.$+)+:+5+b+i+j+k+j+i+b+5+:+)+$+e+D+1 z 0 1 3 b 6 2.P ` 9 b e 9  .@.) 8 7 6 b %.",
"! q G o T %.|.3.5.a.0+8.1.<.@.`  .P b  .n.< E+S.U.#+'+_+<+a+b+c+d+c+b+a+<+_+'+#+e+F+A <.P 5 8 P 8 ` 3.|.z 9 b 3.i.c.! 6 9 c 3 %.",
"' ^ E G o %.0.0.<.a.8.(.3.@.0.|.3.@. .2.0+3 G+H+=+W.%+)+4+<+5+6+7+6+5+<+4+)+%+I+J+K+i :.8 5  .a 3 6 b 6 3.b 6 z a 0.' z a 5 6 %.",
"' S r o o #.2.5.` c. .z |.a.9 P h 7 d 6 i.z 1 L+Z.M+,+%+)+_+:+<+<+<+:+_+)+%+N+O+P+| 0.n.9 b  .c h 6 0 7 |.` |. .7 3.' P c 5 8 #.",
"! o ^ r F t+8.c.5.|.|.` 3.9 e 8 3 a 1.9 2.].A F Q+R+S+,+%+'+)+!+!+!+)+'+%+T+U+V+W+h 0+7. .9 9 7 6 |.P 7 P 7 f b 6 3.! z d e 6 t+",
"  l / S r %.3.1.` |.` a 2.4.6.6.0 9 e ` 0 /./.X+r Y+Z+`+W.#+$+%+&+%+$+#+ @O+.@W+D :.(.a 0.7 3.7 7  .7 7 0.6.9 c 0 z   d b ` z %.",
"+ E j D l +@y 3.d 7 4.0 7 h c h 9 7 9 a d 6 i.c.X+F @@#@$@%@&@*@=@-@;@>@y.,@T D _.m.3.a 0.6.0.b 6.z 1. .c 4.2.P |.3.+ c d 3.P +@",
"+ n j o _ +@6.b.h 6.6 0.5.2.7 7 d e 7 6 8 6 0 o./.< B '@)@=+!@~@~@I.{@]@^@1 A ]._.1.8.6 0 2 2.c 6.6 0.P 9 5 9 P |.z + c e z z +@",
", R D R j /@7 9 7.1.3.P 9 9 0 7 P 6 9 7 z 6.9 ` 1.Z P 3 < B k Y Y k B < 3 |.O 1.6 3. .0 6 d a 7 0 |.n.c.0  .P |.0.@., d d d P /@",
", k ( _ : (@4.9 6 d 6 e P e P 4.P d 4.7 X P e c 9 8 5.<.i.7 b.4 4 8 2.c.Z 0+a d 0 9 |.P 9 e e h 2.3.0 7. .9 6.0 b z , 3 e 9 b (@",
". l l : _ +@3 6.b b b 0 6 b 3 c 8 6 6 b 3 0 c P ` 2.4.9 @.a./.(.(.n.a.2.c |.3. .3.` 9 c b 2.7 @.6 |.a 7.b 0 3 2.3.@.. 6 d 8 a +@",
"  C B _ p +@4.2.9 6.b 2.6 d 6 9 2.9 b 4.7 0 2.5 0.3.a b b 7 6.5 9 h 8 c 2.5.0.d 7 |.P 9 P 7 b 7 7 9 z 3.9 b.i h 5 `   5 6 6 8 +@",
"  1 ( l C #.b P z |.3 0 a 7 6.6 8 8 e 8 h 7 h 6.9 d 6.b b 6 3 6 e b 8 c 6.c 9 d 2.3.f ` 9 3 P |.@.a c.@.P 6.b.7 P 7   A d 2 8 #.",
"+ j k l _ &.6.5.3.` ` 1.9 9 6.e 3.3.4.c 5 8 i 9 @.P 9 a P P 0 0.6.d 3.6.2.7 P 2.8.0.6 <.b b 2.3.9 ` 5.|.5 ` f P 9 0 + < 4 b 8 &.",
"@ C j B l &.6 1.|.0.7.z 6 9 b d P a 2.h 8 7 4 2.e c 9 9 9 9 ` |.2.6.2.9 7 7 6 6 7 P 6 5.P b P P 6 e |.0 c e 5 4.8 b @ 2 c e b &.",
"# B } 1 | %.h |.a 0.` P b 9 b.e 9 7 c 6 2 6 A 6 7 6 9 6 b.f 9 9 7 b 0 P f d P 6.0.2.1.|.e 2 5 9 |.0 6 d 3.2.6.5 2.` # h 3 3 5 %.",
"$ 4 [ Q i ]+2.1.|.` 8.3.9 d b 0 ` 3.7 z a n.6.9 a 7 2.6 P 7 9 2.7 0 9 6 P d b h 9 7 6.7 6 h 7 9 9 5 ` P h 6 4.c 2.0 $ f 8 g f ]+",
". B } B g -.9 z b ` 3.|.5 d a  .6 7 2.d e @.0.b 0 0 8 8 6.8 P P 9 6 a 2 6.P b 9 7 ` 6.7 2.h 4.P 9 b ` 6.6.9 4.8 6.b . 2 f y 8 -.",
". 1 B } y *.z @.@.` c.7. .6 P  .7 b 2.P 2.0.|.P 9 P d 5 6 P b 9 7 8 f 8 6.4.P 9 a 7 e @.3 c c 6.9 7  .c 2.2.3 a d e . 1 g A | *.",
"$ A < 2 i *.0.1.@.7.1. .1.3.6 a @.z @.0.a 3.|.0 c e 0 e 7 e d P 5.9 0 d 2.b 6.6 P 9 5 ` 3 P 8 e 9 0 6 8 6 b 4.b P 6 $ [ } B 1 *.",
"% f | f 2 =.a 7.` 8.|.` |.P 1.6 3.a 7.` a |.3.z 6.b a 6 P e 6 a 7 d 2.e c 2.0 1.` 2.1.1.b 0 3 9 6 8.6.0 5 0 a d  .7 % ( | Q B =.",
"& c g 8 4 ;+3.8.3.0+ .@.a P 3.` 8.1.a 1.|.c.` ` P c ` 0 9 7 9 6  .9 7 6 0 7 h 7 z 6 P z 6.P 3.@.z @.9 2.0 2.0 8 0 P & j : < g ;+",
"* e 2 3 h .+0.|.` 7.6 2.7 7 3.6.7 e P 6.0. .1.1.8.f b 2.7 0 6.1. .a 0.9 4.9  .P  .b 6 7.b 6 |.z 3.2.2.7 7 P 3 8 7 7 * R C k [ .+",
"# 4 A < 3 ;+4.c d 7 9 P 6.b z 0.c.0 9 9 6 ` 5.7.e 9 d 3 8 3 3 e 4.y c 5 h a d 6 7 6 6 8.6.c 3.0.e 6 b a.7 4.8 b i.3.# k _ ( [ ;+",
"% . . + + +     , + , ,     ' * = * * - ; * > ; # & * & @ @ $ $ . . . + + +     , + , ,     ' ' ) , . . + + +     , + , ,     ' ",
"h h e 3 4 3 3 g f 2 } ( : Q | C m ^ : ^ m _ n ^ p o F U q ..U d.9.f.W t l.x g.x N l.g.g...d.S s G U G r u D j R q.Y [ f 1 d b.A ",
"7 7 ' s 5 e 3 < f f B ( [ C i j l R R ( n n j o S I F q U 9.I t T W G g.N  +N  +W W t W g.W t U s U q T W+^ q X+: / q.y _@x _ b ",
"5 5 q.~.:@b h f 4 | 1 < 1 y Q ( Q l / ^ m l : n n S r F n H q 9.t r T s d.N h.x x x k.l.l.s W s f.G S H G W+J : k <@B [@T 9 [.0.",
"7 7 d ]+*.h e e 2 < 8 f y < i < i ( l [ ^ : n ^ D H m n F T E G 9.t d. +9.l.N W x  +g.k.t f.g.t G S F q U P.W+S q : j k [ {.m.h ",
"[.}@+@+@t+#.$.$.%.&.&.&.*.$.*.=.-.;.*.*.>.>.;.,.;.'.'.).'.!.~.{.].{.^.^.Z /.(.(._.].:.].<._.(.].^.O ^.'.[.~.'.^.'.}.).;.>..+).)."};
