/* XPM */
static char * lamp_floor1_off_xpm[] = {
"64 64 100 2",
"  	c None",
". 	c #6C6C6C",
"+ 	c #717171",
"@ 	c #757575",
"# 	c #7A7A7A",
"$ 	c #7F7F7F",
"% 	c #818181",
"& 	c #8A8A8A",
"* 	c #5B5B5B",
"= 	c #656565",
"- 	c #2B2B2B",
"; 	c #2F2F2F",
"> 	c #313131",
", 	c #353535",
"' 	c #3B3B3B",
") 	c #414141",
"! 	c #4F4F4F",
"~ 	c #1F1F1F",
"{ 	c #7D7D7D",
"] 	c #828282",
"^ 	c #4D4D4D",
"/ 	c #262626",
"( 	c #1C1C1C",
"_ 	c #333333",
": 	c #363636",
"< 	c #383838",
"[ 	c #3C3C3C",
"} 	c #422811",
"| 	c #432912",
"1 	c #432811",
"2 	c #492C13",
"3 	c #4F2F15",
"4 	c #4A2D13",
"5 	c #4A2D14",
"6 	c #523116",
"7 	c #4B2D14",
"8 	c #4C2E14",
"9 	c #553317",
"0 	c #4D2E15",
"a 	c #4E2F15",
"b 	c #5A3518",
"c 	c #502F15",
"d 	c #5D3718",
"e 	c #513015",
"f 	c #513116",
"g 	c #5E3819",
"h 	c #603919",
"i 	c #543216",
"j 	c #633B1A",
"k 	c #643B1A",
"l 	c #563417",
"m 	c #653C1B",
"n 	c #573417",
"o 	c #683F1C",
"p 	c #583417",
"q 	c #593617",
"r 	c #6A3F1C",
"s 	c #5A3617",
"t 	c #593618",
"u 	c #5B3618",
"v 	c #6E411D",
"w 	c #5B3718",
"x 	c #5C3718",
"y 	c #6F421D",
"z 	c #5D3818",
"A 	c #5B3619",
"B 	c #5D3819",
"C 	c #5C3819",
"D 	c #72451E",
"E 	c #71441E",
"F 	c #5C3719",
"G 	c #5E3919",
"H 	c #75461F",
"I 	c #623515",
"J 	c #7A421A",
"K 	c #633515",
"L 	c #603415",
"M 	c #78411A",
"N 	c #7D431B",
"O 	c #643615",
"P 	c #613415",
"Q 	c #79411A",
"R 	c #5F3314",
"S 	c #CE6F2C",
"T 	c #582F13",
"U 	c #6B3A17",
"V 	c #5B3113",
"W 	c #774019",
"X 	c #DF9B6B",
"Y 	c #A55923",
"Z 	c #D9864B",
"` 	c #914E1F",
" .	c #BC6528",
"..	c #AB5C25",
"+.	c #E4A980",
"@.	c #E19E70",
"#.	c #D78043",
"$.	c #DE9562",
"%.	c #DD925D",
"&.	c #5C3214",
"                                                                                                                                ",
"                                                                                                                                ",
"                                                                                                                                ",
"                                                                                                                                ",
"                                                                                                                                ",
"                                                                                                                                ",
"                                                                                                                                ",
"                                                                                                                                ",
"                                                                                                                                ",
"                                                                                                                                ",
"                                                                                                                                ",
"                                                                                                                                ",
"                                                                                                                                ",
"                                                                                                                                ",
"                                                                                                                                ",
"                                                                                                                                ",
"                                                                                                                                ",
"                                                                                                                                ",
"                                                                                                                                ",
"                                                    . + @ # $ % & % $ # @ + .                                                   ",
"                                                * = - ; > , ' ' ) ' ' , > ; - = *                                               ",
"                                              ! ~ ~ = . > @ { ] > ] { @ > . = ~ ~ !                                             ",
"                                              ~ ^ > = . > @ { ] > ] { @ > . = > ^ ~                                             ",
"                                              > ^ > = . > @ { ] > ] { @ > . = > ^ >                                             ",
"                                              > ^ > = . > @ { ] > ] { @ > . = > ^ >                                             ",
"                                              > ^ > = . > @ { ] > ] { @ > . = > ^ >                                             ",
"                                              > ^ > = . > @ { ] > ] { @ > . = > ^ >                                             ",
"                                              > ^ > = . > @ { ] > ] { @ > . = > ^ >                                             ",
"                                              > ~ / - ; > , ' ' ) ' ' , > ; - / ~ >                                             ",
"                                              ( * = . + @ # $ % & % $ # @ + . = * (                                             ",
"                                              ! _ : < ' [ [ [ } | 1 [ [ [ ' < : _ !                                             ",
"                                                _ : < ' [ [ [ 2 3 4 [ [ [ ' < : _                                               ",
"                                                              5 6 7                                                             ",
"                                                              8 9 0                                                             ",
"                                                              a b c                                                             ",
"                                                              c d e                                                             ",
"                                                              f g 6                                                             ",
"                                                              6 h 6                                                             ",
"                                                              i j i                                                             ",
"                                                              9 k l                                                             ",
"                                                              9 m n                                                             ",
"                                                              n o p                                                             ",
"                                                              q r s                                                             ",
"                                                              t r t                                                             ",
"                                                              u v w                                                             ",
"                                                              x y z                                                             ",
"                                                              A y B                                                             ",
"                                                              C D B                                                             ",
"                                                              g E g                                                             ",
"                                                              F E G                                                             ",
"                                                              B H G                                                             ",
"                                                              I J K                                                             ",
"                                                              L M K                                                             ",
"                                                              L N I                                                             ",
"                                                              I N O                                                             ",
"                                                              P Q K                                                             ",
"                                                              R M P                                                             ",
"                                                            S T U V S                                                           ",
"                                                          W X Y V Y Z W                                                         ",
"                                                      S W `  . . . . .` W S                                                     ",
"                                                  ..+.@...W ` ` ` ` ` W ..@.+...                                                ",
"                                                  W ..S #.#.$.$.$.%.$.#.#.S ..W                                                 ",
"                                                  &.W W W W W W W W W W W W W &.                                                ",
"                                                    &.&.&.&.&.&.&.&.&.&.&.&.&.                                                  "};
