/* XPM */
static char * metal_barrel_grey_xpm[] = {
"64 64 171 2",
"  	c None",
". 	c #616161",
"+ 	c #434343",
"@ 	c #464646",
"# 	c #4D4D4D",
"$ 	c #4B4B4B",
"% 	c #565656",
"& 	c #555555",
"* 	c #4E4E4E",
"= 	c #444444",
"- 	c #515151",
"; 	c #636363",
"> 	c #5A5A5A",
", 	c #5B5B5B",
"' 	c #979797",
") 	c #929292",
"! 	c #989898",
"~ 	c #363636",
"{ 	c #393939",
"] 	c #343434",
"^ 	c #353535",
"/ 	c #2D2D2D",
"( 	c #2A2A2A",
"_ 	c #2B2B2B",
": 	c #252525",
"< 	c #242424",
"[ 	c #4C4C4C",
"} 	c #4A4A4A",
"| 	c #7D7D7D",
"1 	c #303030",
"2 	c #484848",
"3 	c #494949",
"4 	c #878787",
"5 	c #828282",
"6 	c #808080",
"7 	c #7F7F7F",
"8 	c #7E7E7E",
"9 	c #868686",
"0 	c #858585",
"a 	c #8A8A8A",
"b 	c #222222",
"c 	c #282828",
"d 	c #272727",
"e 	c #1B1B1B",
"f 	c #818181",
"g 	c #8D8D8D",
"h 	c #A8A8A8",
"i 	c #A9A9A9",
"j 	c #B4B4B4",
"k 	c #B2B2B2",
"l 	c #BEBEBE",
"m 	c #B8B8B8",
"n 	c #A0A0A0",
"o 	c #787878",
"p 	c #646464",
"q 	c #404040",
"r 	c #525252",
"s 	c #545454",
"t 	c #6B6B6B",
"u 	c #3E3E3E",
"v 	c #3D3D3D",
"w 	c #373737",
"x 	c #3A3A3A",
"y 	c #3C3C3C",
"z 	c #2E2E2E",
"A 	c #212121",
"B 	c #202020",
"C 	c #121212",
"D 	c #151515",
"E 	c #171717",
"F 	c #474747",
"G 	c #626262",
"H 	c #777777",
"I 	c #9C9C9C",
"J 	c #CACACA",
"K 	c #B7B7B7",
"L 	c #717171",
"M 	c #262626",
"N 	c #535353",
"O 	c #949494",
"P 	c #D1D1D1",
"Q 	c #B9B9B9",
"R 	c #9B9B9B",
"S 	c #797979",
"T 	c #757575",
"U 	c #595959",
"V 	c #666666",
"W 	c #969696",
"X 	c #C7C7C7",
"Y 	c #B0B0B0",
"Z 	c #313131",
"` 	c #848484",
" .	c #696969",
"..	c #898989",
"+.	c #C8C8C8",
"@.	c #B5B5B5",
"#.	c #707070",
"$.	c #585858",
"%.	c #2F2F2F",
"&.	c #2C2C2C",
"*.	c #939393",
"=.	c #A4A4A4",
"-.	c #D5D5D5",
";.	c #DEDEDE",
">.	c #EAEAEA",
",.	c #D0D0D0",
"'.	c #3F3F3F",
").	c #454545",
"!.	c #1F1F1F",
"~.	c #1C1C1C",
"{.	c #131313",
"].	c #0F0F0F",
"^.	c #111111",
"/.	c #232323",
"(.	c #414141",
"_.	c #C5C5C5",
":.	c #A1A1A1",
"<.	c #767676",
"[.	c #656565",
"}.	c #424242",
"|.	c #191919",
"1.	c #6A6A6A",
"2.	c #A3A3A3",
"3.	c #D2D2D2",
"4.	c #6D6D6D",
"5.	c #5E5E5E",
"6.	c #292929",
"7.	c #727272",
"8.	c #8B8B8B",
"9.	c #AFAFAF",
"0.	c #CDCDCD",
"a.	c #747474",
"b.	c #5D5D5D",
"c.	c #919191",
"d.	c #A2A2A2",
"e.	c #DDDDDD",
"f.	c #B6B6B6",
"g.	c #8E8E8E",
"h.	c #6C6C6C",
"i.	c #1D1D1D",
"j.	c #686868",
"k.	c #676767",
"l.	c #909090",
"m.	c #D9D9D9",
"n.	c #C4C4C4",
"o.	c #575757",
"p.	c #1E1E1E",
"q.	c #888888",
"r.	c #AEAEAE",
"s.	c #ADADAD",
"t.	c #E0E0E0",
"u.	c #7B7B7B",
"v.	c #3B3B3B",
"w.	c #101010",
"x.	c #323232",
"y.	c #505050",
"z.	c #6F6F6F",
"A.	c #7A7A7A",
"B.	c #161616",
"C.	c #CCCCCC",
"D.	c #AAAAAA",
"E.	c #959595",
"F.	c #BABABA",
"G.	c #BDBDBD",
"H.	c #5F5F5F",
"I.	c #D4D4D4",
"J.	c #333333",
"K.	c #737373",
"L.	c #DADADA",
"M.	c #E7E7E7",
"N.	c #181818",
"                                                                                                                                ",
"                                                                                                                                ",
"                                                                                                                                ",
"                                                                                                                                ",
"                                                                                                                                ",
"                                                                                                                                ",
"                                                                                                                                ",
"                                                                                                                                ",
"                                                                                                                                ",
"                                                                                                                                ",
"                                                                                                                                ",
"                                                                                                                                ",
"                                                                                                                                ",
"                                                                                                                                ",
"                                                                                                                                ",
"                                                                                                                                ",
"                                                                                                                                ",
"                                                                                                                                ",
"                                                                                                                                ",
"                                                                                                                                ",
"                                                                                                                                ",
"                                                                                                                                ",
"                                                                                                                                ",
"                                                                                                                                ",
"                                                                                                                                ",
"                                                                                                                                ",
"                                                                                                                                ",
"                                                                                                                                ",
"                                                                                                                                ",
"                                                                                                                                ",
"                                                                                                                                ",
"                                                                                                                                ",
"                                                                                                                                ",
"                                                                                                                                ",
"                                                                                                                                ",
"                                                                                                                                ",
"                                                                                                                                ",
"                                                                                                                                ",
"                                                    . + @ # $ % & & % * = -                                                     ",
"                                              ; > , ' ) ! ~ { ] ^ / ( _ : < [ } [                                               ",
"                                            | 1 _ ~ 2 3 2 4 5 6 7 8 6 9 0 a b c d ,                                             ",
"                                            e f 5 g h i j k l m n o p - q = r s t :                                             ",
"                                              u - { v # w x y z < A B C D C E / F                                               ",
"                                              = s G H I J K ) L & @ y ] z M M _ v                                               ",
"                                              F N . 7 O P Q R S & = y ~ 1 c : _ w                                               ",
"                                              F N . 7 O P Q R S & = y ~ 1 c : _ w                                               ",
"                                            T * U V 5 W X Y O o > 2 x Z _ M A { y 3                                             ",
"                                            B ` L  ...n +.@.W #.$.q ^ %.z < b + s E                                             ",
"                                              &.&.L *.=.-.;.>.,.*.L s { M + s E E                                               ",
"                                              x $.] y 3 3 '.).+ ^ ( !.~.{.].^./.w                                               ",
"                                              (., % N O _.:.<.[.r }.w / : |.~.~ x                                               ",
"                                              + s 1.5 2.3.j W 4.5.@ x %.6.< d < {                                               ",
"                                              u % 7.8.9.0.K ' a.U 3 x z d M A A %.                                              ",
"                                            b.+ .  .c.d.e.f.g.h.% F { z d b i.d 1 &                                             ",
"                                            &.j.k.a.l.Q m.n.I #.o.# v z : B p.&.( E                                             ",
"                                              &.z q.I r.s.m.t.r.u.> 2 ~ ( &.+ s E                                               ",
"                                              }.* ~ v.# = { v.v.d !.!.E p.w.E E x.                                              ",
"                                              # N y.z.h :.A.U * + ] < !.M D B.c x.                                              ",
"                                              = N p 8.f.C.D...7., (.] &.6.: /.d {                                               ",
"                                              ).N  .E.@.0.l W #.$.} { d : : /./.x.                                              ",
"                                            t 2 U t ) F.-.G.*. .r = z d b A i.6.x.v.                                            ",
"                                            ( 5.H.j.l.k I.r.' T # x J.c d ~.!.@ v.E                                             ",
"                                              ( q K.8.Q L.M.t.*.s { v.w @ %.1 N.E                                               ",
"                                                  x.q = q x y z x.i.< N.{.{.~.                                                  "};
