/* XPM */
static char * 7_xpm[] = {
"64 64 60 1",
" 	c #2C2C2C",
".	c #A8A8A8",
"+	c #545454",
"@	c #383838",
"#	c #484848",
"$	c #989898",
"%	c #D0D0D0",
"&	c #8C8C8C",
"*	c #DCDCDC",
"=	c #000000",
"-	c #C0C0C0",
";	c #707070",
">	c #ECECEC",
",	c #646464",
"'	c #7C7C7C",
")	c #B4B4B4",
"!	c #202020",
"~	c #FCFCFC",
"{	c #5C4020",
"]	c #885830",
"^	c #FCA85C",
"/	c #FCFCB8",
"(	c #FCF400",
"_	c #B45400",
":	c #80502C",
"<	c #FCF420",
"[	c #CC6000",
"}	c #FC9840",
"|	c #FC7800",
"1	c #403018",
"2	c #FCFCD8",
"3	c #9C4C00",
"4	c #28200C",
"5	c #FCFC9C",
"6	c #E46C00",
"7	c #382C14",
"8	c #6C4824",
"9	c #FCF85C",
"0	c #483818",
"a	c #FC8820",
"b	c #744C28",
"c	c #FCB080",
"d	c #A86840",
"e	c #BC7848",
"f	c #303030",
"g	c #FC4040",
"h	c #343434",
"i	c #FC7C7C",
"j	c #BC0000",
"k	c #A40000",
"l	c #640000",
"m	c #FC2020",
"n	c #FCB8B8",
"o	c #FC9C9C",
"p	c #E00000",
"q	c #FC5C5C",
"r	c #FC0000",
"s	c #980000",
"t	c #FCD8D8",
"u	c #B00000",
"                                                                ",
"..........+@++++##### $%%%%%%%%%%%%%%%%%.& @@@@@#+++++********$=",
"-****%%-.&+@++##;->>-+$->>>>>>>>>>>>>>>%&, >>>%;#@++++*>-.&.&.; ",
"*$-$..&;+@@+##=&>>--.&+.%>-------------$, %>>>>%;#@@+++..&$$.$; ",
"*-$.$&+@@+#&&$ $%----&+&%>-............&,'>---%)& $$@@+,&&..&'; ",
"*$.$'+@@+#.%>>- +&-..&;+&%)...........$, %-...-+ $>%'+@+;&$'..; ",
"*.&'#@@+#%>>%%*& +&...&+&--...........&,'>....+ $>%.$'+@+;&...; ",
"*.&;@@+#%>%%...*& +&..&;+&-&&&&&&&&&&&, %-...+ $>%...$'+@#;&..; ",
"%.;#@+#.>%-.....%& +&&&;+++++++++++++++ ))..+ $>%.....$,+@#+;;; ",
"-&;@##++'*.......%& +++++           !  ++&); $>%.......'++@#+   ",
"&;@##)>$+'.-.....&-& +@@================@@+ $>%.......'+ @@ ##@@",
"+@@#)>%>$ +'....&',++======================++;%.....'+ @$$;@ @##",
"+##&>%%%>- +,'&&'@@@@=====================!@@@&%..',@ .>%%);@ @+",
"++#)%-..%>-; +,,+@@=======================!!!@@&%,+ ;.>%...'@@ +",
"++;>%.....>>'  +@==========================!!!!@+  .>>-....);@ #",
"++&>%......%~' ==============================!!!= .~*-......;@ @",
"+#)>%......&'+@========================={]======!+&>>-......;@ @",
"+#)%%......&+@======^//(_====:</~^:====_(/[===!!!@+.>>-.....'@! ",
"+#)&&'&&&&&'+======(/}|{1===:<2(3{=:===1^^/^1==!!!+;>%-''+++++! ",
"+@@   ++++;+@=====(/}|441===355/^5/(:==141^/^1=!!!@;+;+++      !",
"#)>>)&'    @@=====/}|44411==36~^6{{1:==:411<<1==!!@!@   ;->>%& !",
"#)>%%%>>*$+@@====(/}1444::===</6_{=====:411^/^7====!@&%>>%-)); !",
"#)>-.....-'@=====/(|4444[11==<(^^^_4==4_418_</7== @+;->--....+ !",
"#)>-......;@=====/^3441139{{392255^_4=:^488_</7=! @+;->-....&+ !",
"#)>-.....&,@=====/[34444:^9/~222229_{6^4188_</7=! @+;->-....&+ !",
"#)>-.....&+@=====/[:44444:^~~/////9_{=41188_</7=! @+;->-&&&&&+ !",
"#)%.&&&&&&+@=====/[8474444{^~(9999(_{=41188_</7=! @+;$;+++++++ !",
"#.'++++++++@=====/[8474444439(9999^{1441183_</7=============== !",
"#@@  ============/[840{==4439(^^^^_]1===133[</7=! @+;->>>>>>%& !",
"#)>>>>>>>%;@=====/[81{=44443(^[[[[_]1=41443a</7=! @+;->-----.; !",
"#)>------&+@=====/^31b444443<^333_[_1=4133[^</7=! @+;->-.....+ !",
"#)>-.....&+@=====(/34]111=43([{]]][^1===3[a^<c7=! @+'->-....&+ !",
"#)>-.....&+@======/34]{0===3^[1{{:^^1====a^</b7=! @+&->-....&+ !",
"#)>-.....&+@======/^{{d4===]<[114:((1====^^</1=!! @+$->-....&+ !",
"#)>-.....&+@======(/34{4===]<[1444(91====^<<e1=!! @+$->-.&&&&+ !",
"#)>.&&&&&&+@=======([{{1==={5[4444(/1====<</1==!!!@+,';+++++++ !",
"#.'++++++++@=======(^311==={2[444{(/=====</_1================= !",
"#@@  ==============8(3{{==3///{{{/~//3===/_1=!  ff#;$%>>>>>>%& !",
"#)>>>>>>>%;@=========33===/{/~~(~((/{(===_1==!  ff#;$->------; !",
"#)>------.+@=============(~~g~gggg~g~g===1==!!  fh#;$->-.....+ !",
"#)>-.....&+@===========i~/igggggggggggj=====!!  hh+;$->-....&+ !",
"#)>-.....&+@==========i~iggklllllllggggj====!! fh@+;$->-....&+ !",
"#)>-.....&+@=========i~igklll=====lllgggj===!! fh#+;$->-....&+ !",
"#)>.&&&&&&+@========mnigk~~)==~~~~~~~)gggl==!! f@#+;$->-....&+ !",
"#.'++++++++@========onggl~%#==~%%%%%%#jggj4==! f@#+;$->-.&&&&+ !",
"#@@  ==============m~igpl~%#==~%######lqgrl===!!!!@+,';+++++++ !",
"#)>>>>>>>%;@=======m~ggsl~%#==~%#=====liggs4================== !",
"#)>------.+@=======qtgpl=~%#==~%#======iggu4=! fh@+;$->>>>>>%& !",
"#)>-.....&+@=======qtgpl=~%)~~~%$~~~~)=oggu4=! fh@#;$->-----.; !",
"#)>.&&&&&&+@=======qngpl=~%%%%%%%%%%%#=oggu4=! fh@#;$->-.....+ !",
"#.'++++++++@=======rogpl='####$%###$%#=oggu4=! fh@#;$->-.&&&&+ !",
"#@@ ===============rigpl======~%#==~%#=oggu4=!!!!!@+,';+++++++ !",
"#)>>>>>>>%;@=======kiggll=====~%#==~%#lqggs=================== !",
"#)>------.+@========migk{~~~~~~%#==~%#rrgml=!! fh@#;$->>>>>>%& !",
"#)>-.....&+@========kggp{~%%%%%%#==~%#kggul=!! fh@#;$->-----.; !",
"#)>-.....&+@=========kggk'#######=='##gggl==!! fh@#;$->-....&+ !",
"#)>.&&&&&&+@==========gggklll=====llkgggk===!! fh@#;$->-....&+ !",
"#.'++++++++@========41=gggqqggggggpnoggk=14=!! fh@+;$->.&&&&&+ !",
"#@@ ===============41{{=gggiioonnnogggk={{14!!!!!!@+,';+++++++ !",
"#%>>>>>>>%;@=======41{{{==ggggggggggg={{{{14================== !",
"#%>.......+@===~~~~~///55({{{{{{{{{{{(55222222)=h@+;$%>>>>>>%& !",
"#%>.&&&&&&+@===~((((((((((((((((((((((((((((((&=h@+;$%>-..&&&; !",
"#.'+++++++++= @&+++++++++++++++++++++++++++++++ !!@+,';+++++++ !",
"#############@+,;;;;;;;;;;;;;;;;;;;;;;;;;;;;;;,@ !##############"};
