/* XPM */
static char * office_beige_wall_plain_xpm[] = {
"64 64 235 2",
"  	c #B58767",
". 	c #BB8B6A",
"+ 	c #BB8D6C",
"@ 	c #B08565",
"# 	c #BE8D6C",
"$ 	c #BB8B6C",
"% 	c #C18F6C",
"& 	c #C49271",
"* 	c #C99271",
"= 	c #C48F71",
"- 	c #B58567",
"; 	c #BB8F6C",
"> 	c #C18D6C",
", 	c #CC9874",
"' 	c #C69271",
") 	c #C1926F",
"! 	c #C99471",
"~ 	c #B98767",
"{ 	c #B58B67",
"] 	c #C1926C",
"^ 	c #BE8F6C",
"/ 	c #C4926F",
"( 	c #C68F71",
"_ 	c #BB8B67",
": 	c #CC9871",
"< 	c #B98B67",
"[ 	c #B98D67",
"} 	c #C48F6F",
"| 	c #B38565",
"1 	c #B38767",
"2 	c #BE8B6C",
"3 	c #CC9471",
"4 	c #B98B6A",
"5 	c #CC9274",
"6 	c #C99871",
"7 	c #CC9474",
"8 	c #CE9874",
"9 	c #C18F6F",
"0 	c #B38567",
"a 	c #BB876C",
"b 	c #BB876A",
"c 	c #C69471",
"d 	c #B08262",
"e 	c #BB8D6A",
"f 	c #C99874",
"g 	c #C69871",
"h 	c #D49D7A",
"i 	c #CE9877",
"j 	c #CC9A74",
"k 	c #CE9474",
"l 	c #CE9A77",
"m 	c #CC9271",
"n 	c #D29A77",
"o 	c #C68F6F",
"p 	c #DA9F7C",
"q 	c #CE9D77",
"r 	c #D29877",
"s 	c #D29A7A",
"t 	c #D49D7C",
"u 	c #D29D77",
"v 	c #D49F7A",
"w 	c #C6926F",
"x 	c #D29D7A",
"y 	c #D2987A",
"z 	c #CE9A74",
"A 	c #BB8D67",
"B 	c #CE9D74",
"C 	c #D49A7A",
"D 	c #DAA37C",
"E 	c #DDA57F",
"F 	c #D79F7C",
"G 	c #D79D7C",
"H 	c #C49471",
"I 	c #D49F7C",
"J 	c #C48D6F",
"K 	c #DAA37F",
"L 	c #D29F7A",
"M 	c #E5AA85",
"N 	c #C99474",
"O 	c #DDA37F",
"P 	c #DFA382",
"Q 	c #DFA582",
"R 	c #DAA57F",
"S 	c #E9AA87",
"T 	c #DA9F7F",
"U 	c #E3A582",
"V 	c #DFA882",
"W 	c #E3A885",
"X 	c #DA9D7C",
"Y 	c #D79F7A",
"Z 	c #E3A882",
"` 	c #DFA37F",
" .	c #D7A37C",
"..	c #DFA57F",
"+.	c #F1B38B",
"@.	c #E5A885",
"#.	c #E5B085",
"$.	c #E3AE85",
"%.	c #DFA87F",
"&.	c #E3AA82",
"*.	c #D79D7A",
"=.	c #E3AA85",
"-.	c #E9AA85",
";.	c #DAA57C",
">.	c #DDA87F",
",.	c #E9AE87",
"'.	c #D4A37A",
").	c #EEAE8B",
"!.	c #EBB387",
"~.	c #EBB087",
"{.	c #E5AE85",
"].	c #EEB08B",
"^.	c #E3A585",
"/.	c #F4B58D",
"(.	c #DFAA82",
"_.	c #EBAE87",
":.	c #F1B58B",
"<.	c #DD9F7F",
"[.	c #EEB38B",
"}.	c #DF9F7F",
"|.	c #EBAA87",
"1.	c #EEB587",
"2.	c #FAB992",
"3.	c #AA6240",
"4.	c #AA6540",
"5.	c #AE6742",
"6.	c #B06742",
"7.	c #B06A42",
"8.	c #AE6740",
"9.	c #B36A45",
"0.	c #B56C45",
"a.	c #B36C45",
"b.	c #7F4A2F",
"c.	c #7F472F",
"d.	c #7C472E",
"e.	c #7A472E",
"f.	c #71452E",
"g.	c #71422B",
"h.	c #6F422B",
"i.	c #74452E",
"j.	c #77472E",
"k.	c #824A2F",
"l.	c #824C32",
"m.	c #4A2E20",
"n.	c #472E20",
"o.	c #472E1F",
"p.	c #4C2F20",
"q.	c #4C2F23",
"r.	c #4F2F23",
"s.	c #4F3223",
"t.	c #7F472E",
"u.	c #543223",
"v.	c #513223",
"w.	c #673D29",
"x.	c #74422E",
"y.	c #6C402B",
"z.	c #6A402B",
"A.	c #67402B",
"B.	c #653D29",
"C.	c #653B29",
"D.	c #623B26",
"E.	c #623B29",
"F.	c #5D3926",
"G.	c #603B26",
"H.	c #9D5D3B",
"I.	c #874C32",
"J.	c #77452E",
"K.	c #6C422B",
"L.	c #674029",
"M.	c #A8603D",
"N.	c #854C32",
"O.	c #563423",
"P.	c #E58F58",
"Q.	c #AE6540",
"R.	c #A8623D",
"S.	c #A35D3B",
"T.	c #9D5B39",
"U.	c #9F5B3B",
"V.	c #9D5B3B",
"W.	c #9A5B39",
"X.	c #A5603D",
"Y.	c #422316",
"Z.	c #A86240",
"`.	c #DF7F4F",
" +	c #985639",
".+	c #9A5839",
"++	c #945637",
"@+	c #925637",
"#+	c #985637",
"$+	c #563425",
"%+	c #D4774A",
"&+	c #472516",
"*+	c #74452B",
"=+	c #7C472F",
"-+	c #5D3425",
";+	c #A55D3D",
">+	c #D77A4C",
",+	c #B96A42",
"'+	c #BB6A42",
")+	c #B56A42",
"!+	c #B56740",
"~+	c #B06540",
"{+	c #AE6240",
"]+	c #AA623D",
"^+	c #7A452E",
"/+	c #472518",
"(+	c #623725",
"_+	c #C67147",
":+	c #673D2B",
"<+	c #452316",
"[+	c #653726",
"}+	c #74472E",
"|+	c #C97147",
"1+	c #824C2F",
"2+	c #8B4C32",
"3+	c #603725",
"4+	c #71452B",
"5+	c #8D4F32",
"6+	c #C47147",
"7+	c #623726",
"8+	c #5B3425",
"9+	c #B56F45",
"0+	c #8B4F32",
"a+	c #8F4F32",
"b+	c #8F5134",
"c+	c #925134",
"d+	c #8F4F34",
"e+	c #BB7147",
"f+	c #CE744A",
"g+	c #B97147",
"h+	c #583425",
"i+	c #402316",
"j+	c #B96F47",
"k+	c #985839",
"l+	c #543423",
"  . +   @ # $ % & + * = -   - . ; > , ' > ) ! % + ' ~ ) . ' % '   . +   . ) - ' #   .   %   > - { + % ] ^ & * ' + ' ~ ) . ' % ' ",
"/ ] ( * # / + $ % % > ( % % # _ ' + ) : < [ . # } - - $ | ' ' ^ / ] ( * < . + .   - ' 1 2 % _ > ~ = - { 3 % # 3 } - - $ | ' ' ^ ",
"    . ^ &   4 , * 2   & 5 & % * * ^ / ^ $ < ' & ' $ # # > * + ~ 6     . ^ 7 8 < } % 9 0 % a % * / 4 9 ^ + ' % 0 ' $ # # > * + ~ ",
"6     . ] > , ^ 6 %   b ] / % > a # c % 9 > + / ' + 2 - _ ) 9 ] d / ] + + * % e * ' e f 8 ' ! +   + g . ) > e = ' + 2 - _ ) 9 ] ",
"d / ] + h i 9 ^ ) % > c + % & . % ! ' % + : % $ % # *   $ - + 8 7 %   ) j i 6 - ~ + & ! / k 6 @ 7 * l 8 ) * m + % # *   $ - + 8 ",
"d / ] + j i 6 - ~ + & ! / k 6 @ 7 * l 8 ) * m + % # *   $ - + 8 7 %   ) j i 6 - ~ + & ! / k 6 @ 7 * l 8 ) * m + % # *   $ ) 9 ] ",
"7 %   ) 9 ' % > ' ) ' # n / c % + ) 9 b ' i $ 7 9 % $ . * , o } ) ' > b 9 ' % > ' ) ' # n / c % + ) 9 b ' i $ 7 9 % $ . * - + 8 ",
"7 %   ) ] ' 8 % 3 p > q ! r / ' % 8 ' i ' ' > ] s > # ' % > e , > , > h ] ' 8 % 3 p > q ! r / ' % 8 ' i ' ' > ] s > # ' % - + 8 ",
") ' > b g t ! ; * * { > < # h > , 9 2 h ' u , % , 3 * 7 ! 8 } 2 ! } * ! g t ! ; * * { > < # h > , 9 2 h ' u , % , 3 * 7 ! , o } ",
"> , > h & u $ e ' i / ' ' ' > v ' 8 } * = 6   , ,   % > j j 6 % ' k $ 8 & u $ e ' i / ' ' ' > v ' 8 } * = 6   , ,   % > j > e , ",
"! } * ! * 9 5 ' ! w c ! / h / ^ ~ v * 8 * i > , 9 _ ) 8 * > } $ ! 9 9 . * 9 5 ' ! w c ! / h / ^ ~ v * 8 * i > , 9 _ ) 8 * 8 } 2 ",
"' k $ 8 , 3 v & ! ! ! % } } h x ' , , , % y , 3 % z ! 7 u 8 ' i e 7 % % , 3 v & ! ! ! % } } h x ' , , , % y , 3 % z ! 7 u j 6 % ",
"! 9 9 . h 8 ' 8 ' i w % 9 ' ( ^ A 8 9 $ B n 6 # * 9 o } 9 r w , / ' ' * h 8 ' 8 ' i w % 9 ' ( ^ A 8 9 $ B n 6 # * 9 o } 9 > } $ ",
"e 7 % % , , ! ( # : } , 6 v # C 8 : , D ' > 6 8 : : ! & 9 # v & ' j & , , , ! ( # : } , 6 v # C 8 : , D ' > 6 8 : : ! & 9 8 ' i ",
"/ ' ' * h * E r & c F ' j ( , : G ] 8 ' 9 : u i ' & h ' , , H ! ! 8 ! q h * E r & c F ' j ( , : G ] 8 ' 9 : u i ' & h ' , r w , ",
"' j & , * , p 2 I h r , , ' 9 , r t x p , r 6 & > F } % : * / u p 8 3 % * , p 2 I h r , , ' 9 , r t x p , r 6 & > F } % : # v & ",
"! 8 ! q * n g l = p , * i p 2 h ' 7 i = z * l ! i i 8 u * q v ' s i 9 i * n g l = p , * i p 2 h ' 7 i = z * l ! i i 8 u * , H ! ",
"s i 9 i h 8 h 8 F / B ' ' 6 * ' v ^ : > z z D z J > 6 x s D y ' h h z h h 8 h 8 F / B ' ' 6 * ' v ^ : > z z D z J > 6 x s * / u ",
"h h z h K v ! s ' 8 i & ' & ! L i x / , * 8 v 6 , M & 5 6 ) i F ' i K F K v ! s ' 8 i & ' & ! L i x / , * 8 v 6 , M & 5 6 q v ' ",
"' i K F D N u z ' 8 L r ! i ! D x , h G N G ' n 7 ' E u O 8 v h * D , N D N u z ' 8 L r ! i ! D x , h G N G ' n 7 ' E u O D y ' ",
"* D , N v v D p * D ' y s h 6 n , i s n u 6 P 5 Q D K ' D R D , ! i F P v v D p * D ' y s h 6 n , i s n u 6 P 5 Q D K ' D ) i F ",
"! i F P p ' E z S 8 v f L C p T N , r z ! v p 8 v U V O W F ' , D Q p X p ' E z S 8 v f L C p T N , r z ! v p 8 v U V O W 8 v h ",
"D Q p X Y , Z i * K 7 i Y D p x D * i h x , ` q x v 3 p /  .l h F y B ! Y , Z i * K 7 i Y D p x D * i h x , ` q x v 3 p / R D , ",
"F y B ! F , C ` ` v r Q ..8 D ` D p 8 ' 6 6 F D i 6 ` r h h , ` , h D C F , C ` ` v r Q ..8 D ` D p 8 ' 6 6 F D i 6 ` r h F ' , ",
", h D C P E p +.5 L 9 ' , s 7 @.! ,  .V Q ' v * ' D x Q r l i #.i h E F P E p +.5 L 9 ' , s 7 @.! ,  .V Q ' v * ' D x Q r  .l h ",
"i h E F , U D $.i F D Q @.p E K 8 : 8 D Q V q U ' j %.M p 6 k G O &.x ! , U D $.i F D Q @.p E K 8 : 8 D Q V q U ' j %.M p h , ` ",
"O &.x ! s F x O E , ! R y q D y y T , , v W * , .., 8  .* *.h x &. .E y s F x O E , ! R y q D y y T , , v W * , .., 8  .* l i #.",
"&. .E y 8 h E F u h ! Q O @.` E R G h Z ..K V Q r T K r O v * I D h h u 8 h E F u h ! Q O @.` E R G h Z ..K V Q r T K r O v * I ",
"D h h u %.=.V p F Q O s 8 x M F D ` -.x s K %.6 Q ` p x p p h O x D q Q %.=.V p F Q O s 8 x M F D ` -.x s K %.6 Q ` p x p p h O ",
"x D q Q i X x ;.8 E ;.>.,.p x h D D @.D C D O ` K ..p 8 X V @.h p ..'.U i X x ;.8 E ;.>.,.p x h D D @.D C D O ` K ..p 8 X V @.h ",
"p ..'.U R ;...` X h W p D n 7 h l D *.X E h v h V @.T p h l E h E Y p v R ;...` X h W p D n 7 h l D *.X E h v h V @.T p h l E h ",
"E Y p v h Q ..G p p ).%.p Q ..h Q ..t D D D C C p P S ..h D ..D t ..Q Q h Q ..G p p ).%.p Q ..h Q ..t D D D C C p P S ..h D ..D ",
"t ..Q Q !.=.-.W V M Q W F @.S O W V =.W M ~.{.V O V W W F P M T ~.` V O !.=.-.W V M Q W F @.S O W V =.W M ~.{.V O V W W F P M T ",
"~.` V O E {.%.t M M D F V ].@.V M O W D ^.D Z M D v Z G D Q M F ..&.M ~.E {.%.t M M D F V ].@.V M O W D ^.D Z M D v Z G D Q M F ",
"..&.M ~.M M v x R X ~./.G (.Z  ._.F D @.M +.G V Q @.Y ].=.r G ].V V M P M M v x R X ~./.G (.Z  ._.F D @.M +.G V Q @.Y ].=.r G ].",
"V V M P ..W p @.R @.].D x p &.n _.x Q (.;. .%.)...:.~.=.Q &.p r @.V L ....W p @.R @.].D x p &.n _.x Q (.;. .%.)...:.~.=.Q &.p r ",
"@.V L .._.<.` p O p Q K D V Q [.-._.M Q ~.p Q Q p X ~.v V G M v Q ).}.M _.<.` p O p Q K D V Q [.-._.M Q ~.p Q Q p X ~.v V G M v ",
"R @._.D ;.P G |.E  .[.T p ].V E Z ,...@.@.Z >.p _.M {.....D Q F R @._.D ;.P G |.E  .[.T p ].V E Z ,...@.@.Z >.p _.M {.....D Q F ",
"_.D ].Q ..C /.].Q Q @.M Z !.[.[.Z @.@.M Q P 1.2.V h O M _.p _.K _.D ].Q ..C /.].Q Q @.M Z !.[.[.Z @.@.M Q P 1.2.V h O M _.p _.K ",
"D M =.V p [.X %.=.].Z M p ~.=._.` (.].].@.W M &.M M C :.:.E =.M D M =.V p [.X %.=.].Z M p ~.=._.` (.].].@.W M &.M M C :.:.E =.M ",
"3.4.4.4.4.5.6.6.6.7.6.4.8.6.7.7.9.0.a.7.7.7.7.7.a.0.0.9.7.4.4.4.3.4.4.4.4.5.6.6.6.7.6.4.8.6.7.7.9.0.a.7.7.7.7.7.a.0.0.9.7.4.4.4.",
"b.b.b.c.d.d.d.d.e.e.d.c.c.d.e.f.g.h.h.h.h.h.h.h.g.i.j.e.b.k.l.b.b.b.b.c.d.d.d.d.e.e.d.c.c.d.e.f.g.h.h.h.h.h.h.h.g.i.j.e.b.k.l.b.",
"m.n.o.o.n.n.n.n.n.n.o.o.n.m.m.p.q.q.q.q.q.q.q.r.s.r.q.r.r.q.m.m.m.n.o.o.n.n.n.n.n.n.o.o.n.m.m.p.q.q.q.q.q.q.q.r.s.r.q.r.r.q.m.m.",
"t.u.v.w.x.g.y.z.A.A.B.C.D.D.E.E.C.D.F.F.F.F.G.w.A.A.w.B.D.v.H.t.t.u.v.w.x.g.y.z.A.A.B.C.D.D.E.E.C.D.F.F.F.F.G.w.A.A.w.B.D.v.H.t.",
"I.v.J.v.K.K.y.y.y.z.L.L.L.L.L.w.w.L.L.L.L.L.w.L.w.w.w.B.v.x.M.I.I.v.J.v.K.K.y.y.y.z.L.L.L.L.L.w.w.L.L.L.L.L.w.L.w.w.w.B.v.x.M.I.",
"N.O.j.I.P.5.6.Q.4.4.3.R.S.T.T.T.S.S.U.S.V.W.T.T.T.S.X.Y.e.g.Z.N.N.O.j.I.P.5.6.Q.4.4.3.R.S.T.T.T.S.S.U.S.V.W.T.T.T.S.X.Y.e.g.Z.N.",
"b.O.j.I.V.`. +W.T.U.V.T.T.W.W..+++@+++#+.+W.V.U.S.V.B.Y.e.i.R.b.b.O.j.I.V.`. +W.T.U.V.T.T.W.W..+++@+++#+.+W.V.U.S.V.B.Y.e.i.R.b.",
"b.$+e.I.U.T.%+X.M.M.Z.4.4.Q.6.7.7.6.4.4.4.4.4.3.3.y.v.&+d.*+M.b.b.$+e.I.U.T.%+X.M.M.Z.4.4.Q.6.7.7.6.4.4.4.4.4.3.3.y.v.&+d.*+M.b.",
"=+-+j.I.;+T.U.>+,+'+'+)+!+~+~+~+{+]+]+]+]+{+{+{+^+-+v./+t.i.3.=+=+-+j.I.;+T.U.>+,+'+'+)+!+~+~+~+{+]+]+]+]+{+{+{+^+-+v./+t.i.3.=+",
"b.(+i.N.T.U.S._+d.e.e.j.j.e.e.d.=+c.b.=+j.j.j.f.:+-+v.<+j.K.3.b.b.(+i.N.T.U.S._+d.e.e.j.j.e.e.d.=+c.b.=+j.j.j.f.:+-+v.<+j.K.3.b.",
"N.[+}+N.S.T.M.|+l.l.k.1+1+l.N.1+b.k.l.N.I.2+2+2+w.3+v./+4+K.4.N.N.[+}+N.S.T.M.|+l.l.k.1+1+l.N.1+b.k.l.N.I.2+2+2+w.3+v./+4+K.4.N.",
"5+3+i.I.T.S.3.6+j.j.j.4+g.h.g.g.4+g.h.h.h.h.h.g.E.7+v./+h.h.6.5+5+3+i.I.T.S.3.6+j.j.j.4+g.h.g.g.4+g.h.h.h.h.h.g.E.7+v./+h.h.6.5+",
"2+8+f.2+T.T.4.6+e.e.e.d.e.e.j.f.f.i.}+i.j.e.e.j.E.3+u./+y.y.9+2+2+8+f.2+T.T.4.6+e.e.e.d.e.e.j.f.f.i.}+i.j.e.e.j.E.3+u./+y.y.9+2+",
"I.8+f.0+V.T.3.|+a+b+b+c+c+d+a+0+2+I.N.N.I.I.I.I.w.8+v.Y.h.y.e+I.I.8+f.0+V.T.3.|+a+b+b+c+c+d+a+0+2+I.N.N.I.I.I.I.w.8+v.Y.h.y.e+I.",
"2+8+j.a+U.T.R.f+b.N.I.I.I.2+2+N.b.b.l.k.k.b.b.b.B.u.u.Y.g.y.g+2+2+8+j.a+U.T.R.f+b.N.I.I.I.2+2+N.b.b.l.k.k.b.b.b.B.u.u.Y.g.y.g+2+",
"0+h+e.d+T.V.R.)+d.e.e.j.f.f.i.d.e.e.j.f.f.i.}+i.B.u.v.i+h.g.g+0+0+h+e.d+T.V.R.)+d.e.e.j.f.f.i.d.e.e.j.f.f.i.}+i.B.u.v.i+h.g.g+0+",
"2+$+e.c+T.V.y.v.v.s.v.r.v.v.s.v.r.q.q.q.r.r.v.v.u.B.v.Y.g.g.j+2+2+$+e.c+T.V.y.v.v.s.v.r.v.v.s.v.r.q.q.q.r.r.v.v.u.B.v.Y.g.g.j+2+",
"2+$+d.c+@+B.u.8+O.v.v.v.8+O.v.v.v.u.O.u.u.v.s.v.v.h+B.Y.4+j.j+2+2+$+d.c+@+B.u.8+O.v.v.v.8+O.v.v.v.u.O.u.u.v.s.v.v.h+B.Y.4+j.j+2+",
"I.8+e.b+&+/+<+/+/+/+Y.Y.i+Y.Y.i+Y.Y.<+/+/+/+Y.Y.i+Y.Y.Y.g.e.0.I.I.8+e.b+&+/+<+/+/+/+Y.Y.i+Y.Y.i+Y.Y.<+/+/+/+Y.Y.i+Y.Y.Y.g.e.0.I.",
"N.-+e.v.G.G.G.D.D.B.z.z.y.y.y.h.g.f.f.f.g.g.f.g.g.g.g.y.v.d.7.N.N.-+e.v.G.G.G.D.D.B.z.z.y.y.y.h.g.f.f.f.g.g.f.g.g.g.g.y.v.d.7.N.",
"N.8+v.d.f.j.i.j.j.j.j.d.b.N.I.2+2+2+2+2+I.1+b.d.e.e.e.d.z.v.6.N.N.8+v.d.f.j.i.j.j.j.j.d.b.N.I.2+2+2+2+2+I.1+b.d.e.e.e.d.z.v.6.N.",
"@+#+.+W.W.W.W.T.T.W.k+T.U.S.S.S.S.U.T.V.U.T.V.U.U.S.U.W.k+#+#+++@+#+.+W.W.W.W.T.T.W.k+T.U.S.S.S.S.U.T.V.U.T.V.U.U.S.U.W.k+#+#+++",
"1+N.2+2+2+5+d+b+b+d+a+b+5+0+a+a+a+a+5+0+0+2+N.b.=+=+e.e.e.e.e.c.1+N.2+2+2+5+d+b+b+d+a+b+5+0+a+a+a+a+5+0+0+2+N.b.=+=+e.e.e.e.e.c.",
"l+u.v.u.u.h+h+$+u.u.v.v.u.h+h+h+8+h+$+$+u.O.h+h+8+8+8+$+u.u.O.$+l+u.v.u.u.h+h+$+u.u.v.v.u.h+h+h+8+h+$+$+u.O.h+h+8+8+8+$+u.u.O.$+"};
