/* XPM */
static char * office_beige_archway_xpm[] = {
"64 64 164 2",
"  	c None",
". 	c #C99471",
"+ 	c #BB876A",
"@ 	c #C99871",
"# 	c #B98767",
"$ 	c #B08565",
"% 	c #BE8D6C",
"& 	c #BB8B6C",
"* 	c #C18F6C",
"= 	c #C49271",
"- 	c #BB8D6C",
"; 	c #C99271",
"> 	c #C48F71",
", 	c #B58567",
"' 	c #B58767",
") 	c #BB8B6A",
"! 	c #C1926C",
"~ 	c #CC9874",
"{ 	c #C18F6F",
"] 	c #CE9874",
"^ 	c #BE8F6C",
"/ 	c #C18D6C",
"( 	c #C69271",
"_ 	c #CC9471",
": 	c #C4926F",
"< 	c #B98D67",
"[ 	c #D29877",
"} 	c #B58B67",
"| 	c #C1926F",
"1 	c #B38567",
"2 	c #C68F71",
"3 	c #BB8B67",
"4 	c #BB8D6A",
"5 	c #B98B67",
"6 	c #C18B6C",
"7 	c #C48F6F",
"8 	c #B38565",
"9 	c #B98B6A",
"0 	c #BE8B6C",
"a 	c #CC9274",
"b 	c #BB876C",
"c 	c #CC9474",
"d 	c #CE9A77",
"e 	c #C69471",
"f 	c #BB8767",
"g 	c #C18D6F",
"h 	c #C69871",
"i 	c #D49D7A",
"j 	c #CE9877",
"k 	c #CC9871",
"l 	c #CC9271",
"m 	c #A8603D",
"n 	c #A8623D",
"o 	c #AA6240",
"p 	c #A86240",
"q 	c #CE9474",
"r 	c #CC9A74",
"s 	c #7F4A2F",
"t 	c #7C472F",
"u 	c #854C32",
"v 	c #874C32",
"w 	c #D29A77",
"x 	c #C68F6F",
"y 	c #DA9F7C",
"z 	c #CE9D77",
"A 	c #563425",
"B 	c #5B3425",
"C 	c #583425",
"D 	c #D29A7A",
"E 	c #D49D7C",
"F 	c #BB8F6C",
"G 	c #D29D77",
"H 	c #653726",
"I 	c #623725",
"J 	c #5D3425",
"K 	c #603725",
"L 	c #563423",
"M 	c #513223",
"N 	c #C6926F",
"O 	c #9D5D3B",
"P 	c #D49F7A",
"Q 	c #BB7147",
"R 	c #8B4C32",
"S 	c #C49471",
"T 	c #B56F45",
"U 	c #8D4F32",
"V 	c #B06742",
"W 	c #CE9A74",
"X 	c #AA6540",
"Y 	c #DAA37C",
"Z 	c #D2987A",
"` 	c #DAA37F",
" .	c #D79F7C",
"..	c #C99474",
"+.	c #B97147",
"@.	c #DDA37F",
"#.	c #DFA382",
"$.	c #8B4F32",
"%.	c #DAA57F",
"&.	c #DFA582",
"*.	c #DA9D7C",
"=.	c #B96F47",
"-.	c #E3A885",
";.	c #CE9D74",
">.	c #D7A37C",
",.	c #D49A7A",
"'.	c #B56C45",
").	c #DFA37F",
"!.	c #DDA57F",
"~.	c #B06A42",
"{.	c #7F472E",
"].	c #543223",
"^.	c #E5B085",
"/.	c #D49F7C",
"(.	c #D29D7A",
"_.	c #DFA57F",
":.	c #D4A37A",
"<.	c #E3A582",
"[.	c #DFA882",
"}.	c #E5A885",
"|.	c #D79F7A",
"1.	c #EBB087",
"2.	c #E5AA85",
"3.	c #DA9F7F",
"4.	c #E3AA82",
"5.	c #E3AA85",
"6.	c #D79D7C",
"7.	c #EEB08B",
"8.	c #D29F7A",
"9.	c #EEAE8B",
"0.	c #DF9F7F",
"a.	c #EBAE87",
"b.	c #F1B58B",
"c.	c #7F472F",
"d.	c #824A2F",
"e.	c #824C32",
"f.	c #4A2E20",
"g.	c #472E20",
"h.	c #472E1F",
"i.	c #4F2F23",
"j.	c #4C2F23",
"k.	c #77472E",
"l.	c #7A472E",
"m.	c #74452E",
"n.	c #7C472E",
"o.	c #74452B",
"p.	c #74472E",
"q.	c #71452E",
"r.	c #8F4F32",
"s.	c #8F4F34",
"t.	c #925134",
"u.	c #6C422B",
"v.	c #71452B",
"w.	c #6F422B",
"x.	c #6C402B",
"y.	c #71422B",
"z.	c #925637",
"A.	c #985637",
"B.	c #9A5839",
"C.	c #9A5B39",
"D.	c #985839",
"E.	c #945637",
"F.	c #824C2F",
"G.	c #543423",
". + @ # $ % & * = - ; > , ' , ) ! ~ * { @ ] ) ^ * , / > ( ) + ( ^ _ + * * ( * * : ' ( < - [ = { } - * ! ^ = ; ( - ( # | ) ( * ( ",
"_ , 1 : % : - & * * / 2 * * % 3 1 * & ^ ' 4 * ) - ) 2 > % / % ( / * & ^ : ' , ' 5 ' ( 6 1 ' * . # > , } _ * % _ 7 , , & 8 ( ( ^ ",
"* : ] ' = ' 9 ~ ; 0 ' = a = * ; = 0 % ^ ' ; ' ^ * { ' = & b 7 c d ' ' + e > ' = ' = = ( ( e ( . : 9 { ^ - ( * 1 ( & % % / ; - # ",
"@ ~ 4 ( ! / ~ ^ @ * ' + ! : * / 3 f ( g ' * / ( & ' ~ ) % | 7 @ / ; > # { 4 h ' { * b . # 2 ( f ' - h ) | / 4 > ( - 0 , 3 | { ! ",
") > ; } i j { ^ | * / e - * = ) * . ( * - k * & * { ' = & b 7 c d ' ' + e > ' = ' = = ( ( e ( . c ; d ] | ; l - * % ; ' & , - ] ",
"@ ~ 4 ( ! / ~ ^ @ * ' + ! : * / 3 f ( g ' * / ( & ' ~ ) % | 7 @ / ; > # { 4 h ' { * b . # 2 ( f ' - h ) | / 4 > ( - 0 , 3 | { ! ",
") > ; } i j { ^ | * / e - * = ) * . ( * - k * & m n o p m m n m p m m n o p m m # - = . : q @ $ c ; d ] | ; l - * % ; ' & , - ] ",
"c * ' | r j @ , # - = . : q @ $ c ; m m n m p m s s t u v s s s u v s s t u v s n m p m m n @ $ c ; d ] | ; l - * % ; ' & , - ] ",
"| ( / + { ( * / ( | ( % w : e m n p v s s s u v s s t u v s s s u v s s t u v s s s u v s s o m p | { + ( j & c { * & ) ; ~ x 7 ",
"/ ~ / i ! ( ] * _ y / z m p m s s u v s s s u v A A B B B B B B B C A A B B B B s s u v s s t s u m m n ( ( / ! D / % ( * / 4 ~ ",
". 7 ; . h E . F ; ; o o s u v s s u B B B B B C                                 B B B C A A t s u v s s m p ~ * ~ _ ; c . ] 7 0 ",
"( q & ] = G & 4 m o s t s u v A A B                                                         B B B v s s s u m m ~ ' * / r r @ * ",
". { { ) ; { a n s t s t B B C                                                                     H I J s u v s n 3 | ] ; / 7 & ",
"4 c * * ~ _ p s s t K B                                                                                 A L v s s p . c G ] ( j ",
": ( ( ; i m u s t J                                                                                         M u s u m 7 { [ N ~ ",
"( r = ~ O v u u L                                                                                             M u u v A { % P = ",
". ] . z m v v L                                                                                                 Q R v B ~ ~ S . ",
"y ] _ * o v u I                                                                                                 T R R C k ; : G ",
"D j { j m U U K                                                                                                 V U U A ; z P ( ",
"i i W i V U U K                                                                                                 X u u H D Y Z ( ",
"( j `  .Q v v B                                                                                                 o s s I @ | j  .",
"; Y ~ ..+.R R B                                                                                                 o t t J @.] P i ",
". j  .#.+.$.$.C                                                                                                 m s s A Y %.Y ~ ",
"Y &.y *.=.R R A                                                                                                 n s s L -. .( ~ ",
" .Z ;.. =.R R A                                                                                                 p u u L : >.d i ",
"~ i Y ,.'.v v B                                                                                                 m v v M i i ~ ).",
"j i !. .~.u u J                                                                                                 O {.{.].[ d j ^.",
"Y i i G =.R R A                                                                                                 m v v M @.P ; /.",
"(.Y z &.=.R R A                                                                                                 p u u L y y i @.",
"y _.:.<.+.$.$.C                                                                                                 n s s L *.[.}.i ",
"!.|.y P V U U K                                                                                                 X u u H i d !.i ",
"E _.&.&.Q v v B                                                                                                 o t t J i Y _.Y ",
"1.).[.@.T R R B                                                                                                 o s s I  .#.2.3.",
"_.4.2.1.V U U K                                                                                                 X u u H Y &.2. .",
"[.[.2.#.V U U K                                                                                                 X u u H 5.[ 6.7.",
"}.[.8._.X u u H                                                                                                 V U U K &.4.y [ ",
"&.9.0.2.o s s I                                                                                                 T R R B [.6.2.P ",
"%.}.a.Y o t t J                                                                                                 Q v v B _.Y &. .",
"a.Y 7.&.m s s A                                                                                                 +.R R B a.y a.` ",
"Y 2.5.[.V U U K                                                                                                 V U U K b.!.5.2.",
"o X X X V U U K                                                                                                 V U U K ~.X X X ",
"s s s c.Q v v B                                                                                                 Q v v B s d.e.s ",
"f.g.h.h.+.R R B                                                                                                 +.R R B i.j.f.f.",
"{.].k.v +.$.$.C                                                                                                 +.$.$.C l.m.O {.",
"v M m.u '.v v B                                                                                                 O {.{.].n.o.m v ",
"u L p.u =.R R A                                                                                                 =.R R A l.m.p u ",
"s L m.v =.R R A                                                                                                 =.R R A n.o.n s ",
"s A q.R '.v v B                                                                                                 '.v v B {.m.m s ",
"t J q.$.~.u u J                                                                                                 ~.u u J l.m.o t ",
"s I k.r.'.v v B                                                                                                 '.v v B n.o.o s ",
"u H l.s.=.R R A                                                                                                 =.R R A {.m.X u ",
"U K l.t.=.R R A                                                                                                 =.R R A k.u.V U ",
"R B k.v +.$.$.C                                                                                                 +.$.$.C l.m.T R ",
"v B m.u V U U K                                                                                                 V U U K n.o.Q v ",
"R B p.u Q v v B                                                                                                 Q v v B {.m.+.R ",
"$.C m.v T R R B                                                                                                 T R R B k.u.+.$.",
"R A q.R V U U K                                                                                                 V U U K v.u.=.R ",
"R A q.$.V U U K                                                                                                 V U U K w.w.=.R ",
"v B k.r.X u u H                                                                                                 X u u H x.x.'.v ",
"u J l.s.o s s I                                                                                                 o s s I w.x.~.u ",
"u B l.t.o t t J                                                                                                 o t t J y.x.V u ",
"z.A.B.C.m s s A                                                                                                 m s s A D.A.A.E.",
"F.u R R n s s L                                                                                                 n s s L R R U c.",
"G.].M ].].].].C                                                                                                 ].].].C ].].L A "};
