/* XPM */
static char * office_beige_wall_flag_japan_xpm[] = {
"64 64 661 2",
"  	c #C99471",
". 	c #BB876A",
"+ 	c #C99871",
"@ 	c #B98767",
"# 	c #B08565",
"$ 	c #BE8D6C",
"% 	c #BB8B6C",
"& 	c #C18F6C",
"* 	c #C49271",
"= 	c #BB8D6C",
"- 	c #C99271",
"; 	c #C48F71",
"> 	c #B58567",
", 	c #B58767",
"' 	c #BB8B6A",
") 	c #BB8F6C",
"! 	c #C18D6C",
"~ 	c #CC9874",
"{ 	c #C69271",
"] 	c #C1926F",
"^ 	c #B58B67",
"/ 	c #C1926C",
"( 	c #BE8F6C",
"_ 	c #CC9471",
": 	c #B38567",
"< 	c #C4926F",
"[ 	c #C68F71",
"} 	c #BB8B67",
"| 	c #CC9871",
"1 	c #B98B67",
"2 	c #B98D67",
"3 	c #C48F6F",
"4 	c #B38565",
"5 	c #B38767",
"6 	c #BE8B6C",
"7 	c #CE9874",
"8 	c #B98B6A",
"9 	c #8C8C8C",
"0 	c #CC9474",
"a 	c #C18F6F",
"b 	c #BB876C",
"c 	c #BB8D6A",
"d 	c #ABABAB",
"e 	c #BA8B69",
"f 	c #BD8C6A",
"g 	c #C69471",
"h 	c #B08262",
"i 	c #C99874",
"j 	c #C69871",
"k 	c #BD8A6A",
"l 	c #D49D7A",
"m 	c #CE9877",
"n 	c #C0C0C0",
"o 	c #ECECEC",
"p 	c #FFFFFF",
"q 	c #838383",
"r 	c #313131",
"s 	c #000000",
"t 	c #9F9F9F",
"u 	c #9D9D9D",
"v 	c #9C9C9C",
"w 	c #9B9B9B",
"x 	c #A9A9A9",
"y 	c #BABABA",
"z 	c #B6B6B6",
"A 	c #B8B8B8",
"B 	c #B7B7B7",
"C 	c #989898",
"D 	c #C88F6E",
"E 	c #CC9A74",
"F 	c #424242",
"G 	c #7F7F7F",
"H 	c #535353",
"I 	c #5C5C5C",
"J 	c #232323",
"K 	c #676767",
"L 	c #515151",
"M 	c #4A4A4A",
"N 	c #4B4B4B",
"O 	c #595959",
"P 	c #6A6A6A",
"Q 	c #6C6C6C",
"R 	c #626262",
"S 	c #616161",
"T 	c #555555",
"U 	c #525252",
"V 	c #414141",
"W 	c #B58264",
"X 	c #B88A6A",
"Y 	c #B98869",
"Z 	c #785944",
"` 	c #85624B",
" .	c #84614A",
"..	c #050505",
"+.	c #010101",
"@.	c #392A20",
"#.	c #8C6751",
"$.	c #7F5E4A",
"%.	c #8C644F",
"&.	c #84614C",
"*.	c #7F5E48",
"=.	c #8A634D",
"-.	c #8C674F",
";.	c #88614C",
">.	c #86614C",
",.	c #84634C",
"'.	c #88634D",
").	c #84604A",
"!.	c #7F5B48",
"~.	c #37291F",
"{.	c #7E5F49",
"].	c #89654F",
"^.	c #BF8A6C",
"/.	c #C68F6F",
"(.	c #DA9F7C",
"_.	c #B48465",
":.	c #977257",
"<.	c #434343",
"[.	c #825D49",
"}.	c #83614A",
"|.	c #CDCDCD",
"1.	c #BDBDBD",
"2.	c #A7A7A7",
"3.	c #666666",
"4.	c #37281F",
"5.	c #372A1F",
"6.	c #6B4E3E",
"7.	c #634837",
"8.	c #82604A",
"9.	c #7F6048",
"0.	c #916B53",
"a.	c #84634A",
"b.	c #6A4E3C",
"c.	c #634937",
"d.	c #3B2B21",
"e.	c #3E2D23",
"f.	c #C2C2C2",
"g.	c #765742",
"h.	c #8A654D",
"i.	c #7A5946",
"j.	c #7A5A46",
"k.	c #8D664F",
"l.	c #B48865",
"m.	c #D29A7A",
"n.	c #D49D7C",
"o.	c #B28865",
"p.	c #AB7C60",
"q.	c #856349",
"r.	c #B68668",
"s.	c #B07F62",
"t.	c #E1E1E1",
"u.	c #CFCFCF",
"v.	c #CBCBCB",
"w.	c #C9C9C9",
"x.	c #C6C6C6",
"y.	c #B0B0B0",
"z.	c #ACACAC",
"A.	c #A4A4A4",
"B.	c #B3B3B3",
"C.	c #B5B5B5",
"D.	c #BBBBBB",
"E.	c #D2D2D2",
"F.	c #D8D8D8",
"G.	c #DADADA",
"H.	c #D0D0D0",
"I.	c #88644D",
"J.	c #A5795E",
"K.	c #AD7E62",
"L.	c #966F55",
"M.	c #CE9474",
"N.	c #D29D77",
"O.	c #C28F6E",
"P.	c #B08264",
"Q.	c #9D7359",
"R.	c #D29D79",
"S.	c #F6F6F6",
"T.	c #DBDBDB",
"U.	c #C1C1C1",
"V.	c #BFBFBF",
"W.	c #87624D",
"X.	c #BD8B6A",
"Y.	c #C28D6E",
"Z.	c #BC8869",
"`.	c #9C7159",
" +	c #B38764",
".+	c #B18464",
"++	c #CC9274",
"@+	c #C6926F",
"#+	c #C08F6D",
"$+	c #CA9574",
"%+	c #FAFAFA",
"&+	c #F0F0F0",
"*+	c #C8C8C8",
"=+	c #D4D4D4",
"-+	c #DDDDDD",
";+	c #7D5B46",
">+	c #C39270",
",+	c #CA9572",
"'+	c #BF8B6B",
")+	c #CA9575",
"!+	c #D49F7A",
"~+	c #D29D7A",
"{+	c #F4F4F4",
"]+	c #DFDFDF",
"^+	c #BC8C6A",
"/+	c #D2987A",
"(+	c #CE9A74",
"_+	c #7E5F46",
":+	c #CE9D74",
"<+	c #D29A77",
"[+	c #D29877",
"}+	c #D49A7A",
"|+	c #BC8C68",
"1+	c #DAA37C",
"2+	c #CE9D77",
"3+	c #DDA57F",
"4+	c #D79F7C",
"5+	c #936A54",
"6+	c #B18663",
"7+	c #C49471",
"8+	c #D49F7C",
"9+	c #E7E7E7",
"0+	c #E5E5E5",
"a+	c #8F6751",
"b+	c #C39072",
"c+	c #CE9A77",
"d+	c #E9E9E9",
"e+	c #BC886A",
"f+	c #AEAEAE",
"g+	c #906B53",
"h+	c #AF8363",
"i+	c #C48D6F",
"j+	c #DAA37F",
"k+	c #D29F7A",
"l+	c #F2F2F2",
"m+	c #EEEEEE",
"n+	c #C19070",
"o+	c #E5AA85",
"p+	c #C99474",
"q+	c #D3D2D2",
"r+	c #CFCBCB",
"s+	c #C6BFBF",
"t+	c #BCAFAF",
"u+	c #B4A1A1",
"v+	c #AB9898",
"w+	c #AA9F9F",
"x+	c #ABA4A4",
"y+	c #AFACAC",
"z+	c #B0AFAF",
"A+	c #8F6A53",
"B+	c #D79D7C",
"C+	c #DDA37F",
"D+	c #DFA382",
"E+	c #E0D3D3",
"F+	c #DCA8A8",
"G+	c #D66262",
"H+	c #C90000",
"I+	c #C10000",
"J+	c #B20000",
"K+	c #A80000",
"L+	c #A40000",
"M+	c #A30000",
"N+	c #A90000",
"O+	c #B10000",
"P+	c #BA0000",
"Q+	c #BDA2A2",
"R+	c #8B674F",
"S+	c #BD8C6D",
"T+	c #DFA582",
"U+	c #DAA57F",
"V+	c #DA9D7C",
"W+	c #E9AA87",
"X+	c #DA9F7F",
"Y+	c #DBBDBC",
"Z+	c #D40A0A",
"`+	c #D20000",
" @	c #CF0000",
".@	c #B60000",
"+@	c #AA0000",
"@@	c #A60000",
"#@	c #AD0000",
"$@	c #B70000",
"%@	c #C5AFAF",
"&@	c #89644F",
"*@	c #E3A582",
"=@	c #DFA882",
"-@	c #E3A885",
";@	c #D79F7A",
">@	c #E3A882",
",@	c #D3B5B5",
"'@	c #D4100A",
")@	c #D41010",
"!@	c #A50000",
"~@	c #B30000",
"{@	c #C00000",
"]@	c #CA7272",
"^@	c #E3E3E3",
"/@	c #956E54",
"(@	c #B98668",
"_@	c #DFA37F",
":@	c #D7A37C",
"<@	c #DFA57F",
"[@	c #D6BABA",
"}@	c #D00000",
"|@	c #CE0000",
"1@	c #A70000",
"2@	c #AE0000",
"3@	c #BC0000",
"4@	c #C30000",
"5@	c #D1B4B4",
"6@	c #C89272",
"7@	c #F1B38B",
"8@	c #E5A885",
"9@	c #D8BDBD",
"0@	c #CC0000",
"a@	c #D10000",
"b@	c #D30A0A",
"c@	c #CD0000",
"d@	c #C80000",
"e@	c #B00000",
"f@	c #BB0000",
"g@	c #C20000",
"h@	c #DACFCF",
"i@	c #89644D",
"j@	c #E5B085",
"k@	c #E3AA82",
"l@	c #E3AE85",
"m@	c #DCC8C8",
"n@	c #B90000",
"o@	c #BE0000",
"p@	c #C70000",
"q@	c #AB0000",
"r@	c #B40000",
"s@	c #AC0000",
"t@	c #CB0000",
"u@	c #DBACAC",
"v@	c #DFA87F",
"w@	c #CE7D7D",
"x@	c #CA0000",
"y@	c #C50000",
"z@	c #D96B6B",
"A@	c #8F6753",
"B@	c #C89275",
"C@	c #D79D7A",
"D@	c #E1DFDF",
"E@	c #C40000",
"F@	c #BD0000",
"G@	c #DFDDDD",
"H@	c #956F56",
"I@	c #C69072",
"J@	c #E3AA85",
"K@	c #DED6D6",
"L@	c #C60000",
"M@	c #DDD4D4",
"N@	c #CD9675",
"O@	c #E9AA85",
"P@	c #D4A37A",
"Q@	c #DAA57C",
"R@	c #DDA87F",
"S@	c #E9AE87",
"T@	c #DBC9C9",
"U@	c #B50000",
"V@	c #DEC8C8",
"W@	c #C89672",
"X@	c #F8F8F8",
"Y@	c #DCCACA",
"Z@	c #DCC6C6",
"`@	c #8C6851",
" #	c #EEAE8B",
".#	c #E5DDDD",
"+#	c #DBD2D2",
"@#	c #986F58",
"##	c #CD9875",
"$#	c #EBB087",
"%#	c #EBB387",
"&#	c #EAE8E8",
"*#	c #9B715A",
"=#	c #CD9A76",
"-#	c #E5AE85",
";#	c #EEB08B",
">#	c #CF6161",
",#	c #D66161",
"'#	c #9C735A",
")#	c #CB9675",
"!#	c #E3A585",
"~#	c #F4B58D",
"{#	c #DFAA82",
"]#	c #D9A9A9",
"^#	c #A10000",
"/#	c #D8A4A4",
"(#	c #A0765B",
"_#	c #C69272",
":#	c #E0D4D4",
"<#	c #D9CCCC",
"[#	c #F1B58B",
"}#	c #DF9F7F",
"|#	c #EBAE87",
"1#	c #DD9F7F",
"2#	c #EEB38B",
"3#	c #D27C7C",
"4#	c #A00000",
"5#	c #D1B5B5",
"6#	c #9F735A",
"7#	c #D8A07B",
"8#	c #EBAA87",
"9#	c #D8C2C2",
"0#	c #9D0000",
"a#	c #9F0000",
"b#	c #B26666",
"c#	c #C1ADAD",
"d#	c #9B7158",
"e#	c #D6A07B",
"f#	c #DABDBD",
"g#	c #D71010",
"h#	c #D50000",
"i#	c #AA9393",
"j#	c #D39A79",
"k#	c #EEB587",
"l#	c #FAB992",
"m#	c #DCBFBF",
"n#	c #D51717",
"o#	c #D81717",
"p#	c #A58F8F",
"q#	c #986E56",
"r#	c #CD9C76",
"s#	c #AA6240",
"t#	c #AA6540",
"u#	c #AE6742",
"v#	c #B06742",
"w#	c #B06A42",
"x#	c #AE6740",
"y#	c #DEC3C3",
"z#	c #D81D1D",
"A#	c #D60A0A",
"B#	c #AA6262",
"C#	c #A69494",
"D#	c #79482F",
"E#	c #A6633F",
"F#	c #B36C45",
"G#	c #B56C45",
"H#	c #B36A45",
"I#	c #7F4A2F",
"J#	c #7F472F",
"K#	c #7C472E",
"L#	c #7A472E",
"M#	c #71452E",
"N#	c #E1D6D6",
"O#	c #E0ADAD",
"P#	c #D86464",
"Q#	c #B19A9A",
"R#	c #4D2D1D",
"S#	c #663C27",
"T#	c #6F422B",
"U#	c #71422B",
"V#	c #74452E",
"W#	c #77472E",
"X#	c #824A2F",
"Y#	c #824C32",
"Z#	c #4A2E20",
"`#	c #472E20",
" $	c #472E1F",
".$	c #4C2F20",
"+$	c #DFDCDC",
"@$	c #D5C8C8",
"#$	c #C4AAAA",
"$$	c #BBB1B1",
"%$	c #BBB9B9",
"&$	c #332017",
"*$	c #462B20",
"=$	c #4C2F23",
"-$	c #4F2F23",
";$	c #4F3223",
">$	c #7F472E",
",$	c #543223",
"'$	c #513223",
")$	c #673D29",
"!$	c #74422E",
"~$	c #6C402B",
"{$	c #6A402B",
"]$	c #67402B",
"^$	c #653D29",
"/$	c #653B29",
"($	c #623B26",
"_$	c #623B29",
":$	c #44281B",
"<$	c #5A3623",
"[$	c #5D3926",
"}$	c #603B26",
"|$	c #9D5D3B",
"1$	c #874C32",
"2$	c #77452E",
"3$	c #6C422B",
"4$	c #674029",
"5$	c #46291B",
"6$	c #5E3A25",
"7$	c #A8603D",
"8$	c #854C32",
"9$	c #563423",
"0$	c #E58F58",
"a$	c #AE6540",
"b$	c #A8623D",
"c$	c #A35D3B",
"d$	c #9D5B39",
"e$	c #6E3F28",
"f$	c #965536",
"g$	c #9F5B3B",
"h$	c #9D5B3B",
"i$	c #9A5B39",
"j$	c #A5603D",
"k$	c #422316",
"l$	c #A86240",
"m$	c #DF7F4F",
"n$	c #985639",
"o$	c #9A5839",
"p$	c #643A25",
"q$	c #864F32",
"r$	c #945637",
"s$	c #985637",
"t$	c #563425",
"u$	c #D4774A",
"v$	c #77482D",
"w$	c #A25E3C",
"x$	c #472516",
"y$	c #74452B",
"z$	c #7C472F",
"A$	c #5D3425",
"B$	c #A55D3D",
"C$	c #D77A4C",
"D$	c #B96A42",
"E$	c #BB6A42",
"F$	c #B56A42",
"G$	c #B56740",
"H$	c #B06540",
"I$	c #76422B",
"J$	c #9C5A38",
"K$	c #AA623D",
"L$	c #AE6240",
"M$	c #7A452E",
"N$	c #472518",
"O$	c #623725",
"P$	c #C67147",
"Q$	c #543020",
"R$	c #75412B",
"S$	c #673D2B",
"T$	c #452316",
"U$	c #653726",
"V$	c #74472E",
"W$	c #C97147",
"X$	c #824C2F",
"Y$	c #563220",
"Z$	c #76442B",
"`$	c #8B4C32",
" %	c #603725",
".%	c #71452B",
"+%	c #8D4F32",
"@%	c #C47147",
"#%	c #4D2F1D",
"$%	c #683C27",
"%%	c #623726",
"&%	c #5B3425",
"*%	c #4D2F1F",
"=%	c #6A3F2A",
"-%	c #B56F45",
";%	c #8B4F32",
">%	c #8F4F32",
",%	c #8F5134",
"'%	c #925134",
")%	c #8F4F34",
"!%	c #959595",
"~%	c #5E3322",
"{%	c #7B462E",
"]%	c #BB7147",
"^%	c #CE744A",
"/%	c #75442B",
"(%	c #573220",
"_%	c #969696",
":%	c #9E9E9E",
"<%	c #5D3622",
"[%	c #643B24",
"}%	c #7B462C",
"|%	c #4C2C1C",
"1%	c #4F2D1E",
"2%	c #B97147",
"3%	c #583425",
"4%	c #72422B",
"5%	c #5B3522",
"6%	c #4F2F1E",
"7%	c #462A1C",
"8%	c #44291B",
"9%	c #462A1B",
"0%	c #A6A6A6",
"a%	c #A1A1A1",
"b%	c #341F16",
"c%	c #492A1B",
"d%	c #552F1F",
"e%	c #5E3622",
"f%	c #603824",
"g%	c #6F4128",
"h%	c #7A482D",
"i%	c #54301F",
"j%	c #53301F",
"k%	c #512F1E",
"l%	c #492B1C",
"m%	c #4B2B1B",
"n%	c #70412A",
"o%	c #402316",
"p%	c #4D2E22",
"q%	c #472C20",
"r%	c #42291E",
"s%	c #372219",
"t%	c #352017",
"u%	c #372217",
"v%	c #382117",
"w%	c #3E2519",
"x%	c #301E15",
"y%	c #27150D",
"z%	c #442719",
"A%	c #6F432A",
"B%	c #532D1E",
"C%	c #352016",
"D%	c #623723",
"E%	c #6A3E26",
"F%	c #5E3725",
"G%	c #4A2D20",
"H%	c #482D20",
"I%	c #462B1E",
"J%	c #392219",
"K%	c #352217",
"L%	c #372218",
"M%	c #3B231A",
"N%	c #B96F47",
"O%	c #925637",
"P%	c #513324",
"Q%	c #543322",
"R%	c #4E2E20",
"S%	c #4D2E20",
"T%	c #482E20",
"U%	c #40251A",
"V%	c #2D170F",
"W%	c #51301F",
"X%	c #7D4B30",
"Y%	c #3E251A",
"Z%	c #6B3D28",
"`%	c #864A2F",
" &	c #5E3926",
".&	c #523122",
"+&	c #5A3324",
"@&	c #503122",
"#&	c #4F3122",
"$&	c #4B2E20",
"%&	c #532F22",
"&&	c #4F2F20",
"*&	c #412215",
"=&	c #3F2215",
"-&	c #3D2014",
";&	c #3C2014",
">&	c #553022",
",&	c #78452D",
"'&	c #8E5033",
")&	c #985839",
"!&	c #543423",
"  . + @ # $ % & * = - ; > , > ' ) ! ~ { ! ]   & = { @ ] ' { & { , ' = , ' ] > { $ , ' , & , ! > ^ = & / ( * - { = { @ ] ' { & { ",
"_ > : < $ < = % & & ! [ & & $ } { = ] | 1 2 ' $ 3 > > % 4 { { ( < / [ - 1 ' = ' , > { 5 6 & } ! @ ; > ^ _ & $ _ 3 > > % 4 { { ( ",
"& < 7 , * , 8 ~ - 6 , * 9 * & - - ( < ( % 1 { * { % $ $ ! - = @ + , , ' ( 0 7 1 3 & a : & b & - < 8 a 9 = { & : { % $ $ ! - = @ ",
"+ ~ c { / ! ~ ( + & , 9 d e f ! b $ g & a ! = < { = 6 > } ] a / h < / = = - & c - { c i 7 {   = , = j d 9 k c ; { = 6 > } ] a / ",
"' ; - ^ l m a ( ] & n o p q r s t u v w u u u d d x y z A B B z v v C v v C v v C u u u w v u t s r q p o n D = & $ - , % > = 7 ",
"0 & , ] E m + > @ = F G u H I J s J K L M M N O O P Q P K R R S T U V V N M N M V N M M L K J s J I H u G F W X & $ - , % > = 7 ",
"] { ! . a { & ! { ] Y F G Z `  .x ....+.@.#.$.%.&. .$.*.=.-.;.>.,.'.).!.&.'. .).'.,.'.~.+.....x {.,.&.G F $.].^.a & % ' - ~ /.3 ",
"! ~ ! l / { 7 & _ (._.:.<.[.}.'.|.1.y 2.3.K 4.5.6.7.8.'. .).9.-.).-.).0.a.'.b.c.d.e.K 3.2.y 1.f.g.h.'.<.i.j.k.l.m.! $ { & ! c ~ ",
"  3 -   j n.  ) - - o.p.q.8.r.s.t.u.v.w.w.w.w.w.v.v.x.1.A y.z.x A.A.x B.C.A D.x.w.|.E.F.G.F.G.H.I.J.K.r.'.L., f ~ _ - 0   7 3 6 ",
"{ M.% 7 * N.% c { m < O.P.Q._.R.S.T.E.v.w.w.w.v.|.|.|.w.f.U.V.D.A z C.z A D.U.x.w.|.E.G.T.G.T.E.W.X.Y.Z.`. +.+~ ~ , & ! E E + & ",
"  a a ' - a ++{   @+g   #+$+#+( %+&+G.u.v.v.v.|.u.u.u.v.*+U.1.D.D.z C.z z y D.f.*+v.=+T.-+T.-+=+;+>+- ,+'+)+! ~ a } ] 7 - ! 3 % ",
"c 0 & & ~ _ !+*       & 3 3 l ~+p {+]+=+v.v.v.|.=+E.E.u.*+U.1.D.D.z C.z z y D.f.*+v.=+T.]+-+]+F.W.^+~ ~ & /+~ _ & (+  0 N.7 { m ",
"< { { - l 7 { 7 { m @+& a { [ ( p {+]+=+|.v.v.E.=+E.E.u.*+U.1.D.D.z C.z z y D.f.*+v.=+T.]+]+]+v._+f a % :+<++ $ - a /.3 a [+@+~ ",
"{ E * ~ ~ ~   [ $ | 3 ~ + !+$ }+p {+]+F.H.v.v.|.=+E.E.u.*+U.V.D.D.z C.z z y D.f.*+v.=+T.]+]+]+|.-.|+~ 1+{ ! + 7 | |   * a $ !+* ",
"  7   2+l - 3+[+* g 4+{ E [ ~ | p S.t.T.=+|.v.E.=+=+=+u.w.w.f.V.1.z C.z z y D.f.*+v.=+T.]+]+]+v.5+6+7 { a | N.m { * l { ~ ~ 7+  ",
"(.7 _ & - ~ (.6 8+l [+~ ~ { a ~ p p 9+0+T.u.v.|.F.G.G.H.v.|.*+f.V.A B.z z y D.f.*+v.=+T.]+]+]+|.a+b+~+(.~ [++ * ! 4+3 & | - < N.",
"m.m a m - <+j c+; (.~ - m (.6 l p p d+d+-+E.|.u.F.T.T.E.u.H.w.x.V.A B.z z y D.f.*+v.=+T.]+]+]+v.W.e+m ; (+- c+  m m 7 N.- 2+!+{ ",
"l l (+l l 7 l 7 4+< :+{ { + - { p %+&+o ]+F.H.u.F.-+]+T.E.H.v.*+V.A y.f+C.A D.f.x.v.E.T.-+]+-+v.g+h+| ! (+(+1+(+i+! + ~+m.1+/+{ ",
"{ m j+4+j+!+  m.{ 7 m * { *   k+l+%+m+o 9+T.E.u.F.t.t.]+F.E.E.w.U.y y.z.f+B.A V.x.v.=+T.-+-+-+U.#.n+< ~ - 7 !++ ~ o+* +++ ] m 4+",
"- 1+~ p+1+p+N.(+{ 7 k+[+  m   1+l+p m+d+d+]+=+u.F.t.t.t.T.q+r+s+t+u+v+w+x+y+z+y f.w.E.T.-+-+-+U.A+^+l B+p+B+{ <+0 { 3+N.C+7 !+l ",
"  m 4+D+!+!+1+(.- 1+{ /+m.l + <+o S.m+o d+]+F.H.E.t.E+F+G+H+I+J+K+L+M+M+N+O+P+Q+f.v.E.G.-+-+-+A R+S+m.<+N.+ D+++T+1+j+{ 1+U+1+~ ",
"1+T+(.V+(.{ 3+(+W+7 !+i k+}+(.X+9+S.o d+d+]+F.E.H.Y+Z+`+ @H+I+.@+@L+L+@@+@#@$@I+%@|.E.G.-+-+-+f+&@^+[+(+  !+(.7 !+*@=@C+-@4+{ ~ ",
"4+/+:+  ;@~ >@m - j+0 m ;@1+(.~+0+S.0+9+0+t.T.=+,@'@)@`+ @H+I+.@+@!@@@K+K++@~@{@]@|.G.t.^@^@E.f+/@(@m l ~+~ _@2+~+!+_ (.< :@c+l ",
"~ l 1+}+4+~ }+_@_@!+[+T+<@7 1+_@0+S.o 9+0+t.G.[@}@)@)@`+|@H+I+.@+@1@+@2@+@N+O+3@4@5@G.t.^@^@E.A /@6@7 { + + 4+1+m + _@[+l l ~ _@",
"m l 3+4+D+3+(.7@++k+a { ~ m.0 8@t.l+m+9+^@^@9@4@0@a@b@a@c@d@I+.@+@K+2@O+e@+@2@f@g@0@h@t.^@^@E.A i@^+:@=@T+{ !+- { 1+~+T+[+c+m j@",
"C+k@~+  ~ *@1+l@m 4+1+T+8@(.3+j+^@{+d+9+^@m@n@o@p@c@c@c@0@p@{@.@q@q@O+r@e@+@s@$@I+t@u@]+t.^@E.A -.|+7 1+T+=@2+*@{ E v@o+(.+ M.B+",
"k@:@3+/+m.4+~+C+3+~   U+/+2+1+/+&+{+o 9+^@w@$@f@g@H+x@t@t@y@{@.@2@2@r@r@e@+@q@.@o@x@z@-+t.t.E.A A@B@~ ~ !+-@- ~ <@~ 7 :@- C@l ~+",
"1+l l N.7 l 3+4+N.l   T+C+8@_@3+o m+o 9+D@.@$@f@I+y@p@d@H+E@o@$@e@2@~@r@e@+@+@r@F@d@b@G@^@t.E.z H@I@l >@<@j+=@T+[+X+j+[+C+!+- 8+",
"~+1+2+T+v@J@=@(.4+T+C+m.7 ~+o+4+-+d+m+o K@.@$@f@F@I+4@L@p@4@F@.@e@e@.@r@O++@K+~@3@p@`+M@t.^@E.V./@N@O@~+m.j+v@+ T+_@(.~+(.(.l C+",
"(.<@P@*@m V+~+Q@7 3+Q@R@S@(.~+l =+9+m+&+T@U@f@3@3@F@{@E@p@4@F@.@#@e@.@.@~@+@@@e@3@L@}@V@^@t.E.V./@W@8@1+}+1+C+_@j+<@(.7 V+=@8@l ",
"3+;@(.!+U+Q@<@_@V+l -@(.1+<+0 l H.9+&+X@Y@.@3@o@F@F@{@g@L@4@F@.@#@e@U@U@.@s@!@s@f@E@ @Z@t.^@E.V.`@W@C@V+3+l !+l =@8@X+(.l c+3+l ",
"n.<@T+T+l T+<@B+(.(. #v@(.T+<@l F.0+&+{+.#r@3@I+I+o@{@4@p@E@o@P+e@e@U@r@~@#@L++@$@E@|@+#t.t.E.U.@###n.1+1+1+}+}+(.D+W+<@l 1+<@1+",
"$#_@=@C+%#J@O@-@=@o+T+-@4+8@W+C+T.0+o m+&#I+3@g@4@I+g@E@d@y@{@P+e@e@U@J+e@+@L+N+n@y@ @G@^@t.=+v.*#=#J@-@o+$#-#=@C+=@-@-@4+D+o+X+",
"<@k@o+$#3+-#v@n.o+o+1+4+=@;#8@=@-+0+d+o o >#E@g@y@E@L@d@x@4@F@f@e@e@r@e@s@K+M++@P+y@,#]+t.^@F.v.'#)#-@1+!#1+>@o+1+!+>@B+1+T+o+4+",
"=@=@o+D+o+o+!+~+U+V+$#~#B+{#>@:@t.^@9+d+d+]#E@d@L@y@x@0@t@E@o@3@O+2@O+#@+@@@^#+@P+y@/#-+t.t.t.|.(#_#1+8@o+7@B+=@T+8@;@;#J@[+B+;#",
"8@=@k+<@<@-@(.8@U+8@;#1+~+(.k@<+^@t.^@0+9+:#4@H+I+L@0@ @c@L@I+F@J+s@e@s@+@L+^#+@P+y@<#]+t.t.t.|.(#n+T+{#Q@:@v@ #<@[#$#J@T+k@(.[+",
"T+ #}#o+|#1#_@(.C+(.T+j+1+=@T+2#t.-+T.T.^@9+3#d@ @y@c@}@|@y@I+I+.@#@#@+@+@4#^#s@n@5#-+t.^@t.^@x.6#7#o+T+$#(.T+T+(.V+$#!+=@B+o+!+",
"U+8@|#1+Q@D+B+8#3+:@2#X+(.;#=@3+T.F.E.=+G.-+9#H+}@b@`+|@0@E@g@{@.@2@s@q@N+0#a#b#c#E.-+t.^@^@^@u.d#e#<@8@8@>@R@(.|#o+-#<@<@1+T+4+",
"|#1+;#T+<@}+~#;#T+T+8@o+>@%#2#2#H.H.H.u.E.F.-+f#}@)@g#h#c@p@4@p@.@2@s@+@4#0#i#y.V.E.T.t.^@^@^@u.d#j#8@o+T+D+k#l#=@l C+o+|#(.|#j+",
"1+o+J@=@(.2#V+v@J@;#>@o+(.$#J@|#x.w.u.|.u.=+-+t.m#n#o#Z+ @d@{@o@U@e@s@^#4#p#d y.V.H.T.t.^@^@^@u.q#r#;#;#8@-@o+k@o+o+}+[#[#3+J@o+",
"s#t#t#t#t#u#v#v#v#w#v#t#x#v#w#w#x.x.u.|.u.=+G.t.]+y#z#A# @d@E@3@U@e@4#B#C#x z.B.V.|.G.t.^@^@^@u.D#E#F#w#w#w#w#w#F#G#G#H#w#t#t#t#",
"I#I#I#J#K#K#K#K#L#L#K#J#J#K#L#M#x.*+u.|.u.E.G.]+t.^@N#O#P#t@g@L@U@^#Q#y.x x z.z f.|.G.t.^@^@^@u.R#S#T#T#T#T#T#T#U#V#W#L#I#X#Y#I#",
"Z#`# $ $`#`#`#`#`#`# $ $`#Z#Z#.$x.*+u.|.u.E.F.-+^@t.t.t.^@+$@$#$$$%$z z.2.x z.z f.|.G.t.^@^@^@G.&$*$=$=$=$=$=$-$;$-$=$-$-$=$Z#Z#",
">$,$'$)$!$U#~${$]$]$^$/$($($_$_$x.*+u.|.u.E.F.-+t.t.^@t.^@]+F.w.f.D.B.x 2.d f+A f.|.G.]+t.^@t.F.:$<$[$[$[$[$}$)$]$]$)$^$($'$|$>$",
"1$'$2$'$3$3$~$~$~${$4$4$4$4$4$)$x.*+|.|.u.u.=+T.]+t.^@^@^@]+=+v.f.D.C.d x z.y.y f.|.F.-+t.t.t.=+5$6$4$4$4$4$)$4$)$)$)$^$'$!$7$1$",
"8$9$W#1$0$u#v#a$t#t#s#b$c$d$d$d$x.*+w.v.|.u.E.F.T.t.^@^@^@]+E.w.f.D.B.x 2.x z.z f.|.G.t.^@t.^@^@e$f$g$c$h$i$d$d$d$c$j$k$L#U#l$8$",
"I#9$W#1$h$m$n$i$d$g$h$d$d$i$i$o$x.*+v.v.v.|.H.=+G.t.^@^@^@]+=+w.f.D.B.x 2.d f+A f.|.G.]+t.^@t.t.p$q$r$s$o$i$h$g$c$h$^$k$L#V#b$I#",
"I#t$L#1$g$d$u$j$7$7$l$t#t#a$v#w#x.*+w.w.v.|.u.E.T.t.^@^@^@]+E.w.f.D.B.x 2.x z.z f.|.G.t.^@t.^@^@v$w$t#t#t#t#t#s#s#~$'$x$K#y$7$I#",
"z$A$W#1$B$d$g$C$D$E$E$F$G$H$H$H$D.*+v.v.v.|.u.E.G.t.^@^@^@]+=+w.f.D.B.x 2.d f+A f.|.G.]+t.^@t.t.I$J$K$K$K$L$L$L$M$A$'$N$>$V#s#z$",
"I#O$V#8$d$g$c$P$K#L#L#W#W#L#L#K#B.*+v.v.v.v.u.E.G.t.^@^@^@]+=+v.f.D.C.d x z.y.y f.|.F.-+t.t.t.]+Q$R$I#z$W#W#W#M#S$A$'$T$W#3$s#I#",
"8$U$V$8$c$d$7$W$Y#Y#X#X$X$Y#8$X$B.*+w.w.w.v.|.E.T.t.^@^@^@]+E.w.f.D.B.x 2.x z.z f.|.G.t.^@t.^@^@Y$Z$Y#8$1$`$`$`$)$ %'$N$.%3$t#8$",
"+% %V#1$d$c$s#@%W#W#W#.%U#T#U#U#B.*+v.v.v.v.|.E.G.t.^@^@^@]+=+w.f.D.B.x 2.d f+A f.|.G.]+t.^@t.t.#%$%T#T#T#T#T#U#_$%%'$N$T#T#v#+%",
"`$&%M#`$d$d$t#@%L#L#L#K#L#L#W#M#f+U.v.v.v.v.|.E.G.t.^@^@^@]+=+v.f.D.C.d 2.d f+A f.|.G.-+t.t.t.]+*%=%V$V#W#L#L#W#_$ %,$N$~$~$-%`$",
"1$&%M#;%h$d$s#W$>%,%,%'%'%)%>%;%!%y |.|.|.|.u.E.G.t.^@^@^@-+=+v.f.D.z f+x z.y.y f.|.F.T.T.t.T.=+~%{%8$8$1$1$1$1$)$&%'$k$T#~$]%1$",
"`$&%W#>%g$d$b$^%I#8$1$1$1$`$`$8$/%(%_%:%y.y w.H.G.t.^@^@t.-+E.v.x.1.f+w _%<%[%}%|%1%C y *+|.1.B.Y$/%Y#X#X#I#I#I#^$,$,$k$U#~$2%`$",
";%3%L#)%d$h$b$F$K#L#L#W#M#M#V#K#4%5%6%7%8%5$9%5$0%z.D.x.x.w.z 0%a%b%c%d%e%f%g%h%i%j%k%l%8%8%5$m%j%n%W#M#M#V#V$V#^$,$'$o%T#U#2%;%",
"`$t$L#'%d$h$~$'$'$;$'$-$'$'$;$'$p%q%r%s%t%t%u%u%v%w%x%y%z%z%A%B%B%C%k%D%E%U#F%G%Z#H%I%J%u%u%K%L%M%q%=$=$-$-$'$'$,$^$'$k$U#U#N%`$",
"`$t$K#'%O%^$,$&%9$'$'$'$&%9$'$'$P%,$Q%R%S%Z#T%G%I%U%8%V%#%W%X%~%~%Y%Z%`%q$ &.&+&9$@&#&$&%&&&Z#Z#$&.&9$,$,$'$;$'$'$3%^$k$.%W#N%`$",
"1$&%L#,%x$N$T$N$N$N$k$k$o%k$k$o%k$k$T$N$N$N$k$*&=&-&;&;&$%n%E#{%{%>&,&'&x$N$T$N$N$N$k$k$o%k$k$o%k$k$T$N$N$N$k$k$o%k$k$k$U#L#G#1$",
"8$A$L#'$}$}$}$($($^${${$~$~$~$T#U#M#M#M#U#U#M#U#U#U#U#~$'$K#w#8$8$A$L#'$}$}$}$($($^${${$~$~$~$T#U#M#M#M#U#U#M#U#U#U#U#~$'$K#w#8$",
"8$&%'$K#M#W#V#W#W#W#W#K#I#8$1$`$`$`$`$`$1$X$I#K#L#L#L#K#{$'$v#8$8$&%'$K#M#W#V#W#W#W#W#K#I#8$1$`$`$`$`$`$1$X$I#K#L#L#L#K#{$'$v#8$",
"O%s$o$i$i$i$i$d$d$i$)&d$g$c$c$c$c$g$d$h$g$d$h$g$g$c$g$i$)&s$s$r$O%s$o$i$i$i$i$d$d$i$)&d$g$c$c$c$c$g$d$h$g$d$h$g$g$c$g$i$)&s$s$r$",
"X$8$`$`$`$+%)%,%,%)%>%,%+%;%>%>%>%>%+%;%;%`$8$I#z$z$L#L#L#L#L#J#X$8$`$`$`$+%)%,%,%)%>%,%+%;%>%>%>%>%+%;%;%`$8$I#z$z$L#L#L#L#L#J#",
"!&,$'$,$,$3%3%t$,$,$'$'$,$3%3%3%&%3%t$t$,$9$3%3%&%&%&%t$,$,$9$t$!&,$'$,$,$3%3%t$,$,$'$'$,$3%3%3%&%3%t$t$,$9$3%3%&%&%&%t$,$,$9$t$"};
