/* XPM */
static char * office_beige_window_large_curtain_xpm[] = {
"64 64 569 2",
"  	c None",
". 	c #C1926C",
"+ 	c #CC9874",
"@ 	c #C18F6C",
"# 	c #C18F6F",
"$ 	c #C99871",
"% 	c #CE9874",
"& 	c #BB8B6A",
"* 	c #BE8F6C",
"= 	c #B58567",
"- 	c #C18D6C",
"; 	c #C48F71",
"> 	c #C69271",
", 	c #BB876A",
"' 	c #CC9471",
") 	c #C4926F",
"! 	c #B58767",
"~ 	c #B98D67",
"{ 	c #BB8D6C",
"] 	c #D29877",
"^ 	c #C49271",
"/ 	c #B38567",
"( 	c #BB8B6C",
"_ 	c #BB8D6A",
": 	c #C68F71",
"< 	c #BE8D6C",
"[ 	c #B98B67",
"} 	c #C18B6C",
"| 	c #C99471",
"1 	c #905435",
"2 	c #3E2618",
"3 	c #3D2518",
"4 	c #3C2418",
"5 	c #BB8B67",
"6 	c #000248",
"7 	c #00024C",
"8 	c #000253",
"9 	c #000257",
"0 	c #000261",
"a 	c #000250",
"b 	c #000247",
"c 	c #00026E",
"d 	c #000252",
"e 	c #000240",
"f 	c #000272",
"g 	c #000280",
"h 	c #000279",
"i 	c #00024B",
"j 	c #000245",
"k 	c #000249",
"l 	c #00024A",
"m 	c #624837",
"n 	c #5C4333",
"o 	c #684C39",
"p 	c #7B5943",
"q 	c #624939",
"r 	c #000243",
"s 	c #00028C",
"t 	c #0002A1",
"u 	c #0002AC",
"v 	c #0002BD",
"w 	c #0002D5",
"x 	c #000242",
"y 	c #0002A2",
"z 	c #0002D6",
"A 	c #0002EC",
"B 	c #0002E3",
"C 	c #000269",
"D 	c #000292",
"E 	c #00029F",
"F 	c #000265",
"G 	c #000290",
"H 	c #000244",
"I 	c #0002A9",
"J 	c #5B4334",
"K 	c #5A4131",
"L 	c #8D674E",
"M 	c #8A634B",
"N 	c #000297",
"O 	c #00027C",
"P 	c #000294",
"Q 	c #0002CE",
"R 	c #0002E1",
"S 	c #0002D1",
"T 	c #0002A6",
"U 	c #0002AE",
"V 	c #654A39",
"W 	c #000268",
"X 	c #00027F",
"Y 	c #00029C",
"Z 	c #0002AD",
"` 	c #0002B9",
" .	c #00028D",
"..	c #0002DB",
"+.	c #0002D9",
"@.	c #0002DC",
"#.	c #0002DE",
"$.	c #0002D2",
"%.	c #0002CB",
"&.	c #000283",
"*.	c #00026A",
"=.	c #00024F",
"-.	c #0A0D23",
";.	c #804A30",
">.	c #BB7147",
",.	c #B56F45",
"'.	c #AA6540",
").	c #24224A",
"!.	c #0002A7",
"~.	c #000273",
"{.	c #00025A",
"].	c #00027B",
"^.	c #0002C4",
"/.	c #0002D3",
"(.	c #0002DA",
"_.	c #00025E",
":.	c #000251",
"<.	c #000288",
"[.	c #0002B0",
"}.	c #5E4635",
"|.	c #C99271",
"1.	c #000281",
"2.	c #0002CC",
"3.	c #0002DF",
"4.	c #000276",
"5.	c #00026B",
"6.	c #0002DD",
"7.	c #0002A4",
"8.	c #0002A0",
"9.	c #0002B5",
"0.	c #000246",
"a.	c #643926",
"b.	c #603823",
"c.	c #874C32",
"d.	c #8B4C32",
"e.	c #854C32",
"f.	c #7F4A2F",
"g.	c #000270",
"h.	c #000299",
"i.	c #000287",
"j.	c #000282",
"k.	c #0002B8",
"l.	c #0002D8",
"m.	c #0002E0",
"n.	c #000298",
"o.	c #0002B4",
"p.	c #634939",
"q.	c #0002C9",
"r.	c #000291",
"s.	c #0002E4",
"t.	c #000284",
"u.	c #00028A",
"v.	c #0002E5",
"w.	c #0002A5",
"x.	c #0002AB",
"y.	c #0002A8",
"z.	c #00028E",
"A.	c #0002B6",
"B.	c #000266",
"C.	c #000296",
"D.	c #000285",
"E.	c #0002AF",
"F.	c #00027A",
"G.	c #00029B",
"H.	c #0002BA",
"I.	c #0002F2",
"J.	c #0002F7",
"K.	c #00028B",
"L.	c #5D4634",
"M.	c #0002D0",
"N.	c #000295",
"O.	c #0002D7",
"P.	c #0002CD",
"Q.	c #000271",
"R.	c #00026F",
"S.	c #000275",
"T.	c #4C291D",
"U.	c #4A291C",
"V.	c #5B3425",
"W.	c #653726",
"X.	c #623725",
"Y.	c #00027E",
"Z.	c #0002B1",
"`.	c #0002C6",
" +	c #0002F0",
".+	c #00028F",
"++	c #0002B7",
"@+	c #614836",
"#+	c #000293",
"$+	c #0002F5",
"%+	c #0002A3",
"&+	c #00029A",
"*+	c #000286",
"=+	c #0002C0",
"-+	c #0002BC",
";+	c #00025F",
">+	c #000262",
",+	c #00029E",
"'+	c #000264",
")+	c #0002C1",
"!+	c #0002BB",
"~+	c #0002B3",
"{+	c #000263",
"]+	c #0002CF",
"^+	c #0002CA",
"/+	c #0002AA",
"(+	c #000274",
"_+	c #00024D",
":+	c #654939",
"<+	c #0002E2",
"[+	c #0002E7",
"}+	c #00027D",
"|+	c #0002BF",
"1+	c #48291C",
"2+	c #0002B2",
"3+	c #664C3A",
"4+	c #0002EB",
"5+	c #0002E6",
"6+	c #C6926F",
"7+	c #0002F3",
"8+	c #0002BE",
"9+	c #00026D",
"0+	c #885434",
"a+	c #0002E9",
"b+	c #0002C5",
"c+	c #6D523E",
"d+	c #8D5535",
"e+	c #0002C8",
"f+	c #0002F6",
"g+	c #CC9474",
"h+	c #2F378D",
"i+	c #0002F1",
"j+	c #000289",
"k+	c #0002C2",
"l+	c #8B5535",
"m+	c #603725",
"n+	c #B97147",
"o+	c #11207C",
"p+	c #4B372B",
"q+	c #534C87",
"r+	c #B96F47",
"s+	c #1E2569",
"t+	c #513B2F",
"u+	c #6F5D83",
"v+	c #0002E8",
"w+	c #0002F4",
"x+	c #00025C",
"y+	c #2A2B5C",
"z+	c #463429",
"A+	c #83697F",
"B+	c #0002C7",
"C+	c #0002D4",
"D+	c #000255",
"E+	c #322E51",
"F+	c #4D392C",
"G+	c #91717B",
"H+	c #0002C3",
"I+	c #00029D",
"J+	c #804C30",
"K+	c #AA6240",
"L+	c #A8603D",
"M+	c #4E392C",
"N+	c #523C30",
"O+	c #000277",
"P+	c #45271C",
"Q+	c #583425",
"R+	c #563425",
"S+	c #4D372C",
"T+	c #624838",
"U+	c #C48F6F",
"V+	c #4F3A2E",
"W+	c #674C3B",
"X+	c #D29D7A",
"Y+	c #DAA57C",
"Z+	c #6D513F",
"`+	c #E9AE87",
" @	c #0002ED",
".@	c #000256",
"+@	c #B06742",
"@@	c #503A2E",
"#@	c #765845",
"$@	c #D49F7A",
"%@	c #CE9D74",
"&@	c #00026C",
"*@	c #543E31",
"=@	c #805F4B",
"-@	c #DFA882",
";@	c #D29A7A",
">@	c #543E30",
",@	c #8E6953",
"'@	c #D49D7A",
")@	c #29267E",
"!@	c #071271",
"~@	c #4F3B2E",
"{@	c #997159",
"]@	c #DAA57F",
"^@	c #DAA37F",
"/@	c #4A3771",
"(@	c #0C125A",
"_@	c #503B2E",
":@	c #A57A60",
"<@	c #E3A582",
"[@	c #503A6F",
"}@	c #111248",
"|@	c #B28468",
"1@	c #DFA37F",
"2@	c #684766",
"3@	c #20140D",
"4@	c #564032",
"5@	c #C08E70",
"6@	c #DFA582",
"7@	c #E3A585",
"8@	c #784E5E",
"9@	c #8B5435",
"0@	c #000267",
"a@	c #000259",
"b@	c #26150E",
"c@	c #543F31",
"d@	c #D09A79",
"e@	c #DA9D7C",
"f@	c #CE9D77",
"g@	c #000254",
"h@	c #A86240",
"i@	c #000258",
"j@	c #23140E",
"k@	c #513C2F",
"l@	c #E5A885",
"m@	c #ECBE29",
"n@	c #EFC12D",
"o@	c #42271C",
"p@	c #5D3425",
"q@	c #563423",
"r@	c #513223",
"s@	c #F1C32F",
"t@	c #25150E",
"u@	c #533D30",
"v@	c #D79D7C",
"w@	c #C86915",
"x@	c #CA6B15",
"y@	c #F9D43F",
"z@	c #F3C933",
"A@	c #F1C835",
"B@	c #F0C631",
"C@	c #EFC52D",
"D@	c #F8D136",
"E@	c #C66915",
"F@	c #553F32",
"G@	c #D79D7A",
"H@	c #DFA87F",
"I@	c #00025B",
"J@	c #C16614",
"K@	c #C76915",
"L@	c #F3C934",
"M@	c #F9D33B",
"N@	c #F2C833",
"O@	c #BE6514",
"P@	c #AD5B12",
"Q@	c #D7A37C",
"R@	c #5D4267",
"S@	c #C96A15",
"T@	c #B66013",
"U@	c #C56815",
"V@	c #C76A15",
"W@	c #13174C",
"X@	c #513D2F",
"Y@	c #F4B58D",
"Z@	c #453772",
"`@	c #00024E",
" #	c #0E175E",
".#	c #E5AA85",
"+#	c #272A81",
"@#	c #081876",
"##	c #DEA780",
"$#	c #EEB38B",
"%#	c #000260",
"&#	c #533E30",
"*#	c #C0906F",
"=#	c #A35D3B",
"-#	c #9F5B3B",
";#	c #3D2316",
">#	c #3E2317",
",#	c #824C2F",
"'#	c #281E31",
")#	c #301B12",
"!#	c #4C2F23",
"~#	c #4F2F23",
"{#	c #261F3A",
"]#	c #1D120D",
"^#	c #7F472E",
"/#	c #583223",
"(#	c #282347",
"_#	c #301B11",
":#	c #B56C45",
"<#	c #222356",
"[#	c #331D13",
"}#	c #693B26",
"|#	c #8B4F32",
"1#	c #8D4F32",
"2#	c #7C472F",
"3#	c #321D13",
"4#	c #5A3425",
"5#	c #301C12",
"6#	c #0002EA",
"7#	c #00025D",
"8#	c #402518",
"9#	c #5D3523",
"0#	c #82472F",
"a#	c #7C472E",
"b#	c #7A452E",
"c#	c #74422E",
"d#	c #71422B",
"e#	c #673D29",
"f#	c #6C402B",
"g#	c #6A402B",
"h#	c #6F402B",
"i#	c #77452E",
"j#	c #3E2418",
"k#	c #503020",
"l#	c #6C422B",
"m#	c #6F422B",
"n#	c #71422E",
"o#	c #7A472E",
"p#	c #7F472F",
"q#	c #854C2F",
"r#	c #5D3B26",
"s#	c #603B26",
"t#	c #623D26",
"u#	c #674029",
"v#	c #6A4029",
"w#	c #362535",
"x#	c #AE6742",
"y#	c #AE6740",
"z#	c #AE6540",
"A#	c #7F4A2E",
"B#	c #673D2B",
"C#	c #E58F58",
"D#	c #A5603D",
"E#	c #A8623D",
"F#	c #33253D",
"G#	c #422316",
"H#	c #77472E",
"I#	c #9D5B3B",
"J#	c #DF7F4F",
"K#	c #2E2548",
"L#	c #855032",
"M#	c #B06A42",
"N#	c #B36C45",
"O#	c #623B29",
"P#	c #824A2F",
"Q#	c #9D5B39",
"R#	c #C97147",
"S#	c #262456",
"T#	c #8F5434",
"U#	c #BE6C45",
"V#	c #BB6A42",
"W#	c #BE6A42",
"X#	c #C16F47",
"Y#	c #C46F47",
"Z#	c #C47147",
"`#	c #C4744A",
" $	c #9A5B39",
".$	c #543223",
"+$	c #402316",
"@$	c #A55D3D",
"#$	c #D77A4C",
"$$	c #C6744A",
"%$	c #BE6F45",
"&$	c #1C2468",
"*$	c #884C32",
"=$	c #71452E",
"-$	c #452316",
";$	c #925134",
">$	c #653D29",
",$	c #CE744A",
"'$	c #69424A",
")$	c #4A2C1D",
"!$	c #5D3926",
"~$	c #603926",
"{$	c #472518",
"]$	c #945134",
"^$	c #623B26",
"/$	c #513B5D",
"($	c #512B1D",
"_$	c #673726",
":$	c #623726",
"<$	c #472516",
"[$	c #8F4F32",
"}$	c #6A3926",
"|$	c #6C3926",
"1$	c #3F356C",
"2$	c #39231A",
"3$	c #8F5134",
"4$	c #925637",
"5$	c #4F3223",
"6$	c #3F261A",
"7$	c #0002EF",
"8$	c #462A1C",
"9$	c #5C3725",
"0$	c #6A3D29",
"a$	c #362015",
"b$	c #4E2F1F",
"c$	c #663C29",
"d$	c #653B29",
"e$	c #53301F",
"f$	c #3E2417",
"g$	c #45281A",
"h$	c #47281A",
"i$	c #452819",
"j$	c #643C27",
"k$	c #814C32",
"l$	c #945637",
"m$	c #985839",
"n$	c #985637",
"o$	c #8D5134",
"p$	c #8B5134",
"q$	c #643B26",
"r$	c #613925",
"s$	c #0002EE",
"t$	c #4D2D1C",
"u$	c #4C2B1B",
"v$	c #603723",
"w$	c #573220",
"x$	c #502D1E",
"y$	c #4E2D1D",
"z$	c #4D2C1D",
"A$	c #4A2A1B",
"B$	c #371F14",
"C$	c #3D2317",
"D$	c #3F2317",
"E$	c #412618",
"F$	c #6C412B",
"G$	c #74452E",
"H$	c #824C32",
"I$	c #5A3523",
"J$	c #523020",
"K$	c #372115",
"L$	c #382115",
"M$	c #3A2217",
"N$	c #2C1A11",
"O$	c #44281A",
"P$	c #47291A",
"Q$	c #49291A",
"R$	c #492B1C",
"S$	c #5F3723",
"T$	c #43261A",
"U$	c #3E2318",
"V$	c #3F2218",
"W$	c #3D2117",
"X$	c #2E1911",
"Y$	c #331C13",
"Z$	c #351C13",
"`$	c #331B13",
" %	c #311B13",
".%	c #321B13",
"+%	c #361C13",
"@%	c #6C3C28",
"#%	c #6F3926",
"$%	c #6F3B26",
"%%	c #713B26",
"&%	c #673926",
"*%	c #583221",
"=%	c #371D13",
"-%	c #381D13",
";%	c #29160E",
">%	c #3D2015",
",%	c #3B2015",
"'%	c #371F15",
")%	c #361F15",
"!%	c #49291C",
". + @ # $ % & * @ = - ; > & , > * ' , @ @ > @ @ ) ! > ~ { ] ^ # . + @ # $ % & * @ = - ; > & , > * ' , @ @ > @ @ ) ! > ~ { ] ^ # ",
"/ @ ( * ! _ @ & { & : ; < - < > - @ ( * ) ! = ! [ ! > } / ! @ | / @ ( * ! _ @ & { & : ; < - < > - @ ( * ) ! = ! [ ! > } / ! @ | ",
"1 1 1 1 1 1 1 1 1 1 1 1 1 1 1 1 1 1 1 1 1 1 1 1 1 1 1 1 1 1 1 1 1 1 1 1 1 1 1 1 1 1 1 1 1 1 1 1 1 1 1 1 1 1 1 1 1 1 1 1 1 1 1 1 ",
"2 3 3 2 2 2 2 2 2 2 2 2 2 2 2 2 2 2 2 2 2 2 2 2 2 2 2 2 2 2 2 2 2 3 3 2 2 2 2 2 2 2 2 2 2 2 2 2 2 2 2 2 2 2 2 2 2 2 2 2 2 2 3 4 ",
"5 6 7 8 9 0 a a b c c d e e f g g 6 h h i j j k j j a l 6 8 m n o p i b k a j j k j j i h h 6 g g f e e d c c b a a a 9 9 8 b q ",
"5 r s t u v b b 6 w w d x y z A B C D E F b j G H H I H x j J K L M H x j I H H N j j b O h P Q R S T x d w w b d d d U u E x V ",
"_ W X Y Z ` b 8  .....d d z +.@.#.u $.%.&.c *.Y =.=.` 8 x -.;.>.,.'.).6 f !.~.{.].6 j c ^.%.^./.@...(._.N ....:.d X <.[.Z N 8 }.",
"|.C 1.E 2.` :.1.G R 3.4.5.3.R 6.S 7.(.Z <.f 8.8.:.W 9.7 0.a.b.c.d.e.f.k g.h.i.0 j.].8 ].k.l.!.@.#.R m.h G 3.3.4.c  .n.9.o.Y d p.",
") *.1.E 2.q.h D r.s.s.t.u.v.R +.w.x.+.y.<.z.A.s 0 X y.4.H a.b.c.d.e.f.B.].C.z.B.D.E.F.1.G.l.U H.(.I.J.r.&.s.s.<.K.P G.9.o.Y 8 L.",
"{ *.1.E 2.M.G N.N.s.s.O 8.m.R O.w.` ..7.D.u P.Q.c Z R.S.b T.U.V.V.W.X.Q.X <.C.h Y./.Z.i.K.`.M.I w R  +8.S.B s..+N.C.n.++o.Y 8 @+",
"_ C i.w.S S r.#+h.s.$+g.%+s.6.S w.z O.&+*+P.=+Q.C.-+;+>+                S.c y ,+g C.`.D.u.v 6.!.Q 6.$+7.Q.R s.h.P #+#+v H.-+d p.",
"+ '+i.w.S w z.D ,+s.$+*.!.v.3.++T (.)+s <.w 7.f !+~+{+0.                g.5.N E.i.8.]+7.K.7.v.^+!+6.J./+(+3.B t #+G .+v ` !+_+:+",
") C i.w.S w s #+T <+I.~.x.[+<+U u ..++O O #.}+Y.|+u.R.1+                  S.D.y.u t ` -+<.N %.]+2++.v.P.Y...<+y.#+z. .v P.++d 3+",
"- *.1.E 2.w i.D k.<+4+O ~+5+..u z l.G.~.-+-+~.&.~+'+0.U.                  C W 8.P.,+k.q./+K.9.+.A.Q B @.*+M.<+H.D u.i.++)+u.8 q ",
"6+*.1.E 2...&.r.%.7+Q 1.8+5+-+U l.-+h X @.w.}+u S.9+0+U.                  ,.R.s E.2+8.~+8+r.T (.$.)+<+a+z.b+<+^+r.D.&.o.!+g 8 c+",
"> *.1.E 2.3.1.G ..I.o.&.^.v.E./.w &+1.` ~+Y.E w.S.b d+T.                  >.Q.}+N e+` ++P.` %+8+3.k.s.f+#+A.3...G &.1.o.` Y.8 @+",
"g+h+R.n.Z  +}+G <+i+y j+q.6.~+..k+&.t...Z.F.,+>+5.  l+m+                  n+m+S.D.%+++h.2+^.t H.s.k.(.I.9.y...<+G g Y.Z ~+5.o+p+",
"@ q+R.E o. +j.G s. +n.P 2.`.H.l.2+h Z.=+Y.4.y.D.:.  r+V.                  r+V.g.j.n.9.t #+9.[.u ..w v #.2.G.]+5+%+*+t.o.` W s+t+",
"| u+*.E 9.v+i.P w+ +D 8.M.A...^.j+G.w r.S.#+&.{.    r+V.                  r+V.  9+}+K.` z.h.o.w.H.#.2+(.z ,+q.B I u.<.E.++x+y+z+",
"> A+*.E A.l.s 8.$+O..+/+M.9.O./+g x.-+Y.K.k.s       r+V.                  r+V.    Y.C.y.k+N.o.9.~+B B+$.C+N S s.%+s  .[.A.D+E+F+",
"] G+C 7.H.C+Y.%+w+H+D -+b+v `.D.I+C+,+Q.I+g d 0+J+K+n+'.'.'.,.,.L+,.,.L+,.n+r+r+n+C h C.B+Z #+U y k+P.H.#.U ]+B x.z.D k.-+d M+N+",
"$ < '+T -+Q ~.t w+A.&+e+A.z A.O+~+|+h <.U d P+P+W.X.Q+W.W.W.V.V.R+V.V.R+V.Q+R+R+Q+V.C j.!.e+D I o.A.+.`.P.[.)+B k.D C.8+)+_+S+T+",
"U+% *.w.=+C+R.7.7+U h.)+v |+<.G./.!.F.k.4.          ,.X.                  ,.X.        ~.I+%.8+G U |+k+`.e+!+E.<+2.N t q.2.8 V+W+",
"X+Y+*.t v B+c !. +[.i.8+=+w.X e+Z.Y.|+N._+          ,.X.                  ,.X.        ~.<.t H+G D.I x.C+H+S I+@.#.I G.%.M.8 F+Z+",
"|.`+C E H.=+9+`. @N.E v -+<.Y 9.*+Z.++.@            +@m+                  +@m+          ~.1.B+e+&+u.Z.Q P.Q [.I m.H.h.%.]+:.@@#@",
"$@%@'+7.|+++9+P.C+&.o.!+y.N b+` n.v 0               '.W.                  '.W.            &@ .B+=+.+I H+S q.l.E.<+9.C.$.S 6 *@=@",
"-@;@C u `.` c C+k+i.8+H.s Y =+C.)+&.j               '.W.                  '.W.            C R.&+H+t G ` s.+.+.8...2.D O.S j >@,@",
"'@U+)@*.k+A.O C+x.E 8+E.n.B+A.8+=+b                 K+X.                  K+X.              C j.-+)+E #+H+]+6.[.%.+.#+..u.!@~@{@",
"]@^@/@F.H.E.<.2.h.[.2+j+N.y.t )+0                   K+X.                  K+X.                &@t.!+8+I+w.5+v+k.u @.N O.j.(@_@:@",
"<@-@[@R.E.2+g q.z.A.%+C.8.E ^.B.j                   '.W.                  '.W.                4.c D k+8+8.` A ]+T l.Z /.S.}@M+|@",
"-@1@2@R.n.E.g.^.].A.!.H.9.q.D 0.1+                  +@m+                  +@m+                +@h R.G.b+,+w.!+v !.B+T P.O 3@4@5@",
"6@7@8@c &.I 9+G u.Y.T !+q.N.l 9@P+                  r+V.                  r+V.                  r+g.0@C.7.r.|+]+D #+*+X a@b@c@d@",
"e@e@f@_.*.t.9+c <.c x.%./+g@l+0+J+K+K+L+h@L+'.K+>.,.r+n+'.K+L+K+L+,.K+L+,.n+r+r+n+n+,.'.K+K+L+h@r+n+&@0@8.&+Z.y.g.&@&@&@i@j@k@6@",
"X+X+l@m@n@9+9+c c c I z R.o@o@P+W.X.p@R+q@r@W.X.V.V.R+Q+W.X.R+X.R+V.X.R+V.Q+R+R+Q+V.V.W.X.p@R+q@R+Q+q@&@O+E 7.i.&@&@s@n@m@t@u@e@",
"v@v@$@w@x@y@z@z@A@R.X u.      r+V.                  r+V.                  r+V.                  r+V.    &@9+&@B@C@D@E@x@w@b@F@X+",
"G@G@H@;+0@I@J@J@K@L@L@M@      r+V.                  r+V.                  r+V.                  r+V.    M@L@N@O@P@P@G 7.s b@k@v@",
"Q@-@R@}+9./+_+*.g@S@K@J@      r+V.                  r+V.                  r+V.                  r+V.    T@U@V@~.h a@=+P. .W@X@G@",
"Y@'@Z@N.M.e+0@(+].n.X r       n+V.                  n+V.                  n+V.                  n+V.    `@I+E.i.O+0@e+2.K. #>@Q@",
".#6@+#w.w e+R.F.N.Z C.d H     n+m+                  n+m+                  n+m+                  n+m+  0.i@I+[.n.O g.^.b+t.@#c@##",
"6@$#Y.I O.e+C g u E.Y F a     >.W.                  >.W.                  >.W.                  >.W.  l %#N U [.t.9+`.^.O F.&#*#",
"=#-#Y.h.O.e+*.f b+o.8.Q.{+    ,.X.                  ,.X.                  ,.X.                  ,.X.  8 F h.o.P. .~.q.H+0@&@;#>#",
",#e.}+C.C+v (+F.P.A.w.P F.    +@m+                  +@m+                  +@m+                  +@m+  0 *+t ++l.n.D.)+k+'+C '#)#",
"!#~#&@D M.[.].1.C+|+9.t X     '.W.                  '.W.                  '.W.                  '.W.  F N.[.)+6.8.r.H.)+*.0@{#]#",
"^#/#~.N.q.E X *+(.e+H+I j.    K+X.                  K+X.                  K+X.                  K+X.  g.8.8+e+R y n.u -+g.g.(#_#",
"c.V.D.7.b+y.g #+3.q.B+!.O+l+r+r+:#r+r+n+>.,.+@'.K+L+r+r+n+>.,.r+n+>.,.+@'.K+L+K++@,.>.n+n+r+r+:#r+r+n+Q.7.k+q.B !.G.!+H.4.Q.<#[#",
"e.V.s I H.r.g ,+v.P.e+I S.}#d.d.c.d.d.|#c.d.1#e.2#f.d.d.|#c.d.d.|#c.d.1#e.2#f.2#1#d.c.d.|#d.d.c.d.d.|#4.I H+2.s.T Y [.9.F.W 9 3#",
"f.4#*+u E.&.X y.a+P.q.I f }#d.d.c.d.d.|#c.d.1#e.2#f.d.d.|#c.d.d.|#c.d.1#e.2#f.2#1#d.c.d.|#d.d.c.d.d.|#1.E.b+^+s.w.Y Z o.Y.%#`@5#",
"f.%#&.Z x.X Y./+6#l.P.~+F.o@R+R+V.R+R+Q+V.V.m+W.p@R+R+R+Q+V.V.R+Q+V.V.m+W.p@R+p@m+V.V.V.Q+R+R+V.R+R+Q+#+H.q.l.s.w.Y Z ` s 7#i 8#",
"2#C z.H.7.}+}+y.v+(.M.)+D {+9#^#^#^#^#0#a#b#c#d#d#d#d#d#e#f#K+2#2#Q+f#e#g#f#f#f#f#f#h#d#i#a#a#^#^#^#^#E 8+P...s.T Y Z ` %+'+k j#",
"f.O I+-+y F.O w.[+6./.2.7.B.k#l#m#n#n#n#d#m#n#m#m#m#m#g#o#p#K+f.f.V.i#q#r#r#r#s#s#t#e#u#v#v#g#l#m#n#O t =+P.#.B !.I+x.H.!.&@D+w#",
"e.1.y !+!.].O %+B R S M.~+f J+'.'.x#+@y#'.'.'.z#z#y#'.b#A#o#'.e.e.V.B#c.C#D#D#E#E#E#K+'.K+h@'.'.'.x#X w.k+P.B B Z ,+x.=+!.g.7#F#",
"1#].%+H.E O 4.%+<+3././.|+&.J+K+h@K+K+L+D#D#L+L+L+D#e#G#p#H#+@1#1#V.g#,#I#J#=#I#=#=#-#=#D#E#'.K+h@K+K.u `.S R R E.N u ++T Q.F K#",
"d.O+%+k.x.F.4.y 3.@.w w q.N L#M#M#+@+@+@+@+@M#M#N#O#r@G#a#o#,.d.d.m+f#P#-#Q#R#r+>.>.r+r+:#M#M#M#M#+@P A.P.w 3.3.E.C.y.)+T S.&@S#",
"c.h %+A.x.O+4.t 6.(.+.w Q u '+T#U#V#W#X#Y#Z#Z#`# $.$r@+$o#H#>.c.c.W.e#,#@$Q#-##$$$$$`#Z#X#Y#X#%$U#V#n.H.Q +.#.@.E.#+%+)+x.g g.&$",
"*$O E.!+E O+h t (.(.(...S 8+j.9#2#p#f.2#H#H#H#=$B#p@r@-$;$f.n+d.d.X.>$d.-#Q#E#,$a#o#o#H#H#o#o#a#2#4.h.-+w ..#.(.U G 8.A.++n.Q..@",
"'$t.Z H.x.O+h t z #.6.O.S H+#+)$s#!$!$!$!$~$~$s#h#p@r@{$]$a#n+|#|#p@v#|#Q#I#E#L+>$e#e#>$O#O#O#^$s#S.G.8+S 6.m.l.U  .n.8+` h.f C ",
"/$s u k.E O+h t [+6...z w ^.z.D+($_$:$X.X.X.m+m+m+f#r@<$;$o#r+d.d.R+f#[$Q#I#f#Q+V.V.p@X.X.W._$}$|$4.,+`.$.6.R A -+K.K.I A.h.f C ",
"1$r.u ++w.O+(+z.v.6.s./.`.x.z.F 2$!#!#~#~#r@r@.$.$r@>$G#[$f.r+d.d.q@f#3$4$>$~#5$r@.$r@r@r@5$r@~#c g U !+]+5+s. +k.t.X y.9.E ].*.",
"*.P u o.E.h ~.Y s.@.B M.!+I+].a@6$q@.$.$r@5$r@r@r@.$Q+b#[$f.:#c.c.q@B#;$!$W._$W.X.X.m+V.q@r@r@r@F.N I ++M.v.v.i+[.X }+[.o.T u.g.",
"*.#+x.E.e+O >+u.+.O.7$^.Z.#+*.8$9$g#g#g#g#g#g#g#g#g#B#e#d.a#M#e.e.r@0$3$m#m#l#l#l#f#g#g#g#g#g#g#g#G T 9.^+f+5+6#I+*.Y.B+E.y.G ~.",
"C G T I e+x.;+j.(.5+4+` w.K.a$b$c$f#e#d$d$>$g#m#d#d#m#l#a#o#+@e.e.Q+o#a#2#o#H#=$d#d#l#f#g#f#f#f#f#f#%+~+e+J.J.6#G F u e+I T r.f ",
"{+K.w.P [.r.e$f$w 6.R Z g$h$i$j$k$l$l$l$l$l$l$m$ $n$l$n$n$4$T#3$o$p$p$p$p$p$p$p$p$p$p$p$p$3$T#4$4$l$q$r$)+ +s$R t$u$D [.P T D f ",
"f.v$w$x$y$z$A$B$C$C$>#D$D$>#E$F$d#m#m#m#m#m#m#m#d#G$H#o#f.P#H$f.f.f.f.p#a#a#a#a#o#o#a#p#p#a#o#=$d#m#m#I$J$K$K$K$L$M$N$O$P$Q$R$S$",
"m+m+X.T$U$V$W$X$Y$Z$`$ %.%`$+%@%#%$%$%|$|$}$}$|$$%%%$%|$}$X.m+X.m+m+X.:$:$W._$&%&%}$_$:$W._$|$|$#%$%$%|$*%Z$Z$+%=%-%;%>%,%'%)%!%"};
