/* XPM */
static char * office_beige_wall_portrait_lenin_xpm[] = {
"64 64 701 2",
"  	c #C99471",
". 	c #BB876A",
"+ 	c #C99871",
"@ 	c #B98767",
"# 	c #B08565",
"$ 	c #BE8D6C",
"% 	c #BB8B6C",
"& 	c #C18F6C",
"* 	c #C49271",
"= 	c #BB8D6C",
"- 	c #C99271",
"; 	c #C48F71",
"> 	c #B58567",
", 	c #B58767",
"' 	c #BB8B6A",
") 	c #BB8F6C",
"! 	c #C18D6C",
"~ 	c #CC9874",
"{ 	c #C69271",
"] 	c #C1926F",
"^ 	c #B58B67",
"/ 	c #C1926C",
"( 	c #BE8F6C",
"_ 	c #CC9471",
": 	c #B38567",
"< 	c #C4926F",
"[ 	c #C68F71",
"} 	c #BB8B67",
"| 	c #CC9871",
"1 	c #B98B67",
"2 	c #B98D67",
"3 	c #C48F6F",
"4 	c #B38565",
"5 	c #B38767",
"6 	c #BE8B6C",
"7 	c #CE9874",
"8 	c #B98B6A",
"9 	c #CC9274",
"0 	c #AA6540",
"a 	c #B36C45",
"b 	c #B06A42",
"c 	c #B56C45",
"d 	c #B36A45",
"e 	c #AA6240",
"f 	c #AE6742",
"g 	c #B06742",
"h 	c #7F472F",
"i 	c #B78766",
"j 	c #C6906F",
"k 	c #C18F6F",
"l 	c #BB8D6A",
"m 	c #BB876C",
"n 	c #6F422B",
"o 	c #71422B",
"p 	c #74452E",
"q 	c #77472E",
"r 	c #7A472E",
"s 	c #7F4A2F",
"t 	c #824A2F",
"u 	c #824C32",
"v 	c #7C472E",
"w 	c #A07559",
"x 	c #B18566",
"y 	c #C69871",
"z 	c #D49D7A",
"A 	c #CE9877",
"B 	c #C69471",
"C 	c #AE6740",
"D 	c #525252",
"E 	c #967054",
"F 	c #A57B5E",
"G 	c #CC9474",
"H 	c #CE9A77",
"I 	c #CC9271",
"J 	c #CC9A74",
"K 	c #CE9474",
"L 	c #565656",
"M 	c #555656",
"N 	c #555555",
"O 	c #454545",
"P 	c #AC734D",
"Q 	c #D19669",
"R 	c #000000",
"S 	c #555556",
"T 	c #D29A77",
"U 	c #5A5A5A",
"V 	c #59595A",
"W 	c #595959",
"X 	c #484848",
"Y 	c #904B34",
"Z 	c #DAA87E",
"` 	c #EBCAA8",
" .	c #EDCFB0",
"..	c #595A5A",
"+.	c #936D54",
"@.	c #B48665",
"#.	c #C68F6F",
"$.	c #DA9F7C",
"%.	c #CE9D77",
"&.	c #D29877",
"*.	c #5D5D5D",
"=.	c #5C5C5D",
"-.	c #5C5C5C",
";.	c #9E462C",
">.	c #EFD6BB",
",.	c #F4E2CD",
"'.	c #F8EBDD",
").	c #FAF1E8",
"!.	c #FCF3EB",
"~.	c #F6E8D7",
"{.	c #5C5D5D",
"].	c #926C52",
"^.	c #B98869",
"/.	c #D29A7A",
"(.	c #D49D7C",
"_.	c #606060",
":.	c #8A2E1D",
"<.	c #AA5540",
"[.	c #E6C09C",
"}.	c #F1D9BF",
"|.	c #F4E3CF",
"1.	c #F8EADC",
"2.	c #FAEFE5",
"3.	c #FCF3EC",
"4.	c #FDF6EF",
"5.	c #9E745A",
"6.	c #B48465",
"7.	c #D29D77",
"8.	c #D49F7A",
"9.	c #646464",
"0.	c #636363",
"a.	c #92352F",
"b.	c #B15F47",
"c.	c #E4BA94",
"d.	c #F0D4B9",
"e.	c #F1DCC4",
"f.	c #FAF0E6",
"g.	c #FAF1EB",
"h.	c #906850",
"i.	c #C69572",
"j.	c #C6926F",
"k.	c #686868",
"l.	c #676768",
"m.	c #676767",
"n.	c #7F2926",
"o.	c #A14738",
"p.	c #DDAC85",
"q.	c #EED0B2",
"r.	c #ECD0B3",
"s.	c #EDCEB0",
"t.	c #F0D8C0",
"u.	c #F8F0E5",
"v.	c #FAF2E8",
"w.	c #F7ECDE",
"x.	c #B28665",
"y.	c #D29D7A",
"z.	c #6B6B6B",
"A.	c #6A6A6A",
"B.	c #75251A",
"C.	c #1D1C1A",
"D.	c #3E342E",
"E.	c #B46E51",
"F.	c #EAC9A7",
"G.	c #E6C29E",
"H.	c #915F57",
"I.	c #A77C70",
"J.	c #DDC3B2",
"K.	c #F7E9D9",
"L.	c #C49372",
"M.	c #D2987A",
"N.	c #CE9A74",
"O.	c #BB8D67",
"P.	c #6F6F6F",
"Q.	c #6E6E6E",
"R.	c #6E6E6D",
"S.	c #5D1E12",
"T.	c #5C1E1C",
"U.	c #E6BE9C",
"V.	c #E9C8AB",
"W.	c #C7A692",
"X.	c #D9B296",
"Y.	c #9B8572",
"Z.	c #F5E3D0",
"`.	c #6D6E6E",
" +	c #936954",
".+	c #CE9D74",
"++	c #D49A7A",
"@+	c #737373",
"#+	c #8B3124",
"$+	c #671811",
"%+	c #681919",
"&+	c #252323",
"*+	c #4A0000",
"=+	c #C99377",
"-+	c #F4E1CD",
";+	c #C28670",
">+	c #5A3A3B",
",+	c #F2DAC3",
"'+	c #EED1B6",
")+	c #F3DEC7",
"!+	c #F5E3D1",
"~+	c #717172",
"{+	c #717272",
"]+	c #727272",
"^+	c #8D6850",
"/+	c #C69072",
"(+	c #DAA37C",
"_+	c #DDA57F",
":+	c #D79F7C",
"<+	c #D79D7C",
"[+	c #777777",
"}+	c #767676",
"|+	c #943A2C",
"1+	c #7F2A24",
"2+	c #4D0D10",
"3+	c #640F0E",
"4+	c #D9B09A",
"5+	c #DAB198",
"6+	c #A06354",
"7+	c #EBD1B9",
"8+	c #E8C9AD",
"9+	c #EDD0B4",
"0+	c #F2DDC6",
"a+	c #EFDAC9",
"b+	c #EDD6C3",
"c+	c #757575",
"d+	c #987056",
"e+	c #BF8E69",
"f+	c #C49471",
"g+	c #D49F7C",
"h+	c #7A7A7A",
"i+	c #797979",
"j+	c #963C2E",
"k+	c #913A2C",
"l+	c #934036",
"m+	c #772823",
"n+	c #722320",
"o+	c #6F1B14",
"p+	c #EED3BC",
"q+	c #F0D8BF",
"r+	c #F3DDC6",
"s+	c #E2B894",
"t+	c #E3B993",
"u+	c #ECCFB3",
"v+	c #F6E6D5",
"w+	c #F1D7BE",
"x+	c #D2B79D",
"y+	c #EAD0BB",
"z+	c #906952",
"A+	c #BF8E6C",
"B+	c #7D7D7D",
"C+	c #656565",
"D+	c #772017",
"E+	c #712422",
"F+	c #88342E",
"G+	c #581614",
"H+	c #812D24",
"I+	c #EACCB3",
"J+	c #E2C3B1",
"K+	c #E8C5A6",
"L+	c #F5E4D0",
"M+	c #F7E9DA",
"N+	c #F4E0CB",
"O+	c #EDD1B8",
"P+	c #C6A689",
"Q+	c #7C7C7C",
"R+	c #7C7D7D",
"S+	c #8D6650",
"T+	c #C69372",
"U+	c #828282",
"V+	c #82827F",
"W+	c #680E06",
"X+	c #7E2D29",
"Y+	c #82302A",
"Z+	c #6F2723",
"`+	c #2D2D21",
" @	c #F2DCC7",
".@	c #F1D6B9",
"+@	c #F5E4D1",
"@@	c #EAC8A8",
"#@	c #DAA079",
"$@	c #ECD4C0",
"%@	c #888888",
"&@	c #7F7F7F",
"*@	c #966C54",
"=@	c #C48D6F",
"-@	c #DAA37F",
";@	c #D29F7A",
">@	c #868686",
",@	c #646363",
"'@	c #872A20",
")@	c #742C27",
"!@	c #060608",
"~@	c #837C6E",
"{@	c #E2CFBB",
"]@	c #F4E2CE",
"^@	c #EFD8BF",
"/@	c #EAC7A2",
"(@	c #D3936A",
"_@	c #A7A7A7",
":@	c #838484",
"<@	c #848484",
"[@	c #966D54",
"}@	c #C49572",
"|@	c #E5AA85",
"1@	c #C99474",
"2@	c #898989",
"3@	c #90422A",
"4@	c #1E191A",
"5@	c #2F0E10",
"6@	c #73322A",
"7@	c #BD866E",
"8@	c #C79E8C",
"9@	c #8D745E",
"0@	c #332D24",
"a@	c #E3CCB8",
"b@	c #868888",
"c@	c #868788",
"d@	c #878888",
"e@	c #DDA37F",
"f@	c #DFA382",
"g@	c #8E8E8E",
"h@	c #6C6B6A",
"i@	c #A55443",
"j@	c #873E34",
"k@	c #362523",
"l@	c #574436",
"m@	c #B39781",
"n@	c #EBD7C2",
"o@	c #EBD8C8",
"p@	c #F2DCC5",
"q@	c #EED3B7",
"r@	c #8A8B8B",
"s@	c #8A8A8B",
"t@	c #898A8A",
"u@	c #8B8C8C",
"v@	c #C4906F",
"w@	c #DFA582",
"x@	c #DAA57F",
"y@	c #DA9D7C",
"z@	c #E9AA87",
"A@	c #C99874",
"B@	c #DA9F7F",
"C@	c #909090",
"D@	c #964D3B",
"E@	c #0B0D0C",
"F@	c #000103",
"G@	c #06060A",
"H@	c #534A37",
"I@	c #89745D",
"J@	c #CFBDA6",
"K@	c #F0DAC1",
"L@	c #E5BA94",
"M@	c #677276",
"N@	c #6D6D6D",
"O@	c #8E8E8F",
"P@	c #8E8F8F",
"Q@	c #A2755C",
"R@	c #CC9577",
"S@	c #E3A582",
"T@	c #DFA882",
"U@	c #E3A885",
"V@	c #D79F7A",
"W@	c #E3A882",
"X@	c #949494",
"Y@	c #717171",
"Z@	c #21110C",
"`@	c #25140E",
" #	c #00090C",
".#	c #272621",
"+#	c #22231F",
"@#	c #584E3C",
"##	c #75624B",
"$#	c #6A5341",
"%#	c #ADADAD",
"&#	c #B9B4AF",
"*#	c #282829",
"=#	c #3A4147",
"-#	c #42494B",
";#	c #6E6F6F",
">#	c #929292",
",#	c #DFA37F",
"'#	c #D7A37C",
")#	c #DFA57F",
"!#	c #979797",
"~#	c #969696",
"{#	c #1B1B1B",
"]#	c #000202",
"^#	c #454441",
"/#	c #C8C1BB",
"(#	c #A5A5A5",
"_#	c #020505",
":#	c #191411",
"<#	c #352E23",
"[#	c #2B211B",
"}#	c #AF755E",
"|#	c #F3EBE2",
"1#	c #C4C4C4",
"2#	c #1E1E1E",
"3#	c #3A3938",
"4#	c #272525",
"5#	c #211F1E",
"6#	c #3E3B3A",
"7#	c #4E4C4B",
"8#	c #A2785C",
"9#	c #D19877",
"0#	c #F1B38B",
"a#	c #E5A885",
"b#	c #707070",
"c#	c #151515",
"d#	c #111111",
"e#	c #1F1F1F",
"f#	c #1D1D1D",
"g#	c #27292B",
"h#	c #C6AFA1",
"i#	c #675C5A",
"j#	c #AF8674",
"k#	c #F2EDE8",
"l#	c #EFEFEF",
"m#	c #E4E4E4",
"n#	c #141414",
"o#	c #434343",
"p#	c #4A4A4A",
"q#	c #3C3C3C",
"r#	c #373737",
"s#	c #504F4F",
"t#	c #986D56",
"u#	c #D69D7B",
"v#	c #E5B085",
"w#	c #E3AA82",
"x#	c #E3AE85",
"y#	c #2D2D2D",
"z#	c #272727",
"A#	c #2A2A2A",
"B#	c #232323",
"C#	c #2D2E2D",
"D#	c #B0B0B0",
"E#	c #F1F1F1",
"F#	c #EAE7E4",
"G#	c #DEDCD9",
"H#	c #131516",
"I#	c #0C1416",
"J#	c #EFEFEE",
"K#	c #F2F0EE",
"L#	c #CAC9C8",
"M#	c #131313",
"N#	c #494949",
"O#	c #393939",
"P#	c #515151",
"Q#	c #474747",
"R#	c #3D3D3D",
"S#	c #A47A5E",
"T#	c #CC9877",
"U#	c #DFA87F",
"V#	c #212121",
"W#	c #2B2B2B",
"X#	c #616161",
"Y#	c #F3F3F3",
"Z#	c #171212",
"`#	c #DFDDDB",
" $	c #EFEEEB",
".$	c #E2E3E2",
"+$	c #7E7E7E",
"@$	c #303030",
"#$	c #4B4B4B",
"$$	c #424242",
"%$	c #5B5B5B",
"&$	c #535353",
"*$	c #C48E72",
"=$	c #D79D7A",
"-$	c #282828",
";$	c #2C2C2C",
">$	c #030303",
",$	c #121212",
"'$	c #D0D0D0",
")$	c #E9E9E8",
"!$	c #A09F9E",
"~$	c #150F10",
"{$	c #1A1413",
"]$	c #DEDEDD",
"^$	c #E3E2E2",
"/$	c #B2B2B2",
"($	c #181818",
"_$	c #505050",
":$	c #6C6C6C",
"<$	c #A6785E",
"[$	c #CF9A77",
"}$	c #E3AA85",
"|$	c #292929",
"1$	c #2E2E2E",
"2$	c #1C1C1C",
"3$	c #020202",
"4$	c #202020",
"5$	c #E1E1E1",
"6$	c #A0A0A0",
"7$	c #0C0D0D",
"8$	c #090A0A",
"9$	c #EBEBEB",
"0$	c #DADADA",
"a$	c #545454",
"b$	c #AA7D62",
"c$	c #C99574",
"d$	c #E9AA85",
"e$	c #D4A37A",
"f$	c #DAA57C",
"g$	c #DDA87F",
"h$	c #E9AE87",
"i$	c #4F4F4F",
"j$	c #222222",
"k$	c #050505",
"l$	c #ACACAC",
"m$	c #0A0A0A",
"n$	c #040404",
"o$	c #080808",
"p$	c #A4A4A4",
"q$	c #F2F2F2",
"r$	c #EAEAEA",
"s$	c #575757",
"t$	c #626262",
"u$	c #9C745A",
"v$	c #4D4D4D",
"w$	c #3F3F3F",
"x$	c #404040",
"y$	c #3B3B3B",
"z$	c #313131",
"A$	c #E7E7E7",
"B$	c #EDEDED",
"C$	c #2F2F2F",
"D$	c #EEAE8B",
"E$	c #4E4E4E",
"F$	c #171717",
"G$	c #333333",
"H$	c #191919",
"I$	c #939393",
"J$	c #C7C7C7",
"K$	c #414141",
"L$	c #242424",
"M$	c #666666",
"N$	c #787878",
"O$	c #A67A5E",
"P$	c #EBB087",
"Q$	c #EBB387",
"R$	c #464646",
"S$	c #252525",
"T$	c #353535",
"U$	c #3E3E3E",
"V$	c #C9C9C9",
"W$	c #363636",
"X$	c #AD7D63",
"Y$	c #CF9877",
"Z$	c #E5AE85",
"`$	c #EEB08B",
" %	c #5E5E5E",
".%	c #262626",
"+%	c #343434",
"@%	c #1A1A1A",
"#%	c #AA7C62",
"$%	c #D19D78",
"%%	c #E3A585",
"&%	c #F4B58D",
"*%	c #DFAA82",
"=%	c #EBAE87",
"-%	c #C0C0C0",
";%	c #A97C60",
">%	c #696969",
",%	c #383838",
"'%	c #0B0B0B",
")%	c #0F0F0F",
"!%	c #323232",
"~%	c #A97D60",
"{%	c #F1B58B",
"]%	c #DF9F7F",
"^%	c #DD9F7F",
"/%	c #EEB38B",
"(%	c #A67A60",
"_%	c #DFA782",
":%	c #EBAA87",
"<%	c #A67C60",
"[%	c #D99F7D",
"}%	c #B68769",
"|%	c #A67860",
"1%	c #B18763",
"2%	c #BA8A6C",
"3%	c #A4785E",
"4%	c #AF8163",
"5%	c #A2785E",
"6%	c #B18366",
"7%	c #9E725A",
"8%	c #B68768",
"9%	c #AF8563",
"0%	c #BD8E6D",
"a%	c #E1A983",
"b%	c #EEB587",
"c%	c #FAB992",
"d%	c #EBAD89",
"e%	c #E1A783",
"f%	c #D49D7B",
"g%	c #D69F7B",
"h%	c #D49F78",
"i%	c #E1A982",
"j%	c #D49F7B",
"k%	c #CC9574",
"l%	c #CC9374",
"m%	c #D19D77",
"n%	c #D49D78",
"o%	c #DCA57D",
"p%	c #D7A17D",
"q%	c #E8AB85",
"r%	c #71452E",
"s%	c #4A2E20",
"t%	c #472E20",
"u%	c #472E1F",
"v%	c #4C2F20",
"w%	c #4C2F23",
"x%	c #4F2F23",
"y%	c #4F3223",
"z%	c #7F472E",
"A%	c #543223",
"B%	c #513223",
"C%	c #673D29",
"D%	c #74422E",
"E%	c #6C402B",
"F%	c #6A402B",
"G%	c #67402B",
"H%	c #653D29",
"I%	c #653B29",
"J%	c #623B26",
"K%	c #623B29",
"L%	c #5D3926",
"M%	c #603B26",
"N%	c #9D5D3B",
"O%	c #874C32",
"P%	c #77452E",
"Q%	c #6C422B",
"R%	c #674029",
"S%	c #A8603D",
"T%	c #854C32",
"U%	c #563423",
"V%	c #E58F58",
"W%	c #AE6540",
"X%	c #A8623D",
"Y%	c #A35D3B",
"Z%	c #9D5B39",
"`%	c #9F5B3B",
" &	c #9D5B3B",
".&	c #9A5B39",
"+&	c #A5603D",
"@&	c #422316",
"#&	c #A86240",
"$&	c #DF7F4F",
"%&	c #985639",
"&&	c #9A5839",
"*&	c #945637",
"=&	c #925637",
"-&	c #985637",
";&	c #563425",
">&	c #D4774A",
",&	c #472516",
"'&	c #74452B",
")&	c #7C472F",
"!&	c #5D3425",
"~&	c #A55D3D",
"{&	c #D77A4C",
"]&	c #B96A42",
"^&	c #BB6A42",
"/&	c #B56A42",
"(&	c #B56740",
"_&	c #B06540",
":&	c #AE6240",
"<&	c #AA623D",
"[&	c #7A452E",
"}&	c #472518",
"|&	c #623725",
"1&	c #C67147",
"2&	c #673D2B",
"3&	c #452316",
"4&	c #653726",
"5&	c #74472E",
"6&	c #C97147",
"7&	c #824C2F",
"8&	c #8B4C32",
"9&	c #603725",
"0&	c #71452B",
"a&	c #8D4F32",
"b&	c #C47147",
"c&	c #623726",
"d&	c #5B3425",
"e&	c #B56F45",
"f&	c #8B4F32",
"g&	c #8F4F32",
"h&	c #8F5134",
"i&	c #925134",
"j&	c #8F4F34",
"k&	c #BB7147",
"l&	c #CE744A",
"m&	c #B97147",
"n&	c #583425",
"o&	c #402316",
"p&	c #B96F47",
"q&	c #985839",
"r&	c #543423",
"  . + @ # $ % & * = - ; > , > ' ) ! ~ { ! ]   & = { @ ] ' { & { , ' = , ' ] > { $ , ' , & , ! > ^ = & / ( * - { = { @ ] ' { & { ",
"_ > : < $ < = % & & ! [ & & $ } { = ] | 1 2 ' $ 3 > > % 4 { { ( < / [ - 1 ' = ' , > { 5 6 & } ! @ ; > ^ _ & $ _ 3 > > % 4 { { ( ",
"& < 7 , * , 8 ~ - 6 , * 9 * & - - ( 0 a b b b b b a c c d b 0 0 0 e 0 0 0 0 f g g g b g 0 h i j < 8 k ( = { & : { % $ $ ! - = @ ",
"+ ~ l { / ! ~ ( + & , . / < & ! m $ 0 n n n n n o p q r s t u s s s s h v v v v r r v h b v w x , = y ' ] ! l ; { = 6 > } ] k / ",
"' ; - ^ z A k ( ] & ! B = & * ' &   C h D D D D D D D D D D D D D D D D D D D D D D D D 0 h E F G - H 7 ] - I = & $ - , % > = 7 ",
"G & , ] J A + > @ = *   < K + # G - 0 h L M N N N N N N O P Q Q Q Q P R O S S S M L L L g v E F G - H 7 ] - I = & $ - , % > = 7 ",
"] { ! . k { & ! { ] { $ T < B & = ] g v U U V W W W X R Y Z `  . . .Z Z R X W V ..U U U b r +.@.= ] k . { A % G k & % ' - ~ #.3 ",
"! ~ ! z / { 7 & _ $.! %.  &.< { & 7 b r *.=.-.-.-.-.R ;.Z >.,.'.).!.~. .Z R -.-.-.{.*.*.g r ].^.& 7 { A { { ! / /.! $ { & ! l ~ ",
"  3 -   y (.  ) - - ^ ! 1 $ z ! ~ k C h _._._._._.R :.<.[.}.|.1.2.3.4.~. .R R _._._._._.g v 5.6.~ k 6 z { 7.~ & ~ _ - G   7 3 6 ",
"{ K % 7 * 7.% l { A < { { { ! 8.{ 7 0 h 9.9.9.9.0.R a.b.c. .d.e.~.f.!.g.~. .R 9.9.9.9.9.C h h.i.{ 7 3 - ; + , ~ ~ , & ! J J + & ",
"  k k ' - k 9 {   j.B   < z < ( @ 8.g v k.l.m.m.m.R n.o.p.q.r.s.t.'.u.v.w.~.R m.m.m.m.m.0 h ].x.@ 8.- 7 - A ! ~ k } ] 7 - ! 3 % ",
"l G & & ~ _ 8.*       & 3 3 z y.{ ~ b r z.z.z.z.A.B.C.D.C.E.F.G.H.I.I.J.~.K.R z.z.z.z.z.g v 5.L.{ ~ ~ ~ & M.~ _ & N.  G 7.7 { A ",
"< { { - z 7 { 7 { A j.& k { [ ( O.7 g r P.P.P.Q.R.S.T.o.o.q.U.V.W.X.X.Y.J.Z.R Q.`.Q.Q.Q.b r  +x.O.7 k % .+T + $ - k #.3 k &.j.~ ",
"{ J * ~ ~ ~   [ $ | 3 ~ + 8.$ ++7 | g v @+@+@+@+#+$+%+R &+*+=+-+;+>+>+,+'+)+R !+~+{+]+]+g r ^+/+7 | ~ (+{ ! + 7 | |   * k $ 8.* ",
"  7   %.z - _+&.* B :+{ J [ ~ | <+/ g v [+[+[+}+|+1+2+o.2+3+4+)+5+6+7+8+9+0+a+b+c+c+c+}+g v d+e+<+/ 7 { k | 7.A { * z { ~ ~ f+  ",
"$.7 _ & - ~ $.6 g+z &.~ ~ { k ~ &.(.f v h+h+h+i+j+k+l+m+n+o+p+q+r+s+t+u+v+w+x+y+i+i+i+i+g v z+A+&.(.y.$.~ &.+ * ! :+3 & | - < 7.",
"/.A k A - T y H ; $.~ - A $.6 z { G 0 v B+B+B+B+C+D+E+F+G+H+I+J+K+L+!+M+N+O+P+y+Q+Q+Q+R+f v S+T+{ G A ; N.- H   A A 7 7.- %.8.{ ",
"z z N.z z 7 z 7 :+< .+{ { + - { 8.( 0 h U+U+U+U+V+W+X+Y+Z+C.D.`+ @.@v++@@@#@$@%@&@&@&@&@0 v *@^.8.( | ! N.N.(+N.=@! + y./.(+M.{ ",
"{ A -@:+-@8.  /.{ 7 A * { *   ;@A y.0 s >@>@>@>@>@,@'@)@!@C.D.`+~@{@]@^@/@(@_@:@:@:@:@<@0 h [@}@A y.< ~ - 7 8.+ ~ |@* 9 + ] A :+",
"- (+~ 1@(+1@7.N.{ 7 ;@&.  A   (+y.~ 0 s 2@2@2@2@2@2@3@4@5@6@7@8@9@0@a@w+/@(@b@b@c@d@d@%@0 s [@~ y.~ z <+1@<+{ T G { _+7.e@7 8.z ",
"  A :+f@8.8.(+$.- (+{ M./.z + T ~ A e s g@g@g@g@g@g@h@i@j@k@l@m@n@o@p@q@#@r@s@t@s@s@r@u@0 s E v@~ A /.T 7.+ f@9 w@(+-@{ (+x@(+~ ",
"(+w@$.y@$.{ _+N.z@7 8.A@;@++$.B@1@~ 0 s C@C@C@C@C@C@C@D@E@F@G@H@I@J@K@L@Y.M@N@g@g@g@O@P@e s Q@R@1@~ &.N.  8.$.7 8.S@T@e@U@:+{ ~ ",
":+M..+  V@~ W@A - -@G A V@(+$.y.(+- 0 u X@X@X@X@X@Y@Z@`@ #.#+#@###$##@%#&#*#=#-#Q.;#>#>#0 s Q@L.(+- A z y.~ ,#%.y.8._ $.< '#H z ",
"~ z (+++:+~ ++,#,#8.&.w@)#7 (+,#(+$.0 t !#~#!#Y@{#]#^#/#(#_#:#<#[#}#%#|#1#2#3#4#5#6#7#&@0 u 8#9#(+$.7 { + + :+(+A + ,#&.z z ~ ,#",
"A z _+:+f@_+$.0#9 ;@k { ~ /.G a#  ~ b s >#b#c#d#e#f#g#/#h#(#:#i#j#%#k#l#m#n#o#p#q#r#s#C+0 t t#u#  ~ '#T@w@{ 8.- { (+y.w@&.H A v#",
"e@w#y.  ~ S@(+x#A :+(+w@a#$._+-@7 | d r e#y#z#A#B#C#R D#E#F#G#H#I#%#J#K#L#M#N#O#P#Q#R#W b s S#T#7 | 7 (+w@T@%.S@{ J U#|@$.+ K <+",
"w#'#_+M./.:+y.e@_+~   x@M.%.(+M.M.B@c q R#V#W#W#z#q#R X#l#Y#(#R &+Z#`# $.$+$@$#$$$%$p#&$d r 8#*$M.B@~ ~ 8.U@- ~ )#~ 7 '#- =$z y.",
"(+z z 7.7 z _+:+7.z   w@e@a#,#_+x@<+c p O#z#-$B#;$W#>$,$'$)$!$R ~${$]$^$l#/$($P#p#_$:$#$c q <$[$x@<+z W@)#-@T@w@&.B@-@&.e@8.- g+",
"y.(+%.w@U#}$T@$.:+w@e@/.7 y.|@:+(+,#a o |$A#1$|$2$z#3$4$_$5$6$R 7$8$Q+9$E#0$n#P#a$p#z.Q.c p b$c$(+,#d$y./.-@U#+ w@,#$.y.$.$.z e@",
"$.)#e$S@A y@y.f$7 _+f$g$h$$.y.z (+(+b n i$o#W#j$@$z#k$|$;$l$1$m$n$o$R p$q$r$B#$$s$D t$h+a o u$T+(+(+a#(+++(+e@,#-@)#$.7 y@T@a#z ",
"_+V@$.8.x@f$)#,#y@z U@$.(+T G z H (+b n q#v$w$r#x$-$m${#y$P#z$R o#n$R z$A$B$R#C$s$t$9.b#b n t#T+H (+=$y@_+z 8.z T@a#B@$.z H _+z ",
"(.)#w@w@z w@)#<+$.$.D$U#$.w@)#z w@)#b n C+a$v$x$E$F$e#c#e#p#-.y#m$-$G$H$I$J$K$L$P#M$k.N$b n O$T+w@)#(.(+(+(+++++$.f@z@)#z (+)#(+",
"P$,#T@e@Q$}$d$U@T@|@w@U@:+a#z@e@U@T@b n *.W P#R$v$($S$A#B#;$#$T$R r#k.R U$V$Q#W$w$t$z.B+b n X$Y$U@T@}$U@|@P$Z$T@e@T@U@U@:+f@|@B@",
")#w#|@P$_+Z$U#(.|@|@(+:+T@`$a#T@|@e@b n  %*.&$Q#R$2#.%z#y#r#+%U$@%z$S$C$n$9$W $$@$X#]+i+b n #%$%|@e@U@(+%%(+W@|@(+8.W@<+(+w@|@:+",
"T@T@|@f@|@|@8.y.x@y@P$&%<+*%W@'#=%:+a n m.C+&$i$R$-$G$T$1$q#K$$$R$F$S$W#k$-%n#N#O#%$:$@+b n ;%A@=%:+(+a#|@0#<+T@w@a#V@`$}$&.<+`$",
"a#T@;@)#)#U@$.a#x@a#`$(+y.$.w#T =%y.c n Q.>%s$L w$1$+%q#K$q#,%$$Q#K$'%D )%w$!%L R$X z.k.a n ~%v@=%y.w@*%f$'#U#D$)#{%P$}$w@w#$.&.",
"w@D$]%|@=%^%,#$.e@$.w@-@(+T@w@/%d$=%c b b b b b b a c c d b 0 0 0 e 0 0 0 0 f g g g b g b n (%_%d$=%|@w@P$$.w@w@$.y@P$8.T@<+|@8.",
"x@a#=%(+f$f@<+:%_+'#/%B@$.`$T@_+W@h$n v n n n n n o p q r s t u s s s s h v v v v r r v h h <%[$W@h$)#a#a#W@g$$.=%|@Z$)#)#(+w@:+",
"=%(+`$w@)#++&%`$w@w@a#|@W@Q$/%/%W@a#[%}%(%|%1%2%<%5.3%b$4%Q@4%5%4%8#6%(%O$7%8%6%(%(%#%b$;%9%0%a%W@a#a#|@w@f@b%c%T@z e@|@=%$.=%-@",
"(+|@}$T@$./%y@U#}$`$W@|@$.P$}$=%,#*%d%e%u#f%g%h%g%g%/+i%i%[$j%g%~ g%j%$%k%_%l%m%j%w@n%g%k%o%p%q%,#*%`$`$a#U@|@w#|@|@++{%{%_+}$|@",
"e 0 0 0 0 f g g g b g 0 C g b b d c a b b b b b a c c d b 0 0 0 e 0 0 0 0 f g g g b g 0 C g b b d c a b b b b b a c c d b 0 0 0 ",
"s s s h v v v v r r v h h v r r%o n n n n n n n o p q r s t u s s s s h v v v v r r v h h v r r%o n n n n n n n o p q r s t u s ",
"s%t%u%u%t%t%t%t%t%t%u%u%t%s%s%v%w%w%w%w%w%w%w%x%y%x%w%x%x%w%s%s%s%t%u%u%t%t%t%t%t%t%u%u%t%s%s%v%w%w%w%w%w%w%w%x%y%x%w%x%x%w%s%s%",
"z%A%B%C%D%o E%F%G%G%H%I%J%J%K%K%I%J%L%L%L%L%M%C%G%G%C%H%J%B%N%z%z%A%B%C%D%o E%F%G%G%H%I%J%J%K%K%I%J%L%L%L%L%M%C%G%G%C%H%J%B%N%z%",
"O%B%P%B%Q%Q%E%E%E%F%R%R%R%R%R%C%C%R%R%R%R%R%C%R%C%C%C%H%B%D%S%O%O%B%P%B%Q%Q%E%E%E%F%R%R%R%R%R%C%C%R%R%R%R%R%C%R%C%C%C%H%B%D%S%O%",
"T%U%q O%V%f g W%0 0 e X%Y%Z%Z%Z%Y%Y%`%Y% &.&Z%Z%Z%Y%+&@&r o #&T%T%U%q O%V%f g W%0 0 e X%Y%Z%Z%Z%Y%Y%`%Y% &.&Z%Z%Z%Y%+&@&r o #&T%",
"s U%q O% &$&%&.&Z%`% &Z%Z%.&.&&&*&=&*&-&&&.& &`%Y% &H%@&r p X%s s U%q O% &$&%&.&Z%`% &Z%Z%.&.&&&*&=&*&-&&&.& &`%Y% &H%@&r p X%s ",
"s ;&r O%`%Z%>&+&S%S%#&0 0 W%g b b g 0 0 0 0 0 e e E%B%,&v '&S%s s ;&r O%`%Z%>&+&S%S%#&0 0 W%g b b g 0 0 0 0 0 e e E%B%,&v '&S%s ",
")&!&q O%~&Z%`%{&]&^&^&/&(&_&_&_&:&<&<&<&<&:&:&:&[&!&B%}&z%p e )&)&!&q O%~&Z%`%{&]&^&^&/&(&_&_&_&:&<&<&<&<&:&:&:&[&!&B%}&z%p e )&",
"s |&p T%Z%`%Y%1&v r r q q r r v )&h s )&q q q r%2&!&B%3&q Q%e s s |&p T%Z%`%Y%1&v r r q q r r v )&h s )&q q q r%2&!&B%3&q Q%e s ",
"T%4&5&T%Y%Z%S%6&u u t 7&7&u T%7&s t u T%O%8&8&8&C%9&B%}&0&Q%0 T%T%4&5&T%Y%Z%S%6&u u t 7&7&u T%7&s t u T%O%8&8&8&C%9&B%}&0&Q%0 T%",
"a&9&p O%Z%Y%e b&q q q 0&o n o o 0&o n n n n n o K%c&B%}&n n g a&a&9&p O%Z%Y%e b&q q q 0&o n o o 0&o n n n n n o K%c&B%}&n n g a&",
"8&d&r%8&Z%Z%0 b&r r r v r r q r%r%p 5&p q r r q K%9&A%}&E%E%e&8&8&d&r%8&Z%Z%0 b&r r r v r r q r%r%p 5&p q r r q K%9&A%}&E%E%e&8&",
"O%d&r%f& &Z%e 6&g&h&h&i&i&j&g&f&8&O%T%T%O%O%O%O%C%d&B%@&n E%k&O%O%d&r%f& &Z%e 6&g&h&h&i&i&j&g&f&8&O%T%T%O%O%O%O%C%d&B%@&n E%k&O%",
"8&d&q g&`%Z%X%l&s T%O%O%O%8&8&T%s s u t t s s s H%A%A%@&o E%m&8&8&d&q g&`%Z%X%l&s T%O%O%O%8&8&T%s s u t t s s s H%A%A%@&o E%m&8&",
"f&n&r j&Z% &X%/&v r r q r%r%p v r r q r%r%p 5&p H%A%B%o&n o m&f&f&n&r j&Z% &X%/&v r r q r%r%p v r r q r%r%p 5&p H%A%B%o&n o m&f&",
"8&;&r i&Z% &E%B%B%y%B%x%B%B%y%B%x%w%w%w%x%x%B%B%A%H%B%@&o o p&8&8&;&r i&Z% &E%B%B%y%B%x%B%B%y%B%x%w%w%w%x%x%B%B%A%H%B%@&o o p&8&",
"8&;&v i&=&H%A%d&U%B%B%B%d&U%B%B%B%A%U%A%A%B%y%B%B%n&H%@&0&q p&8&8&;&v i&=&H%A%d&U%B%B%B%d&U%B%B%B%A%U%A%A%B%y%B%B%n&H%@&0&q p&8&",
"O%d&r h&,&}&3&}&}&}&@&@&o&@&@&o&@&@&3&}&}&}&@&@&o&@&@&@&o r c O%O%d&r h&,&}&3&}&}&}&@&@&o&@&@&o&@&@&3&}&}&}&@&@&o&@&@&@&o r c O%",
"T%!&r B%M%M%M%J%J%H%F%F%E%E%E%n o r%r%r%o o r%o o o o E%B%v b T%T%!&r B%M%M%M%J%J%H%F%F%E%E%E%n o r%r%r%o o r%o o o o E%B%v b T%",
"T%d&B%v r%q p q q q q v s T%O%8&8&8&8&8&O%7&s v r r r v F%B%g T%T%d&B%v r%q p q q q q v s T%O%8&8&8&8&8&O%7&s v r r r v F%B%g T%",
"=&-&&&.&.&.&.&Z%Z%.&q&Z%`%Y%Y%Y%Y%`%Z% &`%Z% &`%`%Y%`%.&q&-&-&*&=&-&&&.&.&.&.&Z%Z%.&q&Z%`%Y%Y%Y%Y%`%Z% &`%Z% &`%`%Y%`%.&q&-&-&*&",
"7&T%8&8&8&a&j&h&h&j&g&h&a&f&g&g&g&g&a&f&f&8&T%s )&)&r r r r r h 7&T%8&8&8&a&j&h&h&j&g&h&a&f&g&g&g&g&a&f&f&8&T%s )&)&r r r r r h ",
"r&A%B%A%A%n&n&;&A%A%B%B%A%n&n&n&d&n&;&;&A%U%n&n&d&d&d&;&A%A%U%;&r&A%B%A%A%n&n&;&A%A%B%B%A%n&n&n&d&n&;&;&A%U%n&n&d&d&d&;&A%A%U%;&"};
