/* XPM */
static char * statue_swastika_xpm[] = {
"64 64 219 2",
"  	c None",
". 	c #9D9D9D",
"+ 	c #939393",
"@ 	c #8A8A8A",
"# 	c #7E7E7E",
"$ 	c #767676",
"% 	c #6A6A6A",
"& 	c #686868",
"* 	c #5D5D5D",
"= 	c #545454",
"- 	c #3B3B3B",
"; 	c #BEBEBE",
"> 	c #C2C2C2",
", 	c #ADADAD",
"' 	c #3A3A3A",
") 	c #3C3C3C",
"! 	c #303030",
"~ 	c #242424",
"{ 	c #222222",
"] 	c #272727",
"^ 	c #454545",
"/ 	c #4E4E4E",
"( 	c #474747",
"_ 	c #E0E0E0",
": 	c #DBDBDB",
"< 	c #CECECE",
"[ 	c #727272",
"} 	c #606060",
"| 	c #505050",
"1 	c #131313",
"2 	c #0E0E0E",
"3 	c #101010",
"4 	c #0D0D0D",
"5 	c #111111",
"6 	c #0F0F0F",
"7 	c #1B1B1B",
"8 	c #595959",
"9 	c #DDDDDD",
"0 	c #ECECEC",
"a 	c #696969",
"b 	c #5B5B5B",
"c 	c #121212",
"d 	c #4D4D4D",
"e 	c #4F4F4F",
"f 	c #424242",
"g 	c #3D3D3D",
"h 	c #2F2F2F",
"i 	c #323232",
"j 	c #181818",
"k 	c #1E1E1E",
"l 	c #262626",
"m 	c #6C6C6C",
"n 	c #636363",
"o 	c #DADADA",
"p 	c #717171",
"q 	c #959595",
"r 	c #838383",
"s 	c #7A7A7A",
"t 	c #656565",
"u 	c #464646",
"v 	c #333333",
"w 	c #171717",
"x 	c #313131",
"y 	c #373737",
"z 	c #7F7F7F",
"A 	c #CDCDCD",
"B 	c #A8A8A8",
"C 	c #979797",
"D 	c #888888",
"E 	c #919191",
"F 	c #D6D6D6",
"G 	c #B9B9B9",
"H 	c #B6B6B6",
"I 	c #BDBDBD",
"J 	c #B4B4B4",
"K 	c #949494",
"L 	c #858585",
"M 	c #252525",
"N 	c #202020",
"O 	c #525252",
"P 	c #9A9A9A",
"Q 	c #9F9F9F",
"R 	c #E5E5E5",
"S 	c #E2E2E2",
"T 	c #676767",
"U 	c #565656",
"V 	c #4B4B4B",
"W 	c #B1B1B1",
"X 	c #3F3F3F",
"Y 	c #363636",
"Z 	c #757575",
"` 	c #747474",
" .	c #1A1A1A",
"..	c #999999",
"+.	c #8E8E8E",
"@.	c #D3D3D3",
"#.	c #2D2D2D",
"$.	c #2B2B2B",
"%.	c #B5B5B5",
"&.	c #797979",
"*.	c #141414",
"=.	c #646464",
"-.	c #1C1C1C",
";.	c #1F1F1F",
">.	c #1D1D1D",
",.	c #161616",
"'.	c #575757",
").	c #828282",
"!.	c #D5D5D5",
"~.	c #2C2C2C",
"{.	c #353535",
"].	c #6D6D6D",
"^.	c #414141",
"/.	c #4A4A4A",
"(.	c #ABABAB",
"_.	c #F0F0F0",
":.	c #5C5C5C",
"<.	c #8B8B8B",
"[.	c #C3C3C3",
"}.	c #444444",
"|.	c #787878",
"1.	c #A2A2A2",
"2.	c #9E9E9E",
"3.	c #232323",
"4.	c #5F5F5F",
"5.	c #494949",
"6.	c #868686",
"7.	c #CBCBCB",
"8.	c #8C8C8C",
"9.	c #9C9C9C",
"0.	c #151515",
"a.	c #535353",
"b.	c #2A2A2A",
"c.	c #E8E8E8",
"d.	c #A5A5A5",
"e.	c #585858",
"f.	c #6E6E6E",
"g.	c #C0C0C0",
"h.	c #AEAEAE",
"i.	c #292929",
"j.	c #C9C9C9",
"k.	c #D9D9D9",
"l.	c #818181",
"m.	c #707070",
"n.	c #7D7D7D",
"o.	c #CCCCCC",
"p.	c #404040",
"q.	c #909090",
"r.	c #EAEAEA",
"s.	c #616161",
"t.	c #383838",
"u.	c #DCDCDC",
"v.	c #878787",
"w.	c #B7B7B7",
"x.	c #BCBCBC",
"y.	c #CFCFCF",
"z.	c #A0A0A0",
"A.	c #EEEEEE",
"B.	c #A7A7A7",
"C.	c #BBBBBB",
"D.	c #D0D0D0",
"E.	c #BFBFBF",
"F.	c #A4A4A4",
"G.	c #A9A9A9",
"H.	c #8F8F8F",
"I.	c #989898",
"J.	c #B8B8B8",
"K.	c #AAAAAA",
"L.	c #B0B0B0",
"M.	c #DEDEDE",
"N.	c #E1E1E1",
"O.	c #7C7C7C",
"P.	c #C5C5C5",
"Q.	c #A3A3A3",
"R.	c #EDEDED",
"S.	c #E6E6E6",
"T.	c #D7D7D7",
"U.	c #C8C8C8",
"V.	c #AFAFAF",
"W.	c #D2D2D2",
"X.	c #C1C1C1",
"Y.	c #969696",
"Z.	c #929292",
"`.	c #A6A6A6",
" +	c #E3E3E3",
".+	c #C4C4C4",
"++	c #191919",
"@+	c #434343",
"#+	c #6B6B6B",
"$+	c #BABABA",
"%+	c #555555",
"&+	c #000000",
"*+	c #090909",
"=+	c #ACACAC",
"-+	c #B2B2B2",
";+	c #9B9B9B",
">+	c #B3B3B3",
",+	c #808080",
"'+	c #2E2E2E",
")+	c #212121",
"!+	c #0C0C0C",
"~+	c #515151",
"{+	c #737373",
"]+	c #848484",
"^+	c #5A5A5A",
"/+	c #050505",
"(+	c #4C4C4C",
"_+	c #484848",
":+	c #777777",
"<+	c #666666",
"[+	c #626262",
"}+	c #020202",
"|+	c #040404",
"1+	c #8D8D8D",
"2+	c #080808",
"3+	c #898989",
"4+	c #0A0A0A",
"5+	c #5E5E5E",
"6+	c #7B7B7B",
"                                                                                                                                ",
"                                                                                                                                ",
"                                                                                                                                ",
"                                                                                                                                ",
"                                                                                                                                ",
"                                                                                                                                ",
"                                                                                                                                ",
"                                                                                                                                ",
"                                                      . + @ # $ % & * = -                                                       ",
"                                                ; > , = ' - ) ! ! ! ~ { ] ^ / (                                                 ",
"                                          _ : < [ } | 1 2 3 4 5 4 4 6 4 6 { 7 ] = 8 8                                           ",
"                                      9 0 $ a b 5 4 4 c d e f f g h h i j 1 4 2 k l i m n                                       ",
"                                    o p a 3 6 4 3 = q r [ % s t = = e u v l ~ w 2 4 6 x y z                                     ",
"                                  A * 2 3 4 8 B C D E F G H I J . K E L & - g M j N N 4 2 e %                                   ",
"                                I O 3 4 ( P Q P R S _ e T U V W q d X Y g Z ` 8 M M j l w  ./ &                                 ",
"                              , ^ 4 6 ^ ..+.@._ s } = #.$.' %.= e &.1 *.*.y ! ! =.d w -.;.>.,.d '.                              ",
"                            K ) 4 *./ D ).!.=.$ l 1 ~.~ ( _ n 4 3 e s 4 3 4 4 4 ! {.O j w >.j ,.| X                             ",
"                          ).i 4 6 ^ & ].> 8 ,.2 *.! { ^._ V 2 3 ).&.H 4 4 2 3 6 4 4 u = 1 7 { >.>./.x                           ",
"                        T #.3 6 g * ` (.d 3 2 7 g     _.:.2 1 <.[ [.|         ,.4 ,.1 e U ,. .;.>.,.}.#.                        ",
"                      8 ! 4 6 Y V t K ( *.] ~.      9 |.3 4 1.2.: ^ b             N w  .f U *.7 3.>.! 4.Y                       ",
"                      5.3.4 i / = 6.- 5 *.~       7.a w 2 8.9.0 U a 4.              k j N }.8 0.k ;.3.a.{.                      ",
"                    U ] 2 2 ) u p b.w { 3.      7.}.3 ,.1.+ c.& 8 T           d.      7 -.*.V b *.0.w ] b {.                    ",
"                    4.3.4 N y * i  .7 N       (.e.4 w s P _ * f.T           g.h.Z       >.3.N t i.6 ;.h / b.                    ",
"                    t l 6 i i O h w 3.      C ) 0.2 p z j.e.e.&.          k.d 4 l.m.       .7 e h 4 >.;.f b.                    ",
"                  &.! 4 2 x /.3.1 w ~     n.K 4 3 e t o.e.4.*           9 a.5 3 -.r |.    ] l ! m h c 7 3.V {                   ",
"                  8.i 4 {.- 8 N 1 w         | 4.k v | 9.| :.          0 m.4 4 O g l s &.    ~.b.Z v 4 ~ v p.N                   ",
"                  q.- 4 / f * { 1 w           b }  .^.k r l.        r.m 4 s.2.:.| 5.] |.t   y t.m.- 4  .~ }.l                   ",
"                . ^.2 4 V &.! w  .>.            * 4.3.t.;.l.D     u.:.4 Z P S %.~.p.i x |.m.{.v u v.i 6 3.i.= N                 ",
"                w.O 4 x u # x >.3.e.^.^.          = m k ^.;.v.x.y.* 4 e.z.A.& B.D ] ^.v ~ v.% X /.D ' 4 x p.* l                 ",
"                C.e 6 V / +.~ { Z }.g ^ p.          b % { V x V /.4 e.6.D.].} * B.B y X Y M L # s.+.g 4 #.f =.;.                ",
"                E.p.4 ^ % C {.).] 5 ( t.u ^.          / 4.M g 3 3 | n.F 4.    a ( B.F.#.u ' ] 6.&.q ^.2 ' ( ].$.                ",
"                < }.4 5.a E +.g 4 4 7 X g u g           L g 5 ^ g f.E.4.        |.{ G.H.) ^.( s.G.v p.c {./ l.#.                ",
"                !.5.4 = ].B.&.V 4 x { 7 X - ( ^.        &.v 4 u /.( ..*           p - P I.-.s s J.d u 4 f n 8.h                 ",
"                o ( j V [ B.) =.p ~ ] ] 1 ^ - f X     & $.5 {.:./ ^ 3.p 8.          m.e B.9.l.< V ; 5.0.' & H.{.                ",
"                7.* 4 '.Z w.( h } 4.;.b.i.w t.g ^.p.e ] 2 #.e v.# l }.N D 6.          Z a , [ } ..I f 2 d a.K t.                ",
"                F ].6 a.r o.U i.v } p N ! l j u '.| k 4 ~ ( Z Y u T M }.N n.D               4.I.F.!.e.4 ^ % <.g                 ",
"                o ` 4 5.8 K.8 $.h ^.m =.>.l ~ -.] { 4 3.v 4.i.    b n l O {.# [             L.B.G : 4.4 ..|.L.f                 ",
"                  M.& 6 y ` y.* g y   a 4.l { ~ 4 3 ] v d {         8 & k f M s +.          , H c.=.w 4 D J.d                   ",
"                  N.% 5 n D [./.d '.    =.& k i.#.p.p.b ;.          m <.v 3 h ~ ` O.        G.M.c.=.1 8 q E.U                   ",
"                  D.[ 4 ^ b ; [ p.f m     4.% N U 5.=.~           e U &.~.2 }.|.:.u 5.    1.; y.A.& 4 H.D C.n                   ",
"                    @.&.w 5.T N.= :.a       m n / z v           u = t {.4 4 b :.G.|       W P.u.% 3 4 Q.F &                     ",
"                    !.a.2 [ b P.4.& ].l.      & ^ #.          - ) | { 6 4 ^ = q Y       G.J @.M.} 4 ].s R.%                     ",
"                    h.=.c d /.k > d.|.s D       -           a.u d N 4 4 p.u l.X       + Q.E.D.= 4 3 K d.M.:.                    ",
"                      o.V 4 [ d x > P I.<.E               '.:.8 k 4 4 ! t.T $.      O.n.Q J /.3 4 n . S.Z                       ",
"                      w.].4 p.T U x T.1.+ B.K             f.O.M 4 6 h {.'.k       p z + F.5.3 2 5.+.+ U.].                      ",
"                        1.E ' p.s.( y J 1.B H 1.G.        @ {.2 3 y y /.N     :.e.a O.P Y 5 4 5.).s j.4.                        ",
"                          w.C l / O X V I (.w.L.2.(.K.P Q K 3 5 /.^.* l u ^ /./ s.T s i 4 4 ( O.n.U./                           ",
"                            9.<.h ^ T i }.> y.A P.j.E.G.9.} :.' /.f.b.e.a.V ^ /.* 4.{.6 4 ~.s.& h.d                             ",
"                              6.1.v }.T U x a.U @.@.> j.V.(.[ + r x ].p =.e.5.u b.l 4 4 ] e 4.z.^.                              ",
"                                p H.l O = - 4 4 O a.=.w.G h.Q.) ) z n.[ n b.3.k 4 3 4 ~ ) f K v                                 ",
"                                  | 9.4.} d a i 5 *.c 4.'./.) g ' - ! y $.c 3 2 6 ;.y ) - |.{.                                  ",
"                                    =.< g.` K n g | = 4 3 4 6 3 4 1 2 3 3 2 ] y y #.! = * ]                                     ",
"                                      =.8.W.9 X.v.L * 5.:.U V g O ) y ) O V 5.O V = ( i N                                       ",
"                                Y.Z.C L d ).m _ S P.E q.r I.l.m.].p a 8 e * s % & X X k ) y '.n                                 ",
"                              ).9.1.d.`.8.U # ].v.S  +S k.j.7.A D..+d.K.(.+ ( U {.~ ++p.=./ n ].b                               ",
"                              @+e.#+[ G.9.d.j.H $+I ; 1.w.+ I.z.&.l.O.p a t 8.Q . . F.E # %+x &+*+                              ",
"                            d 5.%+s.} [ z K =+B.(.2.-+h.L.W `., B > ;+>+C H.Z.+ ,+|.Y x -.'+)+*.-.!+                            ",
"                            b./.~+n {+p Z m m.s K ;+L 2.8.@ H.]+I.n.s ,+#+#+` ^+u ^+#.++$.4 *.2 /+&+                            ",
"                          b.(+_+4.% 4.p z z ]+6.H.+ r 6.q ).I.z :+z O.Z p <+[+p * / ' g ~ 3.}+|+*.++&+                          ",
"                          }.x _+| <+s p Z <.@ $ @ l.K Z.]+Q 1+]+l.z [ Z & p b #+e }./ y >.'+5 4 *.w 2+                          ",
"                        f i.^ f / 4.<+|.3+6.v.8.6.v.C C Q ;+v.z +.z 3+# #+[+e.e./ ) y k k c { -.>.4+&+&+                        ",
"                        $.)+U = ^ & 5+#+).]+E <.H.P Z . 6.E O.{+# m.n.D ,+|.=.O * ( = v ;.x ~ 6 2 -.&+2+                        ",
"                            - [+d #+$ L r +.q # . q.Q 6.8.l.D 1+,+&.Z Z l.[+].T | | ( d $.2 ;.*+k &+                            ",
"                                        & $ z l.q.v...Y.6.,+..6.# 9.].|.6+6+} '.( ( X v                                         "};
