/* XPM */
static char * table2_chairs_xpm[] = {
"64 64 163 2",
"  	c None",
". 	c #68210E",
"+ 	c #C75B3F",
"@ 	c #C86044",
"# 	c #CB6448",
"$ 	c #C4573B",
"% 	c #69210E",
"& 	c #AE4429",
"* 	c #6C220E",
"= 	c #AC4428",
"- 	c #B4472C",
"; 	c #A64126",
"> 	c #722511",
", 	c #B2462B",
"' 	c #732511",
") 	c #B0462B",
"! 	c #6D220F",
"~ 	c #A84328",
"{ 	c #A74227",
"] 	c #67200D",
"^ 	c #AA4428",
"/ 	c #AF452A",
"( 	c #A44025",
"_ 	c #A4400A",
": 	c #A03E08",
"< 	c #9E3908",
"[ 	c #A23C0A",
"} 	c #AE410C",
"| 	c #A9400D",
"1 	c #AC410C",
"2 	c #B0420C",
"3 	c #B75423",
"4 	c #B64E20",
"5 	c #BD6033",
"6 	c #B95B2D",
"7 	c #BE623A",
"8 	c #B95B31",
"9 	c #B75525",
"0 	c #B44E1C",
"a 	c #B24712",
"b 	c #A43D0A",
"c 	c #A8420A",
"d 	c #B85728",
"e 	c #C36D47",
"f 	c #C36A43",
"g 	c #C36941",
"h 	c #A73D09",
"i 	c #A03A08",
"j 	c #9C3908",
"k 	c #983A06",
"l 	c #4B1900",
"m 	c #491800",
"n 	c #4C1900",
"o 	c #4F1A00",
"p 	c #501A00",
"q 	c #551C00",
"r 	c #581D00",
"s 	c #5E1F00",
"t 	c #632000",
"u 	c #642100",
"v 	c #5F1F00",
"w 	c #662100",
"x 	c #6A2300",
"y 	c #6D2400",
"z 	c #6B2300",
"A 	c #AD4429",
"B 	c #4A0A03",
"C 	c #580F00",
"D 	c #5C1B10",
"E 	c #380801",
"F 	c #350801",
"G 	c #330700",
"H 	c #320700",
"I 	c #2F0600",
"J 	c #370700",
"K 	c #350700",
"L 	c #340700",
"M 	c #3A0801",
"N 	c #3B0801",
"O 	c #3A0A05",
"P 	c #621501",
"Q 	c #300700",
"R 	c #310700",
"S 	c #340800",
"T 	c #350800",
"U 	c #370800",
"V 	c #380901",
"W 	c #3A0901",
"X 	c #380800",
"Y 	c #3A0900",
"Z 	c #390901",
"` 	c #360700",
" .	c #6D1B0D",
"..	c #7A2400",
"+.	c #671000",
"@.	c #7E2600",
"#.	c #440000",
"$.	c #621C0B",
"%.	c #903911",
"&.	c #A74F25",
"*.	c #7D2700",
"=.	c #8F3308",
"-.	c #C85D40",
";.	c #CA6246",
">.	c #CE694E",
",.	c #CB654A",
"'.	c #CB6347",
").	c #993D12",
"!.	c #782814",
"~.	c #752612",
"{.	c #7E2C16",
"].	c #7A2914",
"^.	c #802D16",
"/.	c #7C2B16",
"(.	c #772814",
"_.	c #A65027",
":.	c #B85C31",
"<.	c #842A0B",
"[.	c #882D0B",
"}.	c #6E1900",
"|.	c #3E0000",
"1.	c #5B0A00",
"2.	c #6F2310",
"3.	c #702410",
"4.	c #6F1706",
"5.	c #771F06",
"6.	c #600C00",
"7.	c #380000",
"8.	c #4F0500",
"9.	c #94371F",
"0.	c #90361D",
"a.	c #C2663B",
"b.	c #5B0500",
"c.	c #510000",
"d.	c #330000",
"e.	c #93371E",
"f.	c #651F0C",
"g.	c #8C331C",
"h.	c #6A220E",
"i.	c #7B2A15",
"j.	c #842E0F",
"k.	c #AD5329",
"l.	c #B1562C",
"m.	c #974018",
"n.	c #671B0E",
"o.	c #95381F",
"p.	c #8A311A",
"q.	c #78250E",
"r.	c #984017",
"s.	c #A0481F",
"t.	c #89320C",
"u.	c #611B0E",
"v.	c #9C3B22",
"w.	c #9F3D24",
"x.	c #842E06",
"y.	c #9E3C23",
"z.	c #993B21",
"A.	c #9E3C22",
"B.	c #A13E24",
"C.	c #983A20",
"D.	c #873108",
"E.	c #A23F25",
"F.	c #B05A31",
"                                                                                                                                ",
"                                                                                                                                ",
"                                                                                                                                ",
"                                                                                                                                ",
"                                                                                                                                ",
"                                                                                                                                ",
"                                                                                                                                ",
"                                                                                                                                ",
"                                                                                                                                ",
"                                                                                                                                ",
"                                                                                                                                ",
"                                                                                                                                ",
"                                                                                                                                ",
"                                                                                                                                ",
"                                                                                                                                ",
"                                                                                                                                ",
"                                                                                                                                ",
"                                                                                                                                ",
"                                                                                                                                ",
"                                                                                                                                ",
"                                                                                                                                ",
"                                                                                                                                ",
"                                                                                                                                ",
"                                                                                                                                ",
"                                                                                                                                ",
"                                                                                                                                ",
"                                                                                                                                ",
"                                                                                                                                ",
"                                                                                                                                ",
"                                                                                                                                ",
"                                                                                                                                ",
"                                                                                                                                ",
". + @ @ # # # $ # $                                                                                         $ # $ # # # @ @ + . ",
". $ $ $ $ $ $ $ $ $                                                                                         $ $ $ $ $ $ $ $ $ . ",
"  % & & & & & & $                                                                                             $ & & & & & & %   ",
"  * = . & . - . ;                                                                                             ; . - . & . = *   ",
"  > = % & . , % ;                                                                                             ; % , . & % = >   ",
"  ' & . & % ) * ;                                                                                             ; * ) % & . & '   ",
"  ! & % & * & > ~                                                                                             ~ > & * & % & !   ",
"  % = * & > ) ' {                                                                                             { ' ) > & * = %   ",
"  ] ~ > & ' ) ! ;                                                                                             ; ! ) ' & > ~ ]   ",
"  * ^ ' / ! ) % (             _ : < : [ } | 1 2 | 1 1 1 3 4 5 6 7 8 3 7 8 9 0 2 1 1 | a 2 } } 1 b             ( % ) ! / ' ^ *   ",
"  % ~ ! & % - ] ;     : : [ _ c 1 a 3 d 3 d 3 d 6 e e f g 7 8 9 0 3 a 1 h [ i < j j < i k j i [ _ h | 1 }     ; ] - % & ! ~ %   ",
"  * = % & ] ) * ~     l m m m m l l m m m m l n o p q r s s t t u t v v t w w x y z u t t t v u t t t u u     ~ * ) ] & % = *   ",
"  > A ] & * & % =       B C C C D E F G H I I J J K K K K L K K K K J J I I H G F E M N F F E O C B B O       = % & * & ] A >   ",
"  > A ] & * & % =         B C P D Q R S T U V W W X U Y Y Y Y Y U X Z W V U T S R Q ` J R R Q O P B O         = % & * & ] A >   ",
"  > A ] & * & % =            ...D   +.@.#.                                            +.@.#.   ...D           = % & * & ] A >   ",
"  ' ) * & % ) $.A           %.&. .+.*.=.+.#.                                        +.*.=.+.#.%.&. .          A $.) % & * ) '   ",
"  ] ; -.;.>.,.,.# '.-.'.# -.%.&. .+.).).@.#.                                        +.).).@.#.%.&. .-.# '.-.'.# ,.,.>.;.-.; ]   ",
"* !.~.{.{.].^.].!./.(.!./.%._.:.%. .<.[.}.|.                                        1.<.[.}.%._.:.%. ./.!.(./.!.].^.].{.{.~.!.* ",
"% > ' > 2.! ' 3.2.3.3.2.3.%._.:.%. .4.5.6.7.                                        8.4.5.6.%._.:.%. .3.2.3.3.2.3.' ! 2.> ' > % ",
". 9.          . 0.    2./.%.a.a.&. .b.+.c.d.                                        #.b.+.c.%.a.a.&. ./.2.    0..           9.. ",
"  % e.        f.g.  h.i.  j.k.l.m.n.c.b.#.d.                                        #.c.b.#.j.k.l.m.n.  i.h.  g.f.        e.%   ",
"  > e.        2.o.  ] p.  q.r.s.t.u.c.b.#.d.                                        #.c.b.#.q.r.s.t.u.  p.]   o.2.        e.>   ",
"  ' v.        h.w.  % o.   .x.%...D #.c.d.                                            #.c.d. .x.%...D   o.%   w.h.        v.'   ",
"  ! y.        * v.  3.v.   ...x. .D #.c.d.                                            #.c.d. ...x. .D   v.3.  v.*         y.!   ",
"  % v.        3.z.  i.v.   ...x. .D #.+.d.                                            #.+.#.  ..x. .D   v.i.  z.3.        v.%   ",
"  ] A.        2.z.  ' v.     ...D   #.+.#.                                            #.+.#.   ...D     v.'   z.2.        A.]   ",
"  * B.        ] z.  ' C.     ...D   +.@.#.                                            +.@.#.   ...D     C.'   z.]         B.*   ",
"  ! y.        * v.  3.v.    %.%. .+.*.=.+.#.                                        +.*.=.+.#.%.%. .    v.3.  v.*         y.!   ",
"  ] A.        2.z.  ' v.    %.&. .+.).).@.+.#.                                    +.D.).).@.+.%.&. .    v.'   z.2.        A.]   ",
"  % E.      $.v.    !.z.  %._.:.%. .b.+.c.#.                                        c.b.+.c.%._.:.%. .  z.!.    v.$.      E.%   ",
"] z.                  (.%.F.a.a.&.%. .                                                    %.F.a.a.&.%. .(.                  z.] ",
"                          ..x.%... .                                                        ..x.%... .                          "};
