/* XPM */
static char * toilet_xpm[] = {
"64 64 117 2",
"  	c None",
". 	c #E7E7E7",
"+ 	c #E3E3E3",
"@ 	c #C1C1C1",
"# 	c #E0E0E0",
"$ 	c #E5E5E5",
"% 	c #DBDBDB",
"& 	c #D9D9D9",
"* 	c #D5D5D5",
"= 	c #B4B4B4",
"- 	c #ADADAD",
"; 	c #C3C3C3",
"> 	c #B7B7B7",
", 	c #A9A9A9",
"' 	c #999999",
") 	c #979797",
"! 	c #969696",
"~ 	c #A1A1A1",
"{ 	c #B1B1B1",
"] 	c #7C7C7C",
"^ 	c #5B5B5B",
"/ 	c #8B8B8B",
"( 	c #7B7B7B",
"_ 	c #6B6B6B",
": 	c #5D5D5D",
"< 	c #4F4F4F",
"[ 	c #808080",
"} 	c #828282",
"| 	c #7D7D7D",
"1 	c #686868",
"2 	c #555555",
"3 	c #636363",
"4 	c #5E5E5E",
"5 	c #656565",
"6 	c #676767",
"7 	c #6A6A6A",
"8 	c #616161",
"9 	c #646464",
"0 	c #6C6C6C",
"a 	c #4B4B4B",
"b 	c #3D3D3D",
"c 	c #9A9A9A",
"d 	c #929292",
"e 	c #838383",
"f 	c #8A8A8A",
"g 	c #8F8F8F",
"h 	c #898989",
"i 	c #7A7A7A",
"j 	c #818181",
"k 	c #878787",
"l 	c #858585",
"m 	c #BDBDBD",
"n 	c #D3D3D3",
"o 	c #A6A6A6",
"p 	c #A8A8A8",
"q 	c #A7A7A7",
"r 	c #9B9B9B",
"s 	c #ACACAC",
"t 	c #B8B8B8",
"u 	c #6D6D6D",
"v 	c #AAAAAA",
"w 	c #AEAEAE",
"x 	c #A5A5A5",
"y 	c #9F9F9F",
"z 	c #D4D4D4",
"A 	c #AFAFAF",
"B 	c #919191",
"C 	c #C7C7C7",
"D 	c #CDCDCD",
"E 	c #A3A3A3",
"F 	c #A0A0A0",
"G 	c #9C9C9C",
"H 	c #9E9E9E",
"I 	c #ABABAB",
"J 	c #A4A4A4",
"K 	c #8D8D8D",
"L 	c #BABABA",
"M 	c #C2C2C2",
"N 	c #C9C9C9",
"O 	c #D1D1D1",
"P 	c #C0C0C0",
"Q 	c #A2A2A2",
"R 	c #D8D8D8",
"S 	c #DEDEDE",
"T 	c #DCDCDC",
"U 	c #848484",
"V 	c #313131",
"W 	c #949494",
"X 	c #BCBCBC",
"Y 	c #B3B3B3",
"Z 	c #717171",
"` 	c #3B3B3B",
" .	c #2E2E2E",
"..	c #666666",
"+.	c #939393",
"@.	c #B0B0B0",
"#.	c #8E8E8E",
"$.	c #606060",
"%.	c #575757",
"&.	c #404040",
"*.	c #474747",
"=.	c #4A4A4A",
"-.	c #464646",
";.	c #757575",
">.	c #C8C8C8",
",.	c #C6C6C6",
"'.	c #C4C4C4",
").	c #7E7E7E",
"!.	c #535353",
"~.	c #8C8C8C",
"{.	c #959595",
"].	c #727272",
"^.	c #4E4E4E",
"/.	c #434343",
"(.	c #CFCFCF",
"_.	c #737373",
":.	c #767676",
"                                                                                                                                ",
"                                                                                                                                ",
"                                                                                                                                ",
"                                                                                                                                ",
"                                                                                                                                ",
"                                                                                                                                ",
"                                                                                                                                ",
"                                                                                                                                ",
"                                                                                                                                ",
"                                                                                                                                ",
"                                                                                                                                ",
"                                                                                                                                ",
"                                                                                                                                ",
"                                                                                                                                ",
"                                                                                                                                ",
"                                                                                                                                ",
"                                                                                                                                ",
"                                                                                                                                ",
"                                                                                                                                ",
"                                                                                                                                ",
"                                                                                                                                ",
"                                                                                                                                ",
"                                                                                                                                ",
"                                                                                                                                ",
"                                                                                                                                ",
"                                                                                                                                ",
"                                                                                                                                ",
"                                                                                                                                ",
"                                                                                                                                ",
"                                                                                                                                ",
"                                                  . . . + + + + + + + + + @ @                                                   ",
"                                                # $ % % & & & & & & % % % * = =                                                 ",
"                                              - ; > , ' ) ! ! ! ! ! ) ) ) ~ { ] ^                                               ",
"                                              / / ( ( ( _ _ _ _ : : _ : : _ _ < <                                               ",
"                                              [ [ } | 1 2 3 4 5 1 6 7 8 9 0 a b ^                                               ",
"                                                c - d e f g g h h i j k h l ] |                                                 ",
"                                                m n o o - p q o o r , s t { / u                                                 ",
"                                                m n o p v w q v { o x x y v f u                                                 ",
"                                                m z A v v v v ' x x r x s , B u                                                 ",
"                                                C D v E v q y F G G H y I y B u                                                 ",
"                                                C D v { v q G E G G F J H H K u                                                 ",
"                                                C D v E v q y F G G H y I y B u                                                 ",
"                                                C D v E v q y F G G H y I y B u                                                 ",
"                                                C D v { v q G E G G F J H H K u                                                 ",
"                                                L M M M M M M M M M M M M M M {                                                 ",
"                                              N N N O O O O O O O O O O O O O P P                                               ",
"                                              Q R # # # S R T T # N N N N N P U V                                               ",
"                                              N g W o X X @ @ Y Y w w c / Z `  ...                                              ",
"                                              +.N @.! B #.] ] ] ] $.%.&.*.=.-.;.V                                               ",
"                                              [ [ { { M C >.C ,.,.'.; I , h ).!.&.                                              ",
"                                                [ +.| ~.{.E E E E +.f ].: : < V                                                 ",
"                                                [ +./ | / | | u u u : : < < V V                                                 ",
"                                                  [ | / / | | u u u : < ^.&.V                                                   ",
"                                                    [ | / | | | u u : < < V                                                     ",
"                                                      u / ) / | u u : /.&.                                                      ",
"                                                        +.{ m G G [ 1 /.                                                        ",
"                                                        +.m (.(.m G _.<                                                         ",
"                                                        +.m (.C { / 7 ^.                                                        ",
"                                                        +.m (.C { / 7 <                                                         ",
"                                                        +.m (.C { / 7 <                                                         ",
"                                                    P P +.m (.C { / 7 < :.:.                                                    ",
"                                                  P P P +.E { { E | : : / / E                                                   ",
"                                                  [ P P P P P P P P P P E E /.                                                  ",
"                                                    [ [ +.E E +.+.[ u : < <                                                     "};
