/* XPM */
static char * wall_flag_nazi_xpm[] = {
"64 64 487 2",
"  	c None",
". 	c #8C8C8C",
"+ 	c #ABABAB",
"@ 	c #C0C0C0",
"# 	c #ECECEC",
"$ 	c #FFFFFF",
"% 	c #838383",
"& 	c #313131",
"* 	c #000000",
"= 	c #9F9F9F",
"- 	c #9D9D9D",
"; 	c #9C9C9C",
"> 	c #9B9B9B",
", 	c #A9A9A9",
"' 	c #BABABA",
") 	c #B6B6B6",
"! 	c #B8B8B8",
"~ 	c #B7B7B7",
"{ 	c #989898",
"] 	c #424242",
"^ 	c #7F7F7F",
"/ 	c #535353",
"( 	c #5C5C5C",
"_ 	c #232323",
": 	c #676767",
"< 	c #515151",
"[ 	c #4A4A4A",
"} 	c #4B4B4B",
"| 	c #595959",
"1 	c #6A6A6A",
"2 	c #6C6C6C",
"3 	c #626262",
"4 	c #616161",
"5 	c #555555",
"6 	c #525252",
"7 	c #414141",
"8 	c #9F0000",
"9 	c #050505",
"0 	c #010101",
"a 	c #392A20",
"b 	c #37291F",
"c 	c #434343",
"d 	c #C40000",
"e 	c #B50000",
"f 	c #B00000",
"g 	c #9D0000",
"h 	c #490000",
"i 	c #4B0000",
"j 	c #37281F",
"k 	c #372A1F",
"l 	c #3B2B21",
"m 	c #3E2D23",
"n 	c #BA0000",
"o 	c #CE0B0B",
"p 	c #C50202",
"q 	c #C20101",
"r 	c #C10000",
"s 	c #C00000",
"t 	c #C30000",
"u 	c #BD0000",
"v 	c #AF0000",
"w 	c #A70000",
"x 	c #A30000",
"y 	c #990000",
"z 	c #980000",
"A 	c #A80000",
"B 	c #AA0000",
"C 	c #B30000",
"D 	c #C50000",
"E 	c #CB0000",
"F 	c #CE0000",
"G 	c #D10000",
"H 	c #C80000",
"I 	c #D81515",
"J 	c #CA0808",
"K 	c #C60404",
"L 	c #BB0000",
"M 	c #B80000",
"N 	c #B60000",
"O 	c #AC0000",
"P 	c #B20000",
"Q 	c #D20000",
"R 	c #CA0000",
"S 	c #DA1717",
"T 	c #D51212",
"U 	c #CA0707",
"V 	c #C70000",
"W 	c #BE0000",
"X 	c #AD0000",
"Y 	c #CD0000",
"Z 	c #D50000",
"` 	c #DB1818",
" .	c #D61414",
"..	c #CC0A0A",
"+.	c #C80505",
"@.	c #D70000",
"#.	c #DA1818",
"$.	c #CD0A0A",
"%.	c #C40101",
"&.	c #DD1A1A",
"*.	c #D71414",
"=.	c #C90606",
"-.	c #C60303",
";.	c #BF0000",
">.	c #B90000",
",.	c #DD1C1C",
"'.	c #D71616",
").	c #CB0808",
"!.	c #CC0000",
"~.	c #B40000",
"{.	c #DF1C1C",
"].	c #DE1B1B",
"^.	c #D00E0E",
"/.	c #D00D0D",
"(.	c #CF0000",
"_.	c #D00000",
":.	c #C90000",
"<.	c #C20000",
"[.	c #B70000",
"}.	c #A90000",
"|.	c #DB1A1A",
"1.	c #D20F0F",
"2.	c #CC0909",
"3.	c #C70404",
"4.	c #D30000",
"5.	c #BC0000",
"6.	c #AE0000",
"7.	c #DA1919",
"8.	c #D41313",
"9.	c #D31010",
"0.	c #C70202",
"a.	c #D60000",
"b.	c #C40808",
"c.	c #C27575",
"d.	c #B46D6D",
"e.	c #AE6666",
"f.	c #A85959",
"g.	c #A54F4F",
"h.	c #AC3232",
"i.	c #AD0B0B",
"j.	c #B20202",
"k.	c #D51313",
"l.	c #D41111",
"m.	c #D21010",
"n.	c #D80000",
"o.	c #D80101",
"p.	c #D82828",
"q.	c #DB7474",
"r.	c #E0AAAA",
"s.	c #DAC0C0",
"t.	c #B8B0B0",
"u.	c #ACA3A3",
"v.	c #AFACAC",
"w.	c #AA9797",
"x.	c #AA9F9F",
"y.	c #C6C4C4",
"z.	c #E1DDDD",
"A.	c #CA8888",
"B.	c #B61717",
"C.	c #D61212",
"D.	c #CD0909",
"E.	c #C80404",
"F.	c #D80606",
"G.	c #E6ABAB",
"H.	c #E9E7E7",
"I.	c #E9E9E9",
"J.	c #E8E8E8",
"K.	c #D9D9D9",
"L.	c #868686",
"M.	c #7B7B7B",
"N.	c #ACACAC",
"O.	c #E3E3E3",
"P.	c #E4E4E4",
"Q.	c #E4E2E2",
"R.	c #D8A2A2",
"S.	c #C10505",
"T.	c #D20101",
"U.	c #D11212",
"V.	c #D81414",
"W.	c #C90505",
"X.	c #C80101",
"Y.	c #CF1C1C",
"Z.	c #EDDAD9",
"`.	c #EAEAEA",
" +	c #E7E7E7",
".+	c #E6E6E6",
"++	c #A8A8A8",
"@+	c #040404",
"#+	c #7C7C7C",
"$+	c #9E9E9E",
"%+	c #BEBEBE",
"&+	c #E1E1E1",
"*+	c #E5E5E5",
"=+	c #E3B7B7",
"-+	c #CF0F0F",
";+	c #D30E0E",
">+	c #CE0909",
",+	c #CA0909",
"'+	c #D55E5E",
")+	c #E6C0BE",
"!+	c #EFEBEA",
"~+	c #CACACA",
"{+	c #1E1E1E",
"]+	c #212121",
"^+	c #BBBBBB",
"/+	c #DFDFDF",
"(+	c #EEEEEE",
"_+	c #A50000",
":+	c #CE0F0F",
"<+	c #D20B0B",
"[+	c #D60909",
"}+	c #D60707",
"|+	c #D00B0B",
"1+	c #E4B4B4",
"2+	c #EBDCDC",
"3+	c #EEEBEB",
"4+	c #F1F1F1",
"5+	c #EBEBEB",
"6+	c #D8D8D8",
"7+	c #3B3B3B",
"8+	c #1D1D1D",
"9+	c #A4A4A4",
"0+	c #AAAAAA",
"a+	c #B3B3B3",
"b+	c #A7A7A7",
"c+	c #E59191",
"d+	c #D90000",
"e+	c #DB0000",
"f+	c #CD0F0F",
"g+	c #D50D0D",
"h+	c #D90808",
"i+	c #DE8A8A",
"j+	c #EDEDED",
"k+	c #EFEFEF",
"l+	c #F2F2F2",
"m+	c #E2E2E2",
"n+	c #444444",
"o+	c #717171",
"p+	c #A6A6A6",
"q+	c #959595",
"r+	c #0A0A0A",
"s+	c #080808",
"t+	c #DADADA",
"u+	c #F3F0F0",
"v+	c #DF3C3C",
"w+	c #C90F0F",
"x+	c #D61313",
"y+	c #D50F0F",
"z+	c #D70707",
"A+	c #D96666",
"B+	c #E5E4E4",
"C+	c #F0F0F0",
"D+	c #464646",
"E+	c #6F6F6F",
"F+	c #969696",
"G+	c #030303",
"H+	c #1B1B1B",
"I+	c #F3F3F3",
"J+	c #EDBABA",
"K+	c #C81513",
"L+	c #D32020",
"M+	c #DEDCDC",
"N+	c #474747",
"O+	c #4C4C4C",
"P+	c #A1A1A1",
"Q+	c #939393",
"R+	c #141414",
"S+	c #343434",
"T+	c #F4F2F2",
"U+	c #DD2C2C",
"V+	c #C7241F",
"W+	c #D61515",
"X+	c #D30F0F",
"Y+	c #D26565",
"Z+	c #686868",
"`+	c #454545",
" @	c #6E6E6E",
".@	c #C4C4C4",
"+@	c #AFAFAF",
"@@	c #0C0C0C",
"#@	c #252525",
"$@	c #F4F4F4",
"%@	c #E67A7A",
"&@	c #C22921",
"*@	c #D31212",
"=@	c #D39797",
"-@	c #DDDDDD",
";@	c #CECECE",
">@	c #3C3C3C",
",@	c #6B6B6B",
"'@	c #282828",
")@	c #1A1A1A",
"!@	c #373737",
"~@	c #5D5D5D",
"{@	c #EEB6B6",
"]@	c #BB201A",
"^@	c #D01010",
"/@	c #D4B2B2",
"(@	c #DEDEDE",
"_@	c #B5B5B5",
":@	c #505050",
"<@	c #3A3A3A",
"[@	c #202020",
"}@	c #666666",
"|@	c #B2B2B2",
"1@	c #3F3F3F",
"2@	c #101010",
"3@	c #F1DCDC",
"4@	c #B91A14",
"5@	c #CF1010",
"6@	c #D3CDCD",
"7@	c #ADADAD",
"8@	c #333333",
"9@	c #1F1F1F",
"0@	c #090909",
"a@	c #B0B0B0",
"b@	c #C5C5C5",
"c@	c #2A2A2A",
"d@	c #484848",
"e@	c #656565",
"f@	c #F4F0F0",
"g@	c #B61713",
"h@	c #D51111",
"i@	c #D5D2D2",
"j@	c #2F2F2F",
"k@	c #606060",
"l@	c #A5A5A5",
"m@	c #D7D7D7",
"n@	c #818181",
"o@	c #B91B16",
"p@	c #CE100F",
"q@	c #D41212",
"r@	c #D2B3B3",
"s@	c #727272",
"t@	c #303030",
"u@	c #0F0F0F",
"v@	c #A0A0A0",
"w@	c #C2C2C2",
"x@	c #F1DDDD",
"y@	c #BA1D18",
"z@	c #D21111",
"A@	c #D29999",
"B@	c #E0E0E0",
"C@	c #898989",
"D@	c #323232",
"E@	c #272727",
"F@	c #121212",
"G@	c #020202",
"H@	c #D2D2D2",
"I@	c #EEB7B7",
"J@	c #BB1F19",
"K@	c #CC1010",
"L@	c #D11010",
"M@	c #D16868",
"N@	c #BCBCBC",
"O@	c #070707",
"P@	c #393939",
"Q@	c #131313",
"R@	c #CBCBCB",
"S@	c #E67D7D",
"T@	c #BC231C",
"U@	c #CA1010",
"V@	c #D10E0E",
"W@	c #CF2828",
"X@	c #D7D5D5",
"Y@	c #060606",
"Z@	c #383838",
"`@	c #363636",
" #	c #2C2C2C",
".#	c #8F8F8F",
"+#	c #858585",
"@#	c #DCDCDC",
"##	c #F1F0F0",
"$#	c #DD2F2F",
"%#	c #BD251D",
"&#	c #C9100F",
"*#	c #CE0D0D",
"=#	c #D00C0C",
"-#	c #D29C9C",
";#	c #DBDBDB",
">#	c #161616",
",#	c #292929",
"'#	c #CFCFCF",
")#	c #C7C7C7",
"!#	c #A2A2A2",
"~#	c #5B5B5B",
"{#	c #7E7E7E",
"]#	c #C9C9C9",
"^#	c #EAB9B9",
"/#	c #BD241C",
"(#	c #C80E0C",
"_#	c #CF3333",
":#	c #D9D6D6",
"<#	c #3D3D3D",
"[#	c #494949",
"}#	c #CDCDCD",
"|#	c #B9B9B9",
"1#	c #E6DFDF",
"2#	c #D81212",
"3#	c #BD1B15",
"4#	c #C50A09",
"5#	c #C60505",
"6#	c #C70505",
"7#	c #CA0606",
"8#	c #D3B4B4",
"9#	c #747474",
"0#	c #7D7D7D",
"a#	c #AEAEAE",
"b#	c #C6C6C6",
"c#	c #D6D6D6",
"d#	c #DBAAAA",
"e#	c #D52F2F",
"f#	c #BC0F0C",
"g#	c #C30605",
"h#	c #C50303",
"i#	c #C70303",
"j#	c #CB0909",
"k#	c #D2C2C2",
"l#	c #4D4D4D",
"m#	c #B1B1B1",
"n#	c #CB9595",
"o#	c #CA0C0C",
"p#	c #D20202",
"q#	c #BA0302",
"r#	c #BF0202",
"s#	c #C40303",
"t#	c #C30101",
"u#	c #C50101",
"v#	c #CA0303",
"w#	c #D19C9C",
"x#	c #757575",
"y#	c #7A7A7A",
"z#	c #B8B6B6",
"A#	c #B56464",
"B#	c #B60303",
"C#	c #CA0202",
"D#	c #CD0404",
"E#	c #787878",
"F#	c #B28383",
"G#	c #A41F1F",
"H#	c #C90202",
"I#	c #CD0303",
"J#	c #D10505",
"K#	c #E18787",
"L#	c #F0EDED",
"M#	c #B57C7C",
"N#	c #CC0303",
"O#	c #D00505",
"P#	c #D60404",
"Q#	c #DE3F3F",
"R#	c #EEC0C0",
"S#	c #BBABAB",
"T#	c #B38E8E",
"U#	c #AF5757",
"V#	c #A11717",
"W#	c #CB0303",
"X#	c #D40505",
"Y#	c #D80100",
"Z#	c #DA0000",
"`#	c #DE3131",
" $	c #E37C7B",
".$	c #E2AEAE",
"+$	c #E1C8C8",
"@$	c #E0CDCD",
"#$	c #C8B6B6",
"$$	c #C4AAAA",
"%$	c #AC4747",
"&$	c #A00000",
"*$	c #C60101",
"=$	c #CE0404",
"-$	c #D20404",
";$	c #A20000",
">$	c #D40000",
",$	c #C90101",
"'$	c #CD0202",
")$	c #C60000",
"!$	c #A40000",
"~$	c #870000",
"{$	c #B10000",
"]$	c #880000",
"^$	c #920000",
"/$	c #A60000",
"($	c #8E0000",
"_$	c #890000",
":$	c #8B0000",
"<$	c #9A0000",
"[$	c #940000",
"                                                                                                                                ",
"                                                                                                                                ",
"                        .                                                                             .                         ",
"                      . +                                                                             + .                       ",
"                    @ # $ % & * = - ; > - - - + + , ' ) ! ~ ~ ) ; ; { ; ; { ; ; { - - - > ; - = * & % $ # @                     ",
"                    ] ^ - / ( _ * _ : < [ [ } | | 1 2 1 : 3 3 4 5 6 7 7 } [ } [ 7 } [ [ < : _ * _ ( / - ^ ]                     ",
"                      ] ^       8 9 9 0 a                                             b 0 9 9 8       ^ ]                       ",
"                        c       d e f g h i j k                                 l m i h g f e n       c                         ",
"                                o p q r r r s s t t u e v w x 8 y z 8 A B v C u r D E F G F G H                                 ",
"                                I J K q r r r t D D D r L M N C v O B O v P M u s D E G Q G Q R                                 ",
"                                S T U p t t t D V V V t W M e C P O B O X f C L W t Y Q Z Q Z Y                                 ",
"                                `  ...+.t t t D Y E R V W M e C P O B O X f C L W t Y Q @.Z @.F                                 ",
"                                #. .$.+.%.t t R Y E R V W M e C P O B O X f C L W t Y Q @.@.@.t                                 ",
"                                &.*.$.=.-.t t D Y E R V ;.>.N C P O B O X f C L W t Y Q @.@.@.d                                 ",
"                                ,.'.o ).+.%.t R Y !.!.V s s L N ~.X B O X f C L W t Y Q @.@.@.t                                 ",
"                                {.].^./.).p t D (._._.:.<.D W n [.v }.O X f C L W t Y Q @.@.@.d                                 ",
"                                |.#.1.1.2.3.%.V (.4.4.E V H r 5.N 6.A O X f C L W t Y Q @.@.@.t                                 ",
"                                7.S 8.9.$.=.0.V (.Z a.Q E H b.c.d.e.f.g.h.i.j.n u t E Q Z @.Z t                                 ",
"                                k.S l.m.^.).3.V (.n.o.p.q.r.s.t.u.v.w.x.y.z.A.B.u t Y Q Z Z Z >.                                ",
"                                C.` l.1.1.D.E.V F F.G.H.I.J.K.L.M.. + N.@ O.P.Q.R.S.E T.Z Z Z >.                                ",
"                                U.V.l.m.1.D.W.X.Y.Z.`.J. +.+++@+* #+$+N.%+&+P.*+ +=+E G Z Z Z v                                 ",
"                                -+V.9.;+;+>+,+'+)+!+`..+*+~+{+@+* ]++++ ^+/+P.P. +(+..G Z Z Z _+                                ",
"                                :+V.<+[+}+|+1+2+3+4+5+*+6+7+8+@+* 9+++0+a+b+P.*+ +(+c+d+e+e+E _+                                ",
"                                f+I g+F.h+i+# j+k+l+j+m+n+7+8+@+o+p+, q+r+s+t+P. +(+u+v+e+e+E v                                 ",
"                                w+x+y+z+A+B+# (+C+l+(+D+n+7+8+E+- p+F+* * G+H+*+ +(+I+J+e+e+E v                                 ",
"                                K+ .1.L+M+.+(+(+(+ +D+N+n+7+O+N.P+Q+* * * 0 R+S+ +(+I+T+U+e+E v                                 ",
"                                V+W+X+Y+/+P.j+k+(+Z+n+N+`+ @.@+@= * * * * * @@#@D+(+I+$@%@n.E v                                 ",
"                                &@*@9.=@-@P.;@# k+l+3 n+c >@,@; . * * * * '@9 )@!@~@I+$@{@n.R X                                 ",
"                                ]@^@l./@(@_@G+4 k+l+(+:@] <@[@}@* * * * F+|@1@2@& [ I+$@3@e+R [.                                ",
"                                4@5@l.6@7@* * * j+l+(+*+c 8@9@0@* * * q+++a@b@( c@d@e@$@f@n.E [.                                ",
"                                g@-+h@i@N.* * * : k+j+O.t+S+9@@@* * j@k@l@|@b@m@n@[ 4 $@f@e+E [.                                ",
"                                o@p@q@r@6+|@* * * s@j+m+m@t@[@u@0 * * * ~@v@w@m@P.J.C+I+x@n.E >.                                ",
"                                y@:+z@A@6+B@~ @+* 0@C@&+1@D@E@F@G@* * * * * + H@m+ +(+I+I@n.Y t                                 ",
"                                J@K@L@M@K./+ +N@* O@E@P@!@S+c@Q@M.* * * * * F@R@/+.+j+I+S@e+F t                                 ",
"                                T@U@V@W@X@(@ +5+Y@O@'@P@Z@`@ #_@.#+#* * * * C@~+@#*+`.##$#n.d+d                                 ",
"                                %#&#*#=#-#;#&+I.^+>#,#<@<@Z@'#)#!#~#* * * {#! ]#t+P.J.^#d+d+d+D                                 ",
"                                /#(#,+)._#:#&+J.j+~+S+<#[#K.6+}#++* * * * +@|#]#m@O.1#2#e+d+e+u                                 ",
"                                3#4#5#6#7#8#m+J.# k+.+9#B@;#;#}#[@* * * 0#a#) b#c#d#e#d+e+e+e+V                                 ",
"                                f#g#h#p i#j#k#J.# k+I+j+*+m+&+l#@+* * #+m#+@) b#n#o#p#n.e+e+e+V                                 ",
"                                q#r#s#t#u#v#w#5+5+k+I+(+ +P.x#8+@+* y#m#a+a@z#A#B#H Q d+e+e+e+V                                 ",
"                                u u s#t#u#C#D#-#5+k+I+k+ +0+7+8+@+E#a@! ^+F#G#}.[.D G d+e+e+e+V                                 ",
"                                u W s#t#u#H#I#J#K#L#$@C+J.*+t+ @@+a@_@%+M#8 x X n d G n.e+e+e+V                                 ",
"                                u W s#t#u#H#N#O#P#Q#R###5+.+*+'#p+S#T#U#V#8 x X n d G n.e+e+e+G                                 ",
"                                u W p t#u#H#W#O#X#Y#Z#`# $.$+$@$#$$$%$8 g &$_+v n d _.@.n.e+n.F                                 ",
"                                u W %.t#u#*$C#=$-$Y#Z#Z#e+@.Y t n C B &$8 ;$w f n D F >$n.n.n.Y                                 ",
"                                u W r q t#u#,$'$T.d+e+e+e+@.E r n P A 8 g 8 x X n d G n.e+n.e+e+                                ",
"                                u W t t <.D H !.G d+e+e+e+@.Y r n C A 8 g &$_+v n d _.@.n.e+n.n.                                ",
"                                u W r r <.d V E Q d+e+e+e+@.E r n P A 8 g 8 x X n d G n.e+n.e+e+                                ",
"                                C W t t <.d )$R G d+e+e+e+@.Y r n C A 8 g &$_+v n d _.@.n.e+n.n.                                ",
"                                }.W t t t t )$R G d+e+e+e+@.Y t n C B &$8 ;$w f n D F >$n.n.n.@.                                ",
"                                }.W r r r <.D R Q d+e+e+e+@.E r n P A 8 g 8 x X n d G n.e+n.e+e+                                ",
"                                }.W t t t t D R G d+e+e+e+@.Y r n C A 8 g &$_+v n d _.@.n.e+n.n.                                ",
"                                !$>.t t t t D R G d+e+e+e+@.Y t n C B &$g &$_+v n d _.>$n.n.n.@.                                ",
"                                ~${$D D D D V R G d+e+e+e+Z Y t L C O _+8 ;$w f n D F Q Q n.Q Y                                 ",
"                                    ]$^$/$f r H G d+e+e+n.>$E t u e _+($_$          :$f W d ~.}.                                ",
"                                                <$x C 5.5.s O <$[$                                                              ",
"                                                                                                                                ",
"                                                                                                                                ",
"                                                                                                                                ",
"                                                                                                                                ",
"                                                                                                                                ",
"                                                                                                                                ",
"                                                                                                                                ",
"                                                                                                                                "};
