/* XPM */
static char * wall_portrait_stalin1_xpm[] = {
"64 64 502 2",
"  	c None",
". 	c #AA6540",
"+ 	c #B36C45",
"@ 	c #B06A42",
"# 	c #B56C45",
"$ 	c #B36A45",
"% 	c #A9643F",
"& 	c #A8633E",
"* 	c #A7623D",
"= 	c #A75F3D",
"- 	c #AE6742",
"; 	c #B06742",
"> 	c #7F472F",
", 	c #6F422B",
"' 	c #71422B",
") 	c #74452E",
"! 	c #77472E",
"~ 	c #7A472E",
"{ 	c #7F4A2F",
"] 	c #824A2F",
"^ 	c #814B31",
"/ 	c #7C472C",
"( 	c #774227",
"_ 	c #7E462E",
": 	c #7C472E",
"< 	c #AE6740",
"[ 	c #8F0000",
"} 	c #940000",
"| 	c #960000",
"1 	c #900000",
"2 	c #8D0000",
"3 	c #880000",
"4 	c #8B0000",
"5 	c #8A0000",
"6 	c #840000",
"7 	c #870000",
"8 	c #990000",
"9 	c #9E0000",
"0 	c #9D0000",
"a 	c #9A0000",
"b 	c #950000",
"c 	c #786E76",
"d 	c #5F5055",
"e 	c #796F77",
"f 	c #625358",
"g 	c #5E4F54",
"h 	c #6E6465",
"i 	c #930000",
"j 	c #980000",
"k 	c #9C0000",
"l 	c #A10000",
"m 	c #746A6B",
"n 	c #695A5F",
"o 	c #8A8088",
"p 	c #77686D",
"q 	c #83797A",
"r 	c #6B5C61",
"s 	c #756B6C",
"t 	c #534247",
"u 	c #A00000",
"v 	c #A30101",
"w 	c #A30404",
"x 	c #A30000",
"y 	c #9F0000",
"z 	c #776D6E",
"A 	c #6F6065",
"B 	c #847A7B",
"C 	c #7C6D72",
"D 	c #9F959D",
"E 	c #897A7F",
"F 	c #998F90",
"G 	c #86777C",
"H 	c #867C7D",
"I 	c #58474C",
"J 	c #716768",
"K 	c #A20000",
"L 	c #A50303",
"M 	c #A50404",
"N 	c #A50101",
"O 	c #66575C",
"P 	c #857B7C",
"Q 	c #807176",
"R 	c #918788",
"S 	c #857A7D",
"T 	c #958B8C",
"U 	c #82777A",
"V 	c #988E8F",
"W 	c #8E8386",
"X 	c #8E8485",
"Y 	c #6D5E63",
"Z 	c #766C6D",
"` 	c #615257",
" .	c #A40000",
"..	c #A60404",
"+.	c #A60505",
"@.	c #A60101",
"#.	c #7B7172",
"$.	c #928890",
"%.	c #CCA894",
"&.	c #F0D9C4",
"*.	c #EAD1BB",
"=.	c #E3C1AD",
"-.	c #D9B8A5",
";.	c #D9B6A3",
">.	c #917D7A",
",.	c #796A69",
"'.	c #A60000",
").	c #A80505",
"!.	c #A80808",
"~.	c #A80909",
"{.	c #988C8A",
"].	c #F2D7C3",
"^.	c #F2DBC9",
"/.	c #EBCEB9",
"(.	c #E8C7B2",
"_.	c #E6C7B2",
":.	c #E3C3AD",
"<.	c #DBB8A3",
"[.	c #AF8975",
"}.	c #7A7078",
"|.	c #786968",
"1.	c #A80707",
"2.	c #A80404",
"3.	c #A80303",
"4.	c #A90000",
"5.	c #AA0707",
"6.	c #AA0B0B",
"7.	c #AA0808",
"8.	c #AA0000",
"9.	c #837371",
"0.	c #AA8F81",
"a.	c #EAC9B3",
"b.	c #E8C6AF",
"c.	c #E6C6B0",
"d.	c #AC8672",
"e.	c #746667",
"f.	c #827271",
"g.	c #AA0909",
"h.	c #AA0F0F",
"i.	c #AB0000",
"j.	c #AB0404",
"k.	c #AB0606",
"l.	c #AB0A0A",
"m.	c #AB0707",
"n.	c #83736F",
"o.	c #DBB89F",
"p.	c #D1A589",
"q.	c #E6C4A6",
"r.	c #775952",
"s.	c #8D7D7C",
"t.	c #AB0C0C",
"u.	c #AB0E0E",
"v.	c #AB1212",
"w.	c #AC0000",
"x.	c #AD0404",
"y.	c #AD0707",
"z.	c #AD0808",
"A.	c #AD0303",
"B.	c #9C8A83",
"C.	c #E0B8A0",
"D.	c #815948",
"E.	c #000000",
"F.	c #C68F77",
"G.	c #EBCBAD",
"H.	c #7D5C4A",
"I.	c #6E4E40",
"J.	c #876152",
"K.	c #A8918A",
"L.	c #AD0C0C",
"M.	c #AD0E0E",
"N.	c #AD0F0F",
"O.	c #AD1313",
"P.	c #AF0000",
"Q.	c #AF0606",
"R.	c #AF0202",
"S.	c #F2D1B8",
"T.	c #E6C1A8",
"U.	c #EDC3A6",
"V.	c #E8C0A5",
"W.	c #E8C4AD",
"X.	c #AD7E66",
"Y.	c #CFA085",
"Z.	c #E6BB9F",
"`.	c #DBA98D",
" +	c #A06C59",
".+	c #AF1111",
"++	c #AF0E0E",
"@+	c #AF1313",
"#+	c #B00000",
"$+	c #B00606",
"%+	c #B00303",
"&+	c #B00202",
"*+	c #E0B29B",
"=+	c #EFC7B2",
"-+	c #F2CBB3",
";+	c #E1B9A0",
">+	c #A67B66",
",+	c #A07159",
"'+	c #EBB69D",
")+	c #B01313",
"!+	c #B01212",
"~+	c #B01616",
"{+	c #B20303",
"]+	c #B20707",
"^+	c #B20606",
"/+	c #DBAA8F",
"(+	c #E5B398",
"_+	c #D9A689",
":+	c #A38676",
"<+	c #694E42",
"[+	c #E0A989",
"}+	c #BB856C",
"|+	c #B8836A",
"1+	c #B21616",
"2+	c #B21919",
"3+	c #B40707",
"4+	c #B40A0A",
"5+	c #B40606",
"6+	c #B40000",
"7+	c #D7AF94",
"8+	c #E3B9A0",
"9+	c #C4AC98",
"0+	c #797172",
"a+	c #574D50",
"b+	c #695B5A",
"c+	c #524546",
"d+	c #73594F",
"e+	c #B28168",
"f+	c #8F6554",
"g+	c #B41919",
"h+	c #B41818",
"i+	c #B41B1B",
"j+	c #B50E0E",
"k+	c #B51010",
"l+	c #B50D0D",
"m+	c #B50707",
"n+	c #B50606",
"o+	c #B50909",
"p+	c #B50C0C",
"q+	c #D1AD94",
"r+	c #66544E",
"s+	c #5A433A",
"t+	c #7D5A4F",
"u+	c #825B4C",
"v+	c #442D26",
"w+	c #2C201E",
"x+	c #825C4C",
"y+	c #B51D1D",
"z+	c #B51B1B",
"A+	c #B51A1A",
"B+	c #B52121",
"C+	c #B71313",
"D+	c #B71414",
"E+	c #B70F0F",
"F+	c #B70C0C",
"G+	c #B70D0D",
"H+	c #CCA58B",
"I+	c #C69B81",
"J+	c #E0B99D",
"K+	c #C69F86",
"L+	c #B58A71",
"M+	c #B58D76",
"N+	c #926856",
"O+	c #B72323",
"P+	c #B71E1E",
"Q+	c #B71D1D",
"R+	c #B71B1B",
"S+	c #AA6240",
"T+	c #B91717",
"U+	c #B91919",
"V+	c #B91414",
"W+	c #B91212",
"X+	c #B91010",
"Y+	c #B90D0D",
"Z+	c #D3A98E",
"`+	c #D1A88F",
" @	c #EBC9AF",
".@	c #E5C1A5",
"+@	c #C39B7E",
"@@	c #825546",
"#@	c #825747",
"$@	c #B92323",
"%@	c #B91F1F",
"&@	c #B92020",
"*@	c #B91D1D",
"=@	c #BA1919",
"-@	c #BA1D1D",
";@	c #BA1818",
">@	c #4E4B52",
",@	c #B98E76",
"'@	c #7C5244",
")@	c #66524A",
"!@	c #5A5A61",
"~@	c #BA2828",
"{@	c #BA2525",
"]@	c #BA2323",
"^@	c #BA2626",
"/@	c #824C32",
"(@	c #BC1C1C",
"_@	c #BC2323",
":@	c #A78202",
"<@	c #D0A203",
"[@	c #636161",
"}@	c #636268",
"|@	c #AD856D",
"1@	c #835849",
"2@	c #895E4C",
"3@	c #735A4F",
"4@	c #3E414A",
"5@	c #494A54",
"6@	c #777276",
"7@	c #BC2929",
"8@	c #BD2222",
"9@	c #B6241C",
"0@	c #B89278",
"a@	c #515662",
"b@	c #584C4F",
"c@	c #BD3131",
"d@	c #504447",
"e@	c #F8FF19",
"f@	c #7C7982",
"g@	c #66656A",
"h@	c #514852",
"i@	c #54545B",
"j@	c #515C68",
"k@	c #565C66",
"l@	c #727278",
"m@	c #74767C",
"n@	c #545860",
"o@	c #575B66",
"p@	c #595E66",
"q@	c #73797E",
"r@	c #656C74",
"s@	c #59616C",
"t@	c #5E626C",
"u@	c #66696F",
"v@	c #60656A",
"w@	c #5F6268",
"x@	c #65666F",
"y@	c #5C6168",
"z@	c #61666F",
"A@	c #656974",
"B@	c #666A76",
"C@	c #676D72",
"D@	c #73797C",
"E@	c #656D74",
"F@	c #5C666F",
"G@	c #676D76",
"H@	c #6A6F74",
"I@	c #5F5C61",
"J@	c #C29E24",
"K@	c #A88302",
"L@	c #5B6063",
"M@	c #6C6468",
"N@	c #6C717B",
"O@	c #686D78",
"P@	c #686E71",
"Q@	c #777D81",
"R@	c #666F77",
"S@	c #5E6772",
"T@	c #696F78",
"U@	c #6A7176",
"V@	c #737377",
"W@	c #674D4E",
"X@	c #977502",
"Y@	c #666A6E",
"Z@	c #717278",
"`@	c #5E6B75",
" #	c #6A6F79",
".#	c #6C727B",
"+#	c #63696D",
"@#	c #747B7E",
"##	c #697279",
"$#	c #616974",
"%#	c #6D727B",
"&#	c #73787B",
"*#	c #717274",
"=#	c #5F5F65",
"-#	c #696D71",
";#	c #65696D",
">#	c #6C6F72",
",#	c #696C71",
"'#	c #77777B",
")#	c #626D76",
"!#	c #69747A",
"~#	c #F8FF24",
"{#	c #6D7177",
"]#	c #6D7278",
"^#	c #606668",
"/#	c #787E83",
"(#	c #697176",
"_#	c #636D73",
":#	c #656C6F",
"<#	c #696F72",
"[#	c #717678",
"}#	c #606369",
"|#	c #626369",
"1#	c #696A6E",
"2#	c #666A6F",
"3#	c #6D7276",
"4#	c #727778",
"5#	c #686E72",
"6#	c #6C6F74",
"7#	c #78787C",
"8#	c #686C74",
"9#	c #596063",
"0#	c #6F787C",
"a#	c #69737B",
"b#	c #687379",
"c#	c #63696E",
"d#	c #676D6E",
"e#	c #727777",
"f#	c #63676C",
"g#	c #616267",
"h#	c #716F71",
"i#	c #737979",
"j#	c #767979",
"k#	c #676D71",
"l#	c #6F7377",
"m#	c #76767B",
"n#	c #7D7D82",
"o#	c #676A71",
"p#	c #5E616A",
"q#	c #5F6768",
"r#	c #6E7679",
"s#	c #616C73",
"t#	c #606C72",
"u#	c #5F6569",
"v#	c #686D71",
"w#	c #6C6E6F",
"x#	c #6C6D6F",
"y#	c #676C6C",
"z#	c #7B7B79",
"A#	c #6C6F71",
"B#	c #6D6F71",
"C#	c #6A6F73",
"D#	c #6F7172",
"E#	c #7C7C7E",
"F#	c #77787D",
"G#	c #60656F",
"H#	c #61636C",
"I#	c #55575F",
"J#	c #54595B",
"K#	c #6A7172",
"L#	c #60676F",
"M#	c #686E73",
"N#	c #6A7173",
"O#	c #6A6D6D",
"P#	c #727373",
"Q#	c #737372",
"R#	c #86857E",
"S#	c #5F6160",
"T#	c #6C6E6D",
"U#	c #6E7273",
"V#	c #65676A",
"W#	c #78787B",
"X#	c #747479",
"Y#	c #6A6E76",
"Z#	c #666971",
"`#	c #62666C",
" $	c #5C5C66",
".$	c #4D5054",
"+$	c #5A5F62",
"@$	c #51565A",
"#$	c #595E63",
"$$	c #666A71",
"%$	c #72787C",
"&$	c #6E7173",
"*$	c #797B7C",
"=$	c #767776",
"-$	c #83837E",
";$	c #676869",
">$	c #66696A",
",$	c #6A6F6F",
"'$	c #696F73",
")$	c #76777E",
"!$	c #636772",
"~$	c #63676D",
"{$	c #636369",
"]$	c #626269",
"^$	c #5B5C65",
"/$	c #3D4047",
"($	c #5F6363",
"_$	c #585E5F",
":$	c #4F5559",
"<$	c #66686C",
"[$	c #737678",
"}$	c #6A6C6C",
"|$	c #6F7173",
"1$	c #6F7171",
"2$	c #767674",
"3$	c #636566",
"4$	c #66696C",
"5$	c #6E7476",
"6$	c #65696E",
"7$	c #7B7D81",
"8$	c #72747C",
"9$	c #686C76",
"0$	c #686C72",
"a$	c #66666D",
"b$	c #636269",
"c$	c #52525B",
"                                                                                                                                ",
"                                                                                                                                ",
"                                    . + @ @ @ @ @ + # # $ @ % & * = & % . . - ; ; ; @ ; . >                                     ",
"                                    . , , , , , ' ) ! ~ { ] ^ / ( ( / _ : : : : ~ ~ : > @ :                                     ",
"                                    < > [ } | | 1 1 1 1 2 2 3 3 3 3 4 2 5 2 5 6 7 2 [ 2 . >                                     ",
"                                    . > 8 9 9 0 8 a 8 b 2 c d e f c g h 2 8 } 1 i | j | ; :                                     ",
"                                    ; : k l l l l l 9 9 f m n o p q r s t 0 0 k 9 a k u @ ~                                     ",
"                                    @ ~ u v v v w x y z A B C D E F G H I J l K u y K v ; ~                                     ",
"                                    < > y L L M M N O P Q R S T U V W X Y Z `  .x u  .L ; :                                     ",
"                                    . > K ..+.+.+.@.#.$.%.&.*.=.=.-.;.%.>.O ,.@.@. ...+.< >                                     ",
"                                    ; : '.).!.!.~.x {.%.].^./.(.(._.:.<.[.}.|.1.2.3.1.!.. >                                     ",
"                                    @ ~ 4.5.5.6.7.8.9.%.c 0.a.b.b.c.0.c d.e.f.6.g.5.6.h.; :                                     ",
"                                    ; ~ i.j.k.l.l.m.n.c o.c c p.q.c c o.c r.s.t.u.t.u.v.@ ~                                     ",
"                                    ; : w.x.y.z.z.A.B.C.D.E.E.F.G.H.E.E.I.J.K.L.M.L.N.O.; ~                                     ",
"                                    ; : P.Q.Q.Q.Q.R.S.T.S.U.V.p.W.X.Y.Z.`. +`..+.+++.+@+; :                                     ",
"                                    - : #+$+$+%+&+%+S.*+=+-+p.p.;+>+,+'+F. +F.)+)+!+)+~+; :                                     ",
"                                    . : {+]+]+]+^+]+;./+(+_+o.:+:+<+D.[+}+ +|+1+1+1+2+2+- :                                     ",
"                                    . > 3+4+4+5+6+3+F.7+8+9+0+a+a+b+c+d+e+ +f+g+h+h+g+i+. :                                     ",
"                                    . { j+k+l+m+n+o+p+_+q+r+s+t+t+u+v+w+x+ +y+z+A+A+z+B+. >                                     ",
"                                    . { C+C+D+E+F+G+E+_+H+I+J+K+K+L+M+N+f+ +O+P+Q+R+Q+O+. {                                     ",
"                                    S+{ T+U+V+W+X+Y+W+W+Z+`+q+ @ @.@+@@@#@$@$@%@&@%@*@$@. {                                     ",
"                                    . { =@-@=@=@=@;@;@>@N+,@+@+@+@+@|+'@)@!@~@~@{@]@]@^@S+{                                     ",
"                                    . /@(@_@_@:@<@<@[@}@>@N+|@|@|@1@2@3@4@5@6@<@:@7@7@7@. {                                     ",
"                                    . ] 8@:@<@<@9@9@<@<@<@>@N+`.`.0@N+>@a@<@b@9@<@<@:@c@. /@                                    ",
"                                    @ { <@<@9@9@d@>@<@e@<@f@>@N+F.>@>@g@<@e@<@h@9@9@<@<@. ]                                     ",
"                                    $ ~ 9@9@i@j@k@>@<@9@9@<@>@>@>@l@m@<@9@9@<@>@n@o@9@9@@ {                                     ",
"                                    # ! p@q@r@s@t@u@>@<@9@<@>@v@>@w@<@9@9@<@>@x@y@z@A@B@$ ~                                     ",
"                                    # ) C@D@E@F@G@H@>@<@9@I@>@J@K@>@L@9@<@>@M@<@<@<@N@O@# !                                     ",
"                                    + ' P@Q@R@S@T@U@V@>@W@>@>@:@X@Y@>@L@>@Z@`@9@9@9@ #.## )                                     ",
"                                    @ , +#@###$#%#&#*#=#>@-#>@v@v@;#>#>@,#'#)#!#~#{#U@]#+ '                                     ",
"                                    @ , ^#/#(#_#:#<#[#}#|#1#>@2#2#3#4#5#6#7#<@~#~#~#<@8#@ ,                                     ",
"                                    @ , 9#0#a#b#c#d#e#f#g#h#>@J@K@i#j#k#l#m#n#<@~#<@o#p#@ ,                                     ",
"                                    @ , q#r#s#t#u#v#w#x#y#z#>@:@X@A#B#C#D#E#F#~#G#~#H#I#@ ,                                     ",
"                                    @ , J#K#u#L#M#N#O#P#Q#R#>@S#S#T#U#C#V#W#X#Y#Z#`#}# $@ ,                                     ",
"                                    + , .$+$@$#$$$%$&$*$=$-$>@;$;$>$,$'$2#7#)$!$~${$]$^$@ ,                                     ",
"                                    # , /$($_$:$<$[$}$|$1$2$>@3$3$4$5$3#6$7$8$9$0$a$b$c$+ ,                                     ",
"                                    # @ @ @ @ @ @ + # # $ @ . . . S+. . . . - ; ; ; @ ; @ ,                                     ",
"                                    , : , , , , , ' ) ! ~ { ] /@{ { { { > : : : : ~ ~ : > >                                     ",
"                                                                                                                                ",
"                                                                                                                                ",
"                                                                                                                                ",
"                                                                                                                                ",
"                                                                                                                                ",
"                                                                                                                                ",
"                                                                                                                                ",
"                                                                                                                                ",
"                                                                                                                                ",
"                                                                                                                                ",
"                                                                                                                                ",
"                                                                                                                                ",
"                                                                                                                                ",
"                                                                                                                                ",
"                                                                                                                                ",
"                                                                                                                                ",
"                                                                                                                                ",
"                                                                                                                                ",
"                                                                                                                                ",
"                                                                                                                                ",
"                                                                                                                                ",
"                                                                                                                                ",
"                                                                                                                                ",
"                                                                                                                                ",
"                                                                                                                                ",
"                                                                                                                                "};
