/* XPM */
static char * wall_portrait_hitler_xpm[] = {
"64 64 471 2",
"  	c None",
". 	c #AA6540",
"+ 	c #B36C45",
"@ 	c #B06A42",
"# 	c #B56C45",
"$ 	c #B36A45",
"% 	c #AA6240",
"& 	c #AE6742",
"* 	c #B06742",
"= 	c #7F472F",
"- 	c #6F422B",
"; 	c #71422B",
"> 	c #74452E",
", 	c #77472E",
"' 	c #7A472E",
") 	c #7F4A2F",
"! 	c #824A2F",
"~ 	c #824C32",
"{ 	c #7C472E",
"] 	c #AE6740",
"^ 	c #292929",
"/ 	c #2A2A2A",
"( 	c #2C2C2C",
"_ 	c #403028",
": 	c #624A3B",
"< 	c #614637",
"[ 	c #47332C",
"} 	c #2E2E2E",
"| 	c #2B211F",
"1 	c #2F211E",
"2 	c #534034",
"3 	c #7F624D",
"4 	c #684B3A",
"5 	c #4B332A",
"6 	c #35231F",
"7 	c #342420",
"8 	c #303030",
"9 	c #2C2322",
"0 	c #2A201D",
"a 	c #43342B",
"b 	c #6C5643",
"c 	c #5F4738",
"d 	c #422D25",
"e 	c #33201E",
"f 	c #2E1E1D",
"g 	c #2C1B1B",
"h 	c #2C1E1D",
"i 	c #323232",
"j 	c #4A3D37",
"k 	c #4E362E",
"l 	c #7A5647",
"m 	c #674B3A",
"n 	c #4F3E31",
"o 	c #413028",
"p 	c #3A2A23",
"q 	c #30211E",
"r 	c #261919",
"s 	c #261717",
"t 	c #343434",
"u 	c #45342C",
"v 	c #9A6A56",
"w 	c #C38E6F",
"x 	c #C6906A",
"y 	c #AD7B59",
"z 	c #6C4D39",
"A 	c #261B18",
"B 	c #211615",
"C 	c #231817",
"D 	c #231717",
"E 	c #231616",
"F 	c #281E1D",
"G 	c #363636",
"H 	c #332B2B",
"I 	c #624637",
"J 	c #B17D65",
"K 	c #C89677",
"L 	c #D09D7B",
"M 	c #D09C78",
"N 	c #C99268",
"O 	c #956143",
"P 	c #4A2F27",
"Q 	c #251817",
"R 	c #1E1212",
"S 	c #211313",
"T 	c #393939",
"U 	c #241E1F",
"V 	c #664839",
"W 	c #A67860",
"X 	c #C69578",
"Y 	c #DAA981",
"Z 	c #D1A079",
"` 	c #C79677",
" .	c #C98E6A",
"..	c #C7885F",
"+.	c #AB6E4F",
"@.	c #573C2C",
"#.	c #231414",
"$.	c #1F1112",
"%.	c #3B3B3B",
"&.	c #2C2221",
"*.	c #664536",
"=.	c #9D6F59",
"-.	c #C79570",
";.	c #D4A47A",
">.	c #D6A278",
",.	c #C0876D",
"'.	c #D3966F",
").	c #CA8E63",
"!.	c #C0835B",
"~.	c #895B40",
"{.	c #483028",
"].	c #1B0F12",
"^.	c #3D3D3D",
"/.	c #2C2426",
"(.	c #79553F",
"_.	c #7E5542",
":.	c #3D231D",
"<.	c #A8694F",
"[.	c #A46A4E",
"}.	c #5A382E",
"|.	c #201415",
"1.	c #3F3F3F",
"2.	c #755249",
"3.	c #A4654A",
"4.	c #B2B2B2",
"5.	c #000000",
"6.	c #C18360",
"7.	c #784C3B",
"8.	c #946C52",
"9.	c #3B251F",
"0.	c #3D2520",
"a.	c #424242",
"b.	c #7D574A",
"c.	c #B7795E",
"d.	c #BA7C61",
"e.	c #B3765F",
"f.	c #B37055",
"g.	c #BF7D59",
"h.	c #774D39",
"i.	c #B47F5B",
"j.	c #B27556",
"k.	c #9D5E43",
"l.	c #976446",
"m.	c #3F2821",
"n.	c #3C2823",
"o.	c #444444",
"p.	c #B5775D",
"q.	c #C88F6C",
"r.	c #BF7C5B",
"s.	c #CA8C65",
"t.	c #BA7E5E",
"u.	c #673F30",
"v.	c #89583C",
"w.	c #C18157",
"x.	c #CD8658",
"y.	c #764D3A",
"z.	c #36211D",
"A.	c #464646",
"B.	c #5D5D5D",
"C.	c #905940",
"D.	c #B8755A",
"E.	c #CD8B68",
"F.	c #BE7C5B",
"G.	c #BA7B5A",
"H.	c #794D37",
"I.	c #744833",
"J.	c #BD7B55",
"K.	c #AF6F4D",
"L.	c #694234",
"M.	c #3E2622",
"N.	c #494949",
"O.	c #7E5236",
"P.	c #B6724E",
"Q.	c #C3835D",
"R.	c #89573B",
"S.	c #472F26",
"T.	c #33201B",
"U.	c #A56642",
"V.	c #A56847",
"W.	c #5C392D",
"X.	c #402D2D",
"Y.	c #4D4D4D",
"Z.	c #5B5B5B",
"`.	c #BA7649",
" +	c #C98858",
".+	c #74503A",
"++	c #3E2A25",
"@+	c #2E211C",
"#+	c #281A19",
"$+	c #88573A",
"%+	c #8E5F40",
"&+	c #543128",
"*+	c #4F4F4F",
"=+	c #B9784F",
"-+	c #CB8C5E",
";+	c #784732",
">+	c #764B35",
",+	c #4F2D26",
"'+	c #3C3C3C",
")+	c #525252",
"!+	c #4B4B4B",
"~+	c #C08565",
"{+	c #C2845C",
"]+	c #A76E4C",
"^+	c #A8724D",
"/+	c #9D6945",
"(+	c #895A3C",
"_+	c #5D3A2B",
":+	c #351C18",
"<+	c #555555",
"[+	c #7C5B44",
"}+	c #C98C69",
"|+	c #CC8D68",
"1+	c #BE7D58",
"2+	c #955F42",
"3+	c #5D392C",
"4+	c #452B23",
"5+	c #281815",
"6+	c #231313",
"7+	c #221616",
"8+	c #515151",
"9+	c #585858",
"0+	c #505050",
"a+	c #4C4C4C",
"b+	c #4A3728",
"c+	c #A68461",
"d+	c #3D2421",
"e+	c #4E372B",
"f+	c #3D2820",
"g+	c #2B1914",
"h+	c #2E1B17",
"i+	c #2F1C18",
"j+	c #2B1C19",
"k+	c #2E2729",
"l+	c #543D2F",
"m+	c #68472F",
"n+	c #503224",
"o+	c #573926",
"p+	c #744F34",
"q+	c #C2B6A5",
"r+	c #D4A681",
"s+	c #9A6D4E",
"t+	c #675147",
"u+	c #614E45",
"v+	c #695445",
"w+	c #4F3B2B",
"x+	c #39221A",
"y+	c #412A1E",
"z+	c #39251D",
"A+	c #311E19",
"B+	c #583624",
"C+	c #452A1E",
"D+	c #30221F",
"E+	c #2E252B",
"F+	c #281F27",
"G+	c #4A4A4A",
"H+	c #6A4B34",
"I+	c #91613A",
"J+	c #93623A",
"K+	c #523122",
"L+	c #875636",
"M+	c #644736",
"N+	c #C4BAAC",
"O+	c #A87E59",
"P+	c #D6D0C3",
"Q+	c #D6CFC4",
"R+	c #CFC9BE",
"S+	c #9E9382",
"T+	c #5A3725",
"U+	c #724C2C",
"V+	c #573823",
"W+	c #3C271E",
"X+	c #301D18",
"Y+	c #754D2F",
"Z+	c #845633",
"`+	c #643E29",
" @	c #42281F",
".@	c #311F21",
"+@	c #533C2D",
"@@	c #95633B",
"#@	c #916139",
"$@	c #835634",
"%@	c #3B1E18",
"&@	c #845738",
"*@	c #68564E",
"=@	c #BA956F",
"-@	c #926544",
";@	c #A69B91",
">@	c #CBC7BF",
",@	c #AEA699",
"'@	c #7F5232",
")@	c #764D2F",
"!@	c #4E2D1F",
"~@	c #492E21",
"{@	c #4A3021",
"]@	c #764E30",
"^@	c #8A5A33",
"/@	c #815231",
"(@	c #6B462C",
"_@	c #5C3B29",
":@	c #7F5736",
"<@	c #8E603B",
"[@	c #865A37",
"}@	c #62422B",
"|@	c #3E241A",
"1@	c #7E5232",
"2@	c #895D3A",
"3@	c #6B5240",
"4@	c #8A5B3C",
"5@	c #53443A",
"6@	c #9B988D",
"7@	c #C3BFB3",
"8@	c #7C4F32",
"9@	c #7F5131",
"0@	c #72472B",
"a@	c #6B402B",
"b@	c #492E22",
"c@	c #7A5232",
"d@	c #6E492D",
"e@	c #845630",
"f@	c #8B5D34",
"g@	c #845A35",
"h@	c #724C31",
"i@	c #7B5033",
"j@	c #966A3F",
"k@	c #8A5E3A",
"l@	c #784E31",
"m@	c #8B5C38",
"n@	c #795335",
"o@	c #966640",
"p@	c #855136",
"q@	c #847365",
"r@	c #C6C6BD",
"s@	c #8E5D39",
"t@	c #885635",
"u@	c #855232",
"v@	c #835233",
"w@	c #71472D",
"x@	c #593725",
"y@	c #7C5334",
"z@	c #754F30",
"A@	c #8B5C35",
"B@	c #865933",
"C@	c #7B5433",
"D@	c #8A5F39",
"E@	c #68442D",
"F@	c #97693F",
"G@	c #68452C",
"H@	c #90613A",
"I@	c #8B5C37",
"J@	c #6C4930",
"K@	c #B78350",
"L@	c #7B5237",
"M@	c #815F48",
"N@	c #8C5738",
"O@	c #925D3B",
"P@	c #8C5635",
"Q@	c #895233",
"R@	c #825132",
"S@	c #885739",
"T@	c #734930",
"U@	c #8E6139",
"V@	c #865934",
"W@	c #745130",
"X@	c #825833",
"Y@	c #906139",
"Z@	c #855537",
"`@	c #885B37",
" #	c #66452D",
".#	c #B97E4B",
"+#	c #94613E",
"@#	c #9B653E",
"##	c #8B5837",
"$#	c #945E3B",
"%#	c #915836",
"&#	c #965C39",
"*#	c #895334",
"=#	c #563324",
"-#	c #8C5838",
";#	c #7F5335",
">#	c #97663C",
",#	c #714D2E",
"'#	c #92643A",
")#	c #976A3F",
"!#	c #895A39",
"~#	c #8E5F3B",
"{#	c #462C1E",
"]#	c #8D5F3B",
"^#	c #5C3F28",
"/#	c #CB9154",
"(#	c #8C5835",
"_#	c #A2693F",
":#	c #8D5837",
"<#	c #98623D",
"[#	c #975E38",
"}#	c #945B37",
"|#	c #7A4C30",
"1#	c #6F452C",
"2#	c #845235",
"3#	c #915D3A",
"4#	c #92603C",
"5#	c #744B2D",
"6#	c #8E6039",
"7#	c #7E5734",
"8#	c #5E3F2A",
"9#	c #633F2A",
"0#	c #996A40",
"a#	c #734E30",
"b#	c #A16B41",
"c#	c #95643B",
"d#	c #583B26",
"e#	c #946139",
"f#	c #9B6139",
"g#	c #9D653B",
"h#	c #7C4B31",
"i#	c #955F3B",
"j#	c #A3693F",
"k#	c #8E5634",
"l#	c #613925",
"m#	c #98603B",
"n#	c #774930",
"o#	c #9C643C",
"p#	c #6B432D",
"q#	c #6D452B",
"r#	c #714C2E",
"s#	c #593926",
"t#	c #5B3A26",
"u#	c #7B5436",
"v#	c #996C40",
"w#	c #A16D43",
"x#	c #A26E43",
"y#	c #9B683F",
"z#	c #8A5D3B",
"A#	c #A86F41",
"B#	c #9F633C",
"C#	c #A1673D",
"D#	c #69422B",
"E#	c #643D2B",
"F#	c #825235",
"G#	c #905B37",
"H#	c #573224",
"I#	c #995F3B",
"J#	c #845335",
"K#	c #98623B",
"L#	c #4E2F22",
"M#	c #6C432B",
"N#	c #533123",
"O#	c #71462C",
"P#	c #905B38",
"Q#	c #815938",
"R#	c #8D633B",
"S#	c #895E3A",
"T#	c #A06A42",
"U#	c #98643C",
"V#	c #9C653E",
"W#	c #A56B3F",
"X#	c #A3683E",
"Y#	c #A1683D",
"Z#	c #825534",
"`#	c #4D2F24",
" $	c #563627",
".$	c #633E2A",
"+$	c #623928",
"@$	c #925C3A",
"#$	c #8A5637",
"$$	c #97613A",
"%$	c #573123",
"&$	c #543121",
"*$	c #78492D",
"=$	c #7F5032",
"-$	c #855535",
"                                                                                                                                ",
"                                                                                                                                ",
"                                    . + @ @ @ @ @ + # # $ @ . . . % . . . . & * * * @ * . =                                     ",
"                                    . - - - - - ; > , ' ) ! ~ ) ) ) ) = { { { { ' ' { = @ {                                     ",
"                                    ] = ^ ^ ^ ^ ^ ^ ^ ^ ^ ^ ^ ^ ^ ^ ^ ^ ^ ^ ^ ^ ^ ^ ^ ^ . =                                     ",
"                                    . = / / / / / / / / / / / / / / / / / / / / / / / / * {                                     ",
"                                    * { ( ( ( ( ( ( ( ( ( ( _ : < [ ( ( ( ( ( ( ( ( ( ( @ '                                     ",
"                                    @ ' } } } } } } } } | 1 2 3 4 5 6 7 } } } } } } } } * '                                     ",
"                                    ] = 8 8 8 8 8 8 8 9 0 a b c d e f g h 8 8 8 8 8 8 8 * {                                     ",
"                                    . = i i i i i i j k l m n o p q r s s i i i i i i i ] =                                     ",
"                                    * { t t t t t t u v w x y z A B C D E F t t t t t t . =                                     ",
"                                    @ ' G G G G G H I J K L M N O P Q R S S G G G G G G * {                                     ",
"                                    * ' T T T T T U V W X Y Z `  ...+.@.#.$.T T T T T T @ '                                     ",
"                                    * { %.%.%.%.%.&.*.=.-.;.>.,.'.).!.~.{.].%.%.%.%.%.%.* '                                     ",
"                                    * { ^.^.^.^.^./.(._.:.:.:.<.[.:.:.:.}.|.d ^.^.^.^.^.* {                                     ",
"                                    & { 1.1.1.1.1.2.3.}._.4.5.6.7.8.4.5.:.9.0.1.1.1.1.1.* {                                     ",
"                                    . { a.a.a.a.a.b.3.c.d.e.f.g.h.i.j.k.l.m.n.a.a.a.a.a.& {                                     ",
"                                    . = o.o.o.o.o.2.3.p.q.r.s.t.u.v.w.x.y.z.d o.o.o.o.o.. {                                     ",
"                                    . ) A.A.A.A.A.B.C.3.D.E.F.G.H.I.J.K.L.M.A.A.A.A.A.A.. =                                     ",
"                                    . ) N.N.N.N.N.N.O.3.P.Q.R.S.T.:.U.V.W.X.N.N.N.N.N.N.. )                                     ",
"                                    % ) Y.Y.Y.Y.Y.Y.Z.C.`. +.+++@+#+$+%+&+Y.Y.Y.Y.Y.Y.Y.. )                                     ",
"                                    . ) *+*+*+*+*+*+*+O.=+-+;+;+;+;+O.>+,+'+*+*+*+*+*+*+% )                                     ",
"                                    . ~ )+)+)+)+)+)+)+!+3.~+{+]+^+/+(+_+:+R %.)+)+)+)+)+. )                                     ",
"                                    . ! <+<+<+<+<+<+<+<+[+3.}+|+1+2+3+4+5+6+7+8+<+<+<+<+. ~                                     ",
"                                    @ ) 9+9+9+9+0+a+a+b+c+3.3.3.3.d+e+f+g+h+i+j+k+N.9+9+. !                                     ",
"                                    $ ' Z.Z.*+l+m+n+o+p+q+r+s+t+u+v+w+x+y+z+A+B+C+D+E+F+@ )                                     ",
"                                    # , G+H+I+J+K+o+L+M+N+O+P+Q+R+S+T+U+V+W+X+Y+Z+`+ @.@$ '                                     ",
"                                    # > +@@@#@$@%@o+&@*@=@-@;@>@,@T+'@)@!@~@{@]@^@/@(@_@# ,                                     ",
"                                    + ; :@<@[@}@|@1@2@3@4@5@6@7@T+8@9@0@a@b@c@d@e@f@g@h@# >                                     ",
"                                    @ - i@j@k@o+l@m@n@o@p@q@r@T+s@t@u@v@w@x@y@z@A@B@C@D@+ ;                                     ",
"                                    @ - E@F@o+G@H@I@J@K@L@M@T+N@O@P@Q@R@T+S@T@U@V@W@X@Y@@ -                                     ",
"                                    @ - Z@G@l@m@m@`@ #.#+#T+@###$#%#&#*#=#-#;#>#,#C@'#)#@ -                                     ",
"                                    @ - !#~#G@{#o+]#^#/#T+(#_#:#<#[#}#|#1#2#3#4#5#6#7#8#@ -                                     ",
"                                    @ - 9#0#a#o+b#c#d#T+e#f#g#h#i#j#k#l#m#n#o#p#q#r#s#t#@ -                                     ",
"                                    + - u#v#o+w#x#y#T+z#A#B#C#D#E#F#G#H#I#J#K#L#M#N#O#P#@ -                                     ",
"                                    # - Q#R#S#o+T#U#T+V#W#X#Y#Z#`# $.$+$@$#$$$%$&$*$=$-$+ -                                     ",
"                                    # @ @ @ @ @ @ + # # $ @ . . . % . . . . & * * * @ * @ -                                     ",
"                                    - { - - - - - ; > , ' ) ! ~ ) ) ) ) = { { { { ' ' { = =                                     ",
"                                                                                                                                ",
"                                                                                                                                ",
"                                                                                                                                ",
"                                                                                                                                ",
"                                                                                                                                ",
"                                                                                                                                ",
"                                                                                                                                ",
"                                                                                                                                ",
"                                                                                                                                ",
"                                                                                                                                ",
"                                                                                                                                ",
"                                                                                                                                ",
"                                                                                                                                ",
"                                                                                                                                ",
"                                                                                                                                ",
"                                                                                                                                ",
"                                                                                                                                ",
"                                                                                                                                ",
"                                                                                                                                ",
"                                                                                                                                ",
"                                                                                                                                ",
"                                                                                                                                ",
"                                                                                                                                ",
"                                                                                                                                ",
"                                                                                                                                ",
"                                                                                                                                "};
