/* XPM */
static char * wall_decor_swastika_gold_xpm[] = {
"64 64 180 2",
"  	c None",
". 	c #D48C00",
"+ 	c #FFDA8B",
"@ 	c #A26B00",
"# 	c #B87900",
"$ 	c #FFE1A1",
"% 	c #AE7300",
"& 	c #9E6800",
"* 	c #A06900",
"= 	c #BA7B00",
"- 	c #B27500",
"; 	c #090909",
"> 	c #9A6500",
", 	c #C48100",
"' 	c #BE7D00",
") 	c #131313",
"! 	c #1F1F1F",
"~ 	c #161616",
"{ 	c #966300",
"] 	c #CA8500",
"^ 	c #C68200",
"/ 	c #171717",
"( 	c #2D2D2D",
"_ 	c #2F2F2F",
": 	c #2A2A2A",
"< 	c #151515",
"[ 	c #CC8600",
"} 	c #111111",
"| 	c #222222",
"1 	c #3B3B3B",
"2 	c #363636",
"3 	c #272727",
"4 	c #1D1D1D",
"5 	c #B07400",
"6 	c #B67800",
"7 	c #724E00",
"8 	c #242424",
"9 	c #303030",
"0 	c #434343",
"a 	c #393939",
"b 	c #424242",
"c 	c #343434",
"d 	c #202020",
"e 	c #D28A00",
"f 	c #483100",
"g 	c #252525",
"h 	c #2B2B2B",
"i 	c #333333",
"j 	c #262626",
"k 	c #D88E00",
"l 	c #DE9200",
"m 	c #281D00",
"n 	c #C07E00",
"o 	c #0E0E0E",
"p 	c #2C2C2C",
"q 	c #323232",
"r 	c #3C3C3C",
"s 	c #E49600",
"t 	c #EC9B00",
"u 	c #1E1600",
"v 	c #0B0B0B",
"w 	c #141414",
"x 	c #1C1C1C",
"y 	c #3F3F3F",
"z 	c #404040",
"A 	c #373737",
"B 	c #292929",
"C 	c #F29F00",
"D 	c #F8A300",
"E 	c #A86F00",
"F 	c #0A0A0A",
"G 	c #121212",
"H 	c #1B1B1B",
"I 	c #3A3A3A",
"J 	c #FEA700",
"K 	c #FFAE11",
"L 	c #1E1E1E",
"M 	c #232323",
"N 	c #FFB527",
"O 	c #DA9000",
"P 	c #212121",
"Q 	c #FFB017",
"R 	c #FFB82F",
"S 	c #CE8800",
"T 	c #986800",
"U 	c #101010",
"V 	c #191919",
"W 	c #FFBE41",
"X 	c #AA7000",
"Y 	c #1A1A1A",
"Z 	c #FFC149",
"` 	c #D68D00",
" .	c #0C0C0C",
"..	c #885A00",
"+.	c #FFDA93",
"@.	c #FFB21D",
"#.	c #0F0F0F",
"$.	c #7E5600",
"%.	c #704A00",
"&.	c #FFAA07",
"*.	c #E89900",
"=.	c #6A4800",
"-.	c #603F00",
";.	c #C88400",
">.	c #282828",
",.	c #5E4000",
"'.	c #563B00",
").	c #583C00",
"!.	c #181818",
"~.	c #443000",
"{.	c #F09E00",
"].	c #E09400",
"^.	c #523800",
"/.	c #0D0D0D",
"(.	c #684700",
"_.	c #2E2E2E",
":.	c #543900",
"<.	c #422D00",
"[.	c #F6A200",
"}.	c #FAA500",
"|.	c #FFBB37",
"1.	c #926000",
"2.	c #DC9100",
"3.	c #3E3E3E",
"4.	c #444444",
"5.	c #313131",
"6.	c #383838",
"7.	c #5A3D00",
"8.	c #FFCA63",
"9.	c #FFD16D",
"0.	c #E29500",
"a.	c #644200",
"b.	c #6C4700",
"c.	c #FFD37D",
"d.	c #FFD075",
"e.	c #8C5C00",
"f.	c #3D3D3D",
"g.	c #414141",
"h.	c #805400",
"i.	c #FFC75B",
"j.	c #A66D00",
"k.	c #2A1E00",
"l.	c #C28000",
"m.	c #F4A100",
"n.	c #322200",
"o.	c #8A5B00",
"p.	c #D08900",
"q.	c #3E2A00",
"r.	c #905F00",
"s.	c #463100",
"t.	c #785200",
"u.	c #7C5200",
"v.	c #6E4800",
"w.	c #FFC451",
"x.	c #744F00",
"y.	c #454545",
"z.	c #353535",
"A.	c #5C3F00",
"B.	c #E69800",
"C.	c #484848",
"D.	c #8E5E00",
"E.	c #664600",
"F.	c #784F00",
"G.	c #825900",
"H.	c #402D00",
"I.	c #BC7C00",
"J.	c #765100",
"K.	c #382800",
"L.	c #201800",
"M.	c #7A5300",
"N.	c #624300",
"O.	c #302200",
"P.	c #B47700",
"Q.	c #845700",
"R.	c #805700",
"S.	c #744C00",
"T.	c #080808",
"U.	c #FFAC0B",
"V.	c #EE9D00",
"W.	c #EA9A00",
"                                                                                                                                ",
"                                                              .                                                                 ",
"                                                            + @ #                                                               ",
"                                                          $ % @ & *                                                             ",
"                                                        $ = - ; & > >                                                           ",
"                                                      $ , ' ) ! ~ & { >                                                         ",
"                                                    $ ] ^ / ( _ : < & & {                                                       ",
"                                                  $ [ [ } | 1 1 2 3 4 5 6 7                                                     ",
"                                                $ [ [ } 8 9 0 a b c d } ] e f                                                   ",
"                                              $ ] [ ~ g h c i c a 1 j k l m                                                     ",
"                                            $ n , o < j p q 1 r q i s t u                                                       ",
"                                          $ 6 ' v w x 9 y z A c B C D u                                                         ",
"                                        $ E % F G H p I h y q q J K u                                                           ",
"                                      $ > @ F } / L ! M | | j K N u                   O                                         ",
"                                    $ { > F } 4 L 3 P ! ! L Q R u                   $ S #                                       ",
"                                  $ T > F U V j j j x d 4 N W u                   $ e n X *                                     ",
"                                $ > & F G Y P 9 8 Y V / R Z u                   $ ` ^  .* ..>                                   ",
"                              +.X E F U P d B p 8 V / @.Z u                   $ l ] G < #.$.%.>                                 ",
"                            s = # #.< V ! L ( 8 L / &.Z u                   $ *.. #.~ 4 x U =.-.>                               ",
"                          > ;.^ o V | >.! 4 j d / J N m                   $ t l o / M g | Y ) ,.'.>                             ",
"                            ).e . Y h h 4 !.x / J N ~.                  $ {.].o < | g g g _ P U '.^.>                           ",
"                              ~.].s L 3 V L !.) /.W Z (.              $ t l /.~ M _._ : a A M 8 < :.^.>                         ",
"                                <.[.}.8 V !.< ) #.; |.W 1.          $ s 2.v < ! p 3.0 4.b q g 8 >./ :.:.>                       ",
"                                  <.|.Z j ! ~ < ) o ; Q &.@       $ k e v ) V 4 B 1 c 5.6.6.3 c p 9 } 7.7.>                     ",
"                O                   <.8.9.P ! V !.< U F t 0.,   $ ;.;.w | P | P g _.T B a A 6.b b q H U a.b.>                   ",
"              $ ^ #                   <.c.d.V ~ ~ < < } F S ^ s = 6 o 8 _ 8 d P 4 & { e.q f.g.c y I 8 !.U h.e.>                 ",
"            $ n [ k *                   <.d.i./ / ~ H V < } - X j.#.< 3 q | | x > { k.e...2 2 1 I q >.| H o j.= >               ",
"          $ - l.; l m.>                   <.Z K ~ x P >.! 4 o 1.v V 8 M 2 q g { 1.u   n.e.o.9 f.z g.c A B Y V p.l >             ",
"        $ % = o U U D |.>                   <.[.s / L 3 L 8 H V V 4 8 ( ( 3 o.o.u       q.r.1.a 9 9 c a A A ( / m.J >           ",
"      $ X 6 #.M d L G W i.>                   s.k ;.8 g | B P | !.V L d | t.u.u           <.& @ 3 : i b 0 b : 4 < @.|.{         ",
"    s % 6 } M ( _.5.P } 8.d.>                   -.= X L : g 8 3 !./ ~ V =.v.m               <.6 ' : _.4.r I >.8 | !.w.|.x.      ",
"  { % = o x c I B 2 6.x G 9.d.>                   & @ 1.H L : B < < < ,.-.~.                  <.e l x | j b f.>.A 3 ) Q D f     ",
"    '., [ d y.y ( z.2 g ! < 8.w.>               s % & } < / !.!.w < ) ) A.,.(.                  <.m.J x 8 f.b f.9 j @.[.m       ",
"      ~.2.B.f.1 C.4.a _.g P G R K >           d.= X #.~ ~ / / ~ < w ) U F 7.-.D.                  <.N Z P f.q 2 : N }.u         ",
"        <.m.}.1 I A q 0 z 9 P #.D C @       $ ' 6 U 4 Y Y / / ~ ~ < ) G #.v ,.E.>                   <.i.9.M I _ W K u           ",
"          <.@.R 5.4.y z.p 5.P V } ].O ,   $ l.= /.V : M ! Y ~ ,./ < < w / G /.=.F.>                   <.9.9.j W @.u             ",
"            <.|.|.5.C.I y B | 4 !./.S ] s n ' #./ M z.M V !.=.-.7.w w < ~ ! ~ U G.{ >                   H.w.W N u               ",
"              <.R J c 2 f.| | d 4 < o ' ' I./ < H L >.L / J.b.k.,.7.w w ~ / V w F j.' >                   K.@.L.                ",
"                <.{.s >.I 8 | | d 4 / o 6 w L L 4 : z.x ..M.u   n.N.-.w < < / < G #.S ].>                   O.                  ",
"                  <.. ;.>.B M P | ! 4 4 ! ! ! g : 2 4 D...u       q.=.b.w ~ !.!.H 4 #.{.&.>                                     ",
"                    <.= % P P | P M 8 : p j 9 6.a >.T D.u           s.h...~ ! ~ !.M Y } @.W >                                   ",
"                      <.> r.! M M | B h _ A ( A 5.> T u               -.@ P.Y V !.L / !.} |.Z {                                 ",
"                        <.Q.R.M M M >.z.6.p g.a { { u                   & ] . Y 4 V ~ < } ; Q J 7                               ",
"                          <.J.S.8 M 3 _.B 6.h o.D.u                   s ` ]./ j | 4 ! w G o T.t s f                             ",
"                            <.v.v.B M 8 h ( u.h.u                   d.0.t < Y H | P d < w U 0.O m                               ",
"                              <.E.a.! | | =.S.u                   $ {.}./.< V x d Y H < G 2.e u                                 ",
"                                <.,.,.4 N.E.u                   $ D U.G w 4 V Y x !.H w ` [ u                                   ",
"                                  H.7.7.,.u                   $ }.Q  .< x x Y V V / < O [ u                                     ",
"                                    K.'.L.                  $ J Q } ~ H L H Y V !.< l [ u                                       ",
"                                      O.                  $ }.Q  .< 4 4 x x Y V ~ s e u                                         ",
"                                                        $ D @. .w H d 4 4 H Y / V.2.u                                           ",
"                                                      $ m.Q /.< Y 4 ! L x H / m.s u                                             ",
"                                                    +.t J } V 4 L L L ! x !.D t u                                               ",
"                                                  s W.[.~ 4 g 8 | ! M L H D t u                                                 ",
"                                                > *.[./ B q 5.h >.8 ! L m.W.u                                                   ",
"                                                  ).J K z.c y a 3.3 4 V.s u                                                     ",
"                                                    ~.Q K 5.: A A d 0.l u                                                       ",
"                                                      <.}.C I 9 8 k e u                                                         ",
"                                                        <.s O 8 [ ^ u                                                           ",
"                                                          H.;.n 6 u                                                             ",
"                                                            K.% L.                                                              ",
"                                                              n.                                                                ",
"                                                                                                                                ",
"                                                                                                                                "};
