/* XPM */
static char * decor_sickle_communist_xpm[] = {
"64 64 469 2",
"  	c None",
". 	c #CF9D44",
"+ 	c #C6943B",
"@ 	c #AD7B22",
"# 	c #936108",
"$ 	c #4A2F00",
"% 	c #AC7A21",
"& 	c #DAA84F",
"* 	c #D3A148",
"= 	c #C39138",
"- 	c #AA781F",
"; 	c #D7A54C",
"> 	c #DFAD54",
", 	c #DDAB52",
"' 	c #CE9C43",
") 	c #A5731A",
"! 	c #784D00",
"~ 	c #704700",
"{ 	c #372300",
"] 	c #C5923A",
"^ 	c #A27017",
"/ 	c #B28027",
"( 	c #E4B259",
"_ 	c #EBB960",
": 	c #DCAA51",
"< 	c #CD9B42",
"[ 	c #855500",
"} 	c #835400",
"| 	c #EAB85F",
"1 	c #E8B65D",
"2 	c #D8A64D",
"3 	c #C7953C",
"4 	c #734900",
"5 	c #412900",
"6 	c #291A00",
"7 	c #CA983F",
"8 	c #B48229",
"9 	c #A16F16",
"0 	c #9F6C14",
"a 	c #B8862D",
"b 	c #E6B45B",
"c 	c #F3C168",
"d 	c #99670E",
"e 	c #895800",
"f 	c #805200",
"g 	c #7E5100",
"h 	c #E7B55C",
"i 	c #ECBA61",
"j 	c #D9A74E",
"k 	c #FFCE77",
"l 	c #6F4700",
"m 	c #332100",
"n 	c #261800",
"o 	c #C8963D",
"p 	c #F8C66D",
"q 	c #F9C66E",
"r 	c #D3A048",
"s 	c #A9771E",
"t 	c #B17F26",
"u 	c #A7741C",
"v 	c #905E05",
"w 	c #9F6D14",
"x 	c #D6A34B",
"y 	c #D6A44B",
"z 	c #B5832A",
"A 	c #8C5901",
"B 	c #7F5100",
"C 	c #8F5D04",
"D 	c #885700",
"E 	c #D19F46",
"F 	c #E1AF56",
"G 	c #E1AE56",
"H 	c #E2B057",
"I 	c #F2C067",
"J 	c #FFD180",
"K 	c #98660D",
"L 	c #352200",
"M 	c #2D1D00",
"N 	c #281A00",
"O 	c #CB9940",
"P 	c #F1BF66",
"Q 	c #C9973E",
"R 	c #9C6A11",
"S 	c #9B6910",
"T 	c #97650C",
"U 	c #845500",
"V 	c #B9872E",
"W 	c #A06D15",
"X 	c #BA872F",
"Y 	c #F0BE65",
"Z 	c #BF8D34",
"` 	c #915F06",
" .	c #865600",
"..	c #5E3C00",
"+.	c #E2AF57",
"@.	c #D5A34A",
"#.	c #EFBD64",
"$.	c #FFDDA0",
"%.	c #DBA950",
"&.	c #322000",
"*.	c #2B1B00",
"=.	c #1C1917",
"-.	c #B17E26",
";.	c #A06E15",
">.	c #8D5B02",
",.	c #C49239",
"'.	c #845400",
").	c #815200",
"!.	c #9A680F",
"~.	c #9E6C13",
"{.	c #FFD68E",
"].	c #C08E35",
"^.	c #6E4600",
"/.	c #472D00",
"(.	c #D5A24A",
"_.	c #FFCD74",
":.	c #FFD489",
"<.	c #3B2600",
"[.	c #2F1E00",
"}.	c #2A1B00",
"|.	c #2B1C00",
"1.	c #D2A047",
"2.	c #503300",
"3.	c #B38128",
"4.	c #865500",
"5.	c #8B5900",
"6.	c #654100",
"7.	c #F4C269",
"8.	c #875600",
"9.	c #815300",
"0.	c #A7751C",
"a.	c #F6C46B",
"b.	c #EFBC64",
"c.	c #A47219",
"d.	c #FFE2AF",
"e.	c #533500",
"f.	c #5A3A00",
"g.	c #603E00",
"h.	c #E5B35A",
"i.	c #F9C76E",
"j.	c #523500",
"k.	c #392500",
"l.	c #3C2600",
"m.	c #E9B75E",
"n.	c #CD9A42",
"o.	c #BD8B32",
"p.	c #3A2500",
"q.	c #6C4500",
"r.	c #794D00",
"s.	c #96640B",
"t.	c #CC9A41",
"u.	c #B6842B",
"v.	c #DFAC54",
"w.	c #A6741B",
"x.	c #9E6B13",
"y.	c #FECC73",
"z.	c #BE8C33",
"A.	c #704800",
"B.	c #513400",
"C.	c #4C3100",
"D.	c #403936",
"E.	c #BE8B33",
"F.	c #EEBC63",
"G.	c #FFCF7B",
"H.	c #BB8830",
"I.	c #B38028",
"J.	c #3C2700",
"K.	c #D09E45",
"L.	c #B07E25",
"M.	c #825300",
"N.	c #553600",
"O.	c #5A3900",
"P.	c #7D5000",
"Q.	c #895700",
"R.	c #C7943C",
"S.	c #D4A249",
"T.	c #B48129",
"U.	c #FFEED0",
"V.	c #573800",
"W.	c #E3B158",
"X.	c #FFCD75",
"Y.	c #FFE3B2",
"Z.	c #FFD996",
"`.	c #FFD386",
" +	c #FFD281",
".+	c #FECB73",
"++	c #FAC86F",
"@+	c #D9A64E",
"#+	c #714800",
"$+	c #382400",
"%+	c #774C00",
"&+	c #8A5800",
"*+	c #DEAC53",
"=+	c #6D4600",
"-+	c #A8761D",
";+	c #FFE4B3",
">+	c #FFF5E3",
",+	c #694300",
"'+	c #322C2A",
")+	c #FFD68F",
"!+	c #FFE2B0",
"~+	c #FFD283",
"{+	c #422A00",
"]+	c #241700",
"^+	c #12100F",
"/+	c #FFD282",
"(+	c #FBC970",
"_+	c #724900",
":+	c #8C5A01",
"<+	c #99660E",
"[+	c #674200",
"}+	c #5F3D00",
"|+	c #FFE0A8",
"1+	c #FFEAC6",
"2+	c #FFFAF2",
"3+	c #744A00",
"4+	c #523400",
"5+	c #FFD58A",
"6+	c #AD7A22",
"7+	c #FFE2AE",
"8+	c #F8C56D",
"9+	c #221600",
"0+	c #231600",
"a+	c #201400",
"b+	c #281900",
"c+	c #402900",
"d+	c #E3B058",
"e+	c #633F00",
"f+	c #5B3A00",
"g+	c #7B4F00",
"h+	c #F4C169",
"i+	c #FFECCA",
"j+	c #FFFDF8",
"k+	c #FFE0AA",
"l+	c #4A3000",
"m+	c #442B00",
"n+	c #432B00",
"o+	c #FFD385",
"p+	c #FFDA99",
"q+	c #3D2700",
"r+	c #5D3C00",
"s+	c #FFD487",
"t+	c #F6C36B",
"u+	c #F5C26A",
"v+	c #603D00",
"w+	c #563700",
"x+	c #FFF5E4",
"y+	c #FFE1AC",
"z+	c #FFD994",
"A+	c #6B4400",
"B+	c #412A00",
"C+	c #E0AD55",
"D+	c #684200",
"E+	c #664100",
"F+	c #9D6B12",
"G+	c #D09D45",
"H+	c #593900",
"I+	c #A47119",
"J+	c #FFE8BF",
"K+	c #BA882F",
"L+	c #FFE7BD",
"M+	c #FFDFA5",
"N+	c #482E00",
"O+	c #FFD17F",
"P+	c #C18F36",
"Q+	c #734A00",
"R+	c #A8751D",
"S+	c #FFD790",
"T+	c #4D3100",
"U+	c #BB8930",
"V+	c #C5933A",
"W+	c #FFCE76",
"X+	c #FFE3B3",
"Y+	c #8A5900",
"Z+	c #C9963E",
"`+	c #FFE1AD",
" @	c #FFE4B4",
".@	c #F5C36A",
"+@	c #97640C",
"@@	c #B5822A",
"#@	c #764B00",
"$@	c #B7852C",
"%@	c #FFD68D",
"&@	c #FFD893",
"*@	c #FFE6B9",
"=@	c #EDBB62",
"-@	c #FFDC9D",
";@	c #F1BE66",
">@	c #FFEBC7",
",@	c #C18E36",
"'@	c #FFF7EA",
")@	c #95630A",
"!@	c #AE7C23",
"~@	c #BC8A31",
"{@	c #754B00",
"]@	c #7A4E00",
"^@	c #B8852D",
"/@	c #FFE1AA",
"(@	c #4F3300",
"_@	c #C29037",
":@	c #FFE8C0",
"<@	c #FFD384",
"[@	c #FFE9C3",
"}@	c #F7C56C",
"|@	c #FFF3DD",
"1@	c #492F00",
"2@	c #3F2800",
"3@	c #684300",
"4@	c #311F00",
"5@	c #C49139",
"6@	c #EDBA62",
"7@	c #FFE9C1",
"8@	c #FFEAC4",
"9@	c #3E2700",
"0@	c #4B3000",
"a@	c #FFE8BE",
"b@	c #FFF8EC",
"c@	c #4F3200",
"d@	c #2E1D00",
"e@	c #A37118",
"f@	c #FFEDCD",
"g@	c #FFEFD2",
"h@	c #FFF2DA",
"i@	c #644000",
"j@	c #4C3000",
"k@	c #252120",
"l@	c #FFF1D9",
"m@	c #FFD995",
"n@	c #FFF1D7",
"o@	c #312000",
"p@	c #784C00",
"q@	c #C08D35",
"r@	c #95620A",
"s@	c #A16E16",
"t@	c #FFD07B",
"u@	c #FFF1D8",
"v@	c #FFF9EF",
"w@	c #392400",
"x@	c #FFDEA4",
"y@	c #926007",
"z@	c #231F1E",
"A@	c #FFE0A9",
"B@	c #342100",
"C@	c #362200",
"D@	c #CE9B43",
"E@	c #E0AE55",
"F@	c #FFFEFC",
"G@	c #BC8931",
"H@	c #AF7D24",
"I@	c #3E2800",
"J@	c #FFFCF8",
"K@	c #FFEFD4",
"L@	c #C28F37",
"M@	c #FCCA71",
"N@	c #D4A149",
"O@	c #FFF7E9",
"P@	c #FFF6E5",
"Q@	c #FFD17E",
"R@	c #A6731B",
"S@	c #1C1918",
"T@	c #FFF8EB",
"U@	c #FFE6BA",
"V@	c #946209",
"W@	c #E6B35B",
"X@	c #FFFBF5",
"Y@	c #9D6A12",
"Z@	c #CB9840",
"`@	c #D8A54D",
" #	c #2D2827",
".#	c #FFDDA1",
"+#	c #5C3B00",
"@#	c #CA973F",
"##	c #FFFAF0",
"$#	c #2E1E00",
"%#	c #8E5C03",
"&#	c #6A4400",
"*#	c #AB7920",
"=#	c #FFFEFD",
"-#	c #FFF2DC",
";#	c #764C00",
">#	c #1F1B19",
",#	c #F0BD65",
"'#	c #FFECCB",
")#	c #F2BF67",
"!#	c #794E00",
"~#	c #FFD58B",
"{#	c #DAA74F",
"]#	c #E4B159",
"^#	c #623E00",
"/#	c #C8953D",
"(#	c #FFDFA7",
"_#	c #FFCF7A",
":#	c #FFDB9C",
"<#	c #FFE6B8",
"[#	c #FFE6BB",
"}#	c #452C00",
"|#	c #EBB860",
"1#	c #FFE7BC",
"2#	c #FFD07C",
"3#	c #925F07",
"4#	c #7E5000",
"5#	c #DEAB53",
"6#	c #9B6810",
"7#	c #583800",
"8#	c #5D3B00",
"9#	c #FFDC9E",
"0#	c #FFEBC6",
"a#	c #FFF7E7",
"b#	c #FFEED1",
"c#	c #FFDDA2",
"d#	c #FFDB9B",
"e#	c #FFD58C",
"f#	c #8F5C04",
"g#	c #8D5A02",
"h#	c #CF9C44",
"i#	c #271900",
"j#	c #6B4500",
"k#	c #EAB75F",
"l#	c #ECB961",
"m#	c #282423",
"n#	c #915E06",
"o#	c #EEBB63",
"p#	c #543600",
"q#	c #362300",
"r#	c #9A670F",
"s#	c #462D00",
"t#	c #B07D25",
"u#	c #BF8C34",
"v#	c #B6832B",
"w#	c #7C4F00",
"x#	c #4E3200",
"y#	c #F3C068",
"z#	c #C6933B",
"A#	c #7B4E00",
"B#	c #FAC76F",
"C#	c #BD8A32",
"D#	c #301F00",
"E#	c #FFCC74",
"F#	c #FDCA72",
"G#	c #FDCB72",
"H#	c #E7B45C",
"I#	c #F7C46C",
"J#	c #FFE3B0",
"K#	c #FFF5E2",
"L#	c #FFD892",
"M#	c #B9862E",
"N#	c #FFF9F0",
"O#	c #FFFBF4",
"P#	c #FFDB9A",
"Q#	c #472E00",
"R#	c #E8B55D",
"S#	c #FFEFD3",
"T#	c #FFFAF1",
"U#	c #2C1C00",
"V#	c #96630B",
"W#	c #AF7C24",
"X#	c #835300",
"Y#	c #342D2A",
"Z#	c #613E00",
"`#	c #1B1100",
" $	c #6E4700",
".$	c #161312",
"+$	c #262221",
"@$	c #352D2A",
"#$	c #2E2927",
"$$	c #2E2926",
"%$	c #2D2825",
"&$	c #332C2B",
"*$	c #181514",
"                                                                                                                                ",
"                                                                                                                                ",
"                                                                                                                                ",
"                                                                                                                                ",
"                                                                                                                                ",
"                                                                                                                                ",
"                                                                                                                                ",
"                                                                                                                                ",
"                            . + @ # $                                                       % & * = -                           ",
"                        ; > , ' ) ! ~ {                             ] = ^                 / ( _ : < % [ }                       ",
"                      & | 1 2 3 ] 4 5 6                           7 2 & 8 9 0             a b b c < d e f g                     ",
"                  + > h i j i k l { m n                         o p q r s t u v #         w x y 2 1 z A B C w D                 ",
"                E > F G H I J K L M N                           O * , P Q a R S T U         V a W X Y Z ` K -  ...              ",
"              E F +.@.#.' $.%.&.N *.=.                          3 -.;.>.| 3 ,.- # D '.).      !.~.;.H {.w @.].^./.5             ",
"              H 1 (._.9 :.I <.[.}.|.                y : 1.7 O ,.2.3.4.5.6.].7.* ) 8.).9.B     ;.% 0.8 a.b.c.d.e.f.g.            ",
"            ; h h.#.b ^ i.j.;.k.&.l.              : m.b @.n.7 o.) p.U q.r.s.Z t.t.t B f f g   K u.a v.w.( x.y.z.A.B.C.D.        ",
"          E.F.| , G.@ H.I.G o J.6 |.            : m._ 2 I > K.L.M.N.M O.P.f Q.R.1.S.T.P.P.r.    @ ,.#.F.v t.> U.B.$ e.V.        ",
"          W.F.P ; X.8 . Y.Z.J.|.}.            : | i %.`. +.+++@+#+$+$+  %+f &+# y %.*+t 4 ~ =+  -+t t ;+$.t < >+,+l g B.'+      ",
"        @.h 1 Y Q )++ !+~+{+n ]+^+          : | i j /+(+P i @._+M M |.    } 5.:+) W.( h.<+[+}+  # !.K ` |+1+Q 2+f ; 3+4+J.      ",
"        *+b %.5+6+7+8+F {+9+0+a+          : | _ @+`.++P i @._+N b+N c+      } &+` ' Y #.d+e+f+6.  %+8.g+^.h+i+j+c.k+l+m+n+      ",
"        ; *+* o+6+p+O q+r+]+0+=.        ; 1 | ; s+q P i *+` p.k.k.n+          ` R ^ t+u+P @ v+w+    B 3+T u 1 x+0.y+A./.n+      ",
"        1.j *+z+T | A+< ^.c+B+        9 C+( 1./+++P i h j w.A+D+E+D+          !.F+;.G+_.y.p H+$ /.  :+I+Z J+= i K+L+# c+<.      ",
"      c.; ; ( M+>.-+5+7.N+{ {         c.@.. G.O+P i F P+K.2 K+r.! r.Q+          R+t o.S+/+_.:+T+2.  e U+V+W+X+Y+Z+`+d J.$+      ",
"      7 1 *+H  @K (+>+2.L L L         '.u.% S..@i : +@/.^ E t.@@P.r.#@_+        X Z $@%@&@p+@.N.C.    @@].$@*@=@P+-@# c+N.#+    ",
"      : W.;@1.>@,@'@$@p.M M           g.)@` D 8 E v }.{+3+!@+ t.~@g+#@{@]@P.    3.^@@@=@/@Y.|+(@m+n+  - 3.0 _@:@~@5+#+w >.A+    ",
"      ; & <@Z [@}@|@1@f.2@j.            :+M._+}+3@4@b+N+4 #@!@' (.5@g+P.} 9.    % Z ,@6@7@7@8@4+9@J.  $@. , o P #.7.f h _+0@    ",
"      ' . a@F+%.b@]@,.!.c@p.              ! =+2.p.d@6 N+#+{@r.3.%.*+O  .9.).5.  e@E E ++f@g@h@i@J.<.  o %.F F c..+V P+y.j@5 k@  ",
"      + V+l@8 K+m@0.n@e.J.&.                r.0@<.o@2@  {@p@g B q@( =@& P.&+r@s@o.2 ; t@u@>+v@i@l.w@  Z 1.' x@y@z 8 * m.n+p.z@  ",
"      a U+8@ @f % }@A@p.L 6                   N.B@C@      M. .8.g + F.c H A ` )@D@E@@.:@>+2+F@6.<.w@  !@= G@m.3 H@$@(+1.I@B@z@  ",
"      L.3..+J@W O K@L@<.|.0+                  K+P+8 K       e 5.Y+M.. M@k c D )@G+( N@O@2+F@P@e.p.$+  -+3.8 j Q@!.S.8+R@J.|.S@  ",
"      a o.; T@y ,.U@8.&.4@N+                @+h.W.* L.c.-+)@:+0.y@V@>.W@/+&@M@:+].*+i X@F@'@>@9@L B@  Y@3 Z@`@I w.; W.g [.M  #  ",
"      V q@z n@.#3 |+w+(@w++#              2 1 1 & @#@ !@% @ a @ V+H@K D #.x@Y.{.- * ##F@'@l@E@$#|.M   3.W.& o =@L..@z.{+[.|.    ",
"      / u.-.z.-@P (+{+s %#&#            ; b H @.I h.z c.*#u.z Z S.S.R.@ Y+(+[@g@>@X.=#'@-#J+;#M *.>#  . H m.,.t.> j q.c@M M     ",
"      K+V+(+$@Y m@w.- ++l c@            H H ,#c *+3 h.( ].- @ o.. @.E O Q *#*@>+2+=#'@-#'#)#4@N M     ; %.#.a 3 #.!.v+!#1@N.    ",
"      V+O ~#h.z.7.T {#y.C.n+c+      %.]#m.E@_ E@u.^#8 h.q M@H 7 V+= ,./#= ,.c X@F@'@-#'#(#+#6 d@5   n.*+j P *#= Z [ _@t l+c+    ",
"      z._@C+L+) 5.u.W.Y j@B+{++#  @+m._ > : 1 - Q+5 +#e@m..@_#:#/@<#[#8@|@O@X@F@'@-#'# @o }#C...2@9 C+W.S.F ~.K $@j @.! B+k.    ",
"      !@3.!@`.M@:+~@m.| B.N+q.d : h.|#`@F.1 H@[.b+$+f+i@l K.(+%@x@Y.7@g@>+2+F@'@-#'#1#y+2#3#!#4#&+R.*+b . > 5.u.5#h.6#5 &.M     ",
"      ~.R d @ M@1 -+@.b r+3#w.~@h.h 2 7.: 7 [+|.*.C@7#f++#8#5.H 9#d.0#|@2+F@a#b#1#c#:#d#e#y.K #+g o W.E@y & ~.< | L.r+*.N b+    ",
"        :+f#g#o.y 2 h#E@r.E 1.c.: j I %.%.V { |.i#    N.+#w+N.j.O.!#s h.S+Z.1.S j#2.v ~+2#M@k#i@v j y l#S.@.u ( $@A+b+i#N m#    ",
"        # y@n#f u.o#> < T : h.i@= 7 > + o.j.*.N }.      [+B.p#T+}#c+n+l+9@q#&.B@L /.A.9 a.m.t./.a `@i n.t.%.' L.[+k.$#N w@      ",
"        ,+%#y@,./ !@W.-+U+,.O r.L.r#) s.j@*.i#N               s#2@p.9@c+<.&.[.[.B@N.#@q.D t#B.T+%.: h F+V++ !.e+,+..$#[.6       ",
"          9.@ = a.~@)@o.u#x.v#t 9.w#[+}#[.N N                                     D =+D+f+f+w+H@@.m._@9.0.0.%+H@) f.4@B@        ",
"          {@) 3.H : *#) c.V . H e+D # f H+x#                                          w s O K.2 ; i S 6.z.< %.& 3+{ i#m         ",
"            +@F+5.V F.< % ,.. o.D 1.]. .Q+,+                                        t (.H , * S.t.Z w#a F =@E 9.L M a+          ",
"            } f f >.!@= *+y 0.3.W.Z y#F+5.{@Q+                                      @.]#+.2 y 9 j !@3 _ ( _@g+$#i#}.L           ",
"              B P.3+l d ]._@z#3 a.@ P+z+F+A#w#M.%#                              & ( 1 b & H %#= *+u.j K+!@H+b+i#N m             ",
"                3+=+#+5._+C @ 1 1 t.C B#2#w.! y@T !.a P+V o.U+Z C#~@U+. E < K.*+m.i F %._ e@;#Q - I+S } 5 2@b+i#[.              ",
"                  B %+p@P+@.K+!@9 R ' u..@_#Q R+e 0.7 O P+_@E 3 ,._@Q ; j * t.h.h 2 +.b 9 +#w.V+0.u.u.v &+D#6 <.                ",
"                  6.P.r#0.1 E#F#o+G#=@; 3 M@f@%@~./#t./#P+u#. o.U+$@o.y {#7 a ; ( _ P+% @@' h.H#b h 3 9.L |.I@                  ",
"                      !.V@]@%+_@y#I#O+-@J#~+z w.3 F Y.K#L#6+*+M+a.i ) @.i.*+: . G@9 V @.R.V+Z M#u.A 0@4@6 |.                    ",
"                      8.A.N.N.+#f+^#w#%#:+9 < h.T@N#b#R v+8.C+H+{ C.U+,.@@$@.@i : / F+K V@%#P.}+n+k.*.N }.                      ",
"                          x#7#f.3+V+& > k#e#O#=#a#P#~ - H L.Q#|.d@[.[ R#( *#9 Z Z & y z.V $@y@8.V.N 6 }.                        ",
"                            A+p#P.L.I S#K#T#F@(#B &#: A@>.q#q#i#U#N+v 5.3., ) T V#W#*#K+E V ]@}#D#|.5                           ",
"                              m+'.y@#@(@V.e+T+B@x#; y+X#4@M N 2@Y#H+M.'.#@*#< {@1@c@w+Z#f.<.4@M ]+`#                            ",
"                                {@ $2.}#J.<.$+L {@0.%#&.i#N 9@        #+#@} D+e.9@c+c+<.p.&.N N <.                              ",
"                                    1@5 $+{ L <. $N.C@N N .$            Q+e.{ M B@B@l.{ q#d@*.+$                                ",
"                                      @$#$$$%$&$=+}#&.}.*$                m+L }.B+                                              ",
"                                                                                                                                ",
"                                                                                                                                ",
"                                                                                                                                ",
"                                                                                                                                ",
"                                                                                                                                ",
"                                                                                                                                ",
"                                                                                                                                "};
