/* XPM */
static char * hitler_picture_transparent_xpm[] = {
"64 64 50 1",
" 	c None",
".	c #484848",
"+	c #383838",
"@	c #202020",
"#	c #989898",
"$	c #545454",
"%	c #7C7C7C",
"&	c #646464",
"*	c #8C8C8C",
"=	c #DC8854",
"-	c #C87C4C",
";	c #707070",
">	c #FC9C60",
",	c #FCB080",
"'	c #BC7848",
")	c #2C2C2C",
"!	c #FCB890",
"~	c #FCBC9C",
"{	c #D08050",
"]	c #FCC4A4",
"^	c #F0945C",
"/	c #A86840",
"(	c #FCA470",
"_	c #B47044",
":	c #9C6038",
"<	c #885830",
"[	c #80502C",
"}	c #382C14",
"|	c #905C34",
"1	c #5C4020",
"2	c #FCD4BC",
"3	c #E88C58",
"4	c #744C28",
"5	c #543C1C",
"6	c #A0643C",
"7	c #483818",
"8	c #DCDCDC",
"9	c #D40000",
"0	c #D0D0D0",
"a	c #7C0000",
"b	c #C0C0C0",
"c	c #A80000",
"d	c #980000",
"e	c #A40000",
"f	c #FC0000",
"g	c #880000",
"h	c #700000",
"i	c #640000",
"j	c #4C0000",
"k	c #6C4824",
"                                                                ",
"                                                                ",
"                                                                ",
"                                                                ",
"           ........++++++++++++++++++@@@@@@@@@@@@@@@            ",
"           .#######################################$            ",
"           .#######################################$            ",
"           .#######################################$            ",
"           .#############%&.......%*###############$            ",
"           .############$..@@@@@@@@@..%############&            ",
"           .###########$.@@++$+++++@@@.############&            ",
"           .##########=-;+++$$*%$+.$++@@###########&            ",
"           .##########>,,,;-';%*&)&;&+)@.##########&            ",
"           +#########=,!!~,;{'$$+).$..)@@&#########&            ",
"           +#########>,!!],;{++++)++++)@@.#########&            ",
"           +########>,,!],,,^++++)++++)@@)#########&            ",
"           +########-/'(],,,,_::<[+++)@@@)#########&            ",
"           +#########}}<'],,!(^////[+@@@))#########;            ",
"           +########!-.'(^,](^^=^^/|1@@@).#########;            ",
"           +#######!2,=(,,,(^^3>1/^11@@).;#########;            ",
"           +######]2](>=!,(^^3=({[(11@@);##########;            ",
"           +######3'''->=>>>3=={/^'11@).###########;            ",
"           +########@1(=(>>^3=->({411@);###########;            ",
"           +########1:,(^(^3-'/{<44411.############;            ",
"           +########!>>,(^^-//:'=||411;############;            ",
"           +########{(^,(>3-/::_(='<11#############;            ",
"           +########(!(=>=':|:_(((^'/44############;            ",
"           +########^(='/:||:_=((''|[44%*##########;            ",
"           +###########:<<<:_=(''|||[[544;*########;            ",
"           +#############_:__('||:|<45[[444;*######;            ",
"           +###########*{__{(||:::45[666||[<4;*####;            ",
"           @#########**{'{{_::__45[6_______::<4;###;            ",
"           @########*;{{'{-6__<5[6___________:<4%##;            ",
"           @#######*;4{6{{--_45:____/:[::_____:[4%#;            ",
"           @#######;[4{6{{-_446____/6[[::::<<<<<[4#;            ",
"           @######*[[4{[6{_44______6|4[::<:::<<<<4#;            ",
"           @######;||4:46456______/|[11_____::<[[1#;            ",
"           @######:||4[466|_______6[11__{___:_:447#;            ",
"           @#####*:||14<66_______//[1__{__{:|_:417#;            ",
"           @#####;:||4466''--____:[11_{__{_:|_<417#;            ",
"           @#####6:||4<6''--'''4:<11::___{:|6_<417#;            ",
"           @####*66|4466''-'''4:<<1#88:{{_6|__[17$#;            ",
"           @####;6|||466|477''4<11#))$89{4:|__417;#;            ",
"           @###*::||4<6_''7744<1#)8)088894|:__417%#;            ",
"           @###;///|466''-[/<<1a#$))))$bcdd|__471##;            ",
"           @###:://446_''-|/<<aef888)8)#cdgg|<471##;            ",
"           @###_/||4[6_'''/<1:dd9#))$8#%dggah4711##;            ",
"           @###_|/|6|6_'''<13'-[59#bb#%dggahi4711##;            ",
"           @##=-_|4_::<<<'3-63--[599cddggahiij114##;            ",
"           @##={-___:::::333663'__55ddggahiij1144##;            ",
"           @###={{==:::--33-3'33_::55ggahiij1114<##;            ",
"           @####==#==__'33''-333-::45gahiij111<<:##;            ",
"           @#########--_3'//::---:<k55hij11114<:_##;            ",
"           @#########^--'__//[[[[<444kij1144<|:_-##;            ",
"           @##########^-----'__/<<<<<<j144<|:_-->##;            ",
"           @############^=======--/:::4<<|:_-->>###;            ",
"           @###############^^^^^^^^^{{{{{-->>######;            ",
"           @################>>>#####3333333########;            ",
"           @#######################################;            ",
"           @$$$$$&&&&&&&;;;;;;;;;;;;;;;;;;;;;;;;;;;;            ",
"                                                                ",
"                                                                ",
"                                                                ",
"                                                                "};
