/* XPM */
static char * woman_1_standing_3_xpm[] = {
"64 64 145 2",
"  	c None",
". 	c #FFE41F",
"+ 	c #F5DA15",
"@ 	c #EBB20A",
"# 	c #F2C72E",
"$ 	c #F0D510",
"% 	c #FFDA15",
"& 	c #FBE01B",
"* 	c #000000",
"= 	c #F09D8A",
"- 	c #D48573",
"; 	c #EC9986",
"> 	c #FFD3C9",
", 	c #FFAF9D",
"' 	c #F1D611",
") 	c #C87A69",
"! 	c #D08170",
"~ 	c #FF0000",
"{ 	c #ED9A88",
"] 	c #FFB09E",
"^ 	c #FFCABE",
"/ 	c #B66B5B",
"( 	c #9F5949",
"_ 	c #D28371",
": 	c #BD7160",
"< 	c #E08F7D",
"[ 	c #AC6353",
"} 	c #E3917F",
"| 	c #EA9885",
"1 	c #DC8B79",
"2 	c #FFB2A1",
"3 	c #D38472",
"4 	c #FFB9A9",
"5 	c #D68674",
"6 	c #DA8A78",
"7 	c #F6A28F",
"8 	c #E49380",
"9 	c #FFC4B6",
"0 	c #FFC5B7",
"a 	c #CD7F6E",
"b 	c #F9A591",
"c 	c #FFBEAF",
"d 	c #FFBFB0",
"e 	c #FAA693",
"f 	c #BF7362",
"g 	c #BB705F",
"h 	c #E1907E",
"i 	c #CA7D6B",
"j 	c #FDA995",
"k 	c #FFDAD2",
"l 	c #C67A69",
"m 	c #CC7E6C",
"n 	c #703326",
"o 	c #F7A390",
"p 	c #E69481",
"q 	c #FFC6B9",
"r 	c #FFBAAA",
"s 	c #B46A5A",
"t 	c #A15A4A",
"u 	c #C47766",
"v 	c #BA6F5E",
"w 	c #A75F4F",
"x 	c #B96E5D",
"y 	c #AA6151",
"z 	c #DD8C7A",
"A 	c #CF806F",
"B 	c #AB6252",
"C 	c #934E40",
"D 	c #965142",
"E 	c #894638",
"F 	c #9D5747",
"G 	c #C97B6A",
"H 	c #C17463",
"I 	c #A25B4B",
"J 	c #904C3E",
"K 	c #864436",
"L 	c #9A5445",
"M 	c #8B483A",
"N 	c #955042",
"O 	c #B76C5C",
"P 	c #995344",
"Q 	c #914D3F",
"R 	c #AF6656",
"S 	c #944F41",
"T 	c #B26858",
"U 	c #DE8E7B",
"V 	c #C67968",
"W 	c #A55D4D",
"X 	c #E79583",
"Y 	c #A35C4C",
"Z 	c #EA9A88",
"` 	c #F39F8C",
" .	c #F4A18E",
"..	c #EF9E8B",
"+.	c #F7AB9A",
"@.	c #FFB4A3",
"#.	c #D78F7F",
"$.	c #FFAE9C",
"%.	c #ED9D8A",
"&.	c #B36959",
"*.	c #D98977",
"=.	c #F6A795",
"-.	c #FDB09E",
";.	c #FFAC9A",
">.	c #FFB6A5",
",.	c #FCA794",
"'.	c #F3B0A1",
").	c #D79688",
"!.	c #FFB3A2",
"~.	c #FFAA96",
"{.	c #FAAE9C",
"].	c #FCAE9C",
"^.	c #C57867",
"/.	c #F6A996",
"(.	c #FAAB99",
"_.	c #F1A391",
":.	c #F9A996",
"<.	c #FDB4A3",
"[.	c #F1A18F",
"}.	c #EF9D8A",
"|.	c #C27665",
"1.	c #FCB2A1",
"2.	c #EA9986",
"3.	c #EF9E8C",
"4.	c #7D3D2F",
"5.	c #7F3F31",
"6.	c #F7AE9D",
"7.	c #D78876",
"8.	c #E99684",
"9.	c #E39380",
"0.	c #A96050",
"a.	c #BE7261",
"b.	c #EF9C89",
"c.	c #854336",
"d.	c #FFAE9A",
"e.	c #FFCFC4",
"f.	c #FFCDC2",
"g.	c #E0917F",
"h.	c #FFC2B4",
"i.	c #FFB29F",
"j.	c #8F4B3D",
"k.	c #8C493B",
"l.	c #FFBDAE",
"m.	c #AE6554",
"n.	c #B06757",
"                                                                                                                                ",
"                                                                                                                                ",
"                                                                                                                                ",
"                                                                                                                                ",
"                                                                                                                                ",
"                                                                                                                                ",
"                                                                                                                                ",
"                                                                                                                                ",
"                                                                                                                                ",
"                                                              . . . .                                                           ",
"                                                            + . . . . @                                                         ",
"                                                          + + . . . . . @                                                       ",
"                                                          + @ . # . . . . @                                                     ",
"                                                        $ @ % @ . # . . . @                                                     ",
"                                                        & @ * * = . @ . . @                                                     ",
"                                                        & @ - ; > ; . @ . @                                                     ",
"                                                        $ @ - > , , , . . @                                                     ",
"                                                        ' @ ) ! ; , , @ . @                                                     ",
"                                                        @ . ) ~ ~ ~ { @ . @                                                     ",
"                                                          . @ ] ^ ] / @ @                                                       ",
"                                                          @ . ( - _ : @                                                         ",
"                                                            @ . < - [                                                           ",
"                                                          } ; | | 1 ! ; 2 3                                                     ",
"                                                      4 2 5 6 ; 7 8 ! ; ; 2 3                                                   ",
"                                                    9 0 ; a b c d e f ! ; ; g                                                   ",
"                                                  3 ] h i j k k > 2 l _ 6 m g                                                   ",
"                                                n 3 o : p e q q r h s t u _ v                                                   ",
"                                                  w x y h z n p = A B C m 6 u                                                   ",
"                                                    D E F G f H H I J D _ ; u                                                   ",
"                                                      K w J L D C M N   6 ; m                                                   ",
"                                                      K u H O w w P D   6 ; _                                                   ",
"                                                      Q = a 5 _ v R S   _ ; 6                                                   ",
"                                                      F = T U _ ! V W   _ X X                                                   ",
"                                                      Y o Q X = 8 6 6 m u Z X                                                   ",
"                                                    T T | 8 ` ,  .8 z  .6 ..X                                                   ",
"                                                    R 6 z 6 7 , ` 8 +.@.#.$.%.                                                  ",
"                                                    &.e *.A 8 8 | =.-.d #.;...                                                  ",
"                                                    7 >.8 I s m 6 ,.@.'.).!. .                                                  ",
"                                                    7 >.7 &.Y I p 7 @.#.` ~.2                                                   ",
"                                                    7 c 7 : I f | {.].#.= a ;.                                                  ",
"                                                    7 >.7 ) ( ^.p /.(.a a W {                                                   ",
"                                                    7 >.7 m L i | _.:.m &.2 }                                                   ",
"                                                    7 <.7 a L ! %.[.}.|.a = s                                                   ",
"                                                    7 1.7 _ I *.2.3.} T 4.5.                                                    ",
"                                                      6.7 7.R U 8.9.h 0.5.                                                      ",
"                                                      = = p / 1 X } U W 5.                                                      ",
"                                                      = = = a.6 b.| z F c.                                                      ",
"                                                        ,.,.a.8.d.7 5 L                                                         ",
"                                                        e.e.^.b.9 r G D                                                         ",
"                                                        f.e.g.9 9 h.^.                                                          ",
"                                                        m m a.h h i f J                                                         ",
"                                                        | - a.7 i.! a.j.                                                        ",
"                                                          | a.7 i.! a.k.                                                        ",
"                                                          ,.a.i.i.7.O N                                                         ",
"                                                          >.a.l., U &.                                                          ",
"                                                          c a.d , z m.                                                          ",
"                                                          f.a.d , A                                                             ",
"                                                          >.a.9 , i                                                             ",
"                                                          >.x , = u                                                             ",
"                                                          = x = i N                                                             ",
"                                                        j n.= = i N                                                             ",
"                                                      = f = = z i N                                                             ",
"                                                  ` 8 H >.] } } } v                                                             ",
"                                                  i >.>.= p } i i i                                                             "};
