/* XPM */
static char * woman_2_tied_ceiling_3_xpm[] = {
"64 64 145 2",
"  	c None",
". 	c #A63E00",
"+ 	c #E3917F",
"@ 	c #ED9A88",
"# 	c #FFAC9A",
"$ 	c #F09D8A",
"% 	c #B36959",
"& 	c #A25B4B",
"* 	c #FFB2A1",
"= 	c #F39F8C",
"- 	c #995344",
"; 	c #F4A18E",
"> 	c #FFAE9C",
", 	c #9F5949",
"' 	c #BE7261",
") 	c #EC9986",
"! 	c #FFAF9D",
"~ 	c #C87A69",
"{ 	c #B76C5C",
"] 	c #E79583",
"^ 	c #C97B6A",
"/ 	c #C27665",
"( 	c #B06757",
"_ 	c #EA9885",
": 	c #D08170",
"< 	c #CC7E6C",
"[ 	c #AE6554",
"} 	c #383838",
"| 	c #DA8A78",
"1 	c #D38472",
"2 	c #BF7362",
"3 	c #2F2F2F",
"4 	c #D28371",
"5 	c #F19E8B",
"6 	c #CD7F6E",
"7 	c #E49380",
"8 	c #D68674",
"9 	c #AC6353",
"0 	c #1A1A1A",
"a 	c #252525",
"b 	c #FFB09E",
"c 	c #B96E5D",
"d 	c #B66B5B",
"e 	c #2B2B2B",
"f 	c #323232",
"g 	c #CA7D6B",
"h 	c #FFAA96",
"i 	c #BD7160",
"j 	c #353535",
"k 	c #4040FF",
"l 	c #EF9C89",
"m 	c #FCA794",
"n 	c #F9A591",
"o 	c #AA6151",
"p 	c #D48573",
"q 	c #FFD3C9",
"r 	c #C67968",
"s 	c #2C2C2C",
"t 	c #BA6F5E",
"u 	c #CF806F",
"v 	c #FF0000",
"w 	c #AF6656",
"x 	c #FFCABE",
"y 	c #944F41",
"z 	c #BB705F",
"A 	c #8A4739",
"B 	c #E08F7D",
"C 	c #7A3B2E",
"D 	c #B46A5A",
"E 	c #C47766",
"F 	c #DC8B79",
"G 	c #9C5646",
"H 	c #804032",
"I 	c #FFB9A9",
"J 	c #F6A28F",
"K 	c #FFC4B6",
"L 	c #FFC5B7",
"M 	c #FFBEAF",
"N 	c #FFBFB0",
"O 	c #FAA693",
"P 	c #B26858",
"Q 	c #E1907E",
"R 	c #FDA995",
"S 	c #FFDAD2",
"T 	c #C67A69",
"U 	c #703326",
"V 	c #F7A390",
"W 	c #E69481",
"X 	c #FFC6B9",
"Y 	c #FFBAAA",
"Z 	c #A15A4A",
"` 	c #A75F4F",
" .	c #DD8C7A",
"..	c #AB6252",
"+.	c #934E40",
"@.	c #965142",
"#.	c #894638",
"$.	c #9D5747",
"%.	c #C17463",
"&.	c #904C3E",
"*.	c #9A5445",
"=.	c #8B483A",
"-.	c #955042",
";.	c #DE8E7B",
">.	c #A55D4D",
",.	c #914D3F",
"'.	c #F7AB9A",
").	c #FFB4A3",
"!.	c #D98977",
"~.	c #F6A795",
"{.	c #FDB09E",
"].	c #FFB6A5",
"^.	c #FFBBAB",
"/.	c #A35C4C",
"(.	c #C57867",
"_.	c #FAAE9C",
":.	c #FCAE9C",
"<.	c #A96050",
"[.	c #F6A996",
"}.	c #FAAB99",
"|.	c #834234",
"1.	c #F1A391",
"2.	c #F9A996",
"3.	c #FDB4A3",
"4.	c #ED9D8A",
"5.	c #F1A18F",
"6.	c #EF9D8A",
"7.	c #7F3F31",
"8.	c #FCB2A1",
"9.	c #EA9986",
"0.	c #EF9E8C",
"a.	c #F7AE9D",
"b.	c #D78876",
"c.	c #E99684",
"d.	c #E39380",
"e.	c #854336",
"f.	c #FFAE9A",
"g.	c #FFCFC4",
"h.	c #FFCDC2",
"i.	c #E0917F",
"j.	c #FFC2B4",
"k.	c #FFB29F",
"l.	c #8F4B3D",
"m.	c #8C493B",
"n.	c #FFBDAE",
"                                                                .                                                               ",
"                                                                .                                                               ",
"                                                          + @ # . $ % &                                                         ",
"                                                            $ * . = % - -                                                       ",
"                                                              ; . > ,                                                           ",
"                                                              . . .                                                             ",
"                                                              ' ) !                                                             ",
"                                                            ~ { ] ; *                                                           ",
"                                                          ^ / (   _ *                                                           ",
"                                                        : < [ } } | # *                                                         ",
"                                                      1 < 2 3 } } 4 5 *                                                         ",
"                                                      : / 3 3 } } 6 7 * *                                                       ",
"                                                    8 ^ 9 3 0 } a } : > b                                                       ",
"                                                    c d e 0 f 0 } a g h b                                                       ",
"                                                    9 i j 0 k k $ k k l m n                                                     ",
"                                                      o j 0 p ) q ) } 1 ) 7                                                     ",
"                                                      o e 0 p q ! ! ! r | :                                                     ",
"                                                        s 0 ~ : ) ! ! t u |                                                     ",
"                                                        0 } ~ v v v @ w u | 4                                                   ",
"                                                          } 0 b x b d y z ~ :                                                   ",
"                                                          0 } , p 4 i A t r :                                                   ",
"                                                            0 } B p 9 C D E                                                     ",
"                                                          + ) _ _ F G H D /                                                     ",
"                                                      I * 8 | ) J 7 d y g E                                                     ",
"                                                    K L ) 6 n M N O 2 & P                                                       ",
"                                                  1 b Q g R S S q * T o P                                                       ",
"                                                U 1 V i W O X X Y Q D Z                                                         ",
"                                                  ` c o Q  .U W $ u ..+.                                                        ",
"                                                    @.#.$.^ 2 %.%.& &.@.                                                        ",
"                                                        ` &.*.@.+.=.-.                                                          ",
"                                                        E %.{ ` ` - @.                                                          ",
"                                                        $ 6 8 4 t w y                                                           ",
"                                                        $ P ;.4 : r >.                                                          ",
"                                                        V ,.] $ 7 | | <                                                         ",
"                                                        _ 7 = ! ; 7  .; |                                                       ",
"                                                      |  .| J ! = 7 '.).J |                                                     ",
"                                                      O !.u 7 7 _ ~.{.N I _                                                     ",
"                                                    J ].7 & D < | m ).^.Y J :                                                   ",
"                                                    J ].J % /.& W J ).* # + (.                                                  ",
"                                                    J M J i & 2 _ _.:.* # + <.                                                  ",
"                                                    J ].J ~ , (.W [.}.O _ 2 |.                                                  ",
"                                                    J ].J < *.g _ 1.2.l ^ &.                                                    ",
"                                                    J 3.J 6 *.: 4.5.6.!.&.7.                                                    ",
"                                                    J 8.J 4 & !.9.0.+ i &.7.                                                    ",
"                                                      a.J b.w ;.c.d.Q [ 7.                                                      ",
"                                                      $ $ W d F ] + ;.>.7.                                                      ",
"                                                      $ $ $ ' | l _  .$.e.                                                      ",
"                                                        m m ' c.f.J 8 *.                                                        ",
"                                                        g.g.(.l K Y ^ @.                                                        ",
"                                                        h.g.i.K K j.(.                                                          ",
"                                                        < < ' Q Q g 2 &.                                                        ",
"                                                        _ p ' J k.: ' l.                                                        ",
"                                                          _ ' J k.: ' m.                                                        ",
"                                                          m ' k.k.b.{ -.                                                        ",
"                                                          ].' n.! ;.%                                                           ",
"                                                          M ' N !  .[                                                           ",
"                                                          h.' N ! u                                                             ",
"                                                          ].' K ! g                                                             ",
"                                                          ].c ! $ E                                                             ",
"                                                          $ c $ g -.                                                            ",
"                                                        R ( $  .g -.                                                            ",
"                                                      $ 2 b + + + t                                                             ",
"                                                  = 7 %.].$ + + + g                                                             ",
"                                                    ].].$ W g                                                                   "};
