/* XPM */
static char * woman_1_tied_ceiling_ropes_xpm[] = {
"64 64 162 2",
"  	c None",
". 	c #9D6152",
"+ 	c #723627",
"@ 	c #75392A",
"# 	c #280000",
"$ 	c #9C6051",
"% 	c #561A0B",
"& 	c #602415",
"* 	c #210000",
"= 	c #925647",
"- 	c #5C2011",
"; 	c #200000",
"> 	c #662A1B",
", 	c #6A2E1F",
"' 	c #340000",
") 	c #884C3D",
"! 	c #480C00",
"~ 	c #945849",
"{ 	c #160000",
"] 	c #FFE41F",
"^ 	c #F5DA15",
"/ 	c #EBB20A",
"( 	c #330000",
"_ 	c #915546",
": 	c #591D0E",
"< 	c #581C0D",
"[ 	c #F2C72E",
"} 	c #5C2014",
"| 	c #844839",
"1 	c #612516",
"2 	c #F0D510",
"3 	c #FFDA15",
"4 	c #804435",
"5 	c #541809",
"6 	c #FBE01B",
"7 	c #000000",
"8 	c #F09D8A",
"9 	c #551A1A",
"0 	c #490E0A",
"a 	c #763A2B",
"b 	c #D48573",
"c 	c #EC9986",
"d 	c #FFD3C9",
"e 	c #622617",
"f 	c #773B2C",
"g 	c #FFAF9D",
"h 	c #6E3223",
"i 	c #3C0000",
"j 	c #F1D611",
"k 	c #C87A69",
"l 	c #D08170",
"m 	c #65291A",
"n 	c #FF0000",
"o 	c #501405",
"p 	c #FFB09E",
"q 	c #B66B5B",
"r 	c #632718",
"s 	c #63271A",
"t 	c #9F5949",
"u 	c #D28371",
"v 	c #BD7160",
"w 	c #4E1203",
"x 	c #3E0200",
"y 	c #672B1C",
"z 	c #E08F7D",
"A 	c #6C3021",
"B 	c #FFB2A1",
"C 	c #D38472",
"D 	c #5C2015",
"E 	c #DA8A78",
"F 	c #F6A28F",
"G 	c #420600",
"H 	c #FFB9A9",
"I 	c #7A3E2F",
"J 	c #FFBFB0",
"K 	c #874B3C",
"L 	c #571B0C",
"M 	c #8D5142",
"N 	c #7D4132",
"O 	c #975B4C",
"P 	c #5F2314",
"Q 	c #3F0300",
"R 	c #FFC4B6",
"S 	c #FFC5B7",
"T 	c #CA7D6B",
"U 	c #FDA995",
"V 	c #FFDAD2",
"W 	c #AA6151",
"X 	c #CC7E6C",
"Y 	c #6B2F20",
"Z 	c #E69481",
"` 	c #FAA693",
" .	c #FFC6B9",
"..	c #FFBAAA",
"+.	c #894638",
"@.	c #8C5041",
"#.	c #EA9885",
"$.	c #4B0F00",
"%.	c #F7A390",
"&.	c #E1907E",
"*.	c #DD8C7A",
"=.	c #9A5445",
"-.	c #703326",
";.	c #A75F4F",
">.	c #B96E5D",
",.	c #9D5747",
"'.	c #C97B6A",
").	c #C17463",
"!.	c #934E40",
"~.	c #55190A",
"{.	c #440800",
"].	c #965142",
"^.	c #904C3E",
"/.	c #692D1E",
"(.	c #713526",
"_.	c #642819",
":.	c #C27665",
"<.	c #D78876",
"[.	c #4F1304",
"}.	c #914D3F",
"|.	c #E79583",
"1.	c #E99684",
"2.	c #D98977",
"3.	c #EFA695",
"4.	c #F19E8B",
"5.	c #E49380",
"6.	c #F39F8C",
"7.	c #5D2112",
"8.	c #FFB4A3",
"9.	c #CF806F",
"0.	c #F6A795",
"a.	c #FFBBAB",
"b.	c #FCA794",
"c.	c #B36959",
"d.	c #935748",
"e.	c #814536",
"f.	c #521607",
"g.	c #FFAC9A",
"h.	c #E3917F",
"i.	c #C57867",
"j.	c #905445",
"k.	c #460A00",
"l.	c #BF7362",
"m.	c #FAAE9C",
"n.	c #FCAE9C",
"o.	c #F6A996",
"p.	c #FAAB99",
"q.	c #A96050",
"r.	c #F1A391",
"s.	c #F9A996",
"t.	c #EF9C89",
"u.	c #DE8E7B",
"v.	c #703425",
"w.	c #CD7F6E",
"x.	c #834738",
"y.	c #7E4233",
"z.	c #824637",
"A.	c #EA9986",
"B.	c #EF9E8C",
"C.	c #E39380",
"D.	c #6D3122",
"E.	c #BE7261",
"                                                                . +                                                             ",
"                                                                @ #                                                             ",
"                                                                $ %                                                             ",
"                                                                & *                                                             ",
"                                                                = -                                                             ",
"                                                                % ;                                                             ",
"                                                                $ >                                                             ",
"                                                                , '                                                             ",
"                                                                ) !                                                             ",
"                                                            ~   % {   ,                                                         ",
"                                                ] ] ] ]       ~ = - &                                                           ",
"                                              ^ ] ] ] ] /       % (                                                             ",
"                                            ^ ^ ] ] ] ] ] /     _ : <                                                           ",
"                                            ^ / ] [ ] ] ] ] /   } |   1                                                         ",
"                                          2 / 3 / ] [ ] ] ] / 4 + 5                                                             ",
"                                          6 / 7 7 8 ] / ] ] / 9 0 a                                                             ",
"                                          6 / b c d c ] / ] / e f   |                                                           ",
"                                          2 / b d g g g ] ] / h i   5                                                           ",
"                                          j / k l c g g / ] /   m   a                                                           ",
"                                          / ] 7 n n 7 7 / ] /   i   o                                                           ",
"                                            ] / n n p q / / r   >     s                                                         ",
"                                            / ] t b u v v / w   x     (                                                         ",
"                                              / ] y c z A c B C 1     D                                                         ",
"                                                B m E > F c c B C     G                                                         ",
"                                              H B > I c J l c K L       >                                                       ",
"                                              M - N & O r 4 P c c E     Q                                                       ",
"                                            R S T U V V d @ W X c Y     -                                                       ",
"                                          C p T Z `  . ...z , +.@.#.E   $.                                                      ",
"                                          C %.v &.*.8 Z 8 T =.f W E E     :                                                     ",
"                                        -.;.>.W ,.'.-.).).!.r ).> I ~.    {.                                                    ",
"                                            ].+.+.^.=.].!./.1 Y +.X E     (.                                                    ",
"                                                    h _.y ).Z z :.+., *.<.[.                                                    ",
"                                                      ` X }.|.1.E - 2.3.4.E                                                     ",
"                                                        ` E 5.6.7.2.5.J 8.F E                                                   ",
"                                                        N 6.9.< 5.#.0.a.J H #.T T                                               ",
"                                                          < N N X E b.B a...F l Z <.<.T                                         ",
"                                                          F c.< e d.& e.f.g.h.i.8 <.T T T                                       ",
"                                                          j.Y k.l.#.m.n.B A h.v <.T                                             ",
"                                                          F k e.i.Z o.p.` #.& q.<.                                              ",
"                                                          F X =.T #.r.s.t.u.v.Y 4                                               ",
"                                                          F w.=.x.& y.k.u.'.q.T                                                 ",
"                                                          z.1 k.2.A.B.u.@ q.T T                                                 ",
"                                                          F <.Y u.1.C.u.q.D.h.                                                  ",
"                                                          F <.q |.h.C.'.'._.1                                                   ",
"                                                          B B E.|.h.C.'.'.T                                                     ",
"                                                            t.*.B B t.T T                                                       ",
"                                                                E.t.T T                                                         ",
"                                                                                                                                ",
"                                                                                                                                ",
"                                                                                                                                ",
"                                                                                                                                ",
"                                                                                                                                ",
"                                                                                                                                ",
"                                                                                                                                ",
"                                                                                                                                ",
"                                                                                                                                ",
"                                                                                                                                ",
"                                                                                                                                ",
"                                                                                                                                ",
"                                                                                                                                ",
"                                                                                                                                ",
"                                                                                                                                ",
"                                                                                                                                ",
"                                                                                                                                "};
